<svg width="304" height="264" xmlns="http://www.w3.org/2000/svg" enable-background="new 0 0 700 700" viewBox="0 0 700 700"><path fill="#e7ecff" d="M364.865 208.873c-19.722 14.155-46.273 11.603-70.546 11.93-24.618.333-49.57 4.41-71.593 15.417-22.022 11.008-40.925 29.486-49.166 52.686-10.155 28.59-2.846 61.656 15.002 86.192s45.113 41.1 74.02 50.318 59.552 11.595 89.89 11.97c28.782.355 58.153-1.149 85.096-11.278 39.993-15.036 72.119-49.583 84.214-90.562 12.095-40.98 3.877-87.434-21.542-121.777-15.338-20.72-36.729-36.738-60.635-46.27-15.966-6.365-46.71-18.222-54.278 4.88-4.714 14.387-7.243 27.006-20.462 36.494z" class="colore7ecff svgShape"/><linearGradient id="a" x1="255.577" x2="451.137" y1="266.276" y2="266.276" gradientUnits="userSpaceOnUse"><stop offset="0" stop-color="#78a7ff" class="stopColor78a7ff svgShape"/><stop offset="1" stop-color="#3d79f3" class="stopColor3d79f3 svgShape"/></linearGradient><path fill="url(#a)" d="M451.137 149.488v233.577c0 4.49-3.64 8.129-8.13 8.129h-179.3a8.129 8.129 0 0 1-8.13-8.13V149.489c0-4.49 3.64-8.129 8.13-8.129h179.3c4.49 0 8.13 3.64 8.13 8.129z"/><path fill="#ffffff" d="M263.96 373.825V158.727a8.986 8.986 0 0 1 8.986-8.986h160.822a8.986 8.986 0 0 1 8.986 8.986v215.098a8.986 8.986 0 0 1-8.986 8.986H272.946a8.986 8.986 0 0 1-8.986-8.986z" class="colorfff svgShape"/><linearGradient id="b" x1="297.055" x2="409.666" y1="186.389" y2="186.389" gradientUnits="userSpaceOnUse"><stop offset="0" stop-color="#e7ecff" class="stopColore7ecff svgShape"/><stop offset="1" stop-color="#c2d5ff" class="stopColorc2d5ff svgShape"/></linearGradient><path fill="url(#b)" d="M409.666 171.376v30.025a3.348 3.348 0 0 1-3.348 3.348H300.403a3.348 3.348 0 0 1-3.348-3.348v-30.025a3.348 3.348 0 0 1 3.348-3.347h105.915a3.348 3.348 0 0 1 3.348 3.347z"/><linearGradient id="c" x1="281.992" x2="306.763" y1="235.57" y2="235.57" gradientUnits="userSpaceOnUse"><stop offset="0" stop-color="#e7ecff" class="stopColore7ecff svgShape"/><stop offset="1" stop-color="#c2d5ff" class="stopColorc2d5ff svgShape"/></linearGradient><path fill="url(#c)" d="M306.763 226.468v18.203a3.284 3.284 0 0 1-3.284 3.284h-18.203a3.284 3.284 0 0 1-3.284-3.284v-18.203a3.284 3.284 0 0 1 3.284-3.284h18.203a3.284 3.284 0 0 1 3.284 3.284z"/><linearGradient id="d" x1="323.792" x2="424.729" y1="228.057" y2="228.057" gradientUnits="userSpaceOnUse"><stop offset="0" stop-color="#e7ecff" class="stopColore7ecff svgShape"/><stop offset="1" stop-color="#c2d5ff" class="stopColorc2d5ff svgShape"/></linearGradient><path fill="url(#d)" d="M323.792 226.263h70.557v3.588h-70.557z"/><linearGradient id="e" x1="323.792" x2="424.729" y1="235.57" y2="235.57" gradientUnits="userSpaceOnUse"><stop offset="0" stop-color="#e7ecff" class="stopColore7ecff svgShape"/><stop offset="1" stop-color="#c2d5ff" class="stopColorc2d5ff svgShape"/></linearGradient><path fill="url(#e)" d="M323.792 233.776h100.937v3.587H323.792z"/><linearGradient id="f" x1="323.792" x2="424.729" y1="243.082" y2="243.082" gradientUnits="userSpaceOnUse"><stop offset="0" stop-color="#e7ecff" class="stopColore7ecff svgShape"/><stop offset="1" stop-color="#c2d5ff" class="stopColorc2d5ff svgShape"/></linearGradient><path fill="url(#f)" d="M323.792 241.289h61.166v3.588h-61.166z"/><linearGradient id="g" x1="281.992" x2="306.763" y1="274.894" y2="274.894" gradientUnits="userSpaceOnUse"><stop offset="0" stop-color="#e7ecff" class="stopColore7ecff svgShape"/><stop offset="1" stop-color="#c2d5ff" class="stopColorc2d5ff svgShape"/></linearGradient><path fill="url(#g)" d="M306.763 265.793v18.203a3.284 3.284 0 0 1-3.284 3.284h-18.203a3.284 3.284 0 0 1-3.284-3.284v-18.203a3.284 3.284 0 0 1 3.284-3.284h18.203a3.284 3.284 0 0 1 3.284 3.284z"/><linearGradient id="h" x1="323.792" x2="424.729" y1="267.381" y2="267.381" gradientUnits="userSpaceOnUse"><stop offset="0" stop-color="#e7ecff" class="stopColore7ecff svgShape"/><stop offset="1" stop-color="#c2d5ff" class="stopColorc2d5ff svgShape"/></linearGradient><path fill="url(#h)" d="M323.792 265.588h70.557v3.588h-70.557z"/><linearGradient id="i" x1="323.792" x2="424.729" y1="274.894" y2="274.894" gradientUnits="userSpaceOnUse"><stop offset="0" stop-color="#e7ecff" class="stopColore7ecff svgShape"/><stop offset="1" stop-color="#c2d5ff" class="stopColorc2d5ff svgShape"/></linearGradient><path fill="url(#i)" d="M323.792 273.1h100.937v3.587H323.792z"/><linearGradient id="j" x1="323.792" x2="424.729" y1="282.407" y2="282.407" gradientUnits="userSpaceOnUse"><stop offset="0" stop-color="#e7ecff" class="stopColore7ecff svgShape"/><stop offset="1" stop-color="#c2d5ff" class="stopColorc2d5ff svgShape"/></linearGradient><path fill="url(#j)" d="M323.792 280.613h61.166v3.588h-61.166z"/><linearGradient id="k" x1="281.992" x2="306.763" y1="314.219" y2="314.219" gradientUnits="userSpaceOnUse"><stop offset="0" stop-color="#e7ecff" class="stopColore7ecff svgShape"/><stop offset="1" stop-color="#c2d5ff" class="stopColorc2d5ff svgShape"/></linearGradient><path fill="url(#k)" d="M306.763 305.117v18.203a3.284 3.284 0 0 1-3.284 3.284h-18.203a3.284 3.284 0 0 1-3.284-3.284v-18.203a3.284 3.284 0 0 1 3.284-3.284h18.203a3.284 3.284 0 0 1 3.284 3.284z"/><linearGradient id="l" x1="323.792" x2="424.729" y1="306.706" y2="306.706" gradientUnits="userSpaceOnUse"><stop offset="0" stop-color="#e7ecff" class="stopColore7ecff svgShape"/><stop offset="1" stop-color="#c2d5ff" class="stopColorc2d5ff svgShape"/></linearGradient><path fill="url(#l)" d="M323.792 304.912h70.557v3.588h-70.557z"/><linearGradient id="m" x1="323.792" x2="424.729" y1="314.219" y2="314.219" gradientUnits="userSpaceOnUse"><stop offset="0" stop-color="#e7ecff" class="stopColore7ecff svgShape"/><stop offset="1" stop-color="#c2d5ff" class="stopColorc2d5ff svgShape"/></linearGradient><path fill="url(#m)" d="M323.792 312.425h100.937v3.587H323.792z"/><linearGradient id="n" x1="323.792" x2="424.729" y1="321.732" y2="321.732" gradientUnits="userSpaceOnUse"><stop offset="0" stop-color="#e7ecff" class="stopColore7ecff svgShape"/><stop offset="1" stop-color="#c2d5ff" class="stopColorc2d5ff svgShape"/></linearGradient><path fill="url(#n)" d="M323.792 319.938h61.166v3.588h-61.166z"/><linearGradient id="o" x1="281.985" x2="355.917" y1="352.366" y2="352.366" gradientUnits="userSpaceOnUse"><stop offset="0" stop-color="#e7ecff" class="stopColore7ecff svgShape"/><stop offset="1" stop-color="#c2d5ff" class="stopColorc2d5ff svgShape"/></linearGradient><path fill="url(#o)" d="M355.917 342.433v19.865c0 1.23-.996 2.226-2.226 2.226h-69.48a2.226 2.226 0 0 1-2.226-2.226v-19.865c0-1.229.997-2.226 2.226-2.226h69.48c1.23 0 2.226.997 2.226 2.226z"/><path fill="#ffffff" d="M292.243 239.35c-.016 0-.032 0-.049-.002a1.002 1.002 0 0 1-.697-.333l-3.063-3.427a1 1 0 0 1 1.492-1.332l2.387 2.67 5.294-4.872a.997.997 0 0 1 1.413.059.998.998 0 0 1-.059 1.412l-6.041 5.56a.996.996 0 0 1-.677.264zM292.243 278.674h-.049a1.002 1.002 0 0 1-.697-.334l-3.063-3.427a1 1 0 0 1 1.492-1.332l2.387 2.67 5.294-4.871a.997.997 0 0 1 1.413.058.998.998 0 0 1-.059 1.412l-6.041 5.56a.996.996 0 0 1-.677.264zM292.243 317.999l-.049-.001a1.002 1.002 0 0 1-.697-.333l-3.063-3.428a1 1 0 0 1 1.492-1.332l2.387 2.67 5.294-4.871a.997.997 0 0 1 1.413.058.998.998 0 0 1-.059 1.412l-6.041 5.56a.996.996 0 0 1-.677.265z" class="colorfff svgShape"/><path fill="#fc6865" d="m416.118 353.375-11.065 11.066a.878.878 0 0 1-1.242 0l-11.065-11.066a7.815 7.815 0 0 1 0-11.051 7.812 7.812 0 0 1 11.686.717 7.817 7.817 0 0 1 11.542-.86l.144.143.142.143a7.817 7.817 0 0 1-.142 10.908z" class="colorfc6865 svgShape"/><ellipse cx="535.879" cy="553.699" fill="#e7ecff" rx="70.121" ry="4.942" class="colore7ecff svgShape"/><path fill="#fdccc5" d="m471.604 305.405-4.815.761s-1.393-.489-4.175-.17c-5.097.586-4.01 12.772 8.99 7.24v-7.831z" class="colorfdccc5 svgShape"/><linearGradient id="p" x1="467.362" x2="404.166" y1="313.656" y2="309.443" gradientUnits="userSpaceOnUse"><stop offset="0" stop-color="#e7ecff" class="stopColore7ecff svgShape"/><stop offset="1" stop-color="#c2d5ff" class="stopColorc2d5ff svgShape"/></linearGradient><path fill="url(#p)" d="M467.886 284.59v27.189a31.413 31.413 0 0 1-13.598 25.872l-14.916 10.273c-.305.214-.667.321-1.03.321-.361 0-.723-.107-1.028-.32l-14.916-10.274a31.39 31.39 0 0 1-13.599-25.872v-27.19c0-.51.214-.995.585-1.341.37-.338.84-.519 1.342-.478 15.187 1.095 23.534-4.625 26.423-7.128a1.824 1.824 0 0 1 2.388 0c2.88 2.51 11.211 8.215 26.407 7.128.51-.04.996.14 1.366.478.362.346.576.831.576 1.342z"/><linearGradient id="q" x1="6563.505" x2="6569.38" y1="197.915" y2="197.915" gradientTransform="matrix(-1 0 0 1 7098.967 0)" gradientUnits="userSpaceOnUse"><stop offset="0" stop-color="#771e24" class="stopColor771e24 svgShape"/><stop offset="1" stop-color="#47090e" class="stopColor47090e svgShape"/></linearGradient><path fill="url(#q)" d="M529.624 193.93c-.207 2.674.46 5.584 1.791 8.675l4.047-9.38-5.838.706z"/><linearGradient id="r" x1="6093.964" x2="6220.943" y1="-496.85" y2="-455.111" gradientTransform="scale(-1 1) rotate(13.441 -423.697 -28359.275)" gradientUnits="userSpaceOnUse"><stop offset="0" stop-color="#ffbb83" class="stopColorffbb83 svgShape"/><stop offset="1" stop-color="#ff9d45" class="stopColorff9d45 svgShape"/></linearGradient><path fill="url(#r)" d="M535.75 232.848s-9.582 4.174-12.373 8.806c-8.143 13.515-.18 48.473-12.095 58.817-6.404 5.56-39.365 3.028-39.365 3.028-.743-.013-.93 11.33-.186 11.341 0 0 41.126 8.3 54.086.14 15.962-10.051 23.735-45.957 19.76-64.396-1.075-4.983-9.827-17.736-9.827-17.736z"/><path fill="#fdccc5" d="m514.183 529.637-.025.141c.302 2.316-.928 7.174-2.116 11.963l13.975 2.613c-.08-5.598.303-10.73 1.51-15.034l-13.344.317z" class="colorfdccc5 svgShape"/><linearGradient id="s" x1="6200.681" x2="6246.421" y1="744.382" y2="744.382" gradientTransform="scale(-1 1) rotate(-2.391 -1925.663 161925.957)" gradientUnits="userSpaceOnUse"><stop offset="0" stop-color="#5c5ca0" class="stopColor5c5ca0 svgShape"/><stop offset="1" stop-color="#434389" class="stopColor434389 svgShape"/></linearGradient><path fill="url(#s)" d="M484.152 549.42v.01l-.001.03a3.858 3.858 0 0 0 2.165 3.855c2.83 1.373 8.311 3.244 15.673 2.123 11.006-1.693 21.149-.025 25.175.541 1.42.203 2.279-1.802 2.619-4.573.015-.122.03-.244.036-.366.462-4.47-.423-10.648-2.578-12.798a3.46 3.46 0 0 0-.423-.365 2.16 2.16 0 0 0-.569-.299c-2.976-1.042-9.033 6.213-12.442 2.092-.379-.444-.222-1.264.002-2.234.1-.434.211-.91.303-1.385.084-.463-.016-.953-.2-1.416-.473-1.19-2.007-1.531-2.995-.715-.786.65-1.9 1.536-3.418 2.671-.274.203-.54.447-.815.69-.19.156-.38.321-.58.486a23.363 23.363 0 0 1-2.1 1.637c-.294.212-.587.404-.87.596a26.791 26.791 0 0 1-3.173 1.704c-6.371 2.815-11.82 1.842-13.84 3.554-1.278 1.068-1.775 2.69-1.955 4.09-.011.02-.013.051-.014.071z"/><path fill="#070159" d="M486.31 553.317c2.832 1.366 8.319 3.237 15.675 2.118 11.01-1.693 21.15-.023 25.182.55 1.414.196 2.279-1.813 2.616-4.576.014-.122.027-.243.033-.371-6.42-3.113-16.476-3.037-24.513.21-8.798 3.55-18.558.987-21.126-1.828-.008-.006-.015-.005-.021.003-.006.007 0 .007 0 .007a3.846 3.846 0 0 0 2.154 3.888zM513.456 539.044c.043.93.453 1.855 1.194 2.426.524.4 1.19.601 1.85.659.67.059 1.338-.026 1.986-.152.822-.149 1.637-.36 2.423-.633a17.636 17.636 0 0 0 4.022-2.005c.62-.423 1.21-.878 1.771-1.375.032-.029.074-.058.116-.087a2.16 2.16 0 0 0-.569-.299c-2.976-1.042-9.033 6.213-12.442 2.092-.379-.444-.222-1.264.002-2.234-.285.478-.38 1.045-.353 1.608z" class="color070159 svgShape"/><linearGradient id="t" x1="6634.458" x2="6511.249" y1="400.571" y2="447.772" gradientTransform="matrix(-1 0 0 1 7098.967 0)" gradientUnits="userSpaceOnUse"><stop offset="0" stop-color="#78a7ff" class="stopColor78a7ff svgShape"/><stop offset="1" stop-color="#3d79f3" class="stopColor3d79f3 svgShape"/></linearGradient><path fill="url(#t)" d="M513.073 530.892c-.027 1.93 15.44 2.219 15.482.29 17.784-76.846 36.34-160.004 42.38-201.956l-48.17-.275-9.692 201.94z"/><path fill="#fdccc5" d="M575.997 529.566h13.243c-.498 4.28 1.48 9.305 2.322 14.787l-15.994-2.665c.502-4.835 1.03-9.73.429-12.122z" class="colorfdccc5 svgShape"/><linearGradient id="u" x1="6136.837" x2="6182.578" y1="741.717" y2="741.717" gradientTransform="scale(-1 1) rotate(-2.391 -1925.663 161925.957)" gradientUnits="userSpaceOnUse"><stop offset="0" stop-color="#5c5ca0" class="stopColor5c5ca0 svgShape"/><stop offset="1" stop-color="#434389" class="stopColor434389 svgShape"/></linearGradient><path fill="url(#u)" d="M548.051 549.42v.01l-.001.03a3.858 3.858 0 0 0 2.165 3.855c2.83 1.373 8.311 3.244 15.673 2.123 11.006-1.693 21.149-.025 25.175.541 1.42.203 2.279-1.802 2.619-4.573.015-.122.03-.244.036-.366.462-4.47-.423-10.648-2.578-12.798a3.464 3.464 0 0 0-.423-.365 2.16 2.16 0 0 0-.57-.299c-2.975-1.042-9.032 6.213-12.44 2.092-.38-.444-.223-1.264 0-2.234.1-.434.212-.91.304-1.385.084-.463-.016-.953-.2-1.416-.473-1.19-2.007-1.531-2.995-.715-.786.65-1.9 1.536-3.418 2.671-.274.203-.54.447-.815.69-.19.156-.38.321-.58.486a23.359 23.359 0 0 1-2.1 1.637c-.294.212-.588.404-.871.596a26.786 26.786 0 0 1-3.172 1.704c-6.372 2.815-11.82 1.842-13.84 3.554-1.278 1.068-1.775 2.69-1.955 4.09-.012.02-.013.051-.014.071z"/><path fill="#070159" d="M550.21 553.317c2.83 1.366 8.318 3.237 15.674 2.118 11.01-1.693 21.15-.023 25.182.55 1.414.196 2.279-1.813 2.616-4.576.014-.122.027-.243.033-.371-6.42-3.113-16.476-3.037-24.513.21-8.798 3.55-18.558.987-21.126-1.828-.008-.006-.015-.005-.021.003s0 .007 0 .007a3.846 3.846 0 0 0 2.154 3.888zM577.355 539.044c.043.93.453 1.855 1.194 2.426.524.4 1.19.601 1.85.659.67.059 1.338-.026 1.986-.152.822-.149 1.637-.36 2.423-.633a17.636 17.636 0 0 0 4.022-2.005c.62-.423 1.21-.878 1.771-1.375.032-.029.074-.058.116-.087a2.16 2.16 0 0 0-.57-.299c-2.975-1.042-9.032 6.213-12.44 2.092-.38-.444-.223-1.264 0-2.234-.284.478-.38 1.045-.352 1.608z" class="color070159 svgShape"/><linearGradient id="v" x1="6579.253" x2="6477.307" y1="374.851" y2="471.286" gradientTransform="matrix(-1 0 0 1 7098.967 0)" gradientUnits="userSpaceOnUse"><stop offset="0" stop-color="#78a7ff" class="stopColor78a7ff svgShape"/><stop offset="1" stop-color="#3d79f3" class="stopColor3d79f3 svgShape"/></linearGradient><path fill="url(#v)" d="M534.789 329.226c6.052 41.952 22.704 125.11 40.488 201.955.041 1.93 15.51 1.64 15.468-.29l-9.678-201.94-46.278.275z"/><linearGradient id="w" x1="78.835" x2="103.823" y1="360.175" y2="360.175" gradientTransform="translate(477.509)" gradientUnits="userSpaceOnUse"><stop offset="0" stop-color="#5c5ca0" class="stopColor5c5ca0 svgShape"/><stop offset="1" stop-color="#434389" class="stopColor434389 svgShape"/></linearGradient><path fill="url(#w)" d="M581.332 366.353h-24.988v-7.432a4.929 4.929 0 0 1 4.923-4.924h15.142a4.93 4.93 0 0 1 4.923 4.924v7.432zm-22.768-2.22h20.548v-5.212a2.706 2.706 0 0 0-2.703-2.704h-15.142a2.706 2.706 0 0 0-2.703 2.704v5.212z"/><linearGradient id="x" x1="-3191.45" x2="-3191.874" y1="356.419" y2="412.333" gradientTransform="matrix(-1 0 0 1 -2622.837 0)" gradientUnits="userSpaceOnUse"><stop offset="0" stop-color="#5c5ca0" class="stopColor5c5ca0 svgShape"/><stop offset="1" stop-color="#434389" class="stopColor434389 svgShape"/></linearGradient><path fill="url(#x)" d="M535.506 367.555v37.224a4.703 4.703 0 0 0 4.703 4.703h57.268a4.701 4.701 0 0 0 4.693-4.703v-37.224a4.701 4.701 0 0 0-4.693-4.704h-57.268a4.703 4.703 0 0 0-4.703 4.704z"/><linearGradient id="y" x1="-3188.715" x2="-3192.101" y1="422.614" y2="363.02" gradientTransform="matrix(-1 0 0 1 -2622.837 0)" gradientUnits="userSpaceOnUse"><stop offset="0" stop-color="#5c5ca0" class="stopColor5c5ca0 svgShape"/><stop offset="1" stop-color="#434389" class="stopColor434389 svgShape"/></linearGradient><path fill="url(#y)" d="M535.506 367.555v6.032l15.32 12.132a4.852 4.852 0 0 0 3.011 1.053h30.012a4.852 4.852 0 0 0 3.01-1.053l15.311-12.123v-6.041a4.701 4.701 0 0 0-4.693-4.704h-57.268a4.703 4.703 0 0 0-4.703 4.704z"/><linearGradient id="z" x1="-3192.87" x2="-3192.935" y1="382.706" y2="390.929" gradientTransform="matrix(-1 0 0 1 -2622.837 0)" gradientUnits="userSpaceOnUse"><stop offset="0" stop-color="#e7ecff" class="stopColore7ecff svgShape"/><stop offset="1" stop-color="#c2d5ff" class="stopColorc2d5ff svgShape"/></linearGradient><path fill="url(#z)" d="M566.341 384.344v2.87a3.715 3.715 0 0 0 7.43 0v-2.87c0-.896-.725-1.622-1.62-1.622h-4.189c-.895 0-1.62.726-1.62 1.622z"/><path fill="#fdccc5" d="m569.547 346.594 7.854 3.023c.006.099-.001.188.007.276 1.274 14.24-11.76 11.842-10.742 6.453.323-1.71 1.094-2.329 1.094-2.329l-4.124-.02c.39-2.89 4.354-7.217 5.666-7.243.185-.031.245-.16.245-.16z" class="colorfdccc5 svgShape"/><linearGradient id="A" x1="6547.088" x2="6551.032" y1="294.191" y2="374.386" gradientTransform="matrix(-1 0 0 1 7098.967 0)" gradientUnits="userSpaceOnUse"><stop offset="0" stop-color="#ffbb83" class="stopColorffbb83 svgShape"/><stop offset="1" stop-color="#ff9d45" class="stopColorff9d45 svgShape"/></linearGradient><path fill="url(#A)" d="M580.307 332.658c5.485-11.766-5.195-52.698-3.958-66.058s7.07-24.538 1.344-30.278c-7.807-7.827-34.833-7.91-44.325-2.245-4.134 2.467-8.121 12.256-9.097 16.97-4.085 19.722-4.544 57.607-2.055 80.538.878 8.092 54.403 8.986 58.091 1.073z"/><path fill="#ffffff" d="m556.836 273.378-6.346 8.713a1.02 1.02 0 0 1-1.649 0l-6.548-8.976a1.04 1.04 0 0 1-.2-.529c-.835-10.163 2.759-22.945 7.573-36.449.772 13.798 2.424 26.667 7.252 36.193.172.34.142.74-.082 1.048z" class="colorfff svgShape"/><linearGradient id="B" x1="6548.483" x2="6492.4" y1="249.614" y2="348.32" gradientTransform="matrix(-1 0 0 1 7098.967 0)" gradientUnits="userSpaceOnUse"><stop offset="0" stop-color="#ffbb83" class="stopColorffbb83 svgShape"/><stop offset="1" stop-color="#ff9d45" class="stopColorff9d45 svgShape"/></linearGradient><path fill="url(#B)" d="M572.964 233.299c3.659.874 9.088 7.054 10.96 10.323 6.324 11.036 16.717 32.657 15.396 44.495-1.83 16.385-21.365 61.741-21.365 61.741-.186.51-9.446-2.871-9.26-3.382 0 0 12.536-43.646 11.11-58.36-1.01-10.412-11.973-30.153-12.782-39.847-.345-4.147 1.894-15.937 5.941-14.97z"/><path fill="#fdccc5" d="M531.46 206.073c.428 14.92 4.928 16.1 11.328 16.1l-.005 8.892 6.493 7.507 9.231-8.324v-16.667c.794-2.068 3.284-4.563 3.284-7.508 0-11.568-6.797-20.955-15.16-20.955-8.385 0-15.86-3.33-15.172 20.955z" class="colorfdccc5 svgShape"/><path fill="#47090e" d="M533.341 205.038c0 .468.383.85.85.85s.85-.382.85-.85c0-.468-.382-.85-.85-.85s-.85.382-.85.85z" class="color47090e svgShape"/><linearGradient id="C" x1="3804.894" x2="3809.789" y1="201.425" y2="201.425" gradientTransform="matrix(-1 0 0 1 4342.01 0)" gradientUnits="userSpaceOnUse"><stop offset="0" stop-color="#771e24" class="stopColor771e24 svgShape"/><stop offset="1" stop-color="#47090e" class="stopColor47090e svgShape"/></linearGradient><path fill="url(#C)" d="M536.308 200.911c.21.058.423.129.585.256.162.127.265.323.208.503-.079.247-.405.367-.699.429-1.342.282-2.83.022-3.928-.688-.106-.069-.216-.15-.245-.261-.125-.471 1.487-.497 1.8-.507a7.62 7.62 0 0 1 2.279.268z"/><linearGradient id="D" x1="3797.128" x2="3802.023" y1="202.117" y2="202.117" gradientTransform="matrix(-1 0 0 1 4342.01 0)" gradientUnits="userSpaceOnUse"><stop offset="0" stop-color="#771e24" class="stopColor771e24 svgShape"/><stop offset="1" stop-color="#47090e" class="stopColor47090e svgShape"/></linearGradient><path fill="url(#D)" d="M544.073 201.603c.21.059.423.129.585.256.163.127.266.323.208.503-.078.247-.405.367-.698.429-1.342.283-2.83.022-3.928-.688-.107-.069-.216-.15-.246-.261-.124-.471 1.488-.497 1.801-.507a7.619 7.619 0 0 1 2.278.268z"/><path fill="#f7b4ad" d="M537.454 211.767c-.744 0-1.48-.09-1.829-.672-.418-.695.091-1.593.258-1.888 1.043-1.839 1.53-3.838 1.534-3.858a.553.553 0 0 1 1.075.257c-.02.088-.524 2.166-1.647 4.146-.333.589-.272.774-.272.775.134.16.998.136 1.365.125l.268-.007c.348-.013.558.238.564.542a.553.553 0 0 1-.542.564l-.26.006c-.168.005-.34.01-.514.01z" class="colorf7b4ad svgShape"/><path fill="#47090e" d="M540.819 205.038c0 .468.382.85.85.85.467 0 .85-.382.85-.85a.853.853 0 0 0-.85-.85.853.853 0 0 0-.85.85z" class="color47090e svgShape"/><path fill="#f7b4ad" d="M538.047 216.505c-1.143.055-2.414-.324-3.555-1.582a.552.552 0 1 1 .819-.742c2.25 2.478 4.844.445 4.953.357a.554.554 0 0 1 .693.863c-.622.5-1.694 1.047-2.91 1.104zM542.788 222.112s4.556-.236 8.026-2.494c0 0-1.896 4.309-8.026 5.113v-2.619z" class="colorf7b4ad svgShape"/><linearGradient id="E" x1="6573.666" x2="6530.125" y1="192.865" y2="192.865" gradientTransform="matrix(-1 0 0 1 7098.967 0)" gradientUnits="userSpaceOnUse"><stop offset="0" stop-color="#771e24" class="stopColor771e24 svgShape"/><stop offset="1" stop-color="#47090e" class="stopColor47090e svgShape"/></linearGradient><path fill="url(#E)" d="M552.709 197.816s-4.08 3.957.951 5.253c3.543.91 1.916 5.018 1.544 5.859.455-.883 2.937-5.473 5.983-4.605 3.378.965 1.13 7.307 1.13 7.307 1.655-1.296 14.321-30.142-.854-25.794 0 0 .57-9.061-12.136-11.405-12.705-2.343-14.74 8.52-14.74 8.52s-6.18-2.798-7.895-1.488c-2.821 2.156-1.447 13.397 5.007 15.098l21.01 1.255z"/><path fill="#fdccc5" d="M562.717 210.98c-1.644 3.037-4.56 4.376-6.503 2.99-1.951-1.392-2.191-4.982-.548-8.02 1.65-3.048 4.558-4.393 6.51-3 1.943 1.386 2.19 4.98.54 8.03z" class="colorfdccc5 svgShape"/><path fill="#ffffff" d="M558.553 230.215s2.924-.734 3.75.286c2.198 2.711-1.646 11.927-4.95 13.05-2.246.765-8.077-4.979-8.077-4.979l9.277-8.357z" class="colorfff svgShape"/><path fill="#ffffff" d="M542.667 230.592s-2.39-.617-3.286.343c-2.286 2.451-1.278 11.332 1.818 12.617 2.19.91 8.077-4.98 8.077-4.98l-6.61-7.98z" class="colorfff svgShape"/><path fill="#fdccc5" d="M471.604 304.279s-6.8-1.657-8.974.562c-.837.855-.622 4.078.352 4.77.575.41 1.49.051 1.965-.47.47-.515 0-1.6.547-1.946 1.229-.775 5.764 1.185 5.764 1.185" class="colorfdccc5 svgShape"/><path fill="#adc8f7" d="M507.958 176.39a.5.5 0 0 1-.5-.5v-5.902c0-5.553-4.517-10.07-10.07-10.07h-3.686a.5.5 0 1 1 0-1h3.687c6.103 0 11.069 4.966 11.069 11.07v5.902a.5.5 0 0 1-.5.5zM423.382 174.174a.5.5 0 0 1-.5-.5v-3.686c0-6.104 4.966-11.07 11.07-11.07h5.903a.5.5 0 1 1 0 1h-5.904c-5.553 0-10.07 4.517-10.07 10.07v3.686a.5.5 0 0 1-.5.5zM437.638 226.918h-3.687c-6.103 0-11.07-4.966-11.07-11.07v-5.903a.5.5 0 1 1 1 0v5.903c0 5.553 4.517 10.07 10.07 10.07h3.687a.5.5 0 1 1 0 1zM497.389 226.918h-5.903a.5.5 0 1 1 0-1h5.903c5.552 0 10.069-4.517 10.069-10.07v-3.686a.5.5 0 1 1 1 0v3.686c0 6.104-4.966 11.07-11.07 11.07z" class="coloradc8f7 svgShape"/><linearGradient id="F" x1="6631.021" x2="6626.989" y1="158.058" y2="233.063" gradientTransform="matrix(-1 0 0 1 7094.822 0)" gradientUnits="userSpaceOnUse"><stop offset="0" stop-color="#e7ecff" class="stopColore7ecff svgShape"/><stop offset="1" stop-color="#c2d5ff" class="stopColorc2d5ff svgShape"/></linearGradient><path fill="url(#F)" d="M426.634 169.984v45.624c0 4.03 3.268 7.298 7.313 7.298h39.074l13.286 13.293c.446.454 1.224.13 1.224-.503v-12.79h9.86a7.315 7.315 0 0 0 7.312-7.32v-45.602a7.313 7.313 0 0 0-7.312-7.312h-63.437c-4.038 0-7.32 3.267-7.32 7.312z"/><circle cx="465.67" cy="192.116" r="17.83" fill="#ffffff" transform="rotate(-9.217 465.67 192.116)" class="colorfff svgShape"/><path fill="#fdccc5" d="M265.707 243.941s-.859-12.604 2.534-13.185c2.523-.432 3.524 6.428 3.524 6.428s8.148-13.112 12.118-10.948c3.226 1.757-6.384 11.726-6.384 11.726s12.146 12.5-7.915 14.151l-3.877-8.172z" class="colorfdccc5 svgShape"/><ellipse cx="170.104" cy="549.393" fill="#e7ecff" rx="70.121" ry="4.942" class="colore7ecff svgShape"/><path fill="#fdccc5" d="M137.804 525.02v.14c-.683 2.188-.315 7.095.026 11.927l-13.957.165c1.022-5.4 1.52-10.428 1.08-14.794l12.85 2.561z" class="colorfdccc5 svgShape"/><linearGradient id="G" x1="-587.51" x2="-542.605" y1="451.167" y2="451.167" gradientTransform="rotate(7.52 -893.492 5875.373)" gradientUnits="userSpaceOnUse"><stop offset="0" stop-color="#ffbb83" class="stopColorffbb83 svgShape"/><stop offset="1" stop-color="#ff9d45" class="stopColorff9d45 svgShape"/></linearGradient><path fill="url(#G)" d="m163.503 549.225-.001.01-.004.03a3.788 3.788 0 0 1-2.745 3.361c-2.969.85-8.586 1.733-15.516-.594-10.358-3.497-20.448-3.598-24.437-3.73-1.408-.045-1.9-2.129-1.76-4.866.005-.12.011-.24.027-.36.308-4.4 2.208-10.225 4.655-11.941a3.4 3.4 0 0 1 .47-.281c.195-.096.395-.16.602-.193 3.054-.505 7.685 7.534 11.678 4.125.442-.365.429-1.185.376-2.16-.023-.438-.05-.916-.059-1.391-.003-.463.176-.92.432-1.336.66-1.072 2.2-1.142 3.018-.185a88.95 88.95 0 0 0 2.854 3.16c.23.243.446.523.67.806.158.182.315.374.481.568a22.93 22.93 0 0 0 1.753 1.937c.249.255.5.49.742.724a26.326 26.326 0 0 0 2.78 2.183c5.686 3.799 11.119 3.78 12.783 5.775 1.056 1.25 1.262 2.902 1.2 4.287a.17.17 0 0 1 .001.07z"/><path fill="#070159" d="M160.757 552.63c-2.968.842-8.59 1.724-15.515-.6-10.362-3.499-20.45-3.597-24.447-3.725-1.4-.048-1.897-2.137-1.756-4.866.007-.12.015-.24.03-.364 6.735-1.926 16.447-.153 23.671 4.344 7.909 4.92 17.78 4.09 20.74 1.802.008-.004.014-.002.02.006.004.009-.003.007-.003.007.005.008 0 .022-.001.028a3.776 3.776 0 0 1-2.739 3.368zM136.917 534.24c-.198.892-.751 1.717-1.565 2.144-.574.298-1.25.38-1.9.325-.658-.057-1.289-.25-1.894-.482a15.94 15.94 0 0 1-2.237-1.022 17.313 17.313 0 0 1-3.55-2.619 17.489 17.489 0 0 1-1.48-1.629 1.083 1.083 0 0 0-.098-.103c.194-.096.394-.16.6-.193 3.055-.505 7.686 7.534 11.679 4.125.442-.365.429-1.185.376-2.16.195.51.191 1.074.07 1.613z" class="color070159 svgShape"/><linearGradient id="H" x1="150.488" x2="293.007" y1="231.417" y2="278.264" gradientUnits="userSpaceOnUse"><stop offset="0" stop-color="#78a7ff" class="stopColor78a7ff svgShape"/><stop offset="1" stop-color="#3d79f3" class="stopColor3d79f3 svgShape"/></linearGradient><path fill="url(#H)" d="M167.018 230.529c15.572.958 33.593 26.368 48.387 27.58 13.038 1.068 49.345-17.417 49.345-17.417 1.06-.477 6.652 11.929 5.592 12.406 0 0-41.192 27.144-56.789 26.137-15.975-1.033-48.237-18.534-54.792-33.139-1.764-3.93 3.958-15.832 8.257-15.567z"/><path fill="#fdccc5" d="m187.971 522.127.025.139c-.297 2.273.91 7.042 2.078 11.744l-13.72 2.565c.078-5.496-.298-10.535-1.482-14.76l13.1.312z" class="colorfdccc5 svgShape"/><linearGradient id="I" x1="-189.948" x2="-145.043" y1="469.755" y2="469.755" gradientTransform="rotate(-2.391 1623.83 -8177.772)" gradientUnits="userSpaceOnUse"><stop offset="0" stop-color="#ffbb83" class="stopColorffbb83 svgShape"/><stop offset="1" stop-color="#ff9d45" class="stopColorff9d45 svgShape"/></linearGradient><path fill="url(#I)" d="M217.453 541.548v.01l.002.03a3.788 3.788 0 0 1-2.126 3.784c-2.778 1.348-8.16 3.185-15.386 2.084-10.806-1.661-20.762-.024-24.715.532-1.394.198-2.237-1.77-2.571-4.49a4.34 4.34 0 0 1-.035-.359c-.454-4.388.415-10.453 2.53-12.565.134-.135.27-.251.416-.357.174-.128.36-.226.558-.294 2.922-1.023 8.868 6.1 12.214 2.054.373-.436.219-1.241-.001-2.193-.098-.427-.208-.893-.297-1.36-.083-.455.014-.936.195-1.39.465-1.17 1.97-1.504 2.94-.702a88.942 88.942 0 0 0 3.356 2.622c.27.2.53.439.8.678.187.152.374.315.57.477a22.93 22.93 0 0 0 2.06 1.606c.29.208.578.397.856.586a26.312 26.312 0 0 0 3.115 1.672c6.255 2.764 11.603 1.81 13.586 3.489 1.255 1.05 1.743 2.641 1.92 4.016.011.02.012.05.013.07z"/><path fill="#070159" d="M215.334 545.374c-2.779 1.341-8.166 3.178-15.387 2.08-10.81-1.663-20.763-.023-24.723.538-1.387.193-2.236-1.779-2.567-4.491-.014-.12-.027-.239-.033-.364 6.303-3.056 16.175-2.982 24.065.206 8.637 3.485 18.22.97 20.74-1.795.008-.006.015-.005.02.003.007.008 0 .007 0 .007.006.007.004.021.003.028a3.776 3.776 0 0 1-2.118 3.788zM188.685 531.362c-.042.913-.445 1.82-1.172 2.382-.515.392-1.168.59-1.816.647-.659.057-1.313-.026-1.95-.15a15.943 15.943 0 0 1-2.379-.621 17.313 17.313 0 0 1-3.948-1.968 17.487 17.487 0 0 1-1.739-1.35c-.031-.029-.072-.057-.113-.085.174-.128.36-.226.558-.294 2.922-1.023 8.868 6.1 12.214 2.054.373-.436.219-1.241-.001-2.193.28.469.373 1.026.346 1.578z" class="color070159 svgShape"/><linearGradient id="J" x1="205.461" x2="51.146" y1="418.798" y2="439.397" gradientUnits="userSpaceOnUse"><stop offset="0" stop-color="#5c5ca0" class="stopColor5c5ca0 svgShape"/><stop offset="1" stop-color="#434389" class="stopColor434389 svgShape"/></linearGradient><path fill="url(#J)" d="m189.056 523.356-8.68-198.484-48.118.508c5.935 41.186 24.148 122.822 41.61 198.266.037 1.895 15.224 1.604 15.188-.29z"/><linearGradient id="K" x1="-194.458" x2="-226.984" y1="339.006" y2="470.195" gradientTransform="rotate(9.67 -81.013 2455.762)" gradientUnits="userSpaceOnUse"><stop offset="0" stop-color="#5c5ca0" class="stopColor5c5ca0 svgShape"/><stop offset="1" stop-color="#434389" class="stopColor434389 svgShape"/></linearGradient><path fill="url(#K)" d="m138.005 529.136 23.926-198.908-41.237-6.614c-6.31 36.939 7.596 108.42 2.29 203.258-.282 1.873 14.738 4.138 15.02 2.264z"/><linearGradient id="L" x1="149.715" x2="153.523" y1="290.046" y2="367.465" gradientUnits="userSpaceOnUse"><stop offset="0" stop-color="#78a7ff" class="stopColor78a7ff svgShape"/><stop offset="1" stop-color="#3d79f3" class="stopColor3d79f3 svgShape"/></linearGradient><path fill="url(#L)" d="M122.197 327.582c-12.322-3.255 6.964-50.567 5.75-63.683-1.215-13.116-6.941-24.089-1.32-29.725 7.665-7.684 34.196-7.765 43.515-2.203 4.058 2.422 7.973 12.032 8.93 16.66 4.011 19.361 4.46 56.553 2.018 79.065-.862 7.944-49.96 2.246-58.893-.114z"/><linearGradient id="M" x1="94" x2="212.049" y1="365.887" y2="365.887" gradientUnits="userSpaceOnUse"><stop offset="0" stop-color="#e7ecff" class="stopColore7ecff svgShape"/><stop offset="1" stop-color="#c2d5ff" class="stopColorc2d5ff svgShape"/></linearGradient><path fill="url(#M)" d="M212.049 365.876c0 32.611-26.435 59.025-59.025 59.025S94 398.487 94 365.876c0-32.59 26.435-59.003 59.024-59.003s59.025 26.414 59.025 59.003z"/><path fill="#c2d5ff" d="M196.25 365.88c0 23.881-19.359 43.225-43.226 43.225S109.8 389.76 109.8 365.879c0-23.866 19.359-43.21 43.225-43.21s43.226 19.344 43.226 43.21z" class="colorc2d5ff svgShape"/><path fill="#adc8f7" d="M190.943 345.126a43.01 43.01 0 0 0-30.8-12.915c-23.854 0-43.217 19.344-43.217 43.217a42.978 42.978 0 0 0 5.335 20.802c-7.696-7.792-12.455-18.519-12.455-30.359 0-23.854 19.344-43.198 43.217-43.198 16.35 0 30.589 9.078 37.92 22.453z" class="coloradc8f7 svgShape"/><path fill="#fdccc5" d="m147.74 303.006-4.611 8.677c.07.09.149.161.205.248 6.994 10.83 20.006 1.251 14.586-2.157-2.785-1.751-5.44-2.912-5.44-2.912l6.831.301s-4.038-5.32-11.233-4.203a7.367 7.367 0 0 1-.338.046z" class="colorfdccc5 svgShape"/><linearGradient id="N" x1="147.988" x2="112.095" y1="243.866" y2="307.038" gradientUnits="userSpaceOnUse"><stop offset="0" stop-color="#78a7ff" class="stopColor78a7ff svgShape"/><stop offset="1" stop-color="#3d79f3" class="stopColor3d79f3 svgShape"/></linearGradient><path fill="url(#N)" d="M130.59 231.513c-2.475-.454-10.04 5.084-12.81 7.533-9.072 8.016-22.518 31.917-18.926 43.77 4.1 13.53 43.933 31.115 43.933 31.115 1.743.814 7.276-11.025 5.533-11.84 0 0-28.532-13.545-30.307-23.1-1.744-9.39 18.295-23.572 19.089-33.088.34-4.071-2.495-13.652-6.512-14.39z"/><path fill="#fdccc5" d="M172.015 204.479c-.42 14.648-4.838 15.806-11.121 15.806l.005 8.728-3.757 9.917-11.68-10.718v-16.363c-.779-2.03-3.224-4.48-3.224-7.37 0-11.357 6.673-20.573 14.884-20.573 8.23 0 15.57-3.27 14.893 20.573z" class="colorfdccc5 svgShape"/><linearGradient id="O" x1="134.704" x2="176.146" y1="191.237" y2="191.237" gradientUnits="userSpaceOnUse"><stop offset="0" stop-color="#771e24" class="stopColor771e24 svgShape"/><stop offset="1" stop-color="#47090e" class="stopColor47090e svgShape"/></linearGradient><path fill="url(#O)" d="M141.1 208.374s-13.061-11.616-1.854-17.16c0 0-5.4-4.71-1.26-11.65 2.564-4.3 30.517-11.2 37.115 3.288 3.538 7.771-3.042 19.582-3.042 19.582-.018-2.622.274-5.311-.85-6.824 0 0-11.45 2.994-16.58-5.141s-10.833 4.601-6.942 13.503l-6.587 4.402z"/><path fill="#f7b4ad" d="M165.694 210.025c-.168 0-.337-.005-.5-.01l-.256-.006a.5.5 0 0 1 .01-1h.01l.263.007c.348.01 1.268.035 1.377-.144.025-.042.03-.279-.267-.802-1.1-1.94-1.593-3.974-1.613-4.06a.5.5 0 1 1 .972-.232c.005.02.483 1.987 1.51 3.798.161.285.653 1.15.254 1.811-.33.552-1.04.638-1.76.638z" class="colorf7b4ad svgShape"/><path fill="#47090e" d="M162.622 203.128a.63.63 0 0 1-.63.63.63.63 0 0 1-.628-.63.63.63 0 0 1 .629-.629.63.63 0 0 1 .629.63zM170.203 203.128a.63.63 0 0 1-.63.63.63.63 0 0 1-.628-.63.63.63 0 0 1 .629-.629.63.63 0 0 1 .629.63z" class="color47090e svgShape"/><path fill="#f7b4ad" d="M160.894 220.224s-4.473-.232-7.879-2.448c0 0 1.861 4.23 7.879 5.02v-2.572z" class="colorf7b4ad svgShape"/><path fill="#fdccc5" d="M141.33 209.295c1.613 2.982 4.475 4.297 6.384 2.936 1.915-1.366 2.15-4.89.537-7.873-1.619-2.993-4.475-4.312-6.39-2.946-1.908 1.361-2.15 4.89-.532 7.883z" class="colorfdccc5 svgShape"/><path fill="#ffffff" d="M145.457 228.217c-1.89.096-3.113.266-5.255.565l7.555 14.503a2.505 2.505 0 0 0 3.928.677l5.41-5.032-11.638-10.713zM160.92 228.97c2.135.354 3.868.798 5.883 1.488l-1.292 9.676c-.245 1.836-2.328 2.78-3.87 1.755l-4.474-2.975 3.754-9.944z" class="colorfff svgShape"/><linearGradient id="P" x1="411.188" x2="417.032" y1="241.931" y2="241.931" gradientTransform="rotate(-7.032 -51.577 2281.03)" gradientUnits="userSpaceOnUse"><stop offset="0" stop-color="#771e24" class="stopColor771e24 svgShape"/><stop offset="1" stop-color="#47090e" class="stopColor47090e svgShape"/></linearGradient><path fill="url(#P)" d="M162.499 200.58c1.582-.056 1.424-.905 1.207-1.201-.556-.76-1.666-.552-2.03-.493-.846.138-1.7.378-2.386.894-.537.404-.961 1.004-1.074 1.674-.016.095-.045.476.045.42 1.134-.692 1.774-1.209 4.238-1.295z"/><linearGradient id="Q" x1="-626.612" x2="-621.253" y1="271.124" y2="271.124" gradientTransform="scale(-1 1) rotate(10.161 4.078 2793.582)" gradientUnits="userSpaceOnUse"><stop offset="0" stop-color="#771e24" class="stopColor771e24 svgShape"/><stop offset="1" stop-color="#47090e" class="stopColor47090e svgShape"/></linearGradient><path fill="url(#Q)" d="M167.83 200.598c-1.402.38-1.493-.406-1.383-.725.28-.816 1.31-.935 1.643-.981.78-.11 1.593-.13 2.334.135.58.209 1.114.62 1.394 1.176.04.078.169.404.075.38-1.182-.3-1.882-.578-4.064.015z"/><linearGradient id="R" x1="159.095" x2="166.282" y1="213.364" y2="213.364" gradientUnits="userSpaceOnUse"><stop offset="0" stop-color="#771e24" class="stopColor771e24 svgShape"/><stop offset="1" stop-color="#47090e" class="stopColor47090e svgShape"/></linearGradient><path fill="url(#R)" d="M166.282 212.306s-.055 2.978-3.073 2.856c-3.6-.135-4.114-3.6-4.114-3.6s5.21 2.097 7.187.744z"/><linearGradient id="S" x1="404.695" x2="406.385" y1="529.455" y2="553.729" gradientUnits="userSpaceOnUse"><stop offset="0" stop-color="#e7ecff" class="stopColore7ecff svgShape"/><stop offset="1" stop-color="#c2d5ff" class="stopColorc2d5ff svgShape"/></linearGradient><path fill="url(#S)" d="M449.542 534.978v13.228a2.7 2.7 0 0 1-2.7 2.7h-82.603a2.7 2.7 0 0 1-2.7-2.7v-13.228a2.7 2.7 0 0 1 2.7-2.7h82.602a2.7 2.7 0 0 1 2.7 2.7z"/><path fill="#adc8f7" d="M370.025 532.282h2.698v18.622h-2.698zM383.683 532.282h2.709v18.622h-2.709zM397.352 532.282h2.709v18.622h-2.709zM411.021 532.282h2.709v18.622h-2.709zM424.69 532.282h2.698v18.622h-2.698zM438.359 532.282h2.698v18.622h-2.698z" class="coloradc8f7 svgShape"/><linearGradient id="T" x1="393.381" x2="395.071" y1="510.831" y2="535.106" gradientUnits="userSpaceOnUse"><stop offset="0" stop-color="#e7ecff" class="stopColore7ecff svgShape"/><stop offset="1" stop-color="#c2d5ff" class="stopColorc2d5ff svgShape"/></linearGradient><path fill="url(#T)" d="M438.228 516.355v13.227a2.7 2.7 0 0 1-2.7 2.7h-82.603a2.7 2.7 0 0 1-2.7-2.7v-13.227a2.7 2.7 0 0 1 2.7-2.7h82.602a2.7 2.7 0 0 1 2.7 2.7z"/><path fill="#adc8f7" d="M358.711 513.659h2.698v18.622h-2.698zM372.369 513.659h2.709v18.622h-2.709zM386.038 513.659h2.709v18.622h-2.709zM399.707 513.659h2.709v18.622h-2.709zM413.376 513.659h2.698v18.622h-2.698zM427.045 513.659h2.698v18.622h-2.698z" class="coloradc8f7 svgShape"/><linearGradient id="U" x1="303.909" x2="305.599" y1="529.455" y2="553.729" gradientUnits="userSpaceOnUse"><stop offset="0" stop-color="#e7ecff" class="stopColore7ecff svgShape"/><stop offset="1" stop-color="#c2d5ff" class="stopColorc2d5ff svgShape"/></linearGradient><path fill="url(#U)" d="M348.756 534.978v13.228a2.7 2.7 0 0 1-2.7 2.7h-82.603a2.7 2.7 0 0 1-2.7-2.7v-13.228a2.7 2.7 0 0 1 2.7-2.7h82.602a2.7 2.7 0 0 1 2.7 2.7z"/><path fill="#adc8f7" d="M269.239 532.282h2.698v18.622h-2.698zM282.897 532.282h2.709v18.622h-2.709zM296.566 532.282h2.709v18.622h-2.709zM310.235 532.282h2.709v18.622h-2.709zM323.904 532.282h2.698v18.622h-2.698zM337.573 532.282h2.698v18.622h-2.698z" class="coloradc8f7 svgShape"/><linearGradient id="V" x1="292.595" x2="294.285" y1="510.831" y2="535.106" gradientUnits="userSpaceOnUse"><stop offset="0" stop-color="#e7ecff" class="stopColore7ecff svgShape"/><stop offset="1" stop-color="#c2d5ff" class="stopColorc2d5ff svgShape"/></linearGradient><path fill="url(#V)" d="M337.442 516.355v13.227a2.7 2.7 0 0 1-2.7 2.7h-82.603a2.7 2.7 0 0 1-2.7-2.7v-13.227a2.7 2.7 0 0 1 2.7-2.7h82.602a2.7 2.7 0 0 1 2.7 2.7z"/><path fill="#adc8f7" d="M257.925 513.659h2.698v18.622h-2.698zM271.583 513.659h2.709v18.622h-2.709zM285.252 513.659h2.709v18.622h-2.709zM298.921 513.659h2.709v18.622h-2.709zM312.59 513.659h2.698v18.622h-2.698zM326.259 513.659h2.698v18.622h-2.698z" class="coloradc8f7 svgShape"/><linearGradient id="W" x1="302.554" x2="304.244" y1="492.207" y2="516.482" gradientUnits="userSpaceOnUse"><stop offset="0" stop-color="#e7ecff" class="stopColore7ecff svgShape"/><stop offset="1" stop-color="#c2d5ff" class="stopColorc2d5ff svgShape"/></linearGradient><path fill="url(#W)" d="M347.401 497.731v13.227a2.7 2.7 0 0 1-2.7 2.7h-82.603a2.7 2.7 0 0 1-2.7-2.7v-13.227a2.7 2.7 0 0 1 2.7-2.7h82.603a2.7 2.7 0 0 1 2.7 2.7z"/><path fill="#adc8f7" d="M267.884 495.035h2.698v18.622h-2.698zM281.542 495.035h2.709v18.622h-2.709zM295.211 495.035h2.709v18.622h-2.709zM308.88 495.035h2.709v18.622h-2.709zM322.549 495.035h2.698v18.622h-2.698zM336.219 495.035h2.698v18.622h-2.698z" class="coloradc8f7 svgShape"/><path fill="#ffffff" d="M452.271 305.902c0 6.993-5.667 12.67-12.67 12.67-6.993 0-12.66-5.677-12.66-12.67 0-6.994 5.667-12.67 12.66-12.67 7.003 0 12.67 5.676 12.67 12.67z" class="colorfff svgShape"/><linearGradient id="X" x1="432.494" x2="446.718" y1="305.902" y2="305.902" gradientUnits="userSpaceOnUse"><stop offset="0" stop-color="#ff8888" class="stopColorf88 svgShape"/><stop offset="1" stop-color="#f24e4e" class="stopColorf24e4e svgShape"/></linearGradient><path fill="url(#X)" d="m442.894 305.81 3.368 1.944c.285.165.383.53.218.815l-1.025 1.776a.596.596 0 0 1-.815.218l-3.457-1.997v4.177c0 .329-.267.596-.596.596h-2.051a.596.596 0 0 1-.596-.596v-4.07l-3.368 1.943a.596.596 0 0 1-.814-.219l-1.026-1.776a.596.596 0 0 1 .218-.815l3.458-1.995-3.616-2.09a.596.596 0 0 1-.218-.814l1.026-1.775a.596.596 0 0 1 .814-.218l3.526 2.036v-3.89c0-.329.267-.596.596-.596h2.05c.33 0 .597.267.597.597v3.992l3.615-2.087a.596.596 0 0 1 .815.219l1.025 1.776a.596.596 0 0 1-.218.815l-3.526 2.035z"/><linearGradient id="Y" x1="-5928.625" x2="-5888.072" y1="158.98" y2="182.096" gradientTransform="translate(6117.78)" gradientUnits="userSpaceOnUse"><stop offset="0" stop-color="#e7ecff" class="stopColore7ecff svgShape"/><stop offset="1" stop-color="#c2d5ff" class="stopColorc2d5ff svgShape"/></linearGradient><path fill="url(#Y)" d="M234.773 167.022c0 12.882-10.448 23.338-23.339 23.338-2.668 0-5.236-.449-7.621-1.28l-7.705 5.153a.374.374 0 0 1-.582-.332l.507-9.359c-4.862-4.272-7.929-10.539-7.929-17.52 0-12.9 10.448-23.339 23.33-23.339 12.891 0 23.339 10.44 23.339 23.339z"/><linearGradient id="Z" x1="6352.634" x2="6386.368" y1="166.684" y2="166.684" gradientTransform="matrix(-1 0 0 1 6580.94 0)" gradientUnits="userSpaceOnUse"><stop offset="0" stop-color="#a7c161" class="stopColora7c161 svgShape"/><stop offset="1" stop-color="#8ba53a" class="stopColor8ba53a svgShape"/></linearGradient><path fill="url(#Z)" d="M194.572 166.68c0 9.32 7.55 16.87 16.87 16.87 9.313 0 16.863-7.55 16.863-16.87 0-9.312-7.55-16.863-16.862-16.863-9.32 0-16.871 7.55-16.871 16.862z"/><path fill="#ffffff" d="M209.05 170.92a1.998 1.998 0 0 1-1.694-.938l-2.243-3.577a2 2 0 1 1 3.389-2.125l1.158 1.847 5.102-3.353a2.001 2.001 0 0 1 2.197 3.344l-6.81 4.474c-.329.216-.71.329-1.098.329z" class="colorfff svgShape"/><path fill="#dee7ff" d="M456.697 190.99c-.826-.792-1.314-1.864-1.467-3.216s.084-2.506.713-3.463 1.612-1.51 2.946-1.662c1.334-.15 2.414.171 3.24.963.826.793 1.316 1.865 1.469 3.217s-.086 2.506-.715 3.463c-.63.958-1.61 1.511-2.944 1.662s-2.416-.17-3.242-.963zm4.698-1.754c.353-.6.482-1.335.384-2.202-.097-.865-.386-1.553-.865-2.06-.478-.508-1.092-.72-1.836-.635s-1.293.427-1.646 1.028c-.354.602-.48 1.336-.383 2.202s.385 1.553.863 2.06 1.092.72 1.836.635 1.295-.426 1.647-1.028zm-1.004 12.077a.815.815 0 0 1-.328-.582.812.812 0 0 1 .08-.456l8.666-18.114c.142-.297.369-.463.68-.498.261-.03.48.015.66.135.181.12.285.302.312.544.021.192-.018.39-.117.593l-8.602 18.001c-.07.149-.17.274-.299.376s-.271.162-.427.18a.849.849 0 0 1-.625-.179zm7.959-1.768c-.827-.792-1.317-1.865-1.47-3.216-.151-1.352.087-2.506.716-3.463s1.61-1.512 2.945-1.662c1.334-.15 2.414.17 3.24.963s1.317 1.865 1.469 3.216-.086 2.506-.715 3.463c-.627.957-1.61 1.511-2.943 1.662-1.336.15-2.414-.17-3.242-.963zm4.699-1.754c.353-.602.48-1.335.383-2.202-.098-.867-.387-1.553-.866-2.061s-1.09-.719-1.836-.635-1.292.427-1.646 1.029-.48 1.335-.383 2.2c.098.868.387 1.554.865 2.062.477.507 1.088.719 1.834.635s1.295-.428 1.649-1.028z" class="colordee7ff svgShape"/><path fill="#ffffff" d="M163.664 375.892c-.892 1.347-2.16 2.418-3.805 3.216-1.642.799-3.545 1.26-5.703 1.386v3.333c0 .407-.134.744-.4 1.01s-.617.399-1.057.399c-.406 0-.744-.126-1.01-.376-.265-.251-.398-.595-.398-1.033v-3.333c-3.38-.22-6.543-.955-9.484-2.207-.375-.156-.69-.415-.94-.775s-.375-.744-.375-1.15c0-.532.18-.994.54-1.386.359-.39.822-.587 1.384-.587.313 0 .611.064.893.188a21.893 21.893 0 0 0 7.982 1.879v-10.8c-2.129-.564-3.92-1.174-5.377-1.831a9.742 9.742 0 0 1-3.639-2.794c-.97-1.204-1.455-2.73-1.455-4.578 0-1.627.399-3.13 1.198-4.507s1.988-2.52 3.568-3.428 3.482-1.456 5.705-1.643v-3.287c0-.407.133-.751.398-1.033.266-.282.604-.423 1.01-.423s.752.141 1.033.423c.282.282.424.626.424 1.033v3.24c3.067.125 5.79.641 8.17 1.55.875.312 1.315.938 1.315 1.878 0 .5-.174.955-.518 1.36-.344.408-.797.611-1.361.611-.188 0-.44-.062-.752-.187-2.13-.752-4.412-1.174-6.854-1.268v11.175c2.254.532 4.123 1.111 5.61 1.737a9.485 9.485 0 0 1 3.734 2.793c1 1.238 1.502 2.873 1.502 4.907 0 1.66-.445 3.163-1.338 4.508zm-16.998-16.575c1.049.752 2.59 1.394 4.625 1.926v-10.33c-1.879.25-3.38.821-4.508 1.714-1.127.891-1.69 2.058-1.69 3.498 0 1.378.524 2.441 1.573 3.192zm14.11 11.785c0-1.22-.555-2.167-1.667-2.84s-2.763-1.306-4.953-1.902v10.096c4.412-.313 6.62-2.097 6.62-5.354z" class="colorfff svgShape"/></svg>