<?xml version="1.0" encoding="UTF-8" standalone="no"?>
<svg
   enable-background="new 0 0 600 600"
   viewBox="18.399 72.083 563.202 455.835"
   version="1.1"
   id="svg216"
   sodipodi:docname="presentation01.svg"
   inkscape:version="1.2.2 (732a01da63, 2022-12-09)"
   xmlns:inkscape="http://www.inkscape.org/namespaces/inkscape"
   xmlns:sodipodi="http://sodipodi.sourceforge.net/DTD/sodipodi-0.dtd"
   xmlns="http://www.w3.org/2000/svg"
   xmlns:svg="http://www.w3.org/2000/svg"
    width="304" height="264">
  <defs
     id="defs220" />
  <sodipodi:namedview
     id="namedview218"
     pagecolor="#ffffff"
     bordercolor="#000000"
     borderopacity="0.25"
     inkscape:showpageshadow="2"
     inkscape:pageopacity="0.0"
     inkscape:pagecheckerboard="0"
     inkscape:deskcolor="#d1d1d1"
     showgrid="false"
     inkscape:zoom="1.2859731"
     inkscape:cx="300.55062"
     inkscape:cy="225.51017"
     inkscape:window-width="1920"
     inkscape:window-height="1009"
     inkscape:window-x="-8"
     inkscape:window-y="-8"
     inkscape:window-maximized="1"
     inkscape:current-layer="svg216" />
  <path
     fill="#f8f8ff"
     d="M555.999 451.586v55.612h-512v-84.11c0-54.379 29.77-105.364 79.84-137.976l.652-.428c46.32-30.66 55.272-82.701 103.409-111.924 42.636-25.888 112.259-25.694 154.621.424 25.393 15.656 40.089 38.104 52.704 60.208 12.626 22.096 24.267 45.029 45.539 63.508.185.161.372.322.559.482 47.558 40.748 74.676 96.163 74.676 154.204z"
     class="colorf8f8ff svgShape"
     id="path2" />
  <path
     fill="#d7d7ff"
     d="M556.001 507.195h-512c0-5.11 1.57-10.03 4.4-14.27 2.84-4.25 6.95-7.84 12.03-10.28 51.07-24.6 146.93-44.59 256.75-50.69 62.08-3.46 119.69-1.97 167.28 3.38 40.91 4.61 71.54 35.41 71.54 71.86z"
     class="colord7d7ff svgShape"
     id="path4" />
  <path
     fill="#a9a9ff"
     d="M346.035 474.59c0 1.273-15.566 2.307-34.761 2.307s-34.762-1.034-34.762-2.307 15.567-2.299 34.762-2.299 34.761 1.026 34.761 2.299z"
     class="colora9a9ff svgShape"
     id="path6" />
  <path
     fill="#212b40"
     d="M342.036 262.002c-.767 6.414-6.58 10.984-12.994 10.217-6.414-.768-10.993-6.582-10.225-12.996.767-6.414 6.59-10.991 13.003-10.224 6.414.768 10.984 6.589 10.216 13.003z"
     class="color212b40 svgShape"
     id="path8" />
  <path
     fill="#212b40"
     d="M321.947 263.365c-.768 6.414-6.58 10.984-12.995 10.217-6.414-.768-10.993-6.582-10.225-12.996.767-6.414 6.59-10.991 13.003-10.224 6.414.768 10.984 6.589 10.217 13.003z"
     class="color212b40 svgShape"
     id="path10" />
  <path
     fill="#212b40"
     d="M317.104 248.027a10.68 10.68 0 0 1-11.88 9.34c-5.863-.702-10.049-6.017-9.347-11.88.701-5.864 6.024-10.049 11.888-9.347 5.863.701 10.04 6.023 9.34 11.887z"
     class="color212b40 svgShape"
     id="path12" />
  <path
     fill="#212b40"
     d="M325.073 239.547a10.68 10.68 0 0 1-11.879 9.34c-5.864-.701-10.05-6.016-9.348-11.88.702-5.864 6.024-10.048 11.888-9.347 5.863.702 10.041 6.023 9.34 11.887z"
     class="color212b40 svgShape"
     id="path14" />
  <path
     fill="#212b40"
     d="M340.939 245.21a10.68 10.68 0 0 1-11.88 9.341c-5.863-.701-10.049-6.017-9.347-11.88.701-5.864 6.024-10.049 11.887-9.347 5.864.701 10.042 6.023 9.34 11.887z"
     class="color212b40 svgShape"
     id="path16" />
  <ellipse
     cx="315.492"
     cy="253.26199"
     fill="#fac795"
     rx="13.011"
     ry="11.184"
     transform="rotate(-83.177,315.492,253.262)"
     class="colorfac795 svgShape"
     id="ellipse18"
     style="display:inline;fill:#3d0c02;fill-opacity:1" />
  <path
     fill="#212b40"
     d="M304.592 250.212s6.886-1.066 9.094-8.616c0 0-.094 12.621 10.6 10.964l6.374-1.467-5.47-11.096-12.258-3.914-10.758 9.916 2.418 4.213z"
     class="color212b40 svgShape"
     id="path20" />
  <path
     fill="#fac795"
     d="M328.249 252.911c.135 1.967-.427 3.626-2.394 3.76a3.582 3.582 0 1 1-.49-7.146c1.967-.135 2.748 1.406 2.884 3.386z"
     class="colorfac795 svgShape"
     id="path22"
     style="fill:#3d0c02;fill-opacity:1" />
  <path
     fill="#553230"
     d="M309.124 254.474a.768.768 0 0 1-.856.668.768.768 0 1 1 .182-1.525.77.77 0 0 1 .674.857zM309.935 251.573c.197.06.425.18.45.448.022.223-.122.443-.286.528s-.34.067-.51.048l-2.03-.224c-.184-.02-.38-.046-.517-.2-.106-.119-.193-.449-.054-.607.118-.135.43-.12.573-.145a5.24 5.24 0 0 1 2.374.152zM315.463 254.966a.768.768 0 0 1-.856.668.768.768 0 1 1 .183-1.524.77.77 0 0 1 .673.856zM316.275 252.065c.197.06.425.18.45.448a.567.567 0 0 1-.286.528c-.164.085-.34.067-.51.049l-2.03-.224c-.184-.02-.38-.047-.517-.2-.106-.12-.193-.45-.054-.608.118-.135.43-.12.573-.144a5.24 5.24 0 0 1 2.374.151zM311.734 257.107a.259.259 0 0 1-.069-.01c-.112-.032-.247-.028-.387-.024-.238.008-.452.004-.66-.09-.267-.12-.437-.375-.424-.635.01-.21.138-.413.353-.553.085-.056.179-.099.272-.141.05-.022.098-.044.145-.07.187-.1.348-.262.453-.457.13-.24.186-.55.164-.897a.25.25 0 0 1 .234-.265c.14-.019.255.096.264.234.03.446-.046.839-.222 1.166-.152.28-.385.514-.657.66-.056.03-.116.057-.174.084-.07.032-.141.063-.205.105-.075.048-.126.112-.127.159-.003.052.055.12.13.155.112.05.261.052.393.047.209-.007.397-.012.585.041a.25.25 0 0 1-.068.49z"
     class="color553230 svgShape"
     id="path24" />
  <path
     fill="#ffffff"
     d="M309.873 259.001c.468.178 1.601.5 2.824.049.123-.045.236.09.17.203-.312.541-.992 1.505-1.859 1.471-.916-.035-1.226-1.072-1.322-1.565a.14.14 0 0 1 .187-.158z"
     class="colorfff svgShape"
     id="path26" />
  <path
     fill="#55312f"
     d="M326.135 255.063a.25.25 0 0 0 .117-.088 3.55 3.55 0 0 0 .639-2.589c-.064-.427-.24-1.016-.722-1.393-.435-.342-1.164-.436-1.629-.009a.254.254 0 1 0 .344.373c.262-.24.71-.171.972.035.35.274.483.732.533 1.068a3.039 3.039 0 0 1-.547 2.216.253.253 0 0 0 .293.387z"
     class="color55312f svgShape"
     id="path28" />
  <path
     fill="#fa9926"
     d="M317.567 416.536c1.177 3.999 3.126 8.637 1.695 15.812a34.352 34.352 0 0 1-1.38 4.841c-5.034 13.803-8.2 24.876-8.2 24.876l-8.272.02s-1.025-33.522-6.08-63.097c-3.795-22.206 2.243-45.325 5.491-55.474 1.066-3.37 1.837-5.308 1.837-5.308h25.17c.203.436.406.882.598 1.309a79.288 79.288 0 0 1 1.503 3.633c11.488 29.92-5.278 45.65-11.235 60.854-.914 2.344-1.574 4.679-1.837 7.043l-.03.264c-.173 1.726.202 3.41.74 5.227z"
     class="colorfa9926 svgShape"
     id="path30" />
  <path
     fill="#e07a14"
     d="M316.857 411.045a338.472 338.472 0 0 0-1.655-10.747c-5.064-29.575 9.8-60.783 9.8-60.783h3.424c16.462 37.084-9.54 53.191-11.57 71.53z"
     class="colore07a14 svgShape"
     id="path32" />
  <path
     fill="#3a3ae0"
     d="M301.422 462.06s-.547 6.018-2.063 7.123c-2.797 2.04-11.499 1.144-12.178 3.172-.374 1.118 5.192 2.588 6.427 2.708 6 .58 13.036.447 16.685-.831 3.082-1.08-.609-12.173-.609-12.173h-8.262z"
     class="color3a3ae0 svgShape"
     id="path34" />
  <path
     fill="#fa9926"
     d="M340.433 437.19c-5.034 13.802-8.2 24.875-8.2 24.875l-8.272.02s-.914-29.859-5.267-58.083c-.254-1.675-.528-3.35-.812-5.014-3.786-22.155 2.212-45.234 5.46-55.414 1.086-3.41 1.867-5.368 1.867-5.368h25.17c17.76 38.2-9.175 54.44-11.002 73.103-.619 6.343 6.09 12.078 1.056 25.88z"
     class="colorfa9926 svgShape"
     id="path36" />
  <path
     fill="#e07a14"
     d="M348.278 339.515c-.03 1.522-8.373 2.841-18.35 3.633a217.66 217.66 0 0 1-6.586.426c-8.657.467-17.457.508-22.521-.06 1.066-3.37 1.837-5.308 1.837-5.308h45.61c.01.852.01 1.309.01 1.309z"
     class="colore07a14 svgShape"
     id="path38" />
  <path
     fill="#3a3ae0"
     d="M323.974 462.06s-.547 6.018-2.063 7.123c-2.797 2.04-11.498 1.144-12.178 3.172-.374 1.118 5.192 2.588 6.427 2.708 6 .58 13.036.447 16.685-.831 3.082-1.08-.609-12.173-.609-12.173h-8.262z"
     class="color3a3ae0 svgShape"
     id="path40" />
  <path
     fill="#55c955"
     d="M351.5 338.632c-.082 3.806-50.055 4.997-49.984 1.201-14.777-59.91 11.203-68.195 11.203-68.195 16.026-3.908 25.657 2.446 31.381 12.585 3.32 5.886 5.319 13.041 6.506 20.207 2.791 17.08.893 34.202.893 34.202z"
     class="color55c955 svgShape"
     id="path42" />
  <path
     fill="#3bb23b"
     d="M350.606 304.43c-1.969-2.365-4.699-3.867-7.348-5.298-2.243-1.218-4.466-2.446-6.719-3.634-1.603-.852-3.592-1.126-3.501-3.45.172-4.233 5.115-7.43 8.637-7.846a9.242 9.242 0 0 1 2.425.02c3.32 5.887 5.319 13.042 6.506 20.208z"
     class="color3bb23b svgShape"
     id="path44" />
  <path
     fill="#55c955"
     d="M319.764 285.916c3.91 9.53 28.274 3.245 34.05 18.24 5.777 14.994 5.535 28.097 5.535 28.097l10.023.57s5.28-36.07-6.656-46.736c-13.6-12.152-25.67-13.514-33.083-14.445-4.4-.552-11.553 10.172-9.87 14.274zM315.004 271.142c-8.385-2.307-23.818 22.453-38.592 16.133-14.773-6.32-23.993-15.633-23.993-15.633l-7.4 6.784s20.066 30.33 38.131 27.83 28.621-8.087 33.04-16.15c2.132-3.888 3.09-17.789-1.186-18.964z"
     class="color55c955 svgShape"
     id="path46" />
  <path
     fill="#fac795"
     d="m326.167 256.414-.396 14.3c.586 8.606-3.737 19.799-9.043 31.508-2.402-11.357-3.394-21.962-1.583-31.071v-8.322l11.022-6.415z"
     class="colorfac795 svgShape"
     id="path48"
     style="fill:#3d0c02;fill-opacity:1" />
  <path
     fill="#ffffff"
     d="M314.324 277.748c-.446 7.493.56 15.76 2.404 24.474 3.957-8.732 7.364-17.175 8.6-24.474h-11.004z"
     class="colorfff svgShape"
     id="path50" />
  <path
     fill="#f09e58"
     d="M322.24 264.462c-.123.224-2.315 3.928-7.095 3.756v-1.97c1.127 0 4.821-.141 7.094-1.786z"
     class="colorf09e58 svgShape"
     id="path52"
     style="fill:#3d0c02;fill-opacity:1" />
  <path
     fill="#fac896"
     d="M252.527 271.75s1.31-6.116.976-7.61c-.235-1.05-1.697-2.473-2.751-2.255-1.634.339-2.216 6.14-2.216 6.14s-2.182-7.138-4.309-7.804c-3.062-.958-10.25 4.91-8.581 9.544 2.362 6.561 9.375 8.664 9.375 8.664l7.506-6.68z"
     class="colorfac896 svgShape"
     id="path54"
     style="fill:#3d0c02;fill-opacity:1" />
  <path
     fill="#9595f9"
     d="M393.848 367.087v23.48a7.021 7.021 0 0 1-7.022 7.022h-47.997a7.02 7.02 0 0 1-7.02-7.022v-23.48h62.04z"
     class="color9595f9 svgShape"
     id="path56" />
  <path
     fill="#d7d7ff"
     d="M382.609 372.82h-39.563c-13.068-.297-12.15-7.916-12.15-7.916v-10.21c-.03-2.631.456-4.269 1.003-5.275a2.929 2.929 0 0 1 2.575-1.529h56.706c1.075 0 2.063.585 2.577 1.53.546 1.005 1.03 2.643 1.002 5.273v10.211s.92 7.619-12.15 7.915z"
     class="colord7d7ff svgShape"
     id="path58" />
  <path
     fill="#9595f9"
     d="M351.899 366.216c0-1.435-8.594-1.435-8.594 0v7.729h8.594v-7.729z"
     class="color9595f9 svgShape"
     id="path60" />
  <path
     fill="#ebebff"
     d="M352.217 371.646v5.6c0 1.543-9.23 1.543-9.23 0v-8.116c0-1.542 9.23-1.542 9.23 0v2.516z"
     class="colorebebff svgShape"
     id="path62" />
  <path
     fill="#d7d7ff"
     d="M351.422 376.296c0 .762-7.64.762-7.64 0v-3.862h7.64v3.862z"
     class="colord7d7ff svgShape"
     id="path64" />
  <path
     fill="#9595f9"
     d="M382.325 366.216c0-1.435-8.593-1.435-8.593 0v7.729h8.593v-7.729z"
     class="color9595f9 svgShape"
     id="path66" />
  <path
     fill="#ebebff"
     d="M382.644 371.646v5.6c0 1.543-9.23 1.543-9.23 0v-8.116c0-1.542 9.229-1.542 9.229 0v2.516z"
     class="colorebebff svgShape"
     id="path68" />
  <path
     fill="#d7d7ff"
     d="M381.849 376.296c0 .762-7.64.762-7.64 0v-3.862h7.64v3.862z"
     class="colord7d7ff svgShape"
     id="path70" />
  <path
     fill="#3a3ae0"
     d="M356.404 347.562v.622c0 .11-.089.198-.199.198h-8.527a.199.199 0 0 1-.199-.198v-.62c0-.1.073-.186.17-.197a1.412 1.412 0 0 0 1.244-1.404v-.566c0-.164.133-.297.297-.297h4.47c.164 0 .297.133.297.297v.551c0 .782.633 1.415 1.415 1.415h.833c.11 0 .2.089.2.199zM368.938 347.562v.622c0 .11.089.198.199.198h8.527c.11 0 .198-.089.198-.198v-.62a.197.197 0 0 0-.17-.197 1.412 1.412 0 0 1-1.243-1.404v-.566a.297.297 0 0 0-.297-.297h-4.47a.297.297 0 0 0-.297.297v.551c0 .782-.633 1.415-1.415 1.415h-.833a.199.199 0 0 0-.2.199z"
     class="color3a3ae0 svgShape"
     id="path72" />
  <path
     fill="#ffffff"
     d="M374.154 347.6h-.62a1.29 1.29 0 0 1-1.29-1.291v-.049h3.2v.049a1.29 1.29 0 0 1-1.29 1.29zM351.9 347.6h-.62a1.29 1.29 0 0 1-1.291-1.291v-.049h3.201v.049a1.29 1.29 0 0 1-1.29 1.29z"
     class="colorfff svgShape"
     id="path74" />
  <path
     fill="#9595f9"
     d="M375.444 343.734v2.722a.318.318 0 0 1-.317.317h-2.563a.318.318 0 0 1-.318-.314l-.034-2.85s.162-3.065-9.495-3.195c-9.658.13-9.496 3.195-9.496 3.195l-.03 2.85a.318.318 0 0 1-.317.314h-2.567a.318.318 0 0 1-.318-.317v-2.722c0-.991.246-1.97.745-2.817 2.388-4.052 8.96-4.516 11.983-4.505 3.023-.01 9.594.453 11.982 4.505.5.847.745 1.826.745 2.817z"
     class="color9595f9 svgShape"
     id="path76" />
  <path
     fill="#ffffff"
     d="M379.61 373.43v1.761c0 .35-3.49.35-3.49 0v-1.762h3.49zM346.02 373.43h3.49v1.761c0 .35-3.49.35-3.49 0v-1.762z"
     class="colorfff svgShape"
     id="path78" />
  <path
     fill="#8383ed"
     d="M380.961 370.305a.416.416 0 0 1-.416.417h-5.033a.417.417 0 0 1 0-.834h5.033c.23 0 .416.187.416.417zM350.535 370.305a.416.416 0 0 1-.417.417h-5.032a.417.417 0 0 1 0-.834h5.032c.23 0 .417.187.417.417z"
     class="color8383ed svgShape"
     id="path80" />
  <path
     fill="#fac896"
     d="M369.372 332.823s3.457 6.117-.466 11.877c-2.397 3.52-11.564 1.85-12.834-.104-1.214-1.866 1.128-5.436 1.128-5.436l-2.378.031s-2.392-1.735-1.764-2.608c.9-1.237 6.352-4.306 6.352-4.306l9.962.546z"
     class="colorfac896 svgShape"
     id="path82"
     style="fill:#3d0c02;fill-opacity:1" />
  <path
     fill="#b1b1ef"
     d="M232.768 281.573c-8.161 0-14.801-6.64-14.801-14.802a1.5 1.5 0 0 1 3 0c0 6.508 5.294 11.802 11.8 11.802 6.509 0 11.803-5.294 11.803-11.802V127.735a1.5 1.5 0 0 1 3 0v139.036c0 8.162-6.64 14.802-14.802 14.802z"
     class="colorb1b1ef svgShape"
     id="path84" />
  <path
     fill="#b1b1ef"
     d="M232.768 284.132c-9.573 0-17.36-7.788-17.36-17.36a4.06 4.06 0 0 1 8.118 0c0 5.095 4.146 9.241 9.242 9.241s9.242-4.146 9.242-9.242v-22.84a4.06 4.06 0 0 1 8.119 0v22.84c0 9.573-7.788 17.361-17.361 17.361z"
     class="colorb1b1ef svgShape"
     id="path86" />
  <path
     fill="#ebebff"
     d="M246.07 132.701c39.734.015 71.93 32.197 71.93 71.931-7.94-7.955-20.83-7.94-28.772 0-.043-.043-.1-.086-.144-.143-.043-39.663-19.292-71.788-43.015-71.788zM246.055 132.701c-23.737.015-42.972 32.14-43.015 71.802l-.13.13c-7.94-7.956-20.83-7.942-28.772 0 0-39.735 32.21-71.932 71.917-71.932z"
     class="colorebebff svgShape"
     id="path88" />
  <path
     fill="#a9a9ff"
     d="M246.07 132.701c23.722 0 42.97 32.125 43.014 71.788-7.956-7.812-20.73-7.755-28.628.143-.03-.028-.058-.057-.087-.086-.014-39.691-6.402-71.845-14.3-71.845zM246.055 132.701c-7.884.044-14.271 32.168-14.286 71.845l-.086.086c-7.898-7.912-20.687-7.94-28.643-.13.043-39.662 19.278-71.786 43.015-71.8z"
     class="colora9a9ff svgShape"
     id="path90" />
  <path
     fill="#ebebff"
     d="M246.055 132.701h.014c7.898 0 14.286 32.154 14.3 71.845-7.912-7.84-20.687-7.826-28.6 0 .015-39.677 6.402-71.801 14.286-71.845z"
     class="colorebebff svgShape"
     id="path92" />
  <path
     fill="#a9a9ff"
     d="M489.4 462.16c0 1.624-14.927 2.944-33.346 2.944-18.426 0-33.353-1.32-33.353-2.943 0-1.614 14.927-2.934 33.353-2.934 18.42 0 33.347 1.32 33.347 2.934zM450.997 423.949l.08-.32c4.583-6.301 2.204-16.066-1.847-22.723-1.113-1.826-2.577-3.978-1.642-5.902.66-1.358 2.248-1.927 3.507-2.759 3.695-2.437 4.722-7.499 4.125-11.88-.6-4.386-2.46-8.504-3.256-12.858a27.013 27.013 0 0 1 1.357-14.467c.79-2.054 2.129-4.235 4.3-4.607 2.173-.372 4.221 1.313 5.272 3.254 2.014 3.72 1.49 8.236.998 12.436-.492 4.2-.819 8.786 1.488 12.33 1.33 2.042 3.483 3.645 4.042 6.02.57 2.425-.727 4.886-2.199 6.9-1.474 2.013-3.218 3.966-3.748 6.4-.62 2.849.546 5.738 1.041 8.608 1.398 8.11-6.015 16.185-13.518 19.568z"
     class="colora9a9ff svgShape"
     id="path94" />
  <path
     fill="#a9a9ff"
     d="M432.765 399.595c-.585 1.552-1.556 3.068-1.295 4.852.375 2.532 2.84 3.775 4.822 4.807 6.866 3.78 14.41 9.425 16.871 16.774h.884c1.564-8.018 1.409-17.375-3.788-22.84-2.005-2.084-4.52-3.984-5.446-6.887-.787-2.48-.22-5.143.188-7.656.398-2.527.58-5.31-.813-7.41-1.361-2.06-3.854-2.854-5.735-4.466-3.27-2.8-4.271-7.926-4.61-12.74-.378-4.828-.378-10.055-2.537-14.09-1.134-2.097-3.175-3.828-5.325-2.955-2.149.877-3.397 3.945-3.969 6.733-1.31 6.213-.77 12.75 1.388 18.134 1.95 4.873 5.046 8.76 7.32 13.198 2.26 4.47 3.745 10.002 2.045 14.546z"
     class="colora9a9ff svgShape"
     id="path96" />
  <path
     fill="#ffffff"
     d="M432.7 380.224c.834 1.182 1.697 2.403 2.508 3.622 2.567 3.859 5.523 9.021 5.594 14.738.008.702-.027 1.428-.061 2.129-.083 1.686-.168 3.43.337 5.085.769 2.52 2.731 4.362 4.629 6.143.607.57 1.235 1.159 1.807 1.757 3.17 3.31 5.199 7.749 5.784 12.33h.664c-.567-4.746-2.656-9.281-5.992-12.767-.584-.61-1.218-1.205-1.831-1.78-1.837-1.725-3.737-3.507-4.457-5.867-.473-1.55-.394-3.163-.31-4.87.034-.711.07-1.446.061-2.168-.072-5.882-3.084-11.148-5.7-15.08-.816-1.226-1.68-2.451-2.517-3.636-2.22-3.146-4.516-6.4-6.095-9.955-2.486-5.595-2.63-11.18-.392-15.324a.316.316 0 1 0-.556-.3c-2.33 4.317-2.195 10.105.37 15.88 1.605 3.612 3.92 6.892 6.157 10.063z"
     class="colorfff svgShape"
     id="path98" />
  <path
     fill="#ffffff"
     d="m455.271 416.743-5.15 9.285h.722l4.98-8.978c1.284-2.315 2.739-4.938 3.062-7.792.26-2.289-.215-4.608-.674-6.851-.578-2.827-1.125-5.497-.326-8.1.313-1.023.838-1.997 1.345-2.939.444-.823.902-1.674 1.233-2.575.982-2.67.797-5.596.525-8.363a141.252 141.252 0 0 0-4.44-23.808.316.316 0 0 0-.608.168 140.612 140.612 0 0 1 4.42 23.701c.265 2.695.446 5.539-.49 8.084-.315.859-.763 1.69-1.196 2.494-.522.969-1.061 1.97-1.393 3.053-.845 2.757-.257 5.632.311 8.411.45 2.195.913 4.465.665 6.655-.309 2.728-1.73 5.293-2.986 7.555z"
     class="colorfff svgShape"
     id="path100" />
  <path
     fill="#a9a9ff"
     d="M458.203 426.028c2.732-7.542 10.962-12.866 18.326-16.252 2.05-.886 4.6-1.948 5.157-4.446.389-1.76-.47-3.343-.942-4.933-1.367-4.655.514-10.064 3.09-14.36 2.589-4.263 5.958-7.915 8.254-12.636 2.542-5.213 3.551-11.695 2.694-17.985-.369-2.822-1.392-5.973-3.472-7.002-2.081-1.027-4.242.553-5.525 2.563-2.445 3.868-2.822 9.08-3.547 13.869-.686 4.777-2.056 9.818-5.518 12.374-1.993 1.472-4.536 2.084-6.043 4.041-1.54 1.992-1.56 4.782-1.346 7.331.225 2.536.599 5.233-.365 7.65-1.133 2.828-3.78 4.542-5.93 6.475-5.762 5.244-6.458 15.021-5.323 23.31h.49z"
     class="colora9a9ff svgShape"
     id="path102" />
  <path
     fill="#ffffff"
     d="M458.275 426.028c.928-5.642 3.508-11.016 7.397-15.212.673-.726 1.408-1.448 2.117-2.146 2.432-2.39 4.946-4.862 5.778-8.191.382-1.527.366-3.115.35-4.65-.014-1.402-.028-2.85.266-4.218.713-3.309 3.132-5.93 5.471-8.464.692-.75 1.408-1.525 2.069-2.307 5.536-6.55 8.292-15.206 7.563-23.751a.316.316 0 0 0-.63.054c.716 8.378-1.987 16.867-7.415 23.29a71.257 71.257 0 0 1-2.05 2.286c-2.397 2.597-4.875 5.282-5.625 8.76-.31 1.435-.295 2.92-.28 4.356.015 1.496.03 3.043-.332 4.491-.788 3.157-3.238 5.565-5.607 7.894a66.233 66.233 0 0 0-2.138 2.166c-3.996 4.312-6.64 9.841-7.574 15.642h.64z"
     class="colorfff svgShape"
     id="path104" />
  <path
     fill="#3a3ae0"
     d="M480.026 421.95v7.845c0 .677-.549 1.226-1.226 1.226h-44.74a1.226 1.226 0 0 1-1.225-1.226v-7.845c0-.677.548-1.226 1.226-1.226H478.8c.677 0 1.226.549 1.226 1.226z"
     class="color3a3ae0 svgShape"
     id="path106" />
  <path
     fill="#7878f9"
     d="m477.134 431.021-6.393 29.773a3.112 3.112 0 0 1-3.043 2.458h-22.535a3.112 3.112 0 0 1-3.043-2.458l-6.394-29.773h41.408z"
     class="color7878f9 svgShape"
     id="path108" />
  <path
     fill="#d7d7ff"
     d="M489.537 200.362v113.88a6.63 6.63 0 0 1-6.63 6.63h-91.015a6.63 6.63 0 0 1-6.63-6.63v-113.88a6.63 6.63 0 0 1 6.63-6.63h91.014a6.63 6.63 0 0 1 6.63 6.63z"
     class="colord7d7ff svgShape"
     id="path110" />
  <path
     fill="#ffffff"
     d="M391.893 315.267c-.566 0-1.026-.46-1.026-1.025v-113.88c0-.566.46-1.026 1.026-1.026h91.013c.566 0 1.026.46 1.026 1.026v113.88c0 .565-.46 1.025-1.026 1.025h-91.013z"
     class="colorfff svgShape"
     id="path112" />
  <path
     fill="#a9a9ff"
     d="M458.144 189.548v10.088c0 .995-.807 1.802-1.803 1.802h-37.884a1.802 1.802 0 0 1-1.802-1.802v-10.088c0-.996.807-1.803 1.802-1.803h37.884c.996 0 1.803.807 1.803 1.803zM412.387 272.599v10.224c0 .728-.59 1.319-1.318 1.319h-10.232c-.728 0-1.319-.59-1.319-1.319V272.6c0-.728.59-1.319 1.319-1.319h10.232c.728 0 1.318.59 1.318 1.319zM475.28 275.227a.843.843 0 0 1-.843.844H422.1a.843.843 0 0 1 0-1.687h52.338c.466 0 .844.378.844.843zM451.877 279.351h-29.778a.843.843 0 0 0 0 1.687h29.778a.843.843 0 1 0 0-1.687zM460.872 280.194c0 .466.378.844.843.844h5.655a.843.843 0 0 0 0-1.687h-5.655a.843.843 0 0 0-.843.843zM412.387 293.162v10.224c0 .729-.59 1.319-1.318 1.319h-10.232c-.728 0-1.319-.59-1.319-1.319v-10.224c0-.728.59-1.318 1.319-1.318h10.232c.728 0 1.318.59 1.318 1.318zM475.28 295.79a.843.843 0 0 1-.843.844H422.1a.843.843 0 0 1 0-1.687h52.338c.466 0 .844.378.844.844zM451.877 299.914h-29.778a.843.843 0 0 0 0 1.687h29.778a.843.843 0 1 0 0-1.687zM460.872 300.758c0 .466.378.843.843.843h5.655a.843.843 0 1 0 0-1.687h-5.655a.843.843 0 0 0-.843.844z"
     class="colora9a9ff svgShape"
     id="path114" />
  <path
     fill="#ffffff"
     d="M405.605 279.385a.838.838 0 0 1-.59-.241l-1.294-1.274a.84.84 0 1 1 1.179-1.199l.716.705 1.996-1.89a.841.841 0 0 1 1.156 1.22l-2.585 2.449a.837.837 0 0 1-.578.23zM405.605 300.34a.838.838 0 0 1-.59-.242l-1.294-1.273a.84.84 0 1 1 1.179-1.199l.716.704 1.996-1.89a.84.84 0 0 1 1.156 1.22l-2.585 2.45a.837.837 0 0 1-.578.23z"
     class="colorfff svgShape"
     id="path116" />
  <path
     fill="#55c955"
     d="M86.949 245.113c-3.664 0-6.587 2.954-6.587 6.617a6.58 6.58 0 0 0 6.587 6.587c3.623 0 6.587-2.963 6.587-6.587 0-3.663-2.964-6.617-6.587-6.617zm0 11.144a4.535 4.535 0 0 1-4.537-4.537 4.54 4.54 0 0 1 4.537-4.557c2.486 0 4.526 2.04 4.526 4.557 0 2.497-2.04 4.537-4.526 4.537z"
     class="color55c955 svgShape"
     id="path118" />
  <path
     fill="#a9a9ff"
     d="M105.08 266.017c0 .348-.31.651-.664.651-2.123 0-3.893 1.693-3.893 3.776 0 .347-.265.65-.62.65-.398 0-.751-.303-.751-.65 0-2.083-1.726-3.776-3.85-3.776a.674.674 0 0 1-.663-.65c0-.391.31-.652.664-.652 2.123 0 3.849-1.736 3.849-3.819 0-.347.31-.65.663-.65.398 0 .708.303.708.65 0 2.083 1.77 3.82 3.893 3.82.354 0 .664.26.664.65z"
     class="colora9a9ff svgShape"
     id="path120" />
  <path
     fill="#d7d7ff"
     d="M113.383 249.1c0 2.541-2.079 4.62-4.62 4.62a4.616 4.616 0 0 1-4.619-4.62c0-2.566 2.053-4.644 4.62-4.644 2.54 0 4.619 2.078 4.619 4.645z"
     class="colord7d7ff svgShape"
     id="path122" />
  <path
     fill="#f95d5d"
     d="M196.652 327.001c0 2.31-1.89 4.201-4.201 4.201-2.334 0-4.201-1.89-4.201-4.2a4.203 4.203 0 0 1 4.2-4.225c2.311 0 4.202 1.89 4.202 4.224z"
     opacity=".6"
     class="colorf95d5d svgShape"
     id="path124" />
  <path
     fill="#fa9926"
     d="M181.834 347.783a3.85 3.85 0 0 1-3.845-3.845 3.85 3.85 0 0 1 3.845-3.846c2.105 0 3.816 1.725 3.816 3.846 0 2.12-1.711 3.845-3.816 3.845zm.006-6.294c-1.35 0-2.448 1.1-2.448 2.45s1.098 2.447 2.448 2.447c1.327 0 2.408-1.098 2.408-2.448s-1.08-2.449-2.408-2.449z"
     class="colorfa9926 svgShape"
     id="path126" />
  <path
     fill="#a9a9ff"
     d="m117.601 437.078-1.01.237c-.38.088-.742.17-1.109.253h-12.054c-1.143-.2-2.27-.418-3.381-.71-1.705-.448-3.393-1.055-5.072-2.013-1.16-.668-3.815-2.479-3.35-5.002.344-1.846 2.225-2.9 3.904-2.988 1.512-.088 2.918.413 4.202.931a.901.901 0 0 0-.097-.237c-.246-.457-.853-.861-1.45-.967a7.362 7.362 0 0 0-1.187-.096c-.739-.027-1.503-.062-2.224-.396-1.248-.589-1.978-2.11-1.653-3.455.194-.817 1.275-1.23 2.136-1.564.097-.036.211-.08.308-.115-1.74-.905-4.852-2.944-4.334-5.74.088-.457.229-.888.37-1.31.228-.685.439-1.336.377-1.977-.167-1.75-2.17-2.725-4.017-3.613-5.766-2.796-10.909-7.92-14.856-14.83-3.507-6.153-5.757-12.957-7.928-19.55-1.055-3.2-.8-5.38.773-6.478 1.407-.993 3.305-.519 4.474.334 1.16.844 1.917 2.066 2.655 3.235l.106.185a82.793 82.793 0 0 0 13.87 16.78 190.97 190.97 0 0 0 2.805 2.523c2.874 2.55 5.854 5.187 8.166 8.36 2.857 3.912 4.633 8.535 6.347 13.01 1.899 4.949 3.859 10.065 7.287 14.117.536.633 1.116 1.248 1.68 1.846.834.888 1.704 1.81 2.452 2.813 1.52 2.03 2.259 4.105 2.153 6.013a.439.439 0 0 1-.343.404z"
     class="colora9a9ff svgShape"
     id="path128" />
  <path
     fill="#ffffff"
     d="M113.705 437.568c-1.398-2.294-3.279-4.351-5.246-6.485-2.417-2.61-4.913-5.318-6.443-8.562-.554-1.187-.976-2.435-1.389-3.648-.369-1.099-.756-2.233-1.24-3.296-1.344-2.989-3.489-5.565-5.564-8.052L72.744 382.2a.443.443 0 0 1 .062-.616.434.434 0 0 1 .615.053l21.08 25.325c2.109 2.54 4.289 5.16 5.687 8.254.5 1.1.887 2.26 1.274 3.376.396 1.186.818 2.417 1.354 3.551 1.468 3.13 3.92 5.784 6.285 8.35 2.043 2.208 4.125 4.476 5.622 7.075h-1.018z"
     class="colorfff svgShape"
     id="path130" />
  <path
     fill="#a9a9ff"
     d="M128.326 426.547c-.493.782-1.002 1.591-1.39 2.435a10.304 10.304 0 0 0-.887 3.534c-.035.474.053.993.132 1.547.105.642.21 1.31.123 1.925-.09.613-.497 1.138-1.052 1.58h-9.169a3.743 3.743 0 0 1-.292-.464c-.616-1.186-.528-2.584-.37-3.806a29.753 29.753 0 0 1 1.802-6.856c.229-.563.466-1.117.704-1.67.5-1.152 1.02-2.356 1.353-3.578.66-2.435.58-5.046.51-7.578-.053-1.89-.114-3.85.132-5.757.29-2.321 1.02-4.571 1.732-6.743.228-.703.457-1.406.668-2.118.756-2.47 1.538-5.705.932-8.755a.437.437 0 0 1 .325-.51.436.436 0 0 1 .527.299l4.95 17.176c.782 2.716 1.59 5.538 1.872 8.421.325 3.306-.097 6.198-1.266 8.606-.387.809-.87 1.574-1.336 2.312z"
     class="colora9a9ff svgShape"
     id="path132" />
  <path
     fill="#ffffff"
     d="M123.298 428.13c-.387.887-.783 1.793-1.1 2.707-.739 2.159-1.052 4.463-1.292 6.73h-.884c.253-2.347.569-4.736 1.35-7.02.326-.941.73-1.873 1.117-2.77.756-1.722 1.468-3.348 1.67-5.124.185-1.512-.026-3.068-.229-4.571l-1.6-11.92a.452.452 0 0 1 .379-.5.439.439 0 0 1 .492.377l1.6 11.929c.21 1.555.422 3.164.237 4.79-.228 1.9-.993 3.666-1.74 5.371z"
     class="colorfff svgShape"
     id="path134" />
  <path
     fill="#a9a9ff"
     d="m118.48 433.377-.035.114c-.644 1.792-1.162 3.101-1.587 4.077h-8.622c-1.208-1.01-2.228-2.244-2.932-3.663-1.231-2.48-1.503-5.257-1.776-7.947-.202-2.057-.413-4.184-1.055-6.136-.615-1.872-1.644-3.621-2.637-5.318-.87-1.485-1.776-3.032-2.417-4.667-1.328-3.385-1.53-7.06-1.714-10.61-.141-2.497-.273-5.081-.81-7.534-.685-3.147-2.047-6.162-3.366-9.08-.571-1.266-1.16-2.567-1.688-3.877-1.02-2.514-4.131-13.704-2.408-14.75.66-.396 1.336.404 1.564.668.633.738 5.881 7.2 11.446 14.038 2.725 3.358 5.458 6.716 7.577 9.327 2.11 2.584 4.72 5.793 5.16 9.625.14 1.187.061 2.382-.018 3.534-.088 1.371-.176 2.663.07 3.947.343 1.82 1.31 3.41 2.33 5.09.492.808 1.002 1.652 1.433 2.514 2.083 4.193 2.127 8.702 2.162 13.062 0 .527.01 1.064.018 1.591.009.37.061.739.123 1.125.07.44.15.897.14 1.363-.017 1.01-.404 2.048-.747 2.953-.079.194-.14.378-.21.554z"
     class="colora9a9ff svgShape"
     id="path136" />
  <path
     fill="#ffffff"
     d="M114.49 436.445c.01.386.028.759.054 1.123h-.863c-.025-.364-.06-.714-.07-1.097-.027-1.274.026-2.558.079-3.797.061-1.6.132-3.252.026-4.87-.334-4.914-2.312-9.599-4.228-14.126-1.407-3.323-2.857-6.751-3.692-10.311-.343-1.495-.589-3.024-.818-4.51-.228-1.424-.457-2.9-.782-4.325-.791-3.428-2.03-5.96-3.797-7.726-.449-.457-.959-.88-1.45-1.293-.748-.615-1.522-1.257-2.154-2.039-1.082-1.345-1.74-3.42-.765-5.01a.433.433 0 0 1 .598-.15.441.441 0 0 1 .149.607c-.756 1.23-.193 2.892.703 4 .58.711 1.284 1.3 2.03 1.916.502.422 1.03.861 1.513 1.345 1.89 1.89 3.208 4.562 4.026 8.157.334 1.45.571 2.945.8 4.378.228 1.468.466 2.988.808 4.448.81 3.49 2.25 6.883 3.64 10.17 1.942 4.597 3.955 9.344 4.29 14.416.114 1.653.043 3.332-.018 4.958-.053 1.23-.106 2.497-.08 3.736z"
     class="colorfff svgShape"
     id="path138" />
  <path
     fill="#ffae55"
     d="M472.245 136.264c-3.725 0-6.699 3.014-6.699 6.739a6.692 6.692 0 0 0 6.699 6.698c3.684 0 6.698-3.014 6.698-6.698 0-3.725-3.014-6.74-6.698-6.74zm0 11.823a5.083 5.083 0 0 1-5.085-5.094c0-2.822 2.253-5.116 5.085-5.116 2.79 0 5.084 2.294 5.084 5.116 0 2.8-2.293 5.094-5.084 5.094z"
     class="colorffae55 svgShape"
     id="path140" />
  <path
     fill="#a9a9ff"
     d="M493.237 160.766a.685.685 0 0 1-.674.661c-2.158 0-3.956 1.72-3.956 3.837 0 .352-.27.661-.63.661-.404 0-.763-.309-.763-.661 0-2.117-1.754-3.837-3.911-3.837a.685.685 0 0 1-.675-.661c0-.397.315-.662.675-.662 2.157 0 3.91-1.764 3.91-3.88 0-.353.315-.662.675-.662.404 0 .719.309.719.662 0 2.116 1.798 3.88 3.956 3.88.36 0 .674.265.674.662z"
     class="colora9a9ff svgShape"
     id="path142" />
  <path
     fill="#55c955"
     d="M497.84 141.853a3.136 3.136 0 0 1-3.127 3.126 3.124 3.124 0 0 1-3.127-3.126 3.128 3.128 0 0 1 3.127-3.144 3.14 3.14 0 0 1 3.126 3.144z"
     class="color55c955 svgShape"
     id="path144" />
  <path
     fill="#ebebff"
     d="M58.769 193.3h89.83c1.17-6.94-.468-13.653-4.667-16.956-3.193-2.51-7.201-2.526-10.958-.517-.736-3.357-2.212-6.267-4.435-8.351-3.411-3.198-7.925-3.811-12.44-2.218-.447-8.8-4.365-14.785-10.734-14.785-7.915 0-17.034 9.253-22.092 21.671-3.976-4.743-9.034-7.733-14.017-7.733-9.216 0-14.7 10.233-12.248 22.86a34.306 34.306 0 0 0 1.76 6.029z"
     class="colorebebff svgShape"
     id="path146" />
  <path
     fill="#d7d7ff"
     d="M346.439 125.532h70.18c.725-5.187-.567-10.13-3.716-12.606-2.483-1.953-5.6-1.965-8.524-.402-.572-2.612-1.72-4.876-3.449-6.497-2.653-2.487-6.165-2.964-9.676-1.724-.348-6.845-3.395-11.5-8.35-11.5-6.156 0-13.25 7.197-17.184 16.856-3.092-3.69-7.027-6.015-10.903-6.015-7.168 0-11.434 7.96-9.527 17.78a26.635 26.635 0 0 0 1.149 4.108z"
     class="colord7d7ff svgShape"
     id="path148" />
  <path
     fill="#a9a9ff"
     d="M475.28 263.109a.843.843 0 0 1-.843.843h-74.075a.843.843 0 1 1 0-1.687h74.075c.466 0 .844.378.844.844zM475.28 255.336a.843.843 0 0 1-.843.844h-74.075a.843.843 0 1 1 0-1.687h74.075c.466 0 .844.378.844.843zM449.815 218.57a.926.926 0 0 1 .794.914v13.406a9.312 9.312 0 0 1-3.926 7.596l-8.749 6.204a.924.924 0 0 1-1.069 0l-8.75-6.204a9.312 9.312 0 0 1-3.925-7.596v-13.406c0-.46.34-.847.794-.914a5.368 5.368 0 0 0 4.512-4.512.926.926 0 0 1 .914-.794h13.98c.46 0 .846.34.913.794a5.367 5.367 0 0 0 4.512 4.512z"
     class="colora9a9ff svgShape"
     id="path150" />
  <circle
     cx="437.4"
     cy="228.249"
     r="6.582"
     fill="#ffffff"
     class="colorfff svgShape"
     id="circle152" />
  <path
     fill="#9595f9"
     d="M274.142 483.43c0 3.646-18.92 6.597-42.273 6.597s-42.286-2.95-42.286-6.596 18.934-6.597 42.286-6.597 42.273 2.951 42.273 6.597z"
     class="color9595f9 svgShape"
     id="path154" />
  <path
     fill="#fa9926"
     d="M227.575 404.493c-.692.987-5.59-1.251-10.938-4.998-5.35-3.748-9.125-7.586-8.432-8.573.692-.986 5.589 1.251 10.938 5 5.349 3.746 9.124 7.584 8.432 8.57z"
     class="colorfa9926 svgShape"
     id="path156" />
  <path
     fill="#ffae55"
     d="M224.796 402.546c-.494.704-3.986-.892-7.8-3.564-3.814-2.672-6.506-5.409-6.012-6.113.493-.703 3.985.893 7.8 3.565 3.813 2.672 6.505 5.408 6.012 6.112z"
     class="colorffae55 svgShape"
     id="path158" />
  <path
     fill="#ffae55"
     d="m227.575 404.493-2.334 3.327c-.692.988-5.59-1.25-10.938-4.997-5.35-3.748-9.124-7.586-8.432-8.573l2.334-3.328c-.693.987 3.083 4.825 8.432 8.573 5.349 3.747 10.246 5.985 10.938 4.998z"
     class="colorffae55 svgShape"
     id="path160" />
  <path
     fill="#fa9926"
     d="m208.892 392.747-2.334 3.327a6.277 6.277 0 0 1-.295-.41l2.334-3.327c.086.131.185.268.295.41zM210.704 394.715l-2.334 3.328c-.12-.115-.235-.228-.346-.338l2.334-3.328c.111.11.226.223.346.338zM212.668 396.465l-2.334 3.328a25.032 25.032 0 0 1-.365-.309l2.334-3.327c.12.102.24.205.365.308zM214.717 398.095l-2.334 3.327a51.75 51.75 0 0 1-.38-.288l2.334-3.328.38.289zM216.833 399.63l-2.334 3.328c-.066-.044-.13-.09-.196-.135s-.131-.092-.195-.139l2.334-3.327a14.456 14.456 0 0 0 .39.273zM219.008 401.079l-2.333 3.328c-.133-.085-.267-.17-.4-.258l2.333-3.328.4.258zM221.254 402.428l-2.334 3.328a25.098 25.098 0 0 1-.415-.238l2.334-3.328c.14.082.278.16.415.238zM223.591 403.648l-2.334 3.328a28.9 28.9 0 0 1-.435-.21l2.334-3.327c.148.073.293.142.435.21zM226.11 404.606l-2.333 3.328a6.266 6.266 0 0 1-.486-.137l2.333-3.328c.172.056.334.101.487.137zM242.476 393.793c.056 1.205-5.183 2.426-11.701 2.728-6.52.303-11.848-.429-11.903-1.634-.056-1.204 5.183-2.425 11.702-2.728 6.518-.302 11.847.43 11.902 1.634z"
     class="colorfa9926 svgShape"
     id="path162" />
  <path
     fill="#ffae55"
     d="M239.09 393.95c.04.86-3.697 1.73-8.344 1.945-4.648.216-8.448-.306-8.488-1.165-.04-.858 3.697-1.73 8.345-1.945 4.647-.215 8.447.306 8.487 1.165z"
     class="colorffae55 svgShape"
     id="path164" />
  <path
     fill="#ffae55"
     d="m242.476 393.793.187 4.061c.056 1.206-5.183 2.427-11.701 2.73-6.52.301-11.848-.43-11.904-1.635l-.186-4.062c.055 1.205 5.384 1.937 11.903 1.634 6.518-.302 11.757-1.523 11.701-2.728z"
     class="colorffae55 svgShape"
     id="path166" />
  <path
     fill="#fa9926"
     d="m220.53 395.912.186 4.062a6.282 6.282 0 0 1-.483-.145l-.187-4.062c.148.052.31.1.483.145zM223.164 396.363l.187 4.062a28.89 28.89 0 0 1-.48-.056l-.187-4.062c.156.02.316.038.48.056zM225.786 396.549l.187 4.062a24.87 24.87 0 0 1-.477-.022l-.187-4.062c.157.009.315.016.477.022zM228.401 396.586l.187 4.062-.476.004-.187-4.062c.157 0 .316-.002.476-.004zM231.012 396.509l.187 4.062-.237.012c-.08.004-.16.008-.239.01l-.187-4.062c.08-.002.159-.006.239-.01l.237-.012zM233.617 396.326l.187 4.062c-.156.014-.314.028-.474.04l-.187-4.062c.16-.012.318-.026.474-.04zM236.217 396.021l.187 4.062c-.156.023-.313.045-.473.066l-.187-4.062c.16-.02.317-.043.473-.066zM238.81 395.56l.187 4.061c-.153.034-.31.068-.472.1l-.187-4.061c.162-.033.32-.067.472-.1zM241.388 394.778l.187 4.062c-.143.065-.3.128-.469.188l-.186-4.062c.169-.06.325-.123.468-.188z"
     class="colorfa9926 svgShape"
     id="path168" />
  <path
     fill="#fa9926"
     d="M255.27 400.461c-.613 1.04-5.667-.804-11.289-4.116-5.623-3.312-9.684-6.84-9.07-7.879.611-1.038 5.665.805 11.288 4.118 5.621 3.312 9.682 6.84 9.07 7.877z"
     class="colorfa9926 svgShape"
     id="path170" />
  <path
     fill="#ffae55"
     d="M252.348 398.74c-.437.741-4.04-.573-8.049-2.934-4.01-2.363-6.905-4.878-6.468-5.619.436-.74 4.04.575 8.05 2.937 4.008 2.361 6.904 4.876 6.467 5.616z"
     class="colorffae55 svgShape"
     id="path172" />
  <path
     fill="#ffae55"
     d="m255.27 400.461-2.066 3.503c-.612 1.039-5.666-.804-11.288-4.116-5.623-3.313-9.684-6.84-9.071-7.88l2.065-3.502c-.613 1.04 3.448 4.567 9.071 7.88 5.622 3.311 10.676 5.154 11.288 4.115z"
     class="colorffae55 svgShape"
     id="path174" />
  <path
     fill="#fa9926"
     d="m235.737 390.231-2.065 3.503a6.273 6.273 0 0 1-.326-.386l2.066-3.502c.096.124.204.252.325.385zM237.696 392.05l-2.065 3.502a28.665 28.665 0 0 1-.371-.309l2.065-3.502c.12.1.243.204.371.309zM239.79 393.64l-2.065 3.502c-.132-.093-.261-.186-.388-.279l2.065-3.503c.127.094.256.186.388.28zM241.958 395.101l-2.065 3.503a51.616 51.616 0 0 1-.4-.257l2.065-3.503c.132.085.265.172.4.257zM244.187 396.465l-2.065 3.502c-.07-.039-.137-.079-.206-.12l-.205-.122 2.065-3.502a14.419 14.419 0 0 0 .41.242zM246.468 397.736l-2.065 3.503a51.414 51.414 0 0 1-.42-.225l2.066-3.503c.14.077.28.152.419.225zM248.81 398.903l-2.065 3.503a24.936 24.936 0 0 1-.431-.204l2.065-3.502c.145.07.288.137.431.203zM251.234 399.935l-2.065 3.503a28.498 28.498 0 0 1-.45-.175l2.065-3.503c.153.062.304.12.45.175zM253.82 400.69l-2.066 3.503a6.264 6.264 0 0 1-.495-.098l2.065-3.503c.175.042.34.075.495.099z"
     class="colorfa9926 svgShape"
     id="path176" />
  <path
     fill="#a9a9ff"
     d="M231.862 482.927a149.613 149.613 0 0 1-7.58-.2c-35.026-1.883-32.735-16.534-31.266-32.45 1.727-18.687 14.674-32.572 17.87-35.739.904-.897 1.389-2.159 1.224-3.424-.11-.855-.51-1.8-1.49-2.668-2.713-2.401-6.89-5.36-5.149-7.759 1.739-2.4 7.932-3.305 12.248-1.496 4.313 1.81 6.887-.697 9.186-1.288 2.296-.592 6.332 1.74 8.802 2.122 2.47.384 6.611-2.47 8.384-2.435 1.775.034 5.186 3.097 8.073 2.992 2.888-.105 5.983-.765 7.098 1.01 1.113 1.773-4.873 6.47-6.193 7.932-.445.491-.697 1.14-.834 1.789-.29 1.347.149 2.75 1.113 3.735a61.95 61.95 0 0 1 2.622 2.871c5.03 5.86 13.376 17.614 14.738 32.358 1.57 16.985 4.073 32.531-38.846 32.65z"
     class="colora9a9ff svgShape"
     id="path178" />
  <path
     fill="#a9a9ff"
     d="M231.862 482.927a149.613 149.613 0 0 1-7.58-.2c.002-.003.005-.003.007-.003 43.643-9.14 32.846-59.845 31.681-64.805 5.03 5.86 13.376 17.614 14.738 32.358 1.57 16.985 4.073 32.531-38.846 32.65z"
     class="colora9a9ff svgShape"
     id="path180" />
  <path
     fill="#3a3ae0"
     d="M221.327 412.722c-4.812 0-9.417-1.441-9.645-1.514a.652.652 0 1 1 .394-1.244c.064.02 6.427 2.011 11.765 1.296l1.843-.25c4.826-.661 8.995-1.232 12.06-.664 2.129.394 9.472 1.568 14.58.116a.652.652 0 1 1 .358 1.255c-5.233 1.488-12.356.434-15.175-.088-2.86-.53-6.932.028-11.647.674-.605.082-1.22.167-1.846.25-.884.119-1.79.17-2.687.17z"
     class="color3a3ae0 svgShape"
     id="path182" />
  <path
     fill="#3a3ae0"
     d="M240.841 415.671c-3.055 0-5.859-.245-7.563-.717-3.64-1.007-5.882-.656-11.299.192l-.468.074c-6.035.943-9.895-2.303-10.057-2.442a.652.652 0 0 1 .85-.99c.053.045 3.606 2.987 9.005 2.143l.469-.074c5.45-.853 7.938-1.243 11.848-.16 3.841 1.063 14.026.883 18.792-.75a.652.652 0 1 1 .423 1.234c-2.946 1.01-7.72 1.49-12 1.49z"
     class="color3a3ae0 svgShape"
     id="path184" />
  <path
     fill="#3a3ae0"
     d="M219.069 427.943a.65.65 0 0 1-.422-.155c-3.863-3.271-2.822-13.041-2.775-13.456a.652.652 0 0 1 1.297.145c-.01.094-1.013 9.491 2.322 12.315a.652.652 0 0 1-.422 1.15zM207.416 428.184a.653.653 0 0 1-.295-1.234c6.759-3.428 6.843-13.046 6.843-13.143a.652.652 0 0 1 1.305 0c0 .427-.077 10.513-7.558 14.307a.651.651 0 0 1-.295.07z"
     class="color3a3ae0 svgShape"
     id="path186" />
  <path
     fill="#d7d7ff"
     d="M247.438 450.422c0 8.603-6.974 15.578-15.574 15.578-8.603 0-15.578-6.975-15.578-15.578 0-8.6 6.975-15.574 15.578-15.574 8.6 0 15.574 6.975 15.574 15.574z"
     class="colord7d7ff svgShape"
     id="path188" />
  <path
     fill="#a9a9ff"
     d="M168.334 486.341c0 2.871-14.9 5.195-33.291 5.195s-33.303-2.324-33.303-5.195 14.912-5.195 33.303-5.195 33.291 2.324 33.291 5.195z"
     class="colora9a9ff svgShape"
     id="path192" />
  <path
     fill="#fa9926"
     d="M157.707 476.074c0 2.397-10.519 4.34-23.493 4.34-12.977 0-23.496-1.943-23.496-4.34 0-2.395 10.519-4.337 23.496-4.337 12.974 0 23.493 1.942 23.493 4.337z"
     class="colorfa9926 svgShape"
     id="path194" />
  <path
     fill="#ffae55"
     d="M150.965 476.074c0 1.71-7.5 3.095-16.752 3.095-9.253 0-16.753-1.385-16.753-3.095 0-1.707 7.5-3.092 16.753-3.092 9.252 0 16.752 1.385 16.752 3.092z"
     class="colorffae55 svgShape"
     id="path196" />
  <path
     fill="#ffae55"
     d="M157.707 476.074v8.08c0 2.397-10.519 4.34-23.493 4.34-12.977 0-23.496-1.943-23.496-4.34v-8.08c0 2.397 10.519 4.34 23.496 4.34 12.974 0 23.493-1.943 23.493-4.34z"
     class="colorffae55 svgShape"
     id="path198" />
  <path
     fill="#fa9926"
     d="M113.918 478.26v8.081a12.471 12.471 0 0 1-.948-.331v-8.08c.29.115.606.226.948.33zM119.11 479.399v8.08c-.325-.05-.64-.102-.948-.155v-8.08c.307.052.623.105.947.155zM124.301 480.009v8.08c-.32-.026-.634-.055-.945-.087v-8.08c.311.032.625.06.945.087zM129.493 480.324v8.08c-.318-.01-.634-.023-.946-.036v-8.08c.312.013.628.026.946.036zM134.686 480.411v8.08c-.156.003-.313.003-.472.003s-.318 0-.475-.003v-8.08c.157.003.316.003.475.003s.316 0 .472-.003zM139.878 480.287v8.08c-.312.014-.627.027-.945.038v-8.08c.318-.011.633-.024.945-.038zM145.07 479.922v8.08c-.312.032-.626.06-.946.087v-8.08c.32-.026.634-.055.946-.087zM150.263 479.244v8.08c-.307.053-.623.105-.947.155v-8.08c.324-.05.64-.103.947-.155zM155.455 477.93v8.08c-.29.116-.606.226-.948.331v-8.08c.342-.105.658-.216.948-.331zM148.6 464.233c0 2.394-10.503 4.334-23.459 4.334-12.958 0-23.461-1.94-23.461-4.334 0-2.391 10.503-4.33 23.461-4.33 12.956 0 23.46 1.939 23.46 4.33z"
     class="colorfa9926 svgShape"
     id="path200" />
  <path
     fill="#ffae55"
     d="M141.868 464.234c0 1.706-7.489 3.09-16.727 3.09-9.24 0-16.73-1.384-16.73-3.09 0-1.705 7.49-3.089 16.73-3.089 9.238 0 16.727 1.384 16.727 3.089z"
     class="colorffae55 svgShape"
     id="path202" />
  <path
     fill="#ffae55"
     d="M148.6 464.233v8.069c0 2.394-10.503 4.333-23.459 4.333-12.958 0-23.461-1.94-23.461-4.333v-8.069c0 2.394 10.503 4.334 23.461 4.334 12.956 0 23.46-1.94 23.46-4.334z"
     class="colorffae55 svgShape"
     id="path204" />
  <path
     fill="#fa9926"
     d="M104.875 466.417v8.069a12.473 12.473 0 0 1-.946-.331v-8.069c.29.116.605.226.946.331zM110.059 467.554v8.068a57.16 57.16 0 0 1-.946-.155V467.4c.306.052.622.105.946.155zM115.243 468.163v8.068a49.34 49.34 0 0 1-.944-.086v-8.07c.311.032.624.061.944.088zM120.427 468.478v8.068c-.317-.01-.633-.023-.944-.037v-8.068c.311.013.627.026.944.037zM125.613 468.564v8.069c-.156.002-.313.002-.472.002s-.317 0-.474-.002v-8.069c.157.003.315.003.474.003s.316 0 .472-.003zM130.797 468.44v8.07c-.31.013-.626.026-.944.036v-8.068c.318-.011.633-.024.944-.037zM135.982 468.076v8.069c-.312.031-.625.06-.945.086v-8.068c.32-.027.633-.056.945-.087zM141.168 467.399v8.068c-.307.053-.623.105-.947.155v-8.068c.324-.05.64-.103.947-.155zM146.352 466.086v8.069c-.29.115-.605.226-.946.33v-8.068c.34-.105.656-.215.946-.33zM157.2 453.52c0 2.394-10.504 4.334-23.46 4.334-12.958 0-23.46-1.94-23.46-4.333 0-2.392 10.502-4.331 23.46-4.331 12.956 0 23.46 1.94 23.46 4.33z"
     class="colorfa9926 svgShape"
     id="path206" />
  <path
     fill="#ffae55"
     d="M150.468 453.521c0 1.707-7.49 3.09-16.728 3.09-9.24 0-16.729-1.383-16.729-3.09 0-1.705 7.49-3.088 16.73-3.088 9.237 0 16.727 1.383 16.727 3.088z"
     class="colorffae55 svgShape"
     id="path208" />
  <path
     fill="#ffae55"
     d="M157.2 453.52v8.07c0 2.393-10.504 4.333-23.46 4.333-12.958 0-23.46-1.94-23.46-4.334v-8.068c0 2.393 10.502 4.333 23.46 4.333 12.956 0 23.46-1.94 23.46-4.333z"
     class="colorffae55 svgShape"
     id="path210" />
  <path
     fill="#fa9926"
     d="M113.474 455.704v8.07a12.447 12.447 0 0 1-.946-.332v-8.068c.29.115.605.225.946.33zM118.658 456.841v8.069c-.324-.05-.64-.103-.946-.155v-8.069c.307.053.622.105.946.155zM123.842 457.45v8.069c-.32-.027-.633-.055-.944-.087v-8.069c.311.032.625.06.944.087zM129.026 457.765v8.069c-.317-.01-.633-.024-.944-.037v-8.069c.311.013.627.026.944.037zM134.213 457.852v8.068c-.157.003-.314.003-.472.003-.16 0-.318 0-.475-.003v-8.068c.157.002.316.002.475.002.158 0 .315 0 .472-.002zM139.397 457.728v8.069c-.311.013-.627.026-.944.037v-8.07c.317-.01.633-.023.944-.036zM144.58 457.363v8.069a49.6 49.6 0 0 1-.943.087v-8.069a49.6 49.6 0 0 0 .944-.087zM149.767 456.686v8.069c-.307.052-.622.105-.946.155v-8.069c.324-.05.64-.102.946-.155zM154.951 455.374v8.068c-.29.116-.605.226-.946.331v-8.069c.341-.105.656-.215.946-.33z"
     class="colorfa9926 svgShape"
     id="path212" />
  <text
     xml:space="preserve"
     style="fill:#3d0c02;fill-opacity:1"
     x="219.41409"
     y="454.67267"
     id="text3289"><tspan
       sodipodi:role="line"
       id="tspan3287"
       x="219.41409"
       y="454.67267">CFA</tspan></text>
</svg>
