<svg xmlns="http://www.w3.org/2000/svg" width="28" height="28" fill="none" viewBox="0 0 28 28">
  <path fill="#fff" fill-rule="evenodd" d="M18.581 6.187a1.384 1.384 0 0 1 2.109 1.792L8.93 21.813a1.382 1.382 0 0 1-1.973.138L.73 16.418a1.383 1.383 0 0 1 1.838-2.069l5.17 4.595L18.58 6.187Zm7.982 7.793h-5.712a1.17 1.17 0 0 1 0-2.34h5.712a1.17 1.17 0 1 1 0 2.34Zm-2.937 3.994h-5.712a1.17 1.17 0 0 1 0-2.34h5.712a1.17 1.17 0 1 1 0 2.34Zm-2.938 3.994h-5.711a1.17 1.17 0 1 1 0-2.34h5.71a1.17 1.17 0 1 1 0 2.34Z" clip-rule="evenodd"/>
</svg>
