<svg xmlns="http://www.w3.org/2000/svg" width="22" height="22" fill="none" viewBox="0 0 22 22">
  <mask id="a" width="17" height="15" x="5" y="3" maskUnits="userSpaceOnUse" style="mask-type:alpha">
    <path fill="#fff" fill-rule="evenodd" d="M5.5 3.85H22v13.2H5.5V3.85Z" clip-rule="evenodd"/>
  </mask>
  <g mask="url(#a)">
    <path fill="#fff" fill-opacity=".5" fill-rule="evenodd" d="M20.062 4.238a1.1 1.1 0 1 1 1.676 1.425l-9.35 11a1.1 1.1 0 0 1-1.569.109l-4.95-4.4a1.1 1.1 0 1 1 1.462-1.644l4.11 3.653 8.62-10.143Z" clip-rule="evenodd"/>
  </g>
  <mask id="b" width="17" height="15" x="0" y="4" maskUnits="userSpaceOnUse" style="mask-type:alpha">
    <path fill="#fff" fill-rule="evenodd" d="M0 4.95h16.5v13.2H0V4.95Z" clip-rule="evenodd"/>
  </mask>
  <g mask="url(#b)">
    <path fill="#fff" fill-rule="evenodd" d="M14.562 5.338a1.1 1.1 0 0 1 1.676 1.425l-9.35 11a1.1 1.1 0 0 1-1.569.109l-4.95-4.4a1.1 1.1 0 1 1 1.462-1.644l4.11 3.652 8.62-10.142Z" clip-rule="evenodd"/>
  </g>
</svg>
