<svg xmlns="http://www.w3.org/2000/svg" width="34" height="34" fill="none" viewBox="0 0 34 34">
  <mask id="a" width="24" height="31" x="5" y="0" maskUnits="userSpaceOnUse" style="mask-type:alpha">
    <path fill="#fff" fill-rule="evenodd" d="M5.666 0h22.667v30.762H5.666V0Z" clip-rule="evenodd"/>
  </mask>
  <g mask="url(#a)">
    <path fill="#4985FE" fill-rule="evenodd" d="M20.238 16.19a1.62 1.62 0 0 0-1.618 1.62v1.62a1.62 1.62 0 0 0 1.618 1.619h1.62a1.62 1.62 0 0 0 1.618-1.62v-1.62a1.62 1.62 0 0 0-1.619-1.619h-1.619Zm-8.094 0a1.62 1.62 0 0 0-1.62 1.62v1.62a1.62 1.62 0 0 0 1.62 1.619h1.617a1.62 1.62 0 0 0 1.62-1.62v-1.62a1.62 1.62 0 0 0-1.62-1.619h-1.617Zm0-6.475c-.896 0-1.62.724-1.62 1.619v1.617c0 .896.724 1.62 1.62 1.62h1.617c.895 0 1.62-.724 1.62-1.62v-1.617a1.62 1.62 0 0 0-1.62-1.62h-1.617Zm8.094-6.476c-.894 0-1.618.723-1.618 1.618v1.619c0 .894.724 1.62 1.618 1.62h1.62a1.62 1.62 0 0 0 1.618-1.62v-1.62c0-.894-.724-1.617-1.619-1.617h-1.619Zm-8.094 0c-.896 0-1.62.723-1.62 1.618v1.619c0 .894.724 1.62 1.62 1.62h1.617a1.62 1.62 0 0 0 1.62-1.62v-1.62c0-.894-.725-1.617-1.62-1.617h-1.617Zm7.285 27.523v-4.857a1.62 1.62 0 0 0-1.619-1.62h-1.62a1.62 1.62 0 0 0-1.619 1.62v4.857H5.666V3.239a3.24 3.24 0 0 1 3.239-3.24h16.19a3.238 3.238 0 0 1 3.238 3.24v27.523H19.43Z" clip-rule="evenodd"/>
  </g>
  <path fill="#fff" fill-rule="evenodd" d="M20.238 9.714h1.62c.894 0 1.618.725 1.618 1.62v1.618c0 .895-.724 1.62-1.619 1.62h-1.619a1.618 1.618 0 0 1-1.618-1.62v-1.619c0-.894.724-1.619 1.618-1.619Z" clip-rule="evenodd"/>
  <mask id="b" width="30" height="4" x="2" y="30" maskUnits="userSpaceOnUse" style="mask-type:alpha">
    <path fill="#fff" fill-rule="evenodd" d="M2.43 30.761h29.14V34H2.43v-3.239Z" clip-rule="evenodd"/>
  </mask>
  <g mask="url(#b)">
    <path fill="#4985FE" fill-opacity=".3" fill-rule="evenodd" d="M4.048 30.761h25.905a1.62 1.62 0 0 1 1.618 1.62v.647a.971.971 0 0 1-.97.973H3.399a.971.971 0 0 1-.97-.973v-.648c0-.893.723-1.619 1.62-1.619Z" clip-rule="evenodd"/>
  </g>
</svg>
