<svg xmlns="http://www.w3.org/2000/svg" width="18" height="18" fill="none" viewBox="0 0 18 18">
  <path fill="#fff" fill-opacity=".3" fill-rule="evenodd" d="M12.761 11.317H5.237A1.607 1.607 0 0 1 3.63 9.711V1.606C3.63.718 4.35 0 5.237 0h7.524c.888 0 1.606.718 1.606 1.606v8.105c0 .887-.718 1.606-1.606 1.606Z" clip-rule="evenodd"/>
  <path fill="#fff" fill-rule="evenodd" d="M13.932 13.97a1.362 1.362 0 0 1-1.363-1.363 1.362 1.362 0 1 1 2.727 0c0 .755-.609 1.364-1.364 1.364Zm1.205-6.75H2.863c-.852 0-1.537.604-1.537 1.35v8.088c0 .74.685 1.342 1.537 1.342h12.274c.852 0 1.537-.602 1.537-1.342V8.57c0-.747-.685-1.35-1.537-1.35Zm-4.004-4.022L9.407 1.47a.577.577 0 0 0-.815 0L6.864 3.198a.577.577 0 0 0 .816.814l.744-.744v2.583a.576.576 0 1 0 1.15 0V3.268l.746.744a.574.574 0 0 0 .813 0 .573.573 0 0 0 0-.814Z" clip-rule="evenodd"/>
</svg>
