<?xml version="1.0" encoding="UTF-8" standalone="no"?>
<!-- Created with Inkscape (http://www.inkscape.org/) -->

<svg
   width="135.46666mm"
   height="135.46666mm"
   viewBox="0 0 135.46666 135.46666"
   version="1.1"
   id="svg5"
   xml:space="preserve"
   inkscape:version="1.2.2 (732a01da63, 2022-12-09)"
   sodipodi:docname="user.svg"
   xmlns:inkscape="http://www.inkscape.org/namespaces/inkscape"
   xmlns:sodipodi="http://sodipodi.sourceforge.net/DTD/sodipodi-0.dtd"
   xmlns="http://www.w3.org/2000/svg"
   xmlns:svg="http://www.w3.org/2000/svg"><sodipodi:namedview
     id="namedview7"
     pagecolor="#ffffff"
     bordercolor="#000000"
     borderopacity="0.25"
     inkscape:showpageshadow="2"
     inkscape:pageopacity="0.0"
     inkscape:pagecheckerboard="0"
     inkscape:deskcolor="#d1d1d1"
     inkscape:document-units="mm"
     showgrid="false"
     inkscape:zoom="0.73851712"
     inkscape:cx="351.3798"
     inkscape:cy="288.41579"
     inkscape:window-width="1920"
     inkscape:window-height="1009"
     inkscape:window-x="-8"
     inkscape:window-y="-8"
     inkscape:window-maximized="1"
     inkscape:current-layer="layer1" /><defs
     id="defs2" /><g
     inkscape:label="Calque 1"
     inkscape:groupmode="layer"
     id="layer1"
     transform="translate(0.73815489,42.296658)"><g
       id="g302"><path
         style="display:inline;fill:#e3f4fd;stroke-width:0.264583"
         d="m 59.627898,78.824165 c -2.205885,-5.54001 -4.488527,-13.115967 -5.311384,-17.628166 -0.603789,-3.310942 -0.759774,-4.273912 -0.692306,-4.273912 0.02717,0 0.665631,0.759513 1.418799,1.687809 1.717064,2.116317 2.601804,2.53655 4.160372,1.976093 l 1.121431,-0.403264 1.72571,2.206527 1.725711,2.206529 -1.834933,7.209507 c -1.009214,3.965228 -1.878103,7.328569 -1.930866,7.47409 -0.05276,0.145521 -0.224904,-0.05933 -0.382534,-0.455213 z m 12.480736,-6.793606 -1.878528,-7.39005 1.742707,-2.383451 1.74271,-2.383451 0.727728,0.376324 c 1.618528,0.836973 2.918193,0.319485 4.590465,-1.827786 0.949534,-1.219242 1.067303,-1.296091 1.145569,-0.747527 0.234778,1.645491 -2.180174,11.183376 -4.349345,17.177802 -1.933408,5.342908 -1.577184,5.613032 -3.721306,-2.821861 z m -50.655539,3.74309 c -0.329107,-0.419645 -0.319749,-0.429004 0.0999,-0.0999 0.254661,0.19972 0.463021,0.40808 0.463021,0.46302 0,0.217763 -0.217272,0.0776 -0.562916,-0.363124 z m 90.521245,0.363124 c 0,-0.05494 0.20836,-0.2633 0.46302,-0.46302 0.41965,-0.329108 0.429,-0.319749 0.0999,0.0999 -0.34565,0.440729 -0.56292,0.580887 -0.56292,0.363124 z m 4.23333,-4.233333 c 0,-0.05494 0.20836,-0.2633 0.46302,-0.463021 0.41965,-0.329107 0.42901,-0.319748 0.0999,0.0999 -0.34564,0.440729 -0.56292,0.580887 -0.56292,0.363124 z M 15.645986,69.688232 15.004553,68.960628 15.732157,69.60206 c 0.680055,0.599517 0.848939,0.813776 0.641433,0.813776 -0.04739,0 -0.374816,-0.327421 -0.727604,-0.727604 z m 102.413774,0.09854 c 0,-0.05494 0.20836,-0.2633 0.46302,-0.463021 0.41964,-0.329107 0.429,-0.319749 0.0999,0.0999 -0.34564,0.44073 -0.56291,0.580887 -0.56291,0.363125 z M 13.251012,66.777816 c -0.329107,-0.419645 -0.319749,-0.429004 0.0999,-0.0999 0.254661,0.19972 0.463021,0.40808 0.463021,0.463021 0,0.217762 -0.217272,0.0776 -0.562916,-0.363125 z m 59.002079,-8.202083 c -0.329107,-0.419645 -0.319749,-0.429003 0.0999,-0.0999 0.44073,0.345644 0.580888,0.562917 0.363125,0.562917 -0.05494,0 -0.2633,-0.20836 -0.463021,-0.463021 z m -1.852083,-1.5875 c -0.329107,-0.419645 -0.319749,-0.429003 0.0999,-0.0999 0.254662,0.199721 0.463021,0.40808 0.463021,0.463021 0,0.217762 -0.217273,0.07761 -0.562917,-0.363125 z M 0.8702332,40.628165 c 0.0126958,-0.308226 0.0753905,-0.370919 0.1598524,-0.159853 0.07643,0.190995 0.067031,0.4192 -0.020888,0.507119 -0.0879188,0.08792 -0.15045272,-0.06835 -0.1389644,-0.347266 z m -0.79374996,-3.96875 c 0.01269576,-0.308226 0.07539045,-0.370919 0.1598524,-0.159853 0.0764303,0.190995 0.0670307,0.419201 -0.0208881,0.507119 -0.0879188,0.08792 -0.15045276,-0.06835 -0.1389643,-0.347266 z m -0.24369519,-1.697743 c 0,-0.363803 0.0600535,-0.512631 0.13345213,-0.33073 0.07339866,0.181901 0.07339866,0.479558 0,0.661459 -0.07339867,0.181901 -0.13345213,0.03307 -0.13345213,-0.330729 z M 133.95564,35.071915 c 0.0127,-0.308226 0.0754,-0.370919 0.15985,-0.159853 0.0764,0.190995 0.067,0.419201 -0.0209,0.507119 -0.0879,0.08792 -0.15045,-0.06835 -0.13897,-0.347266 z M -0.4219914,32.712713 c 0.005392,-0.436562 0.0646903,-0.583125 0.13177361,-0.325694 0.0670834,0.257432 0.0626716,0.614619 -0.009804,0.79375 -0.0724755,0.179131 -0.12736186,-0.03149 -0.12196961,-0.468056 z M 134.22023,32.955249 c 0.0127,-0.308226 0.0754,-0.370919 0.15985,-0.159853 0.0764,0.190994 0.067,0.4192 -0.0209,0.507119 -0.0879,0.08792 -0.15045,-0.06835 -0.13896,-0.347266 z M -0.66248032,29.537713 c 0.001987,-0.727604 0.0533698,-0.993857 0.11418545,-0.591674 0.0608156,0.402183 0.0591904,0.997495 -0.003612,1.322917 -0.062802,0.325421 -0.11256025,-0.0036 -0.11057345,-0.731243 z M 134.52531,29.934588 c 0,-0.509322 0.0545,-0.717682 0.121,-0.46302 0.0666,0.254661 0.0666,0.67138 0,0.926041 -0.0666,0.254662 -0.121,0.0463 -0.121,-0.463021 z M -0.66248032,21.335631 c 0.001987,-0.727605 0.0533698,-0.993857 0.11418545,-0.591675 0.0608156,0.402183 0.0591904,0.997495 -0.003612,1.322917 -0.062802,0.325421 -0.11256025,-0.0036 -0.11057345,-0.731242 z M 134.5155,20.806464 c 0.005,-0.436563 0.0647,-0.583126 0.13178,-0.325694 0.0671,0.257431 0.0627,0.614619 -0.01,0.79375 -0.0725,0.179131 -0.12736,-0.03149 -0.12197,-0.468056 z M -0.43179527,18.028339 c 0,-0.363802 0.0600535,-0.51263 0.13345213,-0.330729 0.0733987,0.181901 0.0733987,0.479557 0,0.661458 -0.0733987,0.181901 -0.13345213,0.03307 -0.13345213,-0.330729 z M 134.22023,17.874 c 0.0127,-0.308227 0.0754,-0.37092 0.15985,-0.159854 0.0764,0.190995 0.067,0.419198 -0.0209,0.507119 -0.0879,0.08792 -0.15045,-0.06835 -0.13896,-0.347265 z M -0.16721195,15.911672 c 0,-0.363802 0.0600535,-0.51263 0.13345213,-0.330729 0.07339866,0.181901 0.07339866,0.479558 0,0.661459 -0.07339867,0.181901 -0.13345213,0.03307 -0.13345213,-0.33073 z M 133.95564,15.757333 c 0.0127,-0.308226 0.0754,-0.370919 0.15985,-0.159853 0.0764,0.190995 0.067,0.419198 -0.0209,0.507119 -0.0879,0.08792 -0.15045,-0.06835 -0.13897,-0.347266 z M 0.07648324,14.169833 c 0.01269576,-0.308226 0.07539045,-0.370919 0.1598524,-0.159853 0.0764303,0.190995 0.0670307,0.419198 -0.0208881,0.507119 -0.0879188,0.08792 -0.15045276,-0.06835 -0.1389643,-0.347266 z M 14.210803,-17.161243 c 0.263389,-0.291041 0.53842,-0.529166 0.611181,-0.529166 0.07276,0 -0.08321,0.238125 -0.346598,0.529166 -0.263389,0.291042 -0.53842,0.529167 -0.611181,0.529167 -0.07276,0 0.08321,-0.238125 0.346598,-0.529167 z m 1.322916,-1.587499 c 0.263389,-0.291042 0.538421,-0.529167 0.611181,-0.529167 0.07276,0 -0.08321,0.238125 -0.346597,0.529167 -0.263389,0.291041 -0.538421,0.529166 -0.611181,0.529166 -0.07276,0 0.08321,-0.238125 0.346597,-0.529166 z m 102.756871,0.06614 c -0.32911,-0.419644 -0.31975,-0.429002 0.0999,-0.09989 0.44072,0.345643 0.58088,0.562915 0.36312,0.562915 -0.0549,0 -0.2633,-0.208359 -0.46302,-0.463021 z m -3.54364,-3.836458 -2.37574,-2.447396 2.4474,2.375734 c 1.34607,1.306654 2.4474,2.407982 2.4474,2.447396 0,0.192101 -0.31254,-0.102647 -2.51906,-2.375734 z m -95.773648,0.06615 c 1.010841,-1.018646 1.897423,-1.852083 1.970183,-1.852083 0.07276,0 -0.694759,0.833437 -1.705599,1.852083 -1.010841,1.018646 -1.897423,1.852083 -1.970183,1.852083 -0.07276,0 0.694759,-0.833437 1.705599,-1.852083 z m 3.571875,-3.307291 c 0.341774,-0.363803 0.680939,-0.661459 0.7537,-0.661459 0.07276,0 -0.147342,0.297656 -0.489116,0.661459 -0.341775,0.363802 -0.680939,0.661458 -0.7537,0.661458 -0.07276,0 0.147342,-0.297656 0.489116,-0.661458 z m 88.337083,-0.33073 c -0.32911,-0.419644 -0.31975,-0.429002 0.0999,-0.09989 0.44073,0.345643 0.58089,0.562915 0.36313,0.562915 -0.0549,0 -0.2633,-0.208359 -0.46302,-0.463021 z m -87.014166,-0.695207 c 0,-0.05494 0.208359,-0.263302 0.463021,-0.463021 0.419644,-0.329107 0.429002,-0.319749 0.09989,0.0999 -0.345643,0.440729 -0.562915,0.580887 -0.562915,0.363126 z m 27.731639,-13.839178 c 0.190995,-0.07643 0.419198,-0.06703 0.507119,0.02089 0.08792,0.08792 -0.06835,0.150452 -0.347266,0.138964 -0.308226,-0.0127 -0.370919,-0.07539 -0.159853,-0.159852 z m 3.96875,-0.79375 c 0.190995,-0.07643 0.419198,-0.06703 0.507119,0.02089 0.08792,0.08792 -0.06835,0.150453 -0.347266,0.138964 -0.308226,-0.0127 -0.370919,-0.07539 -0.159853,-0.159852 z m 1.570963,-0.259071 c 0.181901,-0.0734 0.479558,-0.0734 0.661459,0 0.181901,0.0734 0.03307,0.133452 -0.330729,0.133452 -0.363802,0 -0.512631,-0.06005 -0.33073,-0.133452 z m 19.331119,-0.0055 c 0.190995,-0.07643 0.419201,-0.06703 0.507119,0.02089 0.08792,0.08792 -0.06835,0.150452 -0.347265,0.138964 -0.308227,-0.0127 -0.37092,-0.07539 -0.159854,-0.159853 z m -2.116666,-0.264583 c 0.190994,-0.07643 0.4192,-0.06703 0.507119,0.02089 0.08792,0.08792 -0.06835,0.150453 -0.347266,0.138964 -0.308226,-0.0127 -0.370919,-0.07539 -0.159853,-0.159852 z m -12.716536,-0.259071 c 0.181901,-0.0734 0.479557,-0.0734 0.661458,0 0.181901,0.0734 0.03307,0.133452 -0.330729,0.133452 -0.363802,0 -0.51263,-0.06005 -0.330729,-0.133452 z m 9.662326,-0.0081 c 0.257432,-0.06708 0.614619,-0.06267 0.79375,0.0098 0.179131,0.07248 -0.03149,0.127362 -0.468056,0.12197 -0.436562,-0.0054 -0.583126,-0.06469 -0.325694,-0.131773 z"
         id="path330" /><path
         style="display:inline;fill:#cae1fd;stroke-width:0.264583"
         d="M 16.178077,70.108369 C 8.6656904,61.55202 3.3299856,50.999482 0.86671093,39.82675 -0.17341955,35.109007 -0.56647575,31.116675 -0.56305719,25.30438 -0.55839471,17.377162 0.39305078,11.310254 2.7418222,4.2307634 10.676408,-19.685072 31.359355,-37.3475 56.120179,-41.352265 c 2.125297,-0.343741 2.570437,-0.332395 5.340014,0.136104 8.802909,1.489095 18.01497,5.171307 25.649985,10.252719 16.769592,11.160847 27.341242,28.3330228 29.916312,48.594906 0.43027,3.385566 0.43372,12.183469 0.006,15.610416 -0.85861,6.881307 -2.82586,13.953283 -5.6037,20.144572 -0.72619,1.618546 -0.82379,1.725068 -1.24573,1.359686 -1.20714,-1.045342 -3.39648,-1.930096 -9.9828,-4.034245 -6.68722,-2.136386 -7.612963,-2.513091 -14.485938,-5.894667 l -7.342174,-3.612433 v -3.849484 -3.849483 l 1.907683,-1.587183 c 4.302196,-3.579402 6.724816,-7.87088 7.689566,-13.621456 0.336577,-2.006213 0.498557,-2.222208 1.888032,-2.517642 0.423313,-0.09001 1.153319,-0.547307 1.622235,-1.016222 l 0.852572,-0.852572 0.192527,-6.209435 c 0.105891,-3.4151886 0.149791,-8.7692781 0.09756,-11.8979759 l -0.09497,-5.6885414 -0.818388,-1.4552087 c -1.050338,-1.867646 -2.85314,-3.028121 -5.098907,-3.282201 -1.935062,-0.218926 -2.438699,-0.722341 -2.707995,-2.706802 -0.268965,-1.981999 -1.367226,-3.708484 -3.002282,-4.719626 l -1.294834,-0.800745 -12.456503,-0.08056 c -8.483994,-0.05486 -12.962776,0.01492 -14.044006,0.218829 -5.146675,0.970602 -9.424347,4.939999 -11.113682,10.312767 -0.572818,1.821789 -0.819896,11.11237 -0.531091,19.9699317 0.231159,7.0895523 0.320641,7.3481663 2.824972,8.1646263 l 1.489486,0.485597 0.311613,2.131121 c 0.402235,2.750915 1.464505,5.727316 2.916107,8.170727 1.197888,2.016339 4.257358,5.307817 5.756241,6.192745 l 0.859895,0.507677 v 3.990554 3.990557 l -7.377019,3.630443 c -6.921886,3.40646 -7.815609,3.770175 -14.485937,5.895297 -3.909904,1.245669 -7.714464,2.610144 -8.454579,3.032165 -2.98723,1.703353 -5.335169,4.478882 -6.651101,7.862344 -0.606005,1.558134 -0.711121,2.30028 -0.845553,5.969786 L 17.650386,71.78528 Z M 134.22023,32.161499 c 0.0127,-0.308226 0.0754,-0.370919 0.15985,-0.159853 0.0764,0.190994 0.067,0.4192 -0.0209,0.507119 -0.0879,0.08792 -0.15045,-0.06835 -0.13896,-0.347266 z m 0.29527,-3.682119 c 0.005,-0.436562 0.0647,-0.583126 0.13178,-0.325694 0.0671,0.257432 0.0627,0.614619 -0.01,0.79375 -0.0725,0.179131 -0.12736,-0.03149 -0.12197,-0.468056 z m 0.01,-6.217708 c 0,-0.509323 0.0545,-0.717682 0.121,-0.463021 0.0666,0.254662 0.0666,0.671381 0,0.926042 -0.0666,0.254661 -0.121,0.0463 -0.121,-0.463021 z M 59.537233,-41.948232 c 0.190995,-0.07643 0.419198,-0.06703 0.507119,0.02089 0.08792,0.08792 -0.06835,0.150453 -0.347266,0.138964 -0.308226,-0.0127 -0.370919,-0.07539 -0.159853,-0.159852 z m 3.29579,-0.267196 c 0.257431,-0.06708 0.614619,-0.06267 0.79375,0.0098 0.179131,0.07248 -0.03149,0.127362 -0.468056,0.12197 -0.436563,-0.0054 -0.583126,-0.06469 -0.325694,-0.131773 z m 6.874131,9.69e-4 c 0.254662,-0.06655 0.67138,-0.06655 0.926042,0 0.254661,0.06655 0.0463,0.121 -0.463021,0.121 -0.509323,0 -0.717682,-0.05445 -0.463021,-0.121 z"
         id="path328" /><path
         style="fill:#fddbcd;stroke-width:0.264583"
         d="m 61.503553,47.910258 -5.885461,-6.639687 -0.01764,-4.014346 -0.01764,-4.014345 -1.918819,-1.485508 c -2.205112,-1.70715 -4.275254,-4.300691 -5.598033,-7.013395 -0.947277,-1.942642 -1.972868,-5.446276 -1.972868,-6.739736 0,-1.191694 -0.456176,-2.091569 -1.060283,-2.091569 -1.019898,0 -2.366606,-0.760087 -2.901686,-1.637723 -0.471707,-0.773697 -0.534085,-1.330872 -0.534958,-4.778422 l -9.9e-4,-3.902604 2.315104,-0.00159 c 2.905305,-0.00185 3.972222,-0.2960582 5.022591,-1.3849985 1.128712,-1.170162 1.393555,-2.0003001 1.393555,-4.36804832 0,-2.60334378 0.642982,-4.03392458 2.231472,-4.96483988 1.366102,-0.8005921 2.525731,-0.8321172 4.871204,-0.1324292 4.419761,1.3184795 10.67782,1.7050225 14.990031,0.9258934 1.164167,-0.2103411 2.265495,-0.3847808 2.447396,-0.3876463 0.259958,-0.0041 0.330729,2.6508365 0.330729,12.4069363 0,13.3916415 -0.09264,14.5641215 -1.43116,18.1126775 -1.374447,3.643803 -4.306319,7.418312 -7.437101,9.574565 -0.797769,0.549445 -1.450488,1.053711 -1.450488,1.120595 0,0.283514 6.087249,-0.190195 7.540624,-0.586811 1.751706,-0.478031 5.25472,-2.056971 6.084295,-2.742425 0.291658,-0.240988 0.38146,-0.268679 0.199559,-0.06154 -0.232561,0.264835 -0.330729,1.533163 -0.330729,4.273032 v 3.896407 l -5.387864,6.327291 c -2.963325,3.480008 -5.434554,6.467363 -5.491622,6.638564 -0.05707,0.171199 -2.752215,-2.676585 -5.989219,-6.328415 z M 80.885799,31.257505 c 0.26339,-0.291042 0.538422,-0.529167 0.611183,-0.529167 0.07276,0 -0.08321,0.238125 -0.346599,0.529167 -0.26339,0.291042 -0.538422,0.529167 -0.611182,0.529167 -0.07276,0 0.08321,-0.238125 0.346598,-0.529167 z m 1.719792,-1.719792 c 0.341776,-0.363802 0.68094,-0.661458 0.7537,-0.661458 0.07276,0 -0.147341,0.297656 -0.489117,0.661458 -0.341775,0.363803 -0.680939,0.661459 -0.7537,0.661459 -0.07276,0 0.147342,-0.297656 0.489117,-0.661459 z m 5.047972,-10.340797 c 0.0127,-0.308226 0.07539,-0.370919 0.159851,-0.159853 0.07643,0.190995 0.06703,0.419198 -0.02088,0.507119 -0.08792,0.08792 -0.150453,-0.06835 -0.138964,-0.347266 z m 0.285469,-1.962327 c 0,-0.363802 0.06006,-0.51263 0.133454,-0.330729 0.0734,0.181901 0.0734,0.479557 0,0.661458 -0.0734,0.181901 -0.133454,0.03307 -0.133454,-0.330729 z m 1.496116,-1.503656 c 0.190995,-0.07643 0.4192,-0.06703 0.507119,0.02088 0.08792,0.08792 -0.06835,0.150452 -0.347266,0.138964 -0.308226,-0.0127 -0.370919,-0.07539 -0.159853,-0.159851 z"
         id="path326" /><path
         style="fill:#c5dbf8;stroke-width:0.264583"
         d="m 116.73684,71.10969 c 0,-0.05494 0.20836,-0.2633 0.46302,-0.46302 0.41965,-0.329108 0.429,-0.319749 0.0999,0.0999 -0.34565,0.440729 -0.56292,0.580887 -0.56292,0.363124 z m 0.0209,-36.302358 c 0.0127,-0.308226 0.0754,-0.370919 0.15985,-0.159853 0.0764,0.190995 0.067,0.4192 -0.0209,0.507119 -0.0879,0.08792 -0.15046,-0.06835 -0.13897,-0.347266 z m 0.28546,-2.22691 c 0,-0.363802 0.0601,-0.512631 0.13345,-0.33073 0.0734,0.181902 0.0734,0.479558 0,0.661459 -0.0734,0.181901 -0.13345,0.03307 -0.13345,-0.330729 z m 0.29487,-3.175 c 0,-0.654844 0.0516,-0.922735 0.11466,-0.595313 0.0631,0.327422 0.0631,0.863203 0,1.190625 -0.0631,0.327422 -0.11466,0.05953 -0.11466,-0.595312 z m 17.17743,-2.248958 c 0.005,-0.436563 0.0647,-0.583126 0.13178,-0.325695 0.0671,0.257432 0.0627,0.61462 -0.01,0.79375 -0.0725,0.179131 -0.12736,-0.03149 -0.12197,-0.468055 z m 0,-3.439584 c 0.005,-0.436562 0.0647,-0.583125 0.13178,-0.325694 0.0671,0.257432 0.0627,0.614619 -0.01,0.79375 -0.0725,0.179131 -0.12736,-0.03149 -0.12197,-0.468056 z m -17.18277,-2.116666 c 0.003,-0.582083 0.0571,-0.789054 0.12041,-0.459936 0.0633,0.329118 0.0609,0.805368 -0.005,1.058333 -0.0662,0.252966 -0.118,-0.01632 -0.11507,-0.598397 z m -0.28953,-3.307292 c 0,-0.363802 0.0601,-0.51263 0.13345,-0.330729 0.0734,0.181901 0.0734,0.479557 0,0.661459 -0.0734,0.181901 -0.13345,0.03307 -0.13345,-0.33073 z m -0.28547,-2.271006 c 0.0127,-0.308226 0.0754,-0.370919 0.15985,-0.159853 0.0764,0.190995 0.067,0.419198 -0.0209,0.507119 -0.0879,0.08792 -0.15045,-0.06835 -0.13896,-0.347266 z m -0.52917,-3.174999 c 0.0127,-0.308227 0.0754,-0.37092 0.15985,-0.159854 0.0764,0.190995 0.067,0.419198 -0.0209,0.507119 -0.0879,0.08792 -0.15046,-0.06835 -0.13897,-0.347265 z M 115.96398,11.524 c 0.0127,-0.308226 0.0754,-0.370919 0.15985,-0.159853 0.0764,0.190994 0.067,0.419198 -0.0209,0.507119 -0.0879,0.08792 -0.15045,-0.06835 -0.13896,-0.347266 z m -15.13589,-30.47118 c -0.32911,-0.419644 -0.31975,-0.429002 0.0999,-0.0999 0.25466,0.199719 0.46302,0.408079 0.46302,0.463021 0,0.217761 -0.21728,0.0776 -0.56292,-0.363126 z m 16.13958,-1.058333 c -0.3291,-0.419644 -0.31975,-0.429003 0.0999,-0.0999 0.25466,0.199719 0.46302,0.408078 0.46302,0.463021 0,0.217761 -0.21727,0.0776 -0.56292,-0.363126 z m -19.421403,-2.513542 -1.579218,-1.653646 1.653645,1.579218 c 1.536097,1.466958 1.77472,1.728074 1.579219,1.728074 -0.04094,0 -0.785077,-0.744141 -1.653646,-1.653646 z m -3.597343,-3.307291 c -0.329108,-0.419644 -0.319749,-0.429003 0.0999,-0.0999 0.440729,0.345643 0.580887,0.562915 0.363124,0.562915 -0.05494,0 -0.2633,-0.208359 -0.46302,-0.46302 z m -1.5875,-1.322917 c -0.329108,-0.419644 -0.319749,-0.429002 0.0999,-0.0999 0.440729,0.345644 0.580887,0.562916 0.363124,0.562916 -0.05494,0 -0.2633,-0.208359 -0.46302,-0.463021 z M 60.860149,-41.419065 c 0.190995,-0.07643 0.419198,-0.06703 0.507119,0.02089 0.08792,0.08792 -0.06835,0.150453 -0.347265,0.138964 -0.308227,-0.0127 -0.37092,-0.07539 -0.159854,-0.159852 z m -1.852083,-0.264584 c 0.190995,-0.07643 0.419198,-0.06703 0.507119,0.02089 0.08792,0.08792 -0.06835,0.150453 -0.347266,0.138965 -0.308226,-0.0127 -0.370919,-0.07539 -0.159853,-0.159853 z m 5.027083,-0.529166 c 0.190995,-0.07643 0.419198,-0.06703 0.507119,0.02089 0.08792,0.08792 -0.06835,0.150453 -0.347265,0.138964 -0.308227,-0.0127 -0.37092,-0.07539 -0.159854,-0.159852 z m 1.174089,-0.0016 c 0.254661,-0.06655 0.67138,-0.06655 0.926041,0 0.254662,0.06655 0.0463,0.121 -0.46302,0.121 -0.509323,0 -0.717683,-0.05445 -0.463021,-0.121 z m 2.910416,0 c 0.254662,-0.06655 0.67138,-0.06655 0.926042,0 0.254661,0.06655 0.0463,0.121 -0.463021,0.121 -0.509323,0 -0.717682,-0.05445 -0.463021,-0.121 z"
         id="path324" /><path
         style="fill:#bcd6f9;stroke-width:0.264583"
         d="m 116.20767,68.473099 c 0,-1.827585 -0.12979,-3.953822 -0.28842,-4.724969 -0.44988,-2.186995 -2.15838,-5.453805 -3.73191,-7.135748 l -1.40363,-1.500333 1.01847,-2.336125 c 2.41115,-5.530591 4.178,-11.650432 5.10493,-17.681961 0.67644,-4.401521 0.68331,-14.814189 0.0127,-19.182291 -3.85609,-25.1157379 -20.458312,-45.572444 -43.97149,-54.18018 -3.209531,-1.174949 -9.691769,-2.875957 -11.988389,-3.145879 -1.269085,-0.149156 -1.382586,-0.205862 -0.826741,-0.413051 0.895889,-0.333939 11.217285,-0.300827 14.270338,0.04578 15.425922,1.75128 29.432642,8.500903 40.356742,19.447299 10.91694,10.939222 17.79079,25.2024644 19.45188,40.362697 0.72059,6.57657 0.22034,15.704592 -1.20727,22.028787 -2.54027,11.25326 -8.05631,22.016904 -15.56005,30.362867 l -1.23714,1.375992 z M 22.016011,56.260629 c 0.493655,-0.509323 0.957086,-0.926042 1.029846,-0.926042 0.07276,0 -0.271608,0.416719 -0.765263,0.926042 -0.493655,0.509323 -0.957086,0.926041 -1.029847,0.926041 -0.07276,0 0.271609,-0.416718 0.765264,-0.926041 z M 41.448237,-0.62478505 c -1.11e-4,-4.51114565 0.03597,-6.39380935 0.08017,-4.18369995 0.0442,2.2101121 0.0443,5.9010494 2.03e-4,8.2020829 -0.04409,2.3010362 -0.08026,0.4927627 -0.08038,-4.01838295 z m 51.06438,0.13229166 c 0,-4.43838521 0.03621,-6.25408821 0.08046,-4.03489561 0.04425,2.2191926 0.04425,5.8505986 0,8.0697912 -0.04425,2.2191926 -0.08046,0.4034896 -0.08046,-4.03489559 z M 81.918995,-21.196138 l -0.504029,-0.595313 0.595313,0.504028 c 0.559445,0.473662 0.715761,0.686597 0.504028,0.686597 -0.05021,0 -0.318098,-0.26789 -0.595312,-0.595312 z"
         id="path322" /><path
         style="fill:#fdc9bc;stroke-width:0.264583"
         d="m 64.878509,36.494151 c 0,-0.06688 0.652719,-0.57115 1.450488,-1.120595 1.897639,-1.306954 4.557627,-4.145488 5.797679,-6.186831 1.277501,-2.102993 2.403888,-5.216077 2.792846,-7.718803 0.211447,-1.360551 0.282784,-5.823963 0.22692,-14.1980488 l -0.08148,-12.213674 1.984375,-0.5416127 c 2.823612,-0.770673 4.464891,-0.3161982 5.926124,1.6409669 0.422156,0.5654305 0.56818,1.2867799 0.692973,3.4232346 0.177332,3.0359454 0.560176,4.0385178 1.909723,5.0010878 0.757687,0.5404246 1.22981,0.6271021 3.840451,0.7050854 l 2.976562,0.088916 v 3.8221865 c 0,5.1216633 -0.436454,6.0838343 -2.973348,6.5547873 -1.085837,0.201575 -1.524569,0.763653 -1.524569,1.953188 0,1.321168 -1.025887,4.868262 -2.006856,6.938883 -2.568265,5.421069 -7.659785,9.678503 -13.471268,11.264418 -1.453375,0.396616 -7.540624,0.870326 -7.540624,0.586811 z"
         id="path320" /><path
         style="fill:#94b3ce;stroke-width:0.264583"
         d="m 61.918483,92.989262 c 0.190994,-0.07643 0.419198,-0.06703 0.507119,0.02088 0.08792,0.08792 -0.06835,0.150453 -0.347266,0.138965 -0.308226,-0.0127 -0.370919,-0.07539 -0.159853,-0.159851 z m 8.587456,-0.0026 c 0.257432,-0.06708 0.614619,-0.06267 0.79375,0.0098 0.179131,0.07248 -0.03149,0.127362 -0.468056,0.12197 -0.436562,-0.0054 -0.583126,-0.06469 -0.325694,-0.131773 z m 3.583376,-0.26197 c 0.190995,-0.07643 0.419201,-0.06703 0.507119,0.02088 0.08792,0.08792 -0.06835,0.150453 -0.347265,0.138964 -0.308227,-0.0127 -0.37092,-0.07539 -0.159854,-0.15985 z M 110.91601,76.930523 c 0,-0.05494 0.20836,-0.2633 0.46302,-0.46302 0.41964,-0.329108 0.429,-0.319749 0.0999,0.0999 -0.34564,0.440729 -0.56291,0.580887 -0.56291,0.363124 z m 3.83645,-3.60427 c 0.71667,-0.727604 1.36256,-1.322917 1.43532,-1.322917 0.0728,0 -0.45407,0.595313 -1.17073,1.322917 -0.71667,0.727604 -1.36256,1.322917 -1.43532,1.322917 -0.0728,0 0.45407,-0.595313 1.17073,-1.322917 z M 18.841011,73.193961 c -0.642681,-0.654843 -1.108979,-1.190625 -1.036219,-1.190625 0.07276,0 0.658122,0.535782 1.300802,1.190625 0.642681,0.654844 1.108979,1.190625 1.036218,1.190625 -0.07276,0 -0.658121,-0.535781 -1.300801,-1.190625 z m -1.037445,-8.22413 c 0.01269,-0.308227 0.07539,-0.37092 0.159852,-0.159854 0.07643,0.190995 0.06703,0.419201 -0.02089,0.507119 -0.08792,0.08792 -0.150453,-0.06835 -0.138964,-0.347265 z m 93.621584,-9.039931 -0.64144,-0.727604 0.72761,0.641432 c 0.68005,0.599516 0.84894,0.813776 0.64143,0.813776 -0.0474,0 -0.37481,-0.327422 -0.7276,-0.727604 z M 53.278618,55.599171 c 0,-0.363803 0.06005,-0.512631 0.133453,-0.33073 0.0734,0.181901 0.0734,0.479558 0,0.661459 -0.0734,0.181901 -0.133453,0.03307 -0.133453,-0.330729 z m 27.231195,-0.15434 c 0.0127,-0.308226 0.07539,-0.370919 0.159851,-0.159853 0.07643,0.190995 0.06703,0.4192 -0.02088,0.507119 -0.08792,0.08792 -0.150452,-0.06835 -0.138964,-0.347266 z m 0,-6.35 c 0.0127,-0.308226 0.07539,-0.370919 0.159851,-0.159853 0.07643,0.190995 0.06703,0.419201 -0.02088,0.507119 -0.08792,0.08792 -0.150452,-0.06835 -0.138964,-0.347266 z M 53.257731,48.830248 c 0.0127,-0.308226 0.07539,-0.370919 0.159851,-0.159853 0.07643,0.190995 0.06703,0.4192 -0.02088,0.507119 -0.08792,0.08792 -0.150452,-0.06835 -0.138964,-0.347266 z M 42.727638,5.3981182 c 0.695616,-0.054684 1.767178,-0.054023 2.38125,0.00159 0.614074,0.055488 0.04493,0.1002295 -1.264753,0.099423 -1.309688,-7.938e-4 -1.81211,-0.046207 -1.116497,-0.1008883 z m 21.290975,-9.505423 c 0.181901,-0.073398 0.479557,-0.073398 0.661458,0 0.181901,0.073398 0.03307,0.1334532 -0.330729,0.1334532 -0.363802,0 -0.51263,-0.060055 -0.330729,-0.1334532 z m 5.291666,0 c 0.181901,-0.073398 0.479557,-0.073398 0.661458,0 0.181901,0.073398 0.03307,0.1334532 -0.330729,0.1334532 -0.363802,0 -0.51263,-0.060055 -0.330729,-0.1334532 z M 54.493613,-5.959388 c 0.181901,-0.073398 0.479557,-0.073398 0.661459,0 0.181901,0.073398 0.03307,0.1334531 -0.33073,0.1334531 -0.363802,0 -0.51263,-0.060055 -0.330729,-0.1334531 z M 45.03476,-18.037783 c 0,-0.04553 0.386953,-0.432488 0.859895,-0.859896 l 0.859896,-0.777105 -0.777105,0.859896 c -0.724371,0.801543 -0.942686,0.981512 -0.942686,0.777105 z m 9.210806,-4.86045 c 0.190995,-0.07643 0.419198,-0.06703 0.507119,0.02089 0.08792,0.08792 -0.06835,0.150453 -0.347265,0.138964 -0.308227,-0.01269 -0.37092,-0.07539 -0.159854,-0.159852 z"
         id="path318" /><path
         style="fill:#e07e84;stroke-width:0.264583"
         d="m 64.189893,89.411911 c -1.552866,-3.083581 -4.073884,-8.97492 -4.073884,-9.520216 0,-0.276931 0.845769,-3.798557 1.879491,-7.825835 1.581272,-6.160484 1.828223,-7.407574 1.556382,-7.859609 -0.266403,-0.442994 -0.261926,-0.479245 0.02551,-0.20656 0.237739,0.225541 1.324769,0.330729 3.417784,0.330729 2.093016,0 3.180046,-0.105188 3.417785,-0.330729 0.28743,-0.27268 0.29193,-0.236463 0.02564,0.206346 -0.271632,0.451696 -0.02421,1.704168 1.556382,7.87868 1.033648,4.03788 1.879359,7.569766 1.879359,7.848631 0,0.532813 -3.596277,8.792321 -4.287803,9.847723 -0.276227,0.421579 -0.942916,0.7572 -2.135237,1.074906 -0.953482,0.254069 -1.861394,0.461942 -2.017581,0.461942 -0.156186,0 -0.715909,-0.857705 -1.243828,-1.906008 z M 61.174342,59.468024 c 0,-0.05494 0.208359,-0.2633 0.463021,-0.463021 0.419645,-0.329107 0.429003,-0.319749 0.0999,0.0999 -0.345644,0.440729 -0.562917,0.580887 -0.562917,0.363124 z m 10.814166,-0.892291 c -0.329107,-0.419645 -0.319749,-0.429003 0.0999,-0.0999 0.254661,0.199721 0.463021,0.40808 0.463021,0.463021 0,0.217762 -0.217273,0.0776 -0.562917,-0.363125 z m -9.226666,-0.430625 c 0,-0.05494 0.208359,-0.2633 0.463021,-0.463021 0.419645,-0.329107 0.429003,-0.319749 0.0999,0.0999 -0.345644,0.44073 -0.562917,0.580887 -0.562917,0.363125 z m 7.515487,-1.024583 -0.504029,-0.595313 0.595312,0.504029 c 0.559446,0.473662 0.715762,0.686596 0.504029,0.686596 -0.05021,0 -0.318098,-0.267891 -0.595312,-0.595312 z m -5.927987,-0.298334 c 0,-0.05494 0.208359,-0.2633 0.463021,-0.463021 0.419645,-0.329107 0.429003,-0.319749 0.0999,0.0999 -0.345644,0.44073 -0.562917,0.580888 -0.562917,0.363125 z m 3.934999,-1.421458 c -0.329107,-0.419645 -0.319748,-0.429003 0.0999,-0.0999 0.254661,0.199721 0.46302,0.40808 0.46302,0.463021 0,0.217762 -0.217273,0.0776 -0.562917,-0.363125 z m -2.347499,0.09854 c 0,-0.05494 0.208359,-0.2633 0.463021,-0.46302 0.419645,-0.329108 0.429003,-0.319749 0.0999,0.0999 -0.345644,0.440729 -0.562917,0.580887 -0.562917,0.363124 z"
         id="path316" /><path
         style="fill:#db626d;stroke-width:0.264583"
         d="m 65.411633,92.119429 c -0.40087,-0.785775 -0.44047,-1.013931 -0.157109,-0.905195 0.208367,0.07996 1.221039,-0.09295 2.250376,-0.384247 1.029338,-0.291295 1.871525,-0.475313 1.871525,-0.408926 0,0.06638 -0.299662,0.712054 -0.665917,1.434819 -0.629708,1.242671 -0.722921,1.314122 -1.714412,1.314122 -0.955582,0 -1.095997,-0.0931 -1.584463,-1.050573 z M 62.229088,62.341653 c -0.893795,-1.093822 -1.586053,-2.092563 -1.538351,-2.219423 0.0477,-0.126862 1.543857,-1.443545 3.324785,-2.92596 l 3.238058,-2.695303 2.97965,2.556711 c 1.638811,1.406189 3.017949,2.661142 3.064754,2.78878 0.04681,0.127637 -0.643155,1.188744 -1.533245,2.358014 l -1.618345,2.125948 h -3.146112 -3.146116 z"
         id="path314" /><path
         style="fill:#6089a9;stroke-width:0.264583"
         d="m 62.833023,92.986648 c 0.257431,-0.06708 0.614619,-0.06267 0.79375,0.0098 0.179131,0.07248 -0.03149,0.127363 -0.468056,0.121971 -0.436563,-0.0054 -0.583126,-0.06469 -0.325694,-0.131773 z m 6.758376,0.0026 c 0.190995,-0.07643 0.4192,-0.06703 0.507119,0.02088 0.08792,0.08792 -0.06835,0.150453 -0.347266,0.138964 -0.308226,-0.0127 -0.370919,-0.07539 -0.159853,-0.15985 z m -48.12458,-17.480229 -0.641433,-0.727604 0.727604,0.641432 c 0.680055,0.599517 0.848939,0.813776 0.641433,0.813776 -0.04739,0 -0.374816,-0.327421 -0.727604,-0.727604 z m -3.632561,-9.458853 c 0.0054,-0.436563 0.06469,-0.583126 0.131773,-0.325694 0.06708,0.257431 0.06267,0.614619 -0.0098,0.793749 -0.07248,0.179131 -0.127363,-0.03149 -0.121971,-0.468055 z m 98.129722,-0.551215 c 0.0127,-0.308226 0.0754,-0.370919 0.15985,-0.159853 0.0764,0.190995 0.067,0.419201 -0.0209,0.507119 -0.0879,0.08792 -0.15045,-0.06835 -0.13896,-0.347266 z M 21.222261,57.351358 c 0,-0.05494 0.208359,-0.2633 0.463021,-0.463021 0.419643,-0.329107 0.429002,-0.319749 0.09989,0.0999 -0.345643,0.44073 -0.562915,0.580887 -0.562915,0.363125 z m 1.322916,-1.322917 c 0,-0.05494 0.20836,-0.2633 0.463021,-0.463021 0.419644,-0.329107 0.429002,-0.319749 0.0999,0.0999 -0.345644,0.44073 -0.562916,0.580888 -0.562916,0.363125 z M 48.871218,4.0054231 c 0.26339,-0.2910417 0.538421,-0.5291667 0.611182,-0.5291667 0.07276,0 -0.08321,0.238125 -0.346599,0.5291667 -0.26339,0.2910416 -0.538422,0.5291666 -0.611182,0.5291666 -0.07276,0 0.08321,-0.238125 0.346599,-0.5291666 z m 36.081873,0.066146 c -0.329108,-0.419645 -0.319749,-0.4290033 0.0999,-0.099896 0.440729,0.3456437 0.580887,0.5629169 0.363124,0.5629169 -0.05494,0 -0.2633,-0.2083594 -0.46302,-0.4630208 z M 50.148663,-0.09561841 c 0.0011,-1.01864579 0.049,-1.40294249 0.106273,-0.85399558 0.05727,0.54894953 0.05631,1.38238699 -0.0021,1.85208324 -0.05845,0.46969885 -0.105312,0.0205581 -0.104137,-0.99808766 z m 33.599946,-0.13229166 c 0,-0.94588533 0.04802,-1.33283843 0.106715,-0.85989583 0.05869,0.47294272 0.05869,1.24684894 0,1.71979162 -0.05869,0.47294268 -0.106715,0.0859896 -0.106715,-0.85989579 z M 65.209238,-4.1144618 c 0.254661,-0.066548 0.67138,-0.066548 0.926041,0 0.254662,0.066551 0.0463,0.1210019 -0.46302,0.1210019 -0.509323,0 -0.717683,-0.054451 -0.463021,-0.1210019 z m 2.645833,0 c 0.254661,-0.066548 0.67138,-0.066548 0.926042,0 0.254661,0.066551 0.0463,0.1210019 -0.463021,0.1210019 -0.509323,0 -0.717683,-0.054451 -0.463021,-0.1210019 z M 59.767759,-22.915522 c 2.79164,-0.04282 7.435077,-0.04288 10.318749,-1.36e-4 2.883673,0.04275 0.599604,0.07778 -5.075708,0.07786 -5.675312,7.5e-5 -8.034681,-0.0349 -5.243041,-0.07772 z"
         id="path312" /><path
         style="fill:#487ea8;stroke-width:0.264583"
         d="m 64.035149,92.989262 c 0.190995,-0.07643 0.419198,-0.06703 0.507119,0.02088 0.08792,0.08792 -0.06835,0.150453 -0.347265,0.138965 -0.308227,-0.0127 -0.37092,-0.07539 -0.159854,-0.159851 z M 57.867051,92.458995 C 53.527635,91.898327 46.564247,90.070885 42.310792,88.376477 34.278675,85.176797 27.112682,80.593484 20.32359,74.313636 l -2.618462,-2.422057 0.163102,-3.77635 c 0.131614,-3.047267 0.293319,-4.164258 0.837568,-5.785548 1.128679,-3.362278 3.233676,-6.100913 6.088338,-7.92103 1.687861,-1.076171 2.614038,-1.422632 10.318749,-3.860008 l 6.35,-2.008817 0.157001,1.082278 c 0.08635,0.595251 0.768673,2.213369 1.516274,3.595817 1.955125,3.615372 1.892414,4.48765 -0.506783,7.048788 -2.00338,2.138605 -2.024425,3.071878 -0.152008,6.7414 2.840235,5.566233 8.378792,12.404108 17.059951,21.062132 2.082816,2.077264 3.749691,3.777008 3.704167,3.777207 -0.04552,1.98e-4 -1.094801,0.178628 -2.331728,0.396512 -1.236927,0.217885 -2.248958,0.378476 -2.248958,0.35687 0,-0.02159 -0.357188,-0.08543 -0.79375,-0.141835 z m 17.209562,-4.893138 c 0.588489,-0.628501 2.314895,-2.456669 3.836458,-4.062592 6.58373,-6.948759 11.588538,-13.729115 13.369943,-18.113181 1.009642,-2.484747 0.802982,-3.499014 -1.078465,-5.292997 -2.184604,-2.083046 -2.240923,-3.26961 -0.330729,-6.967929 0.763984,-1.47915 1.448593,-3.120114 1.521354,-3.64659 l 0.132292,-0.957231 7.011458,2.218674 c 6.868506,2.173436 8.989436,3.006124 10.318746,4.051183 l 0.66146,0.520015 -1.15989,2.28182 c -4.74826,9.341114 -14.203756,19.402122 -23.853781,25.381351 -2.730191,1.691645 -7.739245,4.267017 -10.043618,5.163856 l -1.455208,0.566354 z m 40.887367,-21.27311 c 0.0127,-0.308226 0.0754,-0.370919 0.15985,-0.159853 0.0764,0.190995 0.067,0.4192 -0.0209,0.507119 -0.0879,0.08792 -0.15045,-0.06835 -0.13896,-0.347266 z"
         id="path310" /><path
         style="fill:#3e6e91;stroke-width:0.264583"
         d="m 59.860374,92.670791 c -0.491863,-0.137101 -0.136597,-0.262088 1.442989,-0.507661 1.982809,-0.308261 2.124221,-0.297061 2.629538,0.208254 l 0.534032,0.534035 -1.977024,-0.02638 c -1.087364,-0.0145 -2.270655,-0.10822 -2.629535,-0.208254 z m 12.951663,-3.041948 c 1.816827,-1.835904 3.359663,-3.338007 3.428526,-3.338007 0.06886,0 -0.405601,0.543994 -1.054362,1.208876 l -1.179568,1.208878 1.455208,-0.566354 c 4.369443,-1.700546 10.699713,-5.327332 15.202992,-8.710215 3.235061,-2.43019 9.032624,-8.03272 11.657307,-11.265143 2.49788,-3.076273 5.56856,-7.683727 7.0371,-10.558964 0.63794,-1.249014 1.23473,-2.271472 1.32619,-2.272131 0.0915,-5.29e-4 0.69807,0.623882 1.34802,1.387867 2.95461,3.473005 3.85561,5.982136 4.0869,11.38131 l 0.16134,3.766085 -1.95536,1.852083 c -7.11554,6.739712 -15.762592,12.178969 -24.380975,15.336371 -5.183934,1.899169 -12.387876,3.41594 -17.790805,3.745809 l -2.645833,0.161539 z m -13.630351,-1.816653 -1.579219,-1.653646 1.653646,1.579218 c 0.909505,0.868569 1.653646,1.61271 1.653646,1.653646 0,0.195501 -0.261115,-0.04312 -1.728073,-1.579218 z m -5.30003,-5.55625 -0.777105,-0.859896 0.859896,0.777105 c 0.801544,0.724371 0.981511,0.942687 0.777105,0.942687 -0.04554,0 -0.432488,-0.386953 -0.859896,-0.859896 z m 26.078102,-0.06615 c 0.493654,-0.509323 0.957085,-0.926041 1.029845,-0.926041 0.07276,0 -0.271608,0.416718 -0.765262,0.926041 -0.493654,0.509323 -0.957085,0.926042 -1.029845,0.926042 -0.07276,0 0.271608,-0.416719 0.765262,-0.926042 z m -28.467845,-2.579687 -0.504029,-0.595313 0.595313,0.504029 c 0.559445,0.473662 0.715761,0.686596 0.504028,0.686596 -0.05021,0 -0.318098,-0.26789 -0.595312,-0.595312 z m 30.716803,0.06615 c 0.26339,-0.291042 0.538422,-0.529167 0.611182,-0.529167 0.07276,0 -0.08321,0.238125 -0.346599,0.529167 -0.26339,0.291041 -0.538421,0.529166 -0.611182,0.529166 -0.07276,0 0.08321,-0.238125 0.346599,-0.529166 z m 1.5875,-1.852084 c 0.26339,-0.291041 0.538422,-0.529166 0.611182,-0.529166 0.07276,0 -0.08321,0.238125 -0.346599,0.529166 -0.26339,0.291042 -0.538421,0.529167 -0.611182,0.529167 -0.07276,0 0.08321,-0.238125 0.346599,-0.529167 z M 49.763509,77.625732 c -0.329107,-0.419645 -0.319749,-0.429003 0.0999,-0.0999 0.44073,0.345644 0.580888,0.562917 0.363125,0.562917 -0.05494,0 -0.2633,-0.20836 -0.463021,-0.463021 z m -1.058333,-1.322917 c -0.329107,-0.419645 -0.319749,-0.429003 0.0999,-0.0999 0.254661,0.199721 0.463021,0.40808 0.463021,0.463021 0,0.217763 -0.217274,0.0776 -0.562917,-0.363125 z m 36.017082,0.363125 c 0,-0.05494 0.208359,-0.2633 0.46302,-0.463021 0.419645,-0.329107 0.429004,-0.319749 0.0999,0.0999 -0.345643,0.44073 -0.562916,0.580888 -0.562916,0.363125 z M 47.646842,74.979899 c -0.329107,-0.419645 -0.319748,-0.429004 0.0999,-0.0999 0.440729,0.345643 0.580887,0.562917 0.363124,0.562917 -0.05494,0 -0.2633,-0.20836 -0.463021,-0.463021 z m 38.133749,0.363124 c 0,-0.05494 0.208359,-0.2633 0.463021,-0.46302 0.419645,-0.329108 0.429003,-0.319749 0.0999,0.0999 -0.345644,0.440729 -0.562917,0.580887 -0.562917,0.363124 z M 41.132732,63.139795 c 0.0029,-0.582083 0.05712,-0.789053 0.120407,-0.459936 0.06329,0.329118 0.06088,0.805368 -0.0053,1.058334 -0.06622,0.252965 -0.118004,-0.01633 -0.115067,-0.598398 z m 51.593748,0 c 0.0029,-0.582083 0.05712,-0.789053 0.120406,-0.459936 0.06329,0.329118 0.06088,0.805368 -0.0053,1.058334 -0.06622,0.252965 -0.118004,-0.01633 -0.115067,-0.598398 z M 44.125728,58.43203 c 0.09936,-0.260938 0.247303,-0.407781 0.328766,-0.326319 0.08146,0.08146 1.69e-4,0.294955 -0.180652,0.474432 -0.261308,0.259361 -0.291698,0.228971 -0.148114,-0.148113 z m 45.480441,0.05995 c -0.09592,-0.155202 -0.117655,-0.338931 -0.0483,-0.408286 0.06935,-0.06936 0.196601,0.05763 0.282773,0.282186 0.178906,0.466225 0.02643,0.548232 -0.234473,0.1261 z M 44.566976,56.922087 c 0,-0.509323 0.05445,-0.717682 0.121002,-0.463021 0.06655,0.254662 0.06655,0.67138 0,0.926042 -0.06655,0.254661 -0.121002,0.0463 -0.121002,-0.463021 z m 44.714581,0 c 0,-0.509323 0.05445,-0.717682 0.121002,-0.463021 0.06655,0.254662 0.06655,0.67138 0,0.926042 -0.06655,0.254661 -0.121002,0.0463 -0.121002,-0.463021 z m -36.230013,-4.7625 c 0,-0.800364 0.0496,-1.127786 0.110223,-0.727604 0.06062,0.400182 0.06062,1.055026 0,1.455208 -0.06062,0.400183 -0.110223,0.07276 -0.110223,-0.727604 z M 80.82023,52.027296 c 0.0029,-0.582084 0.05712,-0.789054 0.120407,-0.459936 0.06329,0.329118 0.06088,0.805368 -0.0053,1.058333 -0.06622,0.252966 -0.118004,-0.01632 -0.115067,-0.598397 z m 11.195079,-3.494318 c -0.143584,-0.377084 -0.113194,-0.407474 0.148114,-0.148114 0.180821,0.179478 0.262114,0.39297 0.180652,0.474433 -0.08146,0.08146 -0.229407,-0.06538 -0.328766,-0.326319 z M 66.664446,-4.1073048 c 0.181901,-0.073398 0.479557,-0.073398 0.661458,0 0.181901,0.073398 0.03307,0.1334532 -0.330729,0.1334532 -0.363802,0 -0.51263,-0.060055 -0.330729,-0.1334532 z"
         id="path308" /><path
         style="fill:#355d7c;stroke-width:0.264583"
         d="M 60.708355,89.135106 C 49.023075,77.568656 41.365677,67.289568 41.33775,63.132522 c -0.0081,-1.202476 0.35578,-1.844728 2.036276,-3.594285 1.823516,-1.898457 1.806424,-2.563971 -0.166267,-6.47332 -1.724779,-3.418056 -1.874491,-4.027442 -1.149562,-4.679153 0.254662,-0.228941 3.332059,-1.843873 6.838659,-3.588739 l 6.375638,-3.172484 -0.639152,1.58238 c -1.06395,2.634073 -1.461524,5.072158 -1.459894,8.952666 0.0019,4.276998 0.532866,7.978225 1.917176,13.361458 1.931601,7.511518 4.741839,15.015818 8.743998,23.349478 1.870477,3.894878 2.012333,4.299479 1.507431,4.299479 -0.364178,0 -1.970172,-1.398455 -4.633698,-4.034896 z m 8.806468,1.112306 c 3.726849,-7.431127 7.678237,-17.86847 9.476176,-25.030725 2.333056,-9.293947 2.449428,-16.831997 0.339998,-22.023342 l -0.639265,-1.573238 6.3887,3.157794 c 6.102945,3.016548 7.314742,3.787068 7.314742,4.651065 0,0.212166 -0.714375,1.817468 -1.5875,3.567337 -2.024658,4.057708 -2.041284,4.761788 -0.155191,6.571617 2.220944,2.131145 2.478584,3.491696 1.219964,6.44243 -1.081442,2.535351 -4.718563,7.857338 -8.254552,12.078403 -4.220808,5.03856 -14.198176,15.092475 -14.971283,15.086144 -0.56855,-0.0047 -0.526455,-0.146606 0.868211,-2.927485 z M 41.65235,-2.9158014 c 0.105529,-8.0882166 0.124577,-8.3354246 0.773893,-10.0437446 0.979403,-2.576755 1.983081,-4.152866 3.706977,-5.82119 1.737473,-1.681466 4.597193,-3.207116 6.839039,-3.648601 0.878195,-0.172942 6.176237,-0.313115 13.361458,-0.35351 6.548437,-0.03682 11.21855,-0.03114 10.378027,0.01262 l -1.528223,0.07955 0.07301,8.824149 0.07301,8.824147 -1.984375,0.3567139 c -1.235668,0.2221256 -3.831185,0.348263 -6.879167,0.3343195 -4.623334,-0.02114 -5.068194,-0.068842 -8.021526,-0.8598958 -1.719704,-0.4606266 -3.438284,-0.8375017 -3.819069,-0.8375017 -1.171102,0 -2.961077,1.0470223 -3.700709,2.1646805 -0.594722,0.8986863 -0.710755,1.4200769 -0.842438,3.78545704 C 49.918311,2.846519 49.646285,3.5011537 48.10881,4.6505328 47.497189,5.1077671 46.906967,5.2106503 44.46163,5.2862815 l -2.917473,0.090231 z"
         id="path306" /><path
         style="fill:#2a4c65;stroke-width:0.264583"
         d="M 86.574476,5.0310935 C 84.757945,4.3067438 83.928989,2.8091625 83.927031,0.24824995 83.926237,-0.81400181 83.802555,-2.126007 83.652219,-2.6673127 c -0.375023,-1.3503354 -1.742128,-2.7223137 -3.125689,-3.136839 -1.151959,-0.3451357 -1.267712,-0.333584 -4.733959,0.4724188 l -0.595313,0.1384273 v -8.7620924 -8.762094 h 1.954162 c 3.644522,0 6.023456,1.978317 6.487059,5.394624 0.271921,2.003787 0.935313,2.690796 2.782372,2.881431 2.375286,0.24515 4.208576,1.48939 5.348806,3.630194 0.442145,0.8301356 0.501618,1.7138359 0.574272,8.5328122 l 0.08105,7.6067705 -2.594589,-0.016775 C 88.403363,5.3023311 86.938204,5.1761275 86.574476,5.0310909 Z"
         id="path304" /></g></g></svg>
