<?xml version="1.0" encoding="UTF-8" standalone="no"?>
<!-- Created with Inkscape (http://www.inkscape.org/) -->

<svg
   width="135.46666mm"
   height="135.46666mm"
   viewBox="0 0 135.46666 135.46666"
   version="1.1"
   id="svg667"
   xml:space="preserve"
   inkscape:version="1.2.2 (732a01da63, 2022-12-09)"
   sodipodi:docname="car_insurance.svg"
   xmlns:inkscape="http://www.inkscape.org/namespaces/inkscape"
   xmlns:sodipodi="http://sodipodi.sourceforge.net/DTD/sodipodi-0.dtd"
   xmlns="http://www.w3.org/2000/svg"
   xmlns:svg="http://www.w3.org/2000/svg"><sodipodi:namedview
     id="namedview669"
     pagecolor="#ffffff"
     bordercolor="#000000"
     borderopacity="0.25"
     inkscape:showpageshadow="2"
     inkscape:pageopacity="0.0"
     inkscape:pagecheckerboard="0"
     inkscape:deskcolor="#d1d1d1"
     inkscape:document-units="mm"
     showgrid="false"
     inkscape:zoom="0.73851712"
     inkscape:cx="240.34649"
     inkscape:cy="312.78896"
     inkscape:window-width="1920"
     inkscape:window-height="1009"
     inkscape:window-x="-8"
     inkscape:window-y="-8"
     inkscape:window-maximized="1"
     inkscape:current-layer="layer1" /><defs
     id="defs664" /><g
     inkscape:label="Calque 1"
     inkscape:groupmode="layer"
     id="layer1"
     transform="translate(-28.639408,-65.898758)"><g
       id="g800"><path
         style="fill:#fde276;stroke-width:0.264583"
         d="m 44.55338,185.55656 c -0.03557,-0.54332 -0.171829,-0.59565 -1.560327,-0.59922 -0.836745,-0.002 -2.266717,-0.17965 -3.177716,-0.39444 -6.261624,-1.47632 -11.175929,-7.60506 -11.175929,-13.93774 v -1.00974 h 4.414381 c 3.916555,0 4.54136,-0.0615 5.540346,-0.54507 1.189108,-0.57564 2.216106,-2.16226 2.216106,-3.42368 0,-1.26143 -1.026998,-2.84804 -2.216106,-3.42368 -0.999665,-0.48393 -1.623579,-0.54507 -5.562202,-0.54507 h -4.436237 l 0.088,-4.57105 c 0.08754,-4.547 0.09254,-4.58026 0.95046,-6.32153 1.005063,-2.03991 2.442733,-3.44061 4.529747,-4.41327 1.306327,-0.60882 1.895677,-0.70475 4.851467,-0.78971 l 3.364507,-0.0967 5.590958,-11.02002 c 3.075026,-6.061 5.787717,-11.2448 6.028201,-11.51955 0.986176,-1.12667 1.754773,-1.22075 9.887599,-1.21023 l 7.747561,0.01 0.926041,1.18934 c 0.509323,0.65414 2.18817,2.43557 3.730773,3.95873 l 2.804729,2.76941 -7.567229,5.3e-4 c -8.452683,5.3e-4 -8.837585,0.0706 -10.009353,1.82465 -0.574911,0.86047 -0.600586,1.12744 -0.600586,6.24461 0,5.11717 0.02566,5.38414 0.600586,6.24473 1.251754,1.87376 0.795496,1.82419 16.795767,1.82465 l 14.353646,4.1e-4 v 19.57917 19.57916 l 11.70781,0.0583 c 6.4393,0.032 9.98141,0.1005 7.87136,0.15211 -2.11005,0.0516 -10.89091,0.0111 -19.513025,-0.09 l -15.676561,-0.1838 -0.0046,-0.56362 c -0.0113,-1.38445 -0.862073,-4.42991 -1.73064,-6.19496 -2.647645,-5.38039 -7.667929,-8.71259 -13.556365,-8.998 -4.915599,-0.23825 -8.829684,1.25602 -12.255563,4.6788 -2.98463,2.98193 -4.406167,6.0081 -4.736378,10.08283 -0.100239,1.23693 -0.19979,1.98107 -0.221226,1.65364 z m 103.68174,-0.13229 c -0.004,-0.42954 0.44077,-0.45862 6.14751,-0.4022 l 6.15156,0.0608 -5.94072,0.0767 c -4.3426,0.056 -5.99636,0.16425 -6.14751,0.4022 -0.14482,0.22797 -0.208,0.18677 -0.21084,-0.1375 z m 10.01636,-32.41145 c -0.3291,-0.41965 -0.31974,-0.42901 0.0999,-0.0999 0.25466,0.19972 0.46302,0.40808 0.46302,0.46302 0,0.21776 -0.21727,0.0776 -0.56292,-0.36312 z m -38.73322,-25.79688 -2.37573,-2.44739 2.44739,2.37573 c 1.34607,1.30665 2.4474,2.40798 2.4474,2.4474 0,0.1921 -0.31253,-0.10265 -2.51906,-2.37574 z m -12.29761,1.25677 c 0.34178,-0.3638 0.68094,-0.66146 0.7537,-0.66146 0.0728,0 -0.14734,0.29766 -0.48911,0.66146 -0.34178,0.36381 -0.68094,0.66146 -0.7537,0.66146 -0.0728,0 0.14734,-0.29765 0.48911,-0.66146 z m 3.96875,-3.96875 c 0.34178,-0.3638 0.68094,-0.66145 0.7537,-0.66145 0.0728,0 -0.14734,0.29765 -0.48911,0.66145 -0.34178,0.36381 -0.68094,0.66146 -0.7537,0.66146 -0.0728,0 0.14734,-0.29765 0.48911,-0.66146 z m 1.32292,-1.5551 c 0,-0.0549 0.20836,-0.2633 0.46302,-0.46302 0.41965,-0.32911 0.429,-0.31975 0.0999,0.0999 -0.34565,0.44073 -0.56292,0.58089 -0.56292,0.36313 z"
         id="path814" /><path
         style="fill:#50cffa;stroke-width:0.264583"
         d="m 85.380743,145.80666 c -24.44888,-0.15136 -22.762645,-0.0151 -23.952908,-1.93634 -0.48487,-0.78267 -0.51835,-1.25225 -0.450389,-6.31704 0.08195,-6.10724 0.157577,-6.37863 2.06218,-7.40008 0.828562,-0.44436 1.623031,-0.48986 8.553725,-0.48986 h 7.640325 l 1.227344,1.0264 c 1.947921,1.62901 5.402299,3.85367 8.275626,5.32959 3.394644,1.74371 4.175681,1.77376 7.288049,0.28034 2.596361,-1.24582 5.823805,-3.30391 8.262755,-5.26902 l 1.69701,-1.36731 8.09258,0.007 8.09257,0.007 8.02683,8.19506 8.02682,8.19505 -15.43516,-0.0624 c -8.48933,-0.0343 -25.322646,-0.12362 -37.407357,-0.19844 z"
         id="path812" /><path
         style="fill:#fdc90e;stroke-width:0.264583"
         d="M 92.668572,165.51438 V 146.0675 h 22.823568 22.82357 l 8.32273,2.52882 c 4.5793,1.39139 9.04054,2.90871 9.91862,3.37343 2.20787,1.16852 4.8288,3.85623 5.87682,6.02656 1.59063,3.29399 1.67219,3.99212 1.67219,14.31322 0,13.31785 0.4978,12.65172 -9.45473,12.65172 h -6.42027 v -1.08629 c 0,-3.21252 -1.86411,-7.15111 -4.75085,-10.03785 -3.53161,-3.53161 -7.12611,-4.91043 -12.18248,-4.67309 -3.39907,0.15954 -5.37115,0.79707 -8.08928,2.61506 -2.33194,1.5597 -4.01419,3.4148 -5.27858,5.82093 -0.94937,1.80666 -1.97798,5.24395 -1.97798,6.60981 v 0.75143 H 104.31024 92.668572 Z m -64.029164,0.13229 v -3.96875 h 4.414381 c 5.287341,0 6.287349,0.30731 7.211382,2.2161 0.684899,1.41482 0.684899,2.09048 0,3.50529 -0.924033,1.9088 -1.924041,2.21611 -7.211382,2.21611 h -4.414381 z m 80.554562,-38.95989 c 1.63012,-1.63711 3.29212,-3.385 3.69335,-3.8842 l 0.7295,-0.90763 0.84051,0.45264 c 0.46228,0.24896 2.30614,1.99685 4.09747,3.8842 l 3.25697,3.43155 h -7.79082 -7.79082 z"
         id="path810" /><path
         style="display:inline;fill:#46e06e;stroke-width:0.264583"
         d="m 96.322599,145.86957 c 2.082478,-0.0448 5.416231,-0.0447 7.408331,2.5e-4 1.99211,0.0449 0.28827,0.0815 -3.786317,0.0814 -4.074583,-1.3e-4 -5.704488,-0.0369 -3.622014,-0.0816 z M 90.348713,127.84815 C 82.357699,123.04541 76.559384,116.61939 72.264491,107.8062 69.072838,101.25687 66.769518,92.231313 66.43128,84.948757 l -0.06759,-1.455208 0.91546,-0.07112 c 8.263054,-0.641918 17.240832,-3.635957 24.669553,-8.22716 0.685753,-0.423818 0.995437,-0.496952 1.136672,-0.268431 0.122176,0.197684 0.08091,0.244126 -0.111342,0.125308 -0.229082,-0.14158 -0.305464,2.646585 -0.305464,11.150214 v 11.339 l -1.002726,0.979138 -1.002729,0.979136 -1.312375,-1.343687 c -2.213409,-2.266211 -3.934524,-2.83478 -5.841664,-1.92978 -1.641221,0.778809 -2.463242,2.543735 -2.09614,4.500553 0.147627,0.78692 0.818401,1.62782 3.404637,4.26812 1.771433,1.80846 3.542297,3.45526 3.935253,3.65955 0.803286,0.41763 2.924236,0.4959 3.602408,0.13296 0.414232,-0.22169 0.445627,0.48667 0.445627,10.05416 0,5.66097 -0.07029,10.29266 -0.156207,10.29266 -0.08591,0 -1.119087,-0.57871 -2.295943,-1.28602 z m 9.728187,-3.57637 c 0,-0.055 0.20836,-0.2633 0.46303,-0.46303 0.41964,-0.3291 0.429,-0.31974 0.0999,0.0999 -0.34564,0.44073 -0.56292,0.58089 -0.56292,0.36313 z m 3.3073,-3.07511 c 0.86401,-0.87312 1.63046,-1.5875 1.70322,-1.5875 0.0728,0 -0.57463,0.71438 -1.43864,1.5875 -0.86402,0.87313 -1.63047,1.5875 -1.70323,1.5875 -0.0728,0 0.57463,-0.71437 1.43865,-1.5875 z m 2.51354,-2.74573 c 0,-0.0549 0.20836,-0.2633 0.46302,-0.46302 0.41964,-0.32911 0.429,-0.31975 0.0999,0.0999 -0.34564,0.44073 -0.56291,0.58089 -0.56291,0.36312 z m 11.92714,-25.983606 c 0.0127,-0.308225 0.0754,-0.37092 0.15985,-0.159853 0.0764,0.190994 0.067,0.419198 -0.0209,0.507119 -0.0879,0.08792 -0.15045,-0.06835 -0.13896,-0.347266 z m 0.26458,-1.587501 c 0.0127,-0.308224 0.0754,-0.370919 0.15985,-0.159852 0.0764,0.190996 0.067,0.419199 -0.0209,0.507118 -0.0879,0.08792 -0.15045,-0.06835 -0.13896,-0.347266 z m 0.26458,-1.852083 c 0.0127,-0.308224 0.0754,-0.370919 0.15985,-0.159853 0.0764,0.190997 0.067,0.4192 -0.0209,0.507119 -0.0879,0.08792 -0.15046,-0.06835 -0.13897,-0.347266 z m 0.29528,-2.359201 c 0.005,-0.436563 0.0647,-0.583125 0.13177,-0.325694 0.0671,0.257431 0.0627,0.614618 -0.01,0.79375 -0.0725,0.179131 -0.12734,-0.03149 -0.12195,-0.468056 z m -2.49898,-3.48252 c 0.1819,-0.0734 0.47956,-0.0734 0.66146,0 0.1819,0.0734 0.0331,0.133452 -0.33073,0.133452 -0.3638,0 -0.51263,-0.06005 -0.33073,-0.133452 z m -2.11667,-0.264584 c 0.18191,-0.0734 0.47956,-0.0734 0.66146,0 0.1819,0.0734 0.0331,0.133452 -0.33073,0.133452 -0.3638,0 -0.51263,-0.06005 -0.33073,-0.133452 z"
         id="path808" /><path
         style="fill:#1cbb49;stroke-width:0.264583"
         d="m 92.668572,118.8795 v -9.99009 l 6.367583,-6.34793 c 3.502175,-3.491363 6.538265,-6.66944 6.746875,-7.062397 0.91447,-1.722577 0.1921,-4.186139 -1.53652,-5.240089 -0.95676,-0.583345 -2.80662,-0.699894 -3.72398,-0.234626 -0.31785,0.161211 -2.215026,1.915787 -4.215938,3.899058 l -3.63802,3.605951 V 86.180144 74.850912 l 1.389062,0.824755 c 7.043256,4.181932 15.589676,7.055335 22.583866,7.592951 l 2.28684,0.175781 -0.17746,2.273533 c -1.25267,16.048338 -8.32543,30.402998 -19.141343,38.848678 -2.123512,1.65816 -6.253099,4.30298 -6.718612,4.30298 -0.122296,0 -0.222353,-4.49554 -0.222353,-9.99009 z"
         id="path806" /><path
         style="fill:#455960;stroke-width:0.264583"
         d="m 57.47899,200.97204 c -5.93312,-1.33658 -10.825009,-6.06874 -12.300837,-11.89919 -0.519397,-2.05194 -0.509658,-5.85588 0.02025,-7.90987 1.125176,-4.3613 4.518756,-8.48958 8.576419,-10.43318 2.812627,-1.34723 4.86492,-1.75293 8.010181,-1.58343 6.785731,0.36567 12.501162,4.86308 14.550027,11.44926 0.895786,2.87954 0.801796,6.69279 -0.238324,9.66898 -0.434527,1.24335 -1.237353,2.93453 -1.784053,3.75817 -1.155721,1.74116 -3.635904,4.11821 -5.337154,5.11521 -3.171219,1.85846 -7.981624,2.62586 -11.49651,1.83405 z m 6.180555,-8.08211 c 1.921007,-0.71874 3.675682,-2.31327 4.586359,-4.16777 0.993576,-2.02332 1.035407,-4.78709 0.104058,-6.87508 -0.780494,-1.7498 -2.985511,-3.81726 -4.691004,-4.39838 -4.913241,-1.67411 -10.119982,1.40031 -10.917686,6.44655 -0.975817,6.17298 5.094339,11.17369 10.918273,8.99468 z m 66.910585,8.2931 c 0.25466,-0.0666 0.67138,-0.0666 0.92604,0 0.25467,0.0666 0.0463,0.121 -0.46302,0.121 -0.50932,0 -0.71768,-0.0545 -0.46302,-0.121 z m 2.38629,-0.001 c 0.25743,-0.0671 0.61462,-0.0627 0.79375,0.01 0.17913,0.0725 -0.0315,0.12736 -0.46806,0.12197 -0.43656,-0.005 -0.58312,-0.0647 -0.32569,-0.13177 z m 10.50109,-4.6452 c 1.09642,-1.16818 1.33398,-1.37824 1.33398,-1.17957 0,0.0425 -0.56555,0.60801 -1.25678,1.25678 l -1.25677,1.17956 z m -6.60352,-4.53166 c 0,-0.0549 0.20836,-0.2633 0.46302,-0.46303 0.41964,-0.3291 0.429,-0.31974 0.0999,0.0999 -0.34564,0.44073 -0.56291,0.58089 -0.56291,0.36313 z m -10.74077,-1.02459 -0.50403,-0.59531 0.59532,0.50403 c 0.32742,0.27721 0.59531,0.5451 0.59531,0.59531 0,0.21173 -0.21293,0.0554 -0.6866,-0.50403 z m 12.06368,-0.29833 c 0,-0.0549 0.20836,-0.2633 0.46302,-0.46302 0.41965,-0.32911 0.42901,-0.31975 0.0999,0.0999 -0.34564,0.44073 -0.56292,0.58089 -0.56292,0.36313 z m 9.81047,-3.22944 c 0.0127,-0.30823 0.0754,-0.37092 0.15985,-0.15986 0.0764,0.191 0.067,0.4192 -0.0209,0.50712 -0.0879,0.0879 -0.15045,-0.0683 -0.13897,-0.34726 z m -31.9634,-1.43316 c 0,-0.65485 0.0516,-0.92274 0.11466,-0.59532 0.0631,0.32742 0.0631,0.86321 0,1.19063 -0.0631,0.32742 -0.11466,0.0595 -0.11466,-0.59531 z m 24.34166,-0.79375 c 0,-0.65485 0.0516,-0.92274 0.11466,-0.59532 0.0631,0.32742 0.0631,0.86321 0,1.19063 -0.0631,0.32742 -0.11466,0.0595 -0.11466,-0.59531 z m -24.35234,-1.32292 c 0,-0.50932 0.0545,-0.71768 0.121,-0.46302 0.0666,0.25466 0.0666,0.67138 0,0.92604 -0.0665,0.25466 -0.121,0.0463 -0.121,-0.46302 z m 31.97408,-1.21267 c 0.0127,-0.30823 0.0754,-0.37092 0.15985,-0.15986 0.0764,0.191 0.067,0.4192 -0.0209,0.50712 -0.0879,0.0879 -0.15045,-0.0684 -0.13897,-0.34726 z m -21.71672,-3.41754 c 0.49366,-0.50932 0.95709,-0.92604 1.02985,-0.92604 0.0728,0 -0.27161,0.41672 -0.76526,0.92604 -0.49366,0.50932 -0.95709,0.92604 -1.02985,0.92604 -0.0728,0 0.27161,-0.41672 0.76526,-0.92604 z m 5.49319,-2.43609 c 0.32912,-0.0633 0.80537,-0.0609 1.05834,0.005 0.25296,0.0662 -0.0163,0.118 -0.5984,0.11507 -0.58209,-0.003 -0.78906,-0.0571 -0.45994,-0.12041 z m -11.18173,-2.98787 c 0.56839,-0.58208 1.09297,-1.05833 1.16573,-1.05833 0.0728,0 -0.33276,0.47625 -0.90114,1.05833 -0.56839,0.58209 -1.09297,1.05834 -1.16573,1.05834 -0.0728,0 0.33275,-0.47625 0.90114,-1.05834 z m 9.07852,-4.67865 c 0.19099,-0.0764 0.4192,-0.067 0.50712,0.0209 0.0879,0.0879 -0.0684,0.15046 -0.34727,0.13897 -0.30823,-0.0127 -0.37092,-0.0754 -0.15985,-0.15985 z m 4.49791,0 c 0.191,-0.0764 0.4192,-0.067 0.50712,0.0209 0.0879,0.0879 -0.0684,0.15046 -0.34726,0.13897 -0.30823,-0.0127 -0.37092,-0.0754 -0.15986,-0.15985 z"
         id="path804" /><path
         style="fill:#2e4146;stroke-width:0.264583"
         d="m 130.2394,201.07971 c -5.27303,-0.5992 -10.04692,-3.96838 -12.34927,-8.71553 -1.37303,-2.83101 -1.69072,-4.18774 -1.69146,-7.22356 -0.001,-4.56896 1.37632,-7.88313 4.64606,-11.17868 5.13412,-5.17465 11.97794,-6.27436 18.63243,-2.994 5.23187,2.57907 8.76774,8.33403 8.74932,14.24034 -0.0133,4.2457 -1.67648,8.09304 -4.8711,11.26769 -3.66614,3.64324 -8.04445,5.18003 -13.11598,4.60374 z m 5.42396,-8.40443 c 1.80804,-0.85672 3.37021,-2.44059 4.18394,-4.24206 0.82865,-1.83448 0.77543,-4.73172 -0.1221,-6.64697 -2.94473,-6.28378 -11.59145,-6.57907 -14.89537,-0.50868 -1.93505,3.55533 -0.81066,8.40144 2.47811,10.68055 1.53127,1.06117 2.82577,1.44511 4.91584,1.45798 1.50175,0.009 2.15236,-0.13088 3.43958,-0.74082 z"
         id="path802" /></g></g></svg>
