<svg xmlns="http://www.w3.org/2000/svg" width="35" height="34" fill="none" viewBox="0 0 35 34">
  <path fill="#000" fill-opacity=".01" fill-rule="evenodd" d="M.5 34h34V0H.5v34Z" clip-rule="evenodd"/>
  <mask id="a" width="35" height="18" x="0" y="11" maskUnits="userSpaceOnUse" style="mask-type:alpha">
    <path fill="#fff" fill-rule="evenodd" d="M.5 11.407h34v17H.5v-17Z" clip-rule="evenodd"/>
  </mask>
  <g mask="url(#a)">
    <path fill="#4985FE" fill-rule="evenodd" d="M2.046 14.497a1.546 1.546 0 0 1 0-3.09h8.268c1.222 0 2.33.72 2.823 1.835l5.367 12.072h14.451a1.546 1.546 0 0 1 0 3.093h-14.45a3.093 3.093 0 0 1-2.825-1.837l-5.366-12.073H2.046Z" clip-rule="evenodd"/>
  </g>
  <mask id="b" width="18" height="18" x="17" y="5" maskUnits="userSpaceOnUse" style="mask-type:alpha">
    <path fill="#fff" fill-rule="evenodd" d="M17.5 5.593h17v17h-17v-17Z" clip-rule="evenodd"/>
  </mask>
  <g mask="url(#b)">
    <path fill="#4985FE" fill-rule="evenodd" d="M34.5 14.093a8.5 8.5 0 0 0-8.5-8.5 8.5 8.5 0 0 0-8.5 8.5 8.5 8.5 0 0 0 8.5 8.5 8.5 8.5 0 0 0 8.5-8.5" clip-rule="evenodd"/>
  </g>
  <path fill="#fff" fill-rule="evenodd" d="M28.25 13.813a3.27 3.27 0 0 0-.834-.453c-.306-.114-.6-.217-.881-.311a11.534 11.534 0 0 1-.53-.182 2.429 2.429 0 0 1-.404-.194.794.794 0 0 1-.26-.248.647.647 0 0 1-.088-.352c0-.163.037-.3.113-.405a.913.913 0 0 1 .276-.259c.11-.067.234-.111.37-.135a1.909 1.909 0 0 1 1.21.16c.28.128.504.303.675.522l1.282-1.351a3.69 3.69 0 0 0-1.287-.764 4.388 4.388 0 0 0-1.226-.24v-.766a.619.619 0 0 0-1.238 0v.867c-.045.01-.092.015-.14.027a3.177 3.177 0 0 0-1.034.464 2.479 2.479 0 0 0-.74.812c-.188.328-.282.723-.282 1.186 0 .377.061.696.183.957.121.263.282.487.48.671.201.184.428.335.682.452.256.117.517.22.782.306.275.085.52.167.735.241.216.073.395.157.541.247.144.09.257.19.335.3.077.11.117.242.117.399a.88.88 0 0 1-.095.422.753.753 0 0 1-.252.282 1.057 1.057 0 0 1-.369.153 2.013 2.013 0 0 1-.436.049 2.18 2.18 0 0 1-.993-.254 2.458 2.458 0 0 1-.805-.629l-1.316 1.34c.369.384.83.68 1.386.887.398.148.804.24 1.221.284v1.053a.619.619 0 1 0 1.238 0v-1.094c.153-.026.306-.053.457-.096a3.024 3.024 0 0 0 1.022-.505 2.48 2.48 0 0 0 .711-.865c.176-.347.264-.76.264-1.24 0-.414-.08-.76-.246-1.039a2.411 2.411 0 0 0-.623-.7" clip-rule="evenodd"/>
</svg>
