<svg xmlns="http://www.w3.org/2000/svg" width="22" height="22" fill="none" viewBox="0 0 22 22">
  <path fill="#fff" fill-rule="evenodd" d="m6.737 8.869.484 4.357 7.564-.059.477-4.298H6.737ZM4.606 6.737h12.788l-.952 12.378a1.6 1.6 0 0 1-1.594 1.476H7.152a1.6 1.6 0 0 1-1.594-1.476L4.606 6.737Zm8.526-3.73V1.942a.534.534 0 0 0-.534-.533H9.402a.534.534 0 0 0-.533.533v1.065H4.073a.533.533 0 0 0-.533.534v.533c0 .293.239.533.533.533h13.854c.294 0 .533-.24.533-.533V3.54a.533.533 0 0 0-.533-.534h-4.795Z" clip-rule="evenodd"/>
</svg>
