<svg xmlns="http://www.w3.org/2000/svg" width="18" height="18" fill="none" viewBox="0 0 18 18">
  <path fill="#fff" fill-opacity=".3" fill-rule="evenodd" d="M14.606 8.128a2.99 2.99 0 0 0-.342-.02c-1.223 0-2.31.573-3.018 1.46l-8.848 2.374a.75.75 0 0 1-.92-.534l-.98-3.64a.76.76 0 0 1 .533-.926l3.387-.907 8.268-2.218a.758.758 0 0 1 .926.534l.478 1.776.497 1.865c.02.08.032.16.02.236Z" clip-rule="evenodd"/>
  <mask id="a" width="16" height="13" x="0" y="5" maskUnits="userSpaceOnUse" style="mask-type:alpha">
    <path fill="#fff" fill-rule="evenodd" d="M0 5.934h15.085V18H0V5.934Z" clip-rule="evenodd"/>
  </mask>
  <g mask="url(#a)">
    <path fill="#fff" fill-rule="evenodd" d="M11.246 9.57a3.858 3.858 0 0 0 3.019 6.256c.28 0 .553-.032.82-.094v.758c0 .832-.677 1.51-1.51 1.51H1.51C.678 18 0 17.322 0 16.49V7.444c0-.833.678-1.51 1.51-1.51h12.065a1.512 1.512 0 0 1 1.51 1.51v.758a2.93 2.93 0 0 0-.48-.074 2.985 2.985 0 0 0-.34-.019 3.849 3.849 0 0 0-3.02 1.46Z" clip-rule="evenodd"/>
  </g>
  <path fill="#fff" fill-rule="evenodd" d="M17.45 11.417h-3.302l.71-.71a.55.55 0 0 0-.776-.776l-1.648 1.647a.551.551 0 0 0 0 .776l1.648 1.648a.55.55 0 0 0 .776-.776l-.71-.71h3.303a.549.549 0 1 0 0-1.099Z" clip-rule="evenodd"/>
</svg>
