<svg xmlns="http://www.w3.org/2000/svg" width="60" height="60" fill="none" viewBox="0 0 60 60">
  <path fill="#186BFE" fill-rule="evenodd" d="M49.175 3.093h-7.078a1.546 1.546 0 1 1 0-3.093h7.078C55.154 0 60 4.846 60 10.825v7.552a1.546 1.546 0 0 1-3.093 0v-7.552a7.732 7.732 0 0 0-7.732-7.732Zm7.732 46.082v-7.078a1.546 1.546 0 0 1 3.093 0v7.078C60 55.154 55.154 60 49.175 60h-6.994a1.546 1.546 0 1 1 0-3.093h6.994a7.732 7.732 0 0 0 7.732-7.732Zm-38.92 7.732h-7.162a7.732 7.732 0 0 1-7.732-7.732v-7.02a1.546 1.546 0 1 0-3.093 0v7.02C0 55.154 4.846 60 10.825 60h7.162a1.546 1.546 0 0 0 0-3.093ZM3.092 10.825v7.29a1.546 1.546 0 1 1-3.093 0v-7.29C0 4.846 4.846 0 10.825 0h7.109a1.546 1.546 0 1 1 0 3.093h-7.11a7.732 7.732 0 0 0-7.731 7.732ZM39.9 21.969v4.362c0 1.032.806 1.869 1.8 1.869s1.8-.837 1.8-1.87v-4.36c0-1.033-.806-1.87-1.8-1.87s-1.8.837-1.8 1.87Zm-23.4 4.362v-4.362c0-1.032.806-1.869 1.8-1.869s1.8.837 1.8 1.87v4.36c0 1.033-.806 1.87-1.8 1.87s-1.8-.837-1.8-1.87Zm11.174 7.17a1.862 1.862 0 0 0-1.874 1.85c0 1.02.839 1.849 1.874 1.849 3.223 0 5.153-2.013 5.324-5.357L33 31.75v-9.8c0-1.022-.839-1.85-1.874-1.85a1.862 1.862 0 0 0-1.873 1.85v9.75c-.08 1.42-.456 1.8-1.58 1.8ZM30 47.4c-4.124 0-7.576-1.28-10.25-3.837a1.764 1.764 0 0 1-.038-2.522 1.83 1.83 0 0 1 2.56-.037c1.974 1.887 4.516 2.829 7.728 2.829 3.212 0 5.754-.942 7.728-2.83a1.83 1.83 0 0 1 2.56.038c.697.707.68 1.836-.038 2.522C37.575 46.12 34.124 47.4 30 47.4Z" clip-rule="evenodd"/>
</svg>
