<svg xmlns="http://www.w3.org/2000/svg" width="60" height="60" fill="none" viewBox="0 0 60 60">
  <path stroke="#186BFE" stroke-linecap="round" stroke-linejoin="round" d="M20.623 56.792c2.922-1.703 5.277-4.4 6.515-7.563 1.577-4.027 1.317-8.74-.693-12.567-1.042-1.99-2.575-3.885-2.597-6.137-.028-2.54 2.072-4.795 4.527-5.398 3.295-.807 6.863 1.058 8.703 3.92 1.837 2.865 2.157 6.505 1.585 9.867-.57 3.358-1.953 6.515-3.325 9.633l-4.463 10.145"/>
  <path stroke="#186BFE" stroke-linecap="round" stroke-linejoin="round" d="M15.697 51.455c1.025-1.255 1.91-2.61 2.58-4.078.922-2.017 1.4-4.322.957-6.532-.527-2.633-2.29-4.905-3.355-7.335-2.574-5.857.763-12.215 6.38-14.665 6.483-2.825 16.07-1.705 20.873 3.845 4.115 4.76 3.753 12.08 2.763 17.9-1.12 6.577-3.838 12.887-7.913 18.16"/>
  <path stroke="#186BFE" stroke-linecap="round" stroke-linejoin="round" d="M50.39 49.265c1.69-4.602 2.78-9.487 3.137-14.217.455-6.02-.073-13.248-3.94-18.125-5.61-7.07-15.04-8.825-23.518-7.208-5.07.963-10.382 3.365-14.232 6.983-3.903 3.665-6.298 8.582-5.398 14.515.385 2.53 1.34 4.927 2.173 7.345.83 2.417 1.55 4.93 1.435 7.485"/>
  <path stroke="#186BFE" stroke-linecap="round" stroke-linejoin="round" d="M53.75 10.664c-6.8-8.573-18.23-10.698-28.505-8.74-6.065 1.155-12.42 4.005-17.07 8.293"/>
</svg>
