<svg xmlns="http://www.w3.org/2000/svg" width="48" height="47" fill="none" viewBox="0 0 48 47">
  <rect width="48" height="47" fill="#D8D8D8" fill-opacity=".01" rx="2"/>
  <path fill="#000" fill-opacity=".01" fill-rule="evenodd" d="M11 37h26V11H11v26Z" clip-rule="evenodd"/>
  <mask id="a" width="13" height="16" x="11" y="11" maskUnits="userSpaceOnUse" style="mask-type:alpha">
    <path fill="#fff" fill-rule="evenodd" d="M11 11h13v15.6H11V11Z" clip-rule="evenodd"/>
  </mask>
  <g mask="url(#a)">
    <path fill="#7D90AA" fill-opacity=".3" fill-rule="evenodd" d="M13.6 11h7.8a2.6 2.6 0 0 1 2.6 2.6V24a2.6 2.6 0 0 1-2.6 2.6h-7.8A2.6 2.6 0 0 1 11 24V13.6a2.6 2.6 0 0 1 2.6-2.6Z" clip-rule="evenodd"/>
  </g>
  <mask id="b" width="26" height="21" x="11" y="16" maskUnits="userSpaceOnUse" style="mask-type:alpha">
    <path fill="#fff" fill-rule="evenodd" d="M11 16.2h26V37H11V16.2Z" clip-rule="evenodd"/>
  </mask>
  <g mask="url(#b)">
    <path fill="#7D90AA" fill-rule="evenodd" d="M31.8 29.2a2.6 2.6 0 1 0 0-5.2 2.6 2.6 0 0 0 0 5.2Zm-18.2-13h20.8a2.6 2.6 0 0 1 2.6 2.6v15.6a2.6 2.6 0 0 1-2.6 2.6H13.6a2.6 2.6 0 0 1-2.6-2.6V18.8a2.6 2.6 0 0 1 2.6-2.6Z" clip-rule="evenodd"/>
  </g>
</svg>
