<?xml version="1.0" encoding="UTF-8" standalone="no"?>
<!-- Created with Inkscape (http://www.inkscape.org/) -->

<svg
   width="144.49777mm"
   height="144.49777mm"
   viewBox="0 0 144.49777 144.49777"
   version="1.1"
   id="svg1551"
   xml:space="preserve"
   inkscape:version="1.2.2 (732a01da63, 2022-12-09)"
   sodipodi:docname="health_insurrance.svg"
   xmlns:inkscape="http://www.inkscape.org/namespaces/inkscape"
   xmlns:sodipodi="http://sodipodi.sourceforge.net/DTD/sodipodi-0.dtd"
   xmlns="http://www.w3.org/2000/svg"
   xmlns:svg="http://www.w3.org/2000/svg"><sodipodi:namedview
     id="namedview1553"
     pagecolor="#ffffff"
     bordercolor="#000000"
     borderopacity="0.25"
     inkscape:showpageshadow="2"
     inkscape:pageopacity="0.0"
     inkscape:pagecheckerboard="0"
     inkscape:deskcolor="#d1d1d1"
     inkscape:document-units="mm"
     showgrid="false"
     inkscape:zoom="0.73851712"
     inkscape:cx="155.04041"
     inkscape:cy="379.13813"
     inkscape:window-width="1920"
     inkscape:window-height="1009"
     inkscape:window-x="-8"
     inkscape:window-y="-8"
     inkscape:window-maximized="1"
     inkscape:current-layer="layer1" /><defs
     id="defs1548" /><g
     inkscape:label="Calque 1"
     inkscape:groupmode="layer"
     id="layer1"
     transform="translate(-51.351837,-48.485733)"><g
       id="g1684"><path
         style="fill:#28d2fa;stroke-width:0.282222"
         d="m 120.63739,105.39184 c -2.44635,-2.49516 -3.1793,-3.05762 -5.50333,-4.22319 -6.10106,-3.059868 -13.11717,-3.172952 -19.083689,-0.30759 -1.577196,0.75743 -1.706784,0.78016 -1.49378,0.26203 0.128279,-0.31205 0.628122,-2.09136 1.110762,-3.954026 2.147011,-8.286036 5.882747,-18.003858 9.166587,-23.84518 3.77686,-6.7183 8.14233,-11.49906 12.49772,-13.68665 1.90261,-0.955625 3.89281,-1.549085 5.20772,-1.552891 l 1.05532,-0.0031 0.0736,25.117799 c 0.0405,13.814791 0.0101,25.107328 -0.0676,25.094538 -0.0776,-0.0128 -1.41111,-1.3186 -2.96333,-2.90179 z m 38.52478,-0.69611 c -2.72522,-10.61711 -6.77816,-20.798998 -11.41573,-28.678902 -3.34149,-5.677687 -8.24234,-11.266311 -12.24225,-13.960323 -2.17706,-1.466286 -4.97837,-2.800028 -7.24465,-3.449278 l -1.69548,-0.485727 1.2774,-0.02011 c 4.43792,-0.06985 13.41017,1.7027 19.75414,3.902617 17.73295,6.149305 32.83193,19.200578 41.19863,35.611325 1.90752,3.741478 1.94393,4.386118 0.20755,3.674828 -4.58362,-1.877677 -7.4509,-2.568879 -10.65633,-2.568879 -6.07873,0 -13.04126,3.325839 -16.52452,7.893389 -0.58616,0.76862 -1.21767,1.4558 -1.40336,1.52705 -0.22495,0.0863 -0.64389,-1.06365 -1.2554,-3.44599 z m -71.121446,2.38567 c 0,-0.0586 0.22225,-0.28086 0.493889,-0.49389 0.447621,-0.35105 0.457603,-0.34107 0.106556,0.10655 -0.368687,0.47011 -0.600445,0.61962 -0.600445,0.38734 z m 38.523336,-2.15123 c 0.60628,-0.62088 1.16583,-1.12888 1.24344,-1.12888 0.0776,0 -0.35494,0.508 -0.96122,1.12888 -0.60628,0.62089 -1.16583,1.12889 -1.24345,1.12889 -0.0776,0 0.35494,-0.508 0.96123,-1.12889 z M 82.078057,103.3074 c -0.351047,-0.44762 -0.341065,-0.45761 0.106556,-0.10656 0.271639,0.21304 0.493889,0.43529 0.493889,0.49389 0,0.23228 -0.231758,0.0828 -0.600445,-0.38733 z m 73.095553,0 c -0.35105,-0.44762 -0.34107,-0.45761 0.10655,-0.10656 0.27164,0.21304 0.49389,0.43529 0.49389,0.49389 0,0.23228 -0.23175,0.0828 -0.60044,-0.38733 z M 73.312252,99.092941 c 0.20373,-0.08152 0.447146,-0.0715 0.540926,0.02227 0.09378,0.09378 -0.07291,0.160483 -0.370416,0.148229 -0.328773,-0.01355 -0.395647,-0.08042 -0.17051,-0.170508 z m 64.064438,0 c 0.20373,-0.08152 0.44715,-0.0715 0.54093,0.02227 0.0938,0.09378 -0.0729,0.160483 -0.37042,0.148229 -0.32877,-0.01355 -0.39564,-0.08042 -0.17051,-0.170508 z m 8.74889,0 c 0.20373,-0.08152 0.44715,-0.0715 0.54093,0.02227 0.0938,0.09378 -0.0729,0.160483 -0.37042,0.148229 -0.32877,-0.01355 -0.39565,-0.08042 -0.17051,-0.170508 z M 65.127808,98.810719 c 0.20373,-0.08152 0.447146,-0.0715 0.540926,0.02227 0.09378,0.09378 -0.07291,0.160482 -0.370416,0.148228 -0.328773,-0.01355 -0.395647,-0.08042 -0.17051,-0.170507 z m 73.942222,0 c 0.20372,-0.08152 0.44714,-0.0715 0.54092,0.02227 0.0938,0.09378 -0.0729,0.160482 -0.37041,0.148228 -0.32878,-0.01355 -0.39565,-0.08042 -0.17051,-0.170507 z m 5.36222,0 c 0.20373,-0.08152 0.44715,-0.0715 0.54093,0.02227 0.0938,0.09378 -0.0729,0.160482 -0.37042,0.148228 -0.32878,-0.01355 -0.39565,-0.08042 -0.17051,-0.170507 z M 68.217904,98.521681 c 0.35106,-0.0675 0.85906,-0.06494 1.128889,0.0057 0.269829,0.07064 -0.0174,0.125871 -0.63829,0.122739 -0.620889,-0.0031 -0.841658,-0.06093 -0.490599,-0.128434 z m 1.196154,-16.811347 c 0,-0.04269 0.98425,-1.026939 2.187222,-2.187222 l 2.187222,-2.109603 -2.109603,2.187222 c -1.959353,2.031444 -2.264841,2.315992 -2.264841,2.109603 z m 7.62,-7.08449 c 0,-0.05861 0.22225,-0.280855 0.493889,-0.493889 0.44762,-0.351048 0.457602,-0.341066 0.106554,0.106554 -0.368686,0.470111 -0.600443,0.619613 -0.600443,0.387335 z M 109.43669,59.299609 c 0.20373,-0.08153 0.44715,-0.0715 0.54093,0.02228 0.0938,0.09378 -0.0729,0.160483 -0.37041,0.148228 -0.32878,-0.01354 -0.39565,-0.08042 -0.17052,-0.170508 z m 1.69334,-0.282222 c 0.20373,-0.08153 0.44714,-0.0715 0.54093,0.02228 0.0938,0.09378 -0.0729,0.160483 -0.37042,0.148229 -0.32878,-0.01354 -0.39565,-0.08042 -0.17051,-0.170509 z m 1.67569,-0.276343 c 0.19403,-0.07829 0.51153,-0.07829 0.70556,0 0.19403,0.07829 0.0353,0.142349 -0.35278,0.142349 -0.38806,0 -0.54681,-0.06406 -0.35278,-0.142349 z m 2.54,-0.282222 c 0.19403,-0.07829 0.51153,-0.07829 0.70556,0 0.19403,0.07829 0.0353,0.142349 -0.35278,0.142349 -0.38806,0 -0.54681,-0.06406 -0.35278,-0.142349 z m 2.96722,-0.297829 c 0.42899,-0.06487 1.06399,-0.06314 1.41111,0.0039 0.34711,0.06699 -0.004,0.120064 -0.77999,0.117946 -0.77612,-0.0021 -1.06012,-0.05693 -0.63112,-0.121798 z"
         id="path1698" /><path
         style="fill:#01c2fd;stroke-width:0.282222"
         d="m 87.195858,107.84637 c 0.0043,-0.55576 1.803772,-7.05341 2.996153,-10.818417 4.320627,-13.642633 10.386489,-24.704035 17.213289,-31.38928 2.85875,-2.799478 4.70251,-4.155297 7.55019,-5.552077 2.16439,-1.061631 5.73037,-2.192018 6.01552,-1.90687 0.0715,0.07154 -0.29176,0.220507 -0.80733,0.33104 -2.60242,0.557929 -5.95141,2.770053 -8.91173,5.8865 -6.59918,6.947216 -12.223116,19.238526 -16.425464,35.898404 -0.23716,0.9402 -0.576645,1.34823 -1.853277,2.22748 -0.859612,0.59204 -2.51158,2.08486 -3.671042,3.31737 -1.159459,1.23251 -2.1073,2.13515 -2.106309,2.00585 z"
         id="path1696" /><path
         style="fill:#04aeee;stroke-width:0.282222"
         d="m 84.656806,105.71967 c -2.513403,-2.73529 -5.32318,-4.64797 -8.535502,-5.810319 -5.604823,-2.028063 -11.632681,-1.683475 -16.928419,0.967729 -2.494733,1.24894 -2.785801,0.69105 -1.238856,-2.374505 C 63.640523,87.233736 72.64789,77.14925 83.291692,70.134979 93.355002,63.503254 105.46455,59.286078 116.68628,58.505243 l 2.54,-0.176739 -1.87559,0.685515 c -3.64715,1.333014 -6.4111,3.175348 -9.94539,6.629176 -8.013963,7.83151 -15.000673,21.837443 -19.386801,38.863805 -0.499807,1.94019 -0.985023,3.52437 -1.078258,3.52041 -0.09324,-0.004 -1.120781,-1.04245 -2.283435,-2.30774 z M 123.60072,83.104991 c 0,-19.717265 -0.0743,-25.006641 -0.35278,-25.119015 -0.83546,-0.337117 0.89442,-0.144732 3.53234,0.392841 9.40703,1.917031 17.3091,9.700118 24.19681,23.83247 3.41923,7.015677 5.86379,13.769542 8.05272,22.248193 l 0.95941,3.71625 -1.01329,-1.21292 c -3.64849,-4.36725 -8.17664,-7.101615 -13.21272,-7.978612 -2.7353,-0.476331 -7.68209,-0.193903 -10.16804,0.580529 -3.84016,1.196293 -7.85268,3.842863 -10.18567,6.718233 -0.71871,0.8858 -1.41971,1.65288 -1.55776,1.70462 -0.14536,0.0545 -0.25102,-10.419324 -0.25102,-24.882589 z"
         id="path1694" /><path
         style="fill:#fd4f4f;stroke-width:0.282222"
         d="m 139.63447,191.3796 c 0.20373,-0.0815 0.44715,-0.0715 0.54093,0.0223 0.0938,0.0938 -0.0729,0.16048 -0.37042,0.14823 -0.32877,-0.0135 -0.39565,-0.0804 -0.17051,-0.17051 z m 2.65202,-0.79234 c 0.11012,-0.11821 -1.35038,-1.10177 -3.24555,-2.18569 -11.42664,-6.53532 -20.95903,-15.52214 -25.9061,-24.42341 -1.35301,-2.43447 -3.08078,-6.28514 -3.08078,-6.86612 0,-0.14088 2.54688,-0.25298 5.74749,-0.25298 6.84133,0 6.61466,0.0967 8.24268,-3.51804 0.59664,-1.32474 1.15854,-2.40863 1.24867,-2.40863 0.0901,0 1.72883,4.34975 3.64156,9.66611 1.91273,5.31637 3.73975,9.95187 4.06006,10.30112 0.69934,0.76253 1.88942,0.82469 2.70153,0.14111 0.36464,-0.30694 1.53455,-3.05785 3.09062,-7.26723 l 2.50388,-6.77333 h 4.18919 4.18919 l 2.00914,3.72629 c 1.10503,2.04946 2.24436,3.98621 2.53186,4.30389 0.51552,0.56965 1.64191,0.74663 2.54535,0.39995 0.25462,-0.0977 1.40881,-2.06621 2.56485,-4.37445 l 2.1019,-4.19679 h 7.05379 c 3.87958,0 7.05372,0.0317 7.05365,0.0706 -5.7e-4,0.32106 -1.34977,3.486 -2.24479,5.26611 -4.38434,8.72003 -12.66766,17.22108 -23.5784,24.1982 -3.21742,2.05745 -7.89019,4.69829 -7.41979,4.19333 z m -23.78713,-12.7732 -0.68419,-0.77611 0.77611,0.68419 c 0.72539,0.63949 0.90553,0.86803 0.68419,0.86803 -0.0506,0 -0.3998,-0.34925 -0.77611,-0.77611 z m -4.50939,-4.51556 -0.97258,-1.05833 1.05833,0.97259 c 0.58209,0.53492 1.05834,1.01117 1.05834,1.05833 0,0.21551 -0.23883,0.0125 -1.14409,-0.97259 z m -1.71414,-1.97555 c -0.35104,-0.44762 -0.34106,-0.4576 0.10656,-0.10656 0.27164,0.21304 0.49389,0.43529 0.49389,0.49389 0,0.23228 -0.23176,0.0828 -0.60045,-0.38733 z m -1.12889,-1.41111 c -0.35104,-0.44762 -0.34106,-0.45761 0.10656,-0.10656 0.27164,0.21304 0.49389,0.43529 0.49389,0.49389 0,0.23228 -0.23176,0.0828 -0.60045,-0.38733 z m 22.96173,-7.60559 c -4.75527,-13.34175 -6.67032,-18.36062 -7.16671,-18.78219 -0.67941,-0.577 -1.90441,-0.64415 -2.57414,-0.14111 -0.25833,0.19403 -1.42625,2.35303 -2.5954,4.79778 l -2.12571,4.445 -8.39466,-0.0595 c -4.61706,-0.0327 -7.07964,-0.10083 -5.47239,-0.15131 l 2.92228,-0.0918 -0.20092,-1.04814 c -0.4199,-2.19049 -0.61702,-6.1532 -0.40883,-8.21841 0.78404,-7.77732 6.39019,-14.26654 14.05311,-16.26669 1.16168,-0.30322 1.82902,-0.32473 2.90639,-0.0937 4.65535,0.99839 9.0678,4.03639 11.75033,8.09017 0.75448,1.14015 1.34801,1.7012 2.10415,1.98898 1.5621,0.59454 2.49419,0.0883 4.28095,-2.32513 2.91955,-3.94347 6.74011,-6.57058 11.16659,-7.67841 2.923,-0.73155 7.95124,-0.43287 10.92714,0.64909 5.70361,2.07369 9.93102,6.90669 11.55508,13.21038 0.56499,2.19295 0.6896,8.68078 0.206,10.72445 l -0.26713,1.12889 -9.01871,0.15107 c -4.96029,0.0831 -9.04933,0.17834 -9.08676,0.21166 -0.0374,0.0333 -0.74678,1.41356 -1.57634,3.06719 l -1.50829,3.00659 -1.35493,-2.5127 c -2.21448,-4.10674 -1.46551,-3.7827 -8.74323,-3.7827 -4.9999,0 -6.35426,0.0814 -6.82376,0.41028 -0.37717,0.26418 -1.21701,2.09821 -2.35854,5.15055 -0.97503,2.60715 -1.80452,4.77851 -1.8433,4.82524 -0.0388,0.0467 -0.1973,-0.27077 -0.35227,-0.70555 z m -31.37011,-10.69182 c 0.0135,-0.32877 0.0804,-0.39565 0.17051,-0.17051 0.0815,0.20373 0.0715,0.44715 -0.0223,0.54093 -0.0938,0.0938 -0.16048,-0.0729 -0.14823,-0.37042 z m -0.28222,-1.69333 c 0.0135,-0.32878 0.0804,-0.39565 0.17051,-0.17051 0.0815,0.20373 0.0715,0.44715 -0.0223,0.54093 -0.0938,0.0938 -0.16048,-0.0729 -0.14823,-0.37042 z m -0.22379,-3.08093 c 0.002,-0.77611 0.0569,-1.06011 0.1218,-0.63112 0.0649,0.429 0.0631,1.064 -0.004,1.41111 -0.067,0.34712 -0.12006,-0.004 -0.11794,-0.77999 z m -0.01,-3.10444 c 0.003,-0.62089 0.0609,-0.84166 0.12844,-0.4906 0.0675,0.35106 0.0649,0.85906 -0.006,1.12889 -0.0706,0.26983 -0.12587,-0.0174 -0.12274,-0.63829 z m 0.23334,-2.2813 c 0.0135,-0.32877 0.0804,-0.39564 0.1705,-0.17051 0.0815,0.20373 0.0715,0.44715 -0.0223,0.54093 -0.0938,0.0938 -0.16049,-0.0729 -0.14823,-0.37042 z m 4.21104,-8.72537 c 0.36456,-0.38805 0.72634,-0.70555 0.80395,-0.70555 0.0776,0 -0.15717,0.3175 -0.52173,0.70555 -0.36456,0.38806 -0.72633,0.70556 -0.80394,0.70556 -0.0776,0 0.15716,-0.3175 0.52172,-0.70556 z m 1.69333,-1.69333 c 0.36456,-0.38806 0.72634,-0.70556 0.80395,-0.70556 0.0776,0 -0.15716,0.3175 -0.52172,0.70556 -0.36457,0.38805 -0.72634,0.70555 -0.80395,0.70555 -0.0776,0 0.15716,-0.3175 0.52172,-0.70555 z m 9.26042,-4.56723 c 0.20373,-0.0815 0.44714,-0.0715 0.54093,0.0223 0.0938,0.0938 -0.0729,0.16049 -0.37042,0.14823 -0.32878,-0.0136 -0.39565,-0.0804 -0.17051,-0.17051 z m 2.66735,-0.29195 c 0.429,-0.0649 1.064,-0.0631 1.41111,0.004 0.34712,0.067 -0.004,0.12007 -0.77999,0.11795 -0.77611,-0.002 -1.06011,-0.0569 -0.63112,-0.1218 z"
         id="path1692" /><path
         style="fill:#6f7386;stroke-width:0.282222"
         d="m 108.15443,192.78793 c 0.27459,-0.0716 0.65559,-0.0668 0.84666,0.0105 0.19108,0.0773 -0.0336,0.13585 -0.49926,0.1301 -0.46566,-0.006 -0.622,-0.069 -0.3474,-0.14056 z m 3.45185,-0.0638 0.84666,-0.19258 -0.98777,-0.19734 c -1.45296,-0.29028 -4.27052,-1.69188 -6.06299,-3.01606 -2.85328,-2.10784 -5.2135,-5.73928 -6.197,-9.53472 -0.570661,-2.20226 -0.579012,-5.13883 -0.01668,-5.86654 0.407738,-0.52765 0.437989,-0.52893 0.82117,-0.0349 0.21881,0.28213 0.48779,1.29813 0.59774,2.25778 0.4478,3.90859 2.4084,6.78877 5.63665,8.28039 1.39512,0.64463 2.09184,0.78415 3.9562,0.79231 1.99873,0.009 2.48291,-0.0984 4.14792,-0.9177 2.05219,-1.00984 3.92699,-2.86883 4.50484,-4.46685 0.38054,-1.05236 0.80658,-1.20102 1.39704,-0.48749 0.21303,0.25744 1.4921,1.3223 2.84237,2.36634 l 2.45505,1.89828 -0.83678,1.31945 c -1.86652,2.9432 -4.9929,5.57097 -7.99625,6.72096 -2.01641,0.7721 -4.29277,1.34403 -5.1925,1.30462 -0.76225,-0.0334 -0.76224,-0.0334 0.0843,-0.22598 z m -5.27403,-0.21564 c 0.20373,-0.0815 0.44715,-0.0715 0.54093,0.0223 0.0938,0.0938 -0.0729,0.16048 -0.37042,0.14823 -0.32877,-0.0136 -0.39565,-0.0804 -0.17051,-0.17051 z m -1.12889,-0.28222 c 0.20373,-0.0815 0.44715,-0.0715 0.54093,0.0223 0.0938,0.0938 -0.0729,0.16048 -0.37042,0.14823 -0.32877,-0.0136 -0.39565,-0.0804 -0.17051,-0.17051 z m -8.73197,-5.94554 c -0.351048,-0.44763 -0.341066,-0.45761 0.106556,-0.10656 0.470111,0.36869 0.619613,0.60044 0.387333,0.60044 -0.0586,0 -0.280854,-0.22225 -0.493889,-0.49388 z m -3.046163,-6.16185 c 0.01355,-0.32878 0.08042,-0.39565 0.170508,-0.17052 0.08152,0.20373 0.0715,0.44715 -0.02227,0.54093 -0.09378,0.0938 -0.160483,-0.0729 -0.148228,-0.37041 z m -0.259943,-1.24649 c 0,-0.38805 0.06406,-0.5468 0.14235,-0.35278 0.07829,0.19403 0.07829,0.51153 0,0.70556 -0.07829,0.19403 -0.14235,0.0353 -0.14235,-0.35278 z m -0.242212,-2.54 c 0,-0.85372 0.05291,-1.20297 0.117571,-0.77611 0.06467,0.42686 0.06467,1.12536 0,1.55222 -0.06466,0.42686 -0.117571,0.0776 -0.117571,-0.77611 z m 1.044318,-3.24555 c 0.364561,-0.38806 0.726336,-0.70556 0.803947,-0.70556 0.07761,0 -0.157164,0.3175 -0.521725,0.70556 -0.36456,0.38805 -0.726335,0.70555 -0.803946,0.70555 -0.07761,0 0.157164,-0.3175 0.521724,-0.70555 z m 4.233333,-0.70556 c -0.254364,-0.16438 -0.289173,-0.2753 -0.08721,-0.2779 0.184867,-0.002 0.414613,0.12268 0.510546,0.2779 0.216549,0.35039 0.118849,0.35039 -0.423334,0 z m -1.905,-0.47676 c 0.271639,-0.071 0.716139,-0.071 0.987778,0 0.271639,0.071 0.04939,0.12906 -0.493889,0.12906 -0.543277,0 -0.765527,-0.0581 -0.493889,-0.12906 z M 121.34294,54.417269 c 0,-1.974242 0.13525,-3.977488 0.30054,-4.451659 0.4008,-1.149735 1.63275,-1.682763 2.78559,-1.205242 1.17004,0.484648 1.42943,1.508516 1.42943,5.642363 v 3.574992 l -2.25778,0.01454 -2.25778,0.01454 v -3.58953 z"
         id="path1690" /><path
         style="fill:#ec3939;stroke-width:0.282222"
         d="m 136.08191,189.88974 c -4.78665,-2.54099 -10.54606,-6.23077 -13.8889,-8.89797 -4.60914,-3.67756 -10.26837,-9.90586 -13.33714,-14.67827 -1.86172,-2.89527 -4.44546,-8.26644 -4.44612,-9.24277 -7e-5,-0.11642 1.24113,-0.21167 2.75824,-0.21167 h 2.75838 l 0.76347,2.04611 c 0.41991,1.12536 1.49639,3.35149 2.39218,4.94696 5.17151,9.21084 14.41151,17.94497 25.99035,24.56744 l 3.4772,1.98877 -0.85263,0.44092 c -1.48876,0.76987 -2.76953,0.551 -5.61503,-0.95952 z M 102.731,150.47467 c -0.47921,-2.75185 -0.42511,-7.5294 0.11165,-9.86013 1.89936,-8.24724 9.62245,-14.28256 18.19266,-14.2169 l 2.4243,0.0186 -1.41111,0.38263 c -7.63387,2.07001 -13.17699,8.52719 -13.95631,16.25771 -0.20858,2.06899 -0.011,6.02838 0.41074,8.22862 l 0.20283,1.05833 h -2.82466 -2.82466 L 102.731,150.4747 Z"
         id="path1688" /><path
         style="fill:#666976;stroke-width:0.282222"
         d="m 107.93739,192.70085 c -3.50422,-0.52704 -6.6062,-1.92646 -9.093818,-4.10257 -1.924211,-1.68325 -4.149366,-5.05146 -4.895302,-7.40998 -0.329212,-1.04092 -0.66756,-3.00129 -0.751883,-4.3564 l -0.153314,-2.46382 1.134511,-1.13451 c 0.978814,-0.97881 1.303677,-1.13437 2.367158,-1.13345 0.736352,5.6e-4 1.607284,0.22946 2.163132,0.56835 0.884335,0.53918 0.908829,0.59822 0.493889,1.19063 -0.573851,0.81929 -0.572189,3.70299 0.0034,5.92433 0.983487,3.79544 3.343707,7.42688 6.196987,9.53472 1.79248,1.32418 4.61004,2.72578 6.06299,3.01606 l 0.98778,0.19734 -0.84666,0.19258 c -1.08146,0.246 -1.91363,0.24072 -3.66889,-0.0233 z"
         id="path1686" /></g></g></svg>
