<?xml version="1.0" encoding="UTF-8" standalone="no"?>
<!-- Created with Inkscape (http://www.inkscape.org/) -->

<svg
   width="135.46666mm"
   height="135.46666mm"
   viewBox="0 0 135.46666 135.46666"
   version="1.1"
   id="svg1385"
   xml:space="preserve"
   inkscape:version="1.2.2 (732a01da63, 2022-12-09)"
   sodipodi:docname="home_insurance.svg"
   xmlns:inkscape="http://www.inkscape.org/namespaces/inkscape"
   xmlns:sodipodi="http://sodipodi.sourceforge.net/DTD/sodipodi-0.dtd"
   xmlns="http://www.w3.org/2000/svg"
   xmlns:svg="http://www.w3.org/2000/svg"><sodipodi:namedview
     id="namedview1387"
     pagecolor="#ffffff"
     bordercolor="#000000"
     borderopacity="0.25"
     inkscape:showpageshadow="2"
     inkscape:pageopacity="0.0"
     inkscape:pagecheckerboard="0"
     inkscape:deskcolor="#d1d1d1"
     inkscape:document-units="mm"
     showgrid="false"
     inkscape:zoom="0.73851712"
     inkscape:cx="232.22211"
     inkscape:cy="268.10482"
     inkscape:window-width="1920"
     inkscape:window-height="1009"
     inkscape:window-x="-8"
     inkscape:window-y="-8"
     inkscape:window-maximized="1"
     inkscape:current-layer="layer1" /><defs
     id="defs1382" /><g
     inkscape:label="Calque 1"
     inkscape:groupmode="layer"
     id="layer1"
     transform="translate(-30.788986,-77.721436)"><g
       id="g1518"><path
         style="fill:#d6f2fc;stroke-width:0.264583"
         d="m 50.368152,189.50789 v -23.68021 h 2.893192 c 3.227258,0 4.022719,0.20006 4.659476,1.17187 0.396902,0.60576 0.436272,2.65238 0.433078,22.5137 -0.0032,19.7823 -0.04445,21.90985 -0.436592,22.50834 -0.633063,0.96617 -1.432673,1.16651 -4.655962,1.16651 h -2.893192 z m 29.192247,-31.37887 c -0.460875,-0.13343 -1.145484,-0.60807 -1.521354,-1.05477 l -0.683395,-0.81217 v -17.77372 -17.77372 l 16.471101,-16.46952 16.471099,-16.469518 16.60182,16.603388 16.60181,16.60338 -5.3e-4,17.32943 c -5.3e-4,19.37943 0.0648,18.68671 -1.85167,19.64412 -0.85425,0.42674 -2.31569,0.46264 -18.85156,0.46302 l -17.9254,4.1e-4 -0.004,-12.76615 c -0.003,-9.67241 -0.084,-12.92644 -0.33441,-13.4276 -0.18179,-0.3638 -0.74558,-0.87325 -1.25287,-1.1321 -0.83189,-0.42448 -1.67065,-0.46341 -8.551213,-0.39687 l -7.62885,0.0738 -0.77167,0.86407 -0.771673,0.86407 v 12.96041 12.96041 l -2.579687,-0.0239 c -1.418829,-0.0131 -2.956769,-0.13303 -3.417647,-0.26646 z m 54.046571,-13.74299 c 1.35817,-0.51638 1.41037,-0.76114 1.41943,-6.65557 0.008,-5.33738 -0.007,-5.49317 -0.59993,-6.18259 l -0.60833,-0.70724 -8.20895,-0.003 c -5.6654,-0.002 -8.38435,0.0908 -8.77504,0.29993 -0.95823,0.51282 -1.16459,1.90417 -1.06976,7.21247 0.0778,4.35813 0.14538,4.99695 0.57878,5.47532 0.26986,0.29786 0.74611,0.59153 1.05834,0.6526 1.2868,0.2517 15.51392,0.17104 16.20546,-0.0919 z M 113.73586,119.4011 c 5.14113,-2.31163 6.38019,-9.22037 2.37243,-13.22814 -2.36955,-2.36955 -6.15833,-3.07056 -9.11931,-1.68729 -3.53221,1.65014 -5.39712,5.19151 -4.71269,8.94918 0.32102,1.76247 0.75029,2.62839 1.9751,3.98411 2.45806,2.72078 6.13342,3.48888 9.48447,1.98214 z"
         id="path1532" /><path
         style="fill:#fcd0a3;stroke-width:0.264583"
         d="m 50.230579,188.18497 c -1.4e-5,-13.82448 0.03209,-19.51874 0.07135,-12.65391 0.03926,6.86482 0.03927,18.17576 2.7e-5,25.13541 -0.03924,6.95966 -0.07136,1.34298 -0.07138,-12.4815 z m 29.564191,20.65551 c -11.537079,-0.90669 -21.09272,-1.76473 -21.234759,-1.90677 -0.164063,-0.16407 -0.233418,-6.52531 -0.190161,-17.441 l 0.06809,-17.18274 4.233333,-0.13229 4.233333,-0.13229 8.150479,-2.73065 8.150478,-2.73065 5.643033,0.0848 5.643031,0.0848 7.999573,3.96875 7.99956,3.96875 8.50172,0.13229 c 8.23674,0.12817 8.54079,0.15154 9.7555,0.74977 1.53376,0.75535 3.17614,2.56552 3.59443,3.96163 0.42045,1.40332 0.39245,3.5777 -0.06,4.66059 -0.51498,1.23253 -2.16239,2.99016 -3.44725,3.6779 -1.04868,0.56133 -1.38524,0.57956 -13.08024,0.70845 l -12.00386,0.13229 -1.95291,2.07055 c -1.64418,1.74321 -1.95291,2.21378 -1.95291,2.97656 0,1.16984 0.7792,1.96435 1.92651,1.96435 0.71017,0 1.15409,-0.28893 2.43912,-1.5875 l 1.57093,-1.5875 11.12079,-0.0116 c 8.87903,-0.009 11.33208,-0.0869 12.16898,-0.38495 0.57651,-0.20534 1.09933,-0.32222 1.16181,-0.25975 0.0625,0.0625 -0.74114,1.25076 -1.78582,2.64061 -3.84833,5.11986 -9.76259,10.6089 -15.19859,14.10584 l -2.33898,1.50466 3.00044,0.14566 c 1.78841,0.0868 -0.25935,0.15622 -5.06935,0.1718 -7.60814,0.0246 -9.269811,-0.0682 -29.046303,-1.62237 z m 38.2571,1.25646 c 0.191,-0.0764 0.4192,-0.067 0.50712,0.0209 0.0879,0.0879 -0.0683,0.15045 -0.34726,0.13896 -0.30823,-0.0127 -0.37092,-0.0754 -0.15986,-0.15985 z m 47.96008,-46.0111 c 0.0127,-0.30822 0.0754,-0.37092 0.15985,-0.15985 0.0764,0.19099 0.067,0.4192 -0.0209,0.50712 -0.0879,0.0879 -0.15046,-0.0684 -0.13897,-0.34727 z M 49.276069,161.39591 c -0.329107,-0.41964 -0.319749,-0.429 0.0999,-0.0999 0.254662,0.19973 0.463021,0.40809 0.463021,0.46303 0,0.21776 -0.217272,0.0776 -0.562916,-0.36313 z m 42.316942,-30.69116 c 2.082477,-0.0448 5.416227,-0.0446 7.408333,2.4e-4 1.992106,0.0449 0.288264,0.0815 -3.78632,0.0814 -4.074583,-1.3e-4 -5.704487,-0.0369 -3.622013,-0.0816 z m 58.390759,-8.7979 c 0.71667,-0.7276 1.36256,-1.32292 1.43532,-1.32292 0.0728,0 -0.45407,0.59532 -1.17073,1.32292 -0.71667,0.7276 -1.36256,1.32292 -1.43532,1.32292 -0.0728,0 0.45407,-0.59532 1.17073,-1.32292 z m -81.307789,-2.77812 c 0.0054,-0.43657 0.06469,-0.58313 0.131773,-0.3257 0.06708,0.25743 0.06267,0.61462 -0.0098,0.79375 -0.07248,0.17913 -0.127362,-0.0315 -0.12197,-0.46805 z m 60.008049,-24.143232 -16.80026,-16.867187 16.86719,16.80026 c 9.27695,9.240139 16.86719,16.830379 16.86719,16.867189 0,0.18565 -1.31705,-1.12098 -16.93412,-16.800262 z"
         id="path1530" /><path
         style="fill:#fdb886;stroke-width:0.264583"
         d="m 110.97978,210.16882 c 0.0606,-0.0599 1.18181,-0.81251 2.49149,-1.67252 3.56804,-2.34296 7.35303,-5.49092 10.37489,-8.62874 2.58795,-2.68726 6.42615,-7.47673 6.42615,-8.01882 0,-0.14216 0.38696,-0.44491 0.8599,-0.67277 2.27278,-1.09504 4.51113,-4.02128 5.22248,-6.82746 l 0.30182,-1.19062 3.35219,-1.32292 3.35219,-1.32291 6.88332,-10.49825 c 3.78582,-5.77404 7.18097,-10.72758 7.54477,-11.00788 2.33215,-1.79683 5.88394,-1.22789 7.416,1.18792 0.91242,1.43873 1.15474,2.67725 0.78932,4.0343 -0.37016,1.37467 -11.64137,23.42392 -13.1536,25.73167 -2.11931,3.23419 -2.33897,3.38156 -17.67359,11.85741 -15.35552,8.48739 -15.28843,8.46045 -21.06456,8.46045 -1.77816,0 -3.1834,-0.049 -3.12277,-0.10886 z m -6.90121,-16.11351 c 0,-0.0455 0.38695,-0.43249 0.85989,-0.8599 l 0.8599,-0.7771 -0.77711,0.85989 c -0.72437,0.80155 -0.94268,0.98151 -0.94268,0.77711 z m 23.4983,-1.68545 c 0.191,-0.0764 0.4192,-0.067 0.50712,0.0209 0.0879,0.0879 -0.0684,0.15046 -0.34726,0.13897 -0.30823,-0.0127 -0.37092,-0.0754 -0.15986,-0.15985 z m -26.14414,-1.27447 c 0.49366,-0.50932 0.95709,-0.92604 1.02985,-0.92604 0.0728,0 -0.27161,0.41672 -0.76526,0.92604 -0.49366,0.50932 -0.95709,0.92604 -1.02985,0.92604 -0.0728,0 0.27161,-0.41672 0.76526,-0.92604 z m 29.10417,-4.49792 c 0.49365,-0.50932 0.95708,-0.92604 1.02984,-0.92604 0.0728,0 -0.2716,0.41672 -0.76526,0.92604 -0.49365,0.50933 -0.95708,0.92604 -1.02984,0.92604 -0.0728,0 0.2716,-0.41671 0.76526,-0.92604 z M 34.966542,160.60443 c 0.915208,-0.0518 2.343957,-0.0514 3.175,0.001 0.831042,0.0523 0.08223,0.0947 -1.664015,0.0942 -1.74625,-5.3e-4 -2.426193,-0.0433 -1.510985,-0.0952 z m 55.569319,-2.3832 c 2.665208,-0.0432 6.951458,-0.0431 9.524999,1.5e-4 2.57354,0.0433 0.39291,0.0786 -4.845836,0.0785 -5.238749,-9e-5 -7.344375,-0.0355 -4.679163,-0.0787 z m 57.723389,-43.65657 -2.77339,-2.84427 2.84427,2.7734 c 1.56434,1.52537 2.84427,2.80529 2.84427,2.84427 0,0.19108 -0.33916,-0.13158 -2.91515,-2.7734 z"
         id="path1528" /><path
         style="fill:#55d8fa;stroke-width:0.264583"
         d="m 117.40151,144.47791 c -0.31223,-0.0611 -0.78848,-0.35474 -1.05834,-0.65259 -0.4334,-0.47837 -0.50093,-1.1172 -0.57878,-5.47533 -0.0948,-5.3083 0.11153,-6.69964 1.06976,-7.21247 0.39069,-0.20909 3.10964,-0.30202 8.77504,-0.29993 l 8.20895,0.003 0.60833,0.70724 c 0.59301,0.68941 0.60813,0.8452 0.59993,6.18258 -0.009,5.89443 -0.0613,6.1392 -1.41943,6.65557 -0.69154,0.26292 -14.91866,0.34359 -16.20546,0.0919 z m -8.82835,-24.52455 c -1.74854,-0.36798 -3.05863,-1.13626 -4.32177,-2.5344 -1.22481,-1.35572 -1.65408,-2.22164 -1.9751,-3.98411 -0.92306,-5.0678 2.87597,-9.629 8.01998,-9.629 4.60238,0 8.17913,3.57675 8.17913,8.17913 0,5.25719 -4.72354,9.05824 -9.90224,7.96838 z"
         id="path1526" /><path
         style="fill:#f3a76c;stroke-width:0.264583"
         d="m 100.49467,195.07616 c -1.058123,-1.05811 -0.851325,-1.75277 1.20192,-4.03743 1.01825,-1.133 2.11958,-2.13744 2.4474,-2.23207 0.32782,-0.0946 5.71572,-0.1851 11.97312,-0.20102 11.36371,-0.0289 11.37865,-0.0297 12.71483,-0.65189 0.75932,-0.35358 1.78896,-1.14695 2.38125,-1.83483 0.83443,-0.96909 1.46405,-1.37297 3.14257,-2.01587 1.15449,-0.44218 2.13635,-0.76669 2.18191,-0.72112 0.0456,0.0456 -0.0916,0.66864 -0.3048,1.38461 -0.9333,3.13407 -3.36542,5.80523 -6.39879,7.02766 -1.52882,0.6161 -1.67362,0.62392 -12.92322,0.69779 l -11.37709,0.0747 -1.47231,1.57945 c -1.67757,1.79964 -2.4863,2.01051 -3.56679,0.93001 z m 4.2354,-49.4891 c 5e-5,-6.985 0.0342,-9.80451 0.0759,-6.26557 0.0417,3.53895 0.0417,9.25395 -1e-4,12.7 -0.0418,3.44606 -0.0759,0.55057 -0.0758,-6.43443 z"
         id="path1524" /><path
         style="fill:#fc7e85;stroke-width:0.264583"
         d="m 32.432728,212.78947 c -1.707894,-0.74204 -1.643742,0.26985 -1.643742,-25.92741 0,-25.20638 -0.0058,-25.08578 1.235978,-25.75035 0.271935,-0.14554 3.874998,-0.31213 8.158336,-0.37722 4.219221,-0.0641 6.042867,-0.0722 4.052547,-0.0181 l -3.618764,0.0985 0.642201,0.69295 0.642201,0.69296 v 25.49365 25.49366 l -4.299479,-0.0104 c -3.124206,-0.008 -4.53724,-0.11366 -5.169278,-0.38827 z m 39.763548,-89.5213 c -0.436563,-0.26883 -1.359297,-1.09672 -2.050521,-1.83976 -1.039056,-1.11694 -1.256771,-1.5241 -1.256771,-2.35038 0,-0.97086 0.568801,-1.5684 19.908294,-20.914201 13.971192,-13.975753 20.163972,-19.999174 20.765632,-20.197741 0.47154,-0.155621 1.12711,-0.202771 1.45681,-0.104778 0.32971,0.09799 8.30877,7.874195 17.73124,17.280447 19.68662,19.652733 18.21812,17.727823 15.61042,20.462043 -1.66667,1.74752 -2.78625,2.46147 -3.46347,2.20864 -0.24153,-0.0902 0.8697,1.18114 2.46939,2.82513 1.59968,1.64399 -5.18721,-5.07742 -15.08199,-14.93646 L 110.2948,87.77558 92.700747,105.38745 c -9.67673,9.68653 -17.915563,17.78278 -18.30852,17.99168 -0.929161,0.49393 -1.239078,0.47828 -2.195951,-0.11096 z m 79.558864,-4.13944 c 0.005,-0.43657 0.0647,-0.58313 0.13178,-0.3257 0.0671,0.25743 0.0627,0.61462 -0.01,0.79375 -0.0725,0.17913 -0.12736,-0.0315 -0.12197,-0.46805 z"
         id="path1522" /><path
         style="display:inline;fill:#e9705b;stroke-width:0.264583"
         d="m 41.901485,187.69444 v -25.49365 l -0.648824,-0.7001 -0.648825,-0.70009 h 3.841219 c 2.128566,0 4.068177,0.12146 4.350252,0.27242 1.34624,0.72049 1.308261,-0.0623 1.308261,26.96652 v 25.14856 h -4.101041 -4.101042 z m 43.656248,-41.93561 c 0,-8.3899 0.09478,-12.66781 0.29327,-13.2372 0.539009,-1.54621 0.965993,-1.61895 9.503526,-1.61895 h 7.706411 l 0.77339,0.7734 0.7734,0.7734 v 12.85264 12.85265 h -9.524997 -9.525 z m 60.986457,-22.25847 c -0.65849,-0.28003 -6.25101,-5.91388 -5.64628,-5.688 1.1013,0.41136 4.68086,-2.83971 4.95728,-4.50235 l 0.15983,-0.96139 2.84427,2.88749 c 2.58582,2.62511 2.84427,2.97668 2.84427,3.86891 0,0.82072 -0.22686,1.2213 -1.38545,2.44634 -1.26975,1.34257 -2.50239,2.23288 -3.03318,2.1908 -0.11636,-0.009 -0.4497,-0.11803 -0.74074,-0.2418 z"
         id="path1520" /></g></g></svg>
