<svg xmlns="http://www.w3.org/2000/svg" width="32" height="32" fill="none" viewBox="0 0 32 32">
  <path fill="#000" fill-opacity=".01" fill-rule="evenodd" d="M0 32h32V0H0v32Z" clip-rule="evenodd"/>
  <mask id="a" width="32" height="32" x="0" y="0" maskUnits="userSpaceOnUse" style="mask-type:alpha">
    <path fill="#fff" fill-rule="evenodd" d="M0 .243h32v31.514H0V.243Z" clip-rule="evenodd"/>
  </mask>
  <g mask="url(#a)">
    <path fill="#7D90AA" fill-rule="evenodd" d="m16 29.068-5.557 2.689-2.528-5.632-5.986-1.512 1.685-5.94L0 13.669l5.107-3.467.45-6.157 6.142.627L16 .243l4.302 4.428 6.141-.627.45 6.157L32 13.668l-3.614 5.006 1.684 5.94-5.986 1.51-2.527 5.633L16 29.067Z" clip-rule="evenodd"/>
  </g>
  <path fill="#fff" fill-rule="evenodd" d="M11.968 12.622a.606.606 0 0 1 .172.445v5.864a.588.588 0 0 1-.183.442.64.64 0 0 1-.467.178.603.603 0 0 1-.435-.178.583.583 0 0 1-.184-.442v-2.363H7.636v2.363a.57.57 0 0 1-.194.442.64.64 0 0 1-.446.178.613.613 0 0 1-.45-.178.597.597 0 0 1-.178-.442v-5.864c0-.175.06-.32.183-.44a.639.639 0 0 1 .467-.179c.167 0 .312.06.434.179.123.12.184.265.184.44v2.334h3.235v-2.334c0-.175.064-.32.194-.44a.64.64 0 0 1 .446-.179c.189 0 .341.058.457.174Zm6.227 2.145a2.193 2.193 0 0 0-.76-.877 1.93 1.93 0 0 0-1.096-.325c-.413 0-.78.106-1.1.32a2.147 2.147 0 0 0-.751.877 2.8 2.8 0 0 0-.268 1.237c0 .453.088.867.268 1.238.18.373.43.665.75.878.32.213.688.319 1.101.319.406 0 .77-.107 1.096-.324.324-.217.58-.508.76-.877.182-.37.274-.78.274-1.234 0-.453-.092-.863-.274-1.232Zm1.147 3.073a3.43 3.43 0 0 1-1.233 1.325 3.29 3.29 0 0 1-1.77.487 3.288 3.288 0 0 1-1.77-.487 3.368 3.368 0 0 1-1.227-1.325A3.873 3.873 0 0 1 12.9 16c0-.67.147-1.283.442-1.84.293-.56.703-1 1.227-1.325a3.288 3.288 0 0 1 1.77-.488 3.29 3.29 0 0 1 1.77.488c.523.325.935.765 1.233 1.324a3.84 3.84 0 0 1 .446 1.84 3.84 3.84 0 0 1-.446 1.841Zm6.118-5.23a.559.559 0 0 1 .173.428.537.537 0 0 1-.174.42.64.64 0 0 1-.445.157H23.42v5.316a.578.578 0 0 1-.193.442.681.681 0 0 1-.476.178.646.646 0 0 1-.468-.178.591.591 0 0 1-.183-.442v-5.316h-1.592a.63.63 0 0 1-.447-.161.556.556 0 0 1-.17-.426c0-.17.056-.309.175-.417a.63.63 0 0 1 .442-.163h4.505c.18 0 .33.055.445.163Z" clip-rule="evenodd"/>
</svg>
