<svg xmlns="http://www.w3.org/2000/svg" width="34" height="34" fill="none" viewBox="0 0 34 34">
  <path fill="#FE685A" fill-rule="evenodd" d="m19.595 12.397-9.11 5.95a2.984 2.984 0 0 0-1.331 2.5v11.675c0 .816.638 1.478 1.426 1.478h12.84c.787 0 1.426-.662 1.426-1.478V8.13a8.25 8.25 0 0 0-2.3-5.749C21.128.91 19.167 0 17 0c-2.167 0-4.129.91-5.548 2.381a8.195 8.195 0 0 0-2.096 3.9c-.21.94.458 1.85 1.39 1.85h.004c.676 0 1.234-.503 1.388-1.186a5.228 5.228 0 0 1 1.333-2.472A4.891 4.891 0 0 1 17 2.957c1.377 0 2.625.579 3.528 1.516a5.254 5.254 0 0 1 1.465 3.657c0 .476-.063.936-.178 1.374-.327 1.222-1.186 2.217-2.22 2.893Z" clip-rule="evenodd"/>
</svg>
