<svg xmlns="http://www.w3.org/2000/svg" width="9" height="17" fill="none" viewBox="0 0 9 17">
  <mask id="a" width="8" height="12" x="0" y="4" maskUnits="userSpaceOnUse" style="mask-type:alpha">
    <path fill="#fff" fill-rule="evenodd" d="M0 4.72h7.118v10.937H0V4.72Z" clip-rule="evenodd"/>
  </mask>
  <g mask="url(#a)">
    <path fill="#092058" fill-rule="evenodd" d="M4.972 4.72c.228-.004.452.02.672.085.585.173.929.61.96 1.22.025.483-.082.944-.253 1.39-.608 1.591-1.22 3.18-1.834 4.769-.126.323-.275.636-.348.977-.024.114-.048.23-.015.347.045.156.157.234.317.219a.818.818 0 0 0 .354-.137c.303-.189.555-.438.801-.694.26-.27.516-.546.774-.819.093-.097.19-.191.302-.267.11-.075.2-.069.296.024.107.1.144.224.104.367a1.451 1.451 0 0 1-.232.438 6.68 6.68 0 0 1-1.084 1.166c-.78.683-1.633 1.254-2.618 1.605-.477.17-.968.267-1.478.244a2.019 2.019 0 0 1-.44-.069c-.6-.166-.915-.617-.888-1.266.024-.565.175-1.103.341-1.638.272-.872.65-1.702.997-2.545.439-1.069.885-2.135 1.327-3.203.057-.137.109-.277.071-.431-.038-.162-.157-.256-.322-.248-.19.01-.354.094-.51.195-.238.157-.445.35-.639.558-.26.28-.514.567-.772.85a2.176 2.176 0 0 1-.381.352c-.128.086-.23.084-.343-.001-.113-.086-.156-.204-.117-.338.029-.095.079-.181.133-.264.117-.179.253-.342.398-.498.601-.644 1.231-1.253 2.005-1.694.752-.428 1.552-.683 2.422-.694Z" clip-rule="evenodd"/>
  </g>
  <mask id="b" width="5" height="4" x="4" y="0" maskUnits="userSpaceOnUse" style="mask-type:alpha">
    <path fill="#fff" fill-rule="evenodd" d="M4.358.445H8.02v3.439H4.358V.444Z" clip-rule="evenodd"/>
  </mask>
  <g mask="url(#b)">
    <path fill="#092058" fill-rule="evenodd" d="M6.243.445h.191a2 2 0 0 1 .738.182c.606.296.936.949.827 1.636A1.91 1.91 0 0 1 6.39 3.85c-.37.059-.735.047-1.087-.09-.704-.273-.981-.913-.94-1.566.054-.883.797-1.599 1.691-1.726.063-.01.126-.015.19-.023Z" clip-rule="evenodd"/>
  </g>
</svg>
