<svg xmlns="http://www.w3.org/2000/svg" width="21" height="20" fill="none" viewBox="0 0 21 20">
  <path stroke="#186BFE" d="M11 0c5.523 0 10 4.478 10 10s-4.477 10-10 10S1 15.522 1 10 5.477 0 11 0"/>
  <path fill="#186BFE" fill-rule="evenodd" d="M9.59 12.868V11.21h1.26c1.597 0 2.752-1.218 2.752-2.815 0-1.595-1.155-2.813-2.751-2.813-1.617 0-2.73 1.218-2.73 2.813H6.336c0-2.519 1.974-4.472 4.515-4.472 2.54 0 4.536 1.953 4.536 4.472 0 2.521-1.995 4.474-4.536 4.474H9.59ZM11 14a1 1 0 1 1 0 2 1 1 0 0 1 0-2Z" clip-rule="evenodd"/>
</svg>
