<svg xmlns="http://www.w3.org/2000/svg" width="34" height="34" fill="none" viewBox="0 0 34 34">
  <mask id="a" width="34" height="17" x="0" y="5" maskUnits="userSpaceOnUse" style="mask-type:alpha">
    <path fill="#fff" fill-rule="evenodd" d="M0 5.954h34v15.708H0V5.954Z" clip-rule="evenodd"/>
  </mask>
  <g mask="url(#a)">
    <path fill="#FEA400" fill-opacity=".3" fill-rule="evenodd" d="m34 13.944-3.09 2.566a18.031 18.031 0 0 0-13.918-6.54 18.038 18.038 0 0 0-13.903 6.523L0 13.925a22.043 22.043 0 0 1 16.991-7.97c6.66 0 12.84 2.964 17.01 7.99Zm-6.156 5.163-3.1 2.555a10.022 10.022 0 0 0-7.753-3.659c-3.03 0-5.836 1.35-7.733 3.638l-3.093-2.564a14.035 14.035 0 0 1 10.826-5.09c4.253 0 8.2 1.902 10.853 5.12Z" clip-rule="evenodd"/>
  </g>
  <path fill="#FEA400" fill-rule="evenodd" d="m21.587 24.15-3.062 2.599-1.588 1.297-1.515-1.253-3.133-2.512a6.015 6.015 0 0 1 4.702-2.26c1.791 0 3.46.79 4.596 2.13Z" clip-rule="evenodd"/>
</svg>
