<svg xmlns="http://www.w3.org/2000/svg" width="34" height="34" fill="none" viewBox="0 0 34 34">
  <path fill="#4ADC00" fill-opacity=".3" fill-rule="evenodd" d="m13.543 18.197-3.45 3.448a1.628 1.628 0 0 0 0 2.3 1.628 1.628 0 0 0 2.301 0l3.448-3.45 1.15 1.15a3.251 3.251 0 0 1 0 4.598l-4.598 4.6a3.252 3.252 0 0 1-4.6 0l-4.597-4.6a3.251 3.251 0 0 1 0-4.598l4.598-4.599a3.252 3.252 0 0 1 4.599 0l1.15 1.15Z" clip-rule="evenodd"/>
  <path fill="#4ADC00" fill-rule="evenodd" d="m20.441 15.897 3.45-3.449a1.628 1.628 0 0 0 0-2.3 1.628 1.628 0 0 0-2.3 0l-3.449 3.45-1.15-1.15a3.253 3.253 0 0 1 0-4.597l4.598-4.6a3.253 3.253 0 0 1 4.6 0l4.597 4.6a3.25 3.25 0 0 1 0 4.597l-4.597 4.598a3.25 3.25 0 0 1-4.6 0l-1.149-1.15Z" clip-rule="evenodd"/>
  <mask id="a" width="15" height="15" x="0" y="0" maskUnits="userSpaceOnUse" style="mask-type:alpha">
    <path fill="#fff" fill-rule="evenodd" d="M.224 0h14.075v14.074H.224V0Z" clip-rule="evenodd"/>
  </mask>
  <g mask="url(#a)">
    <path fill="#4ADC00" fill-opacity=".3" fill-rule="evenodd" d="M.224 12.449c0-.899.728-1.627 1.625-1.627H5.1a1.627 1.627 0 1 1 0 3.252H1.85A1.625 1.625 0 0 1 .223 12.45Zm12.45-12.45c.896 0 1.625.729 1.625 1.627v3.251a1.626 1.626 0 0 1-3.252 0v-3.25c0-.899.728-1.627 1.626-1.627ZM4.345 4.402a1.626 1.626 0 0 1 2.3 0l2.299 2.3A1.627 1.627 0 0 1 6.645 9L4.346 6.7a1.627 1.627 0 0 1 0-2.299Z" clip-rule="evenodd"/>
  </g>
  <path fill="#4ADC00" fill-opacity=".3" fill-rule="evenodd" d="M21.394 33.617c.898 0 1.625-.728 1.625-1.625V28.74a1.626 1.626 0 1 0-3.25 0v3.25c0 .898.726 1.626 1.625 1.626Zm12.448-12.45c0-.896-.729-1.625-1.627-1.625h-3.251a1.626 1.626 0 0 0 0 3.253h3.25c.9 0 1.628-.729 1.628-1.627Zm-4.402 8.328a1.624 1.624 0 0 0 0-2.299l-2.298-2.3a1.626 1.626 0 1 0-2.3 2.3l2.3 2.3a1.625 1.625 0 0 0 2.298 0Z" clip-rule="evenodd"/>
</svg>
