<?xml version="1.0" encoding="UTF-8" standalone="no"?>
<!-- Created with Inkscape (http://www.inkscape.org/) -->

<svg
   version="1.1"
   id="svg9"
   width="1600"
   height="527"
   viewBox="0 0 1600 527"
   sodipodi:docname="logo.svg"
   inkscape:version="1.2.2 (732a01da63, 2022-12-09)"
   xml:space="preserve"
   xmlns:inkscape="http://www.inkscape.org/namespaces/inkscape"
   xmlns:sodipodi="http://sodipodi.sourceforge.net/DTD/sodipodi-0.dtd"
   xmlns="http://www.w3.org/2000/svg"
   xmlns:svg="http://www.w3.org/2000/svg"><defs
     id="defs13" /><sodipodi:namedview
     id="namedview11"
     pagecolor="#ffffff"
     bordercolor="#000000"
     borderopacity="0.25"
     inkscape:showpageshadow="2"
     inkscape:pageopacity="0.0"
     inkscape:pagecheckerboard="0"
     inkscape:deskcolor="#d1d1d1"
     showgrid="false"
     inkscape:zoom="0.76470588"
     inkscape:cx="785.26923"
     inkscape:cy="245.84615"
     inkscape:window-width="1920"
     inkscape:window-height="1129"
     inkscape:window-x="1912"
     inkscape:window-y="-8"
     inkscape:window-maximized="1"
     inkscape:current-layer="g15" /><g
     inkscape:groupmode="layer"
     inkscape:label="Image"
     id="g15"><g
       id="logo"><path
         style="display:inline;fill:#f7f005"
         d="M 179.5,414.44766 C 127.34735,407.42656 80.10292,381.16703 47.996735,341.35514 9.2560157,293.31638 -5.0259702,229.96743 10.041166,173 c 2.268335,-8.57636 13.051436,-40.24073 13.538022,-39.75415 0.177339,0.17734 -0.158651,5.03207 -0.746643,10.78829 C 21.508107,156.9999 22.352958,184.29641 24.471887,197 35.456727,262.85734 76.405746,317.91697 135.28248,345.9948 162.71737,359.07827 189.11407,365 220,365 c 32.38175,0 59.05313,-6.23974 87.88124,-20.55971 34.30961,-17.04283 59.93059,-39.62548 80.48479,-70.94029 3.61006,-5.5 7.24212,-10.9 8.07126,-12 1.96841,-2.61146 -9.44838,31.4268 -14.0554,41.90508 -13.8952,31.60337 -41.13924,62.71927 -71.88189,82.09756 -37.99823,23.95176 -87.25211,34.83462 -131,28.94502 z"
         id="path824" /><path
         style="display:inline;fill:#0667ad"
         d="M 248.5,288.49677 C 199.35298,280.56163 160.83693,244.06273 150.36366,195.5 c -2.13837,-9.91525 -2.84118,-28.3928 -1.47033,-38.65619 6.08963,-45.59215 36.59795,-83.038999 79.27596,-97.305733 38.04865,-12.719199 77.80362,-6.243958 109.93019,17.905294 29.45252,22.139198 46.2773,56.334839 46.2773,94.056629 0,32.167 -11.87922,61.04851 -34.35374,83.52304 -16.56494,16.56493 -36.8089,27.43363 -60.52304,32.49397 -10.47214,2.23464 -30.29402,2.70832 -41,0.97976 z"
         id="path808" /><path
         style="display:inline;fill:#db0022"
         d="M 243.5,519.30743 C 189.54274,514.50034 136.58667,492.17015 95.76393,457.01099 89.309091,451.45167 80.351401,442.76243 75.857951,437.70157 68.261327,429.14568 36,386.8827 36,385.48687 c 0,-0.34365 3.341002,2.28904 7.424448,5.8504 19.740391,17.21653 39.088566,30.07336 62.693732,41.65989 40.02429,19.6458 77.42837,28.36684 121.38182,28.30109 73.38156,-0.10978 139.99721,-28.6127 191.5,-81.93735 39.55943,-40.9588 63.11003,-89.42323 72.09389,-148.3609 2.64527,-17.35404 3.18423,-53.26715 1.03551,-69 -4.29458,-31.4447 -12.43136,-60.24905 -24.26772,-85.908192 -2.13325,-4.624505 -3.71876,-8.568066 -3.52335,-8.763468 0.54221,-0.542218 27.61179,35.90418 34.66412,46.67166 17.71873,27.05296 30.73893,62.38553 36.71558,99.63413 2.48217,15.4698 2.47223,58.31263 -0.0172,73.86587 -9.45708,59.08635 -33.28359,107.92532 -72.54785,148.7067 -44.61506,46.33892 -101.98089,74.82591 -165.68802,82.27813 -11.71813,1.37075 -42.53897,1.84055 -53.96501,0.8226 z"
         id="path804" /><path
         style="display:inline;fill:#019c3f;fill-opacity:1"
         d="m 178.5,321.31741 c -24.04771,-5.41778 -37.01946,-10.00146 -51,-18.02133 C 94.823567,284.55142 69.016018,253.02481 57.007707,217.1824 51.206128,199.86584 49.861047,191.36016 49.309117,168.5 48.827934,148.57006 48.938346,146.83758 51.47597,134.5 57.873987,103.39372 68.865546,80.970711 88.743987,58.472478 111.92898,32.231922 141.51354,14.953391 175.39594,7.8643755 183.38398,6.1930846 189.2696,5.733077 203.5,5.667822 221.64465,5.584618 225.72809,6.0467478 244,10.251281 l 9.5,2.186037 -11.04064,0.67275 C 180.11806,16.908775 124.08485,56.524687 101.17386,113 c -16.051425,39.56658 -16.229331,80.5959 -0.52249,120.5 13.56607,34.46537 41.40698,65.50978 75.09509,83.73588 7.87106,4.25844 8.64755,5.40941 2.75354,4.08153 z M 72,153.41667 c 0,-1.76593 -2.152759,-1.45839 -2.770833,0.39583 C 69.011458,154.46562 69.545833,155 70.416667,155 71.2875,155 72,154.2875 72,153.41667 Z"
         id="path802" /></g><g
       id="g2784"
       transform="translate(-15.692308,-11.076923)"><path
         style="display:inline;fill:#0667ad;stroke-width:1.07156"
         d="m 1015.1271,502.81154 c -3.4792,-1.66568 -5.8064,-4.47766 -8.1445,-9.8411 -1.6503,-3.78592 -2.0522,-6.85478 -2.0751,-15.84632 -0.025,-9.71369 0.2841,-11.82615 2.3954,-16.3878 3.3633,-7.2665 7.7978,-10.61075 14.0626,-10.60524 3.2532,0.002 6.1011,0.81655 8.1791,2.33687 3.1645,2.31511 7.0726,8.63632 7.0797,11.4509 0.011,3.09269 -2.8996,1.26725 -4.9485,-3.10706 -2.4166,-5.15939 -5.2998,-7.1637 -10.305,-7.1637 -8.6461,0 -12.6405,7.62947 -12.5981,24.06293 0.028,10.86284 2.71,19.25286 6.8838,21.5348 6.3429,3.46777 13.3911,0.51258 16.614,-6.96593 1.474,-3.42033 4.3606,-4.71355 4.3538,-1.95051 -0.01,2.81458 -3.9152,9.13579 -7.0797,11.45091 -3.4549,2.52768 -10.2732,3.01537 -14.4175,1.03125 z m 40.0871,-25.76906 v -25.90526 l 2.1838,0.37508 c 1.6681,0.28651 4.4349,4.94635 11.7172,19.73424 5.2434,10.64753 9.9833,19.53907 10.5331,19.75899 0.6548,0.26187 0.9997,-6.51948 0.9997,-19.6526 0,-19.2699 0.077,-20.05244 1.9564,-20.05244 1.8974,0 1.9564,0.78254 1.9564,25.90527 0,25.59087 -0.025,25.90071 -2.0386,25.53017 -1.4724,-0.27091 -4.6767,-5.73197 -11.5364,-19.6619 -5.2237,-10.60775 -10.0289,-19.49929 -10.6783,-19.75898 -0.8912,-0.35645 -1.1805,4.4429 -1.1805,19.58026 0,19.2699 -0.076,20.05244 -1.9564,20.05244 -1.8974,0 -1.9564,-0.78254 -1.9564,-25.90527 z m 45.0134,25.61182 c 0.011,-0.1614 2.8045,-11.64998 6.2139,-25.53018 l 6.1987,-25.23673 h 3.2903 3.2903 l 6.1292,24.64983 c 3.3711,13.5574 6.1375,25.04598 6.1474,25.53018 0.011,0.48419 -0.8395,0.88035 -1.8876,0.88035 -1.4943,0 -2.2616,-1.52108 -3.5528,-7.04281 l -1.6467,-7.04281 h -8.5148 -8.5147 l -1.6319,7.04281 c -1.2978,5.60127 -2.0314,7.04281 -3.5841,7.04281 -1.0738,0 -1.9455,-0.13206 -1.9372,-0.29345 z m 22.4714,-19.95463 c -0.011,-0.80699 -0.8408,-4.63651 -1.853,-8.51005 -1.0123,-3.87356 -2.3442,-9.28771 -2.9598,-12.03147 -0.6157,-2.74376 -1.4717,-4.98865 -1.9023,-4.98865 -0.6679,0 -6.9674,23.61943 -6.9674,26.1237 0,0.48055 3.0813,0.87373 6.8476,0.87373 4.8326,0 6.8438,-0.43175 6.8349,-1.46726 z m 25.4465,-5.67941 v -25.92748 l 10.8427,0.3973 10.8428,0.39731 2.8523,3.83337 c 2.4686,3.31758 2.8524,4.76637 2.8524,10.76737 0,6.13744 -0.3367,7.33802 -2.931,10.45099 l -2.931,3.51701 2.6824,2.34467 c 2.4197,2.11502 2.7309,3.22079 3.1766,11.28916 0.4663,8.44014 0.3838,8.92549 -1.4633,8.60769 -1.6909,-0.29093 -1.9979,-1.37298 -2.2546,-7.94374 -0.4196,-10.74402 -1.4219,-11.76078 -11.5931,-11.76078 h -8.1634 v 9.97731 c 0,9.19477 -0.1534,9.97731 -1.9564,9.97731 -1.8974,0 -1.9564,-0.78254 -1.9564,-25.92749 z m 21.4499,-1.81514 c 2.691,-4.10512 2.7797,-13.13949 0.1668,-17.01131 -1.62,-2.40046 -2.8855,-2.81301 -9.7822,-3.18883 l -7.9217,-0.43167 v 11.8623 11.86231 h 7.7548 c 7.2125,0 7.8965,-0.21628 9.7823,-3.0928 z m -149.1082,-93.62705 c -15.7,-5.95794 -23.96652,-22.59855 -23.96652,-48.24462 0,-28.88495 11.36222,-47.51073 30.23562,-49.56427 21.0754,-2.29313 34.6581,14.51358 36.0248,44.57562 l 0.5204,11.44456 h -22.63 -22.6299 l 0.01,3.81485 c 0.01,5.89139 1.7767,12.18972 4.5211,16.10332 2.2118,3.15409 3.0956,3.55786 7.7882,3.55786 5.8825,0 8.5704,-2.15654 10.3582,-8.31035 l 0.9954,-3.42767 h 10.6214 10.6214 l -1.3633,4.63615 c -2.6871,9.13912 -6.1694,14.92718 -12.1421,20.18211 -7.062,6.21333 -20.1464,8.57734 -28.9606,5.23244 z m 21.0263,-60.86299 c -0.011,-4.88983 -2.0952,-11.72428 -4.4325,-14.52899 -3.2449,-3.89362 -10.9275,-3.96393 -13.9311,-0.1275 -2.5834,3.2998 -5.1083,10.38024 -5.1083,14.32534 v 2.97221 h 11.7387 c 11.5229,0 11.7386,-0.0486 11.7332,-2.64106 z m 51.5287,60.59962 c -6.0297,-2.22289 -12.4519,-9.79206 -14.8837,-17.54165 -1.5893,-5.0648 -1.8615,-10.23589 -2.1737,-41.29726 l -0.357,-35.5075 h 10.825 10.8249 v 34.36596 c 0,38.14992 0.015,38.24521 6.3819,40.76657 4.8444,1.91845 10.7641,0.47907 13.1788,-3.20443 1.8605,-2.83818 1.9603,-4.74503 1.9603,-37.45925 v -34.46885 h 10.7604 10.7605 v 46.36516 46.36516 h -7.4282 c -6.6056,0 -7.4849,-0.26 -7.9399,-2.34761 -0.6624,-3.03914 -3.2557,-2.98645 -6.5609,0.13327 -5.8196,5.49289 -16.4724,7.10266 -25.3484,3.83043 z m 83.9608,0.26337 c -15.6999,-5.95794 -23.9665,-22.59855 -23.9665,-48.24462 0,-28.88495 11.3623,-47.51073 30.2356,-49.56427 21.0754,-2.29313 34.6582,14.51358 36.025,44.57562 l 0.5203,11.44456 h -22.6299 -22.6301 l 0.011,3.81485 c 0.011,5.89139 1.7768,12.18972 4.5212,16.10332 2.2118,3.15409 3.0956,3.55786 7.7882,3.55786 5.8824,0 8.5704,-2.15654 10.3582,-8.31035 l 0.9954,-3.42767 h 10.6213 10.6214 l -1.3631,4.63615 c -2.6873,9.13912 -6.1696,14.92718 -12.1422,20.18211 -7.0621,6.21333 -20.1464,8.57734 -28.9607,5.23244 z m 21.0264,-60.86299 c -0.01,-4.88983 -2.0952,-11.72428 -4.4326,-14.52899 -3.2449,-3.89362 -10.9273,-3.96393 -13.931,-0.1275 -2.5835,3.2998 -5.1084,10.38024 -5.1084,14.32534 v 2.97221 h 11.7388 c 11.5229,0 11.7386,-0.0486 11.7332,-2.64106 z m 52.0765,60.75945 c -7.261,-2.45044 -10.1166,-4.44541 -14.2821,-9.97791 -3.7721,-5.01008 -4.7787,-7.346 -5.9497,-13.80679 l -0.6915,-3.81486 h 10.3733 c 10.0484,0 10.4012,0.0881 11.2655,2.81606 1.4756,4.657 4.7674,6.57436 11.2872,6.57436 7.7032,0 10.2713,-2.03503 10.2713,-8.13945 0,-2.46671 -0.6217,-5.10403 -1.3815,-5.86073 -0.7599,-0.7567 -7.473,-4.46413 -14.918,-8.23875 -19.7506,-10.01358 -24.8115,-16.07577 -24.7644,-29.66408 0.039,-11.21921 4.7873,-19.46618 14.1627,-24.59768 6.4698,-3.5411 22.7047,-3.87379 30.4645,-0.62428 8.0844,3.3854 15.9124,14.57255 15.9797,22.83666 0.021,2.57281 -0.2439,2.64105 -10.2498,2.64105 -7.8777,0 -10.2715,-0.36264 -10.2715,-1.5561 0,-0.85585 -1.0187,-2.70458 -2.264,-4.10831 -3.0475,-3.43549 -13.1984,-3.69805 -15.6815,-0.40563 -2.1795,2.88994 -2.0909,10.19893 0.1565,12.89565 0.9765,1.17171 7.4694,4.9195 14.4289,8.32842 6.9593,3.40892 14.4858,7.46356 16.7256,9.01032 8.0926,5.58864 11.1627,17.53059 7.242,28.16965 -2.867,7.77993 -5.9791,11.40196 -13.0836,15.22773 -7.432,4.00209 -20.6433,5.054 -28.8196,2.29467 z m -383.45269,-67.21535 0.25277,-65.43942 h 28.36851 c 32.8004,0 35.8132,0.65474 43.0676,9.3595 9.63375,11.55984 10.32304,35.62144 1.4028,48.96828 -1.59273,2.38311 -2.88647,4.76005 -2.875,5.2821 0.0114,0.52205 1.6829,2.35892 3.71425,4.08192 2.03134,1.723 4.9933,5.94869 6.58212,9.39041 2.66309,5.76881 2.88878,7.18119 2.88878,18.07869 0,10.83635 -0.24628,12.40073 -2.95668,18.78082 -3.20775,7.55083 -9.22567,13.48569 -15.94524,15.72517 -2.09321,0.6976 -16.38204,1.2016 -34.17496,1.20541 l -30.57771,0.006 z m 53.99098,40.81886 c 5.58497,-2.54794 8.25978,-14.66359 4.93868,-22.36991 -2.57111,-5.96604 -5.67925,-7.00439 -20.96668,-7.00439 h -13.74371 v 15.25942 15.25942 h 13.63145 c 7.49731,0 14.76042,-0.51504 16.14026,-1.14454 z m -5.99889,-52.9289 c 5.49169,-1.82989 7.72971,-6.7362 7.29607,-15.99475 -0.56599,-12.0839 -3.98181,-14.42782 -21.0421,-14.43896 l -10.02679,-0.006 v 15.84632 15.84631 l 10.02679,-0.008 c 5.51474,-0.003 11.70046,-0.56423 13.74603,-1.24583 z m 48.8521,12.11004 0.25278,-65.43942 10.51591,-0.33316 10.51591,-0.33317 v 65.77259 65.77259 H 974.01332 963.24464 Z M 682.02163,180.85804 c -15.69993,-5.95795 -23.9665,-22.59856 -23.9665,-48.24462 0,-28.88495 11.36225,-47.510741 30.23557,-49.564272 21.07539,-2.293126 34.65816,14.513574 36.02492,44.575612 l 0.52032,11.44457 h -22.62993 -22.62995 l 0.006,3.81485 c 0.008,5.89139 1.77672,12.18973 4.5211,16.10332 2.2118,3.15409 3.09563,3.55785 7.7882,3.55785 5.88246,0 8.57042,-2.15653 10.3582,-8.31035 l 0.99541,-3.42766 h 10.62138 10.62137 l -1.36319,4.63616 c -2.68721,9.1391 -6.16949,14.92716 -12.14219,20.1821 -7.062,6.21332 -20.14635,8.57733 -28.96059,5.23244 z m 21.02636,-60.86298 c -0.0105,-4.88984 -2.09519,-11.7243 -4.43257,-14.529 -3.24487,-3.89362 -10.9274,-3.96394 -13.93103,-0.12751 -2.58348,3.29981 -5.10833,10.38026 -5.10833,14.32535 v 2.97221 h 11.7387 c 11.52292,0 11.73859,-0.0486 11.73323,-2.64105 z m 51.09825,60.75944 c -7.261,-2.45044 -10.11653,-4.44541 -14.282,-9.97791 -3.77215,-5.01008 -4.77878,-7.34601 -5.94983,-13.80679 l -0.69147,-3.81486 h 10.3733 c 10.04838,0 10.40122,0.0881 11.26555,2.81606 1.47557,4.657 4.76737,6.57435 11.28711,6.57435 7.70331,0 10.27135,-2.03503 10.27135,-8.13944 0,-2.4667 -0.62169,-5.10404 -1.38153,-5.86072 -0.75984,-0.7567 -7.47291,-4.46414 -14.91792,-8.23876 -19.75066,-10.01358 -24.81156,-16.07576 -24.76448,-29.66409 0.0388,-11.219213 4.78728,-19.466177 14.16277,-24.597671 6.46976,-3.541106 22.70461,-3.873792 30.46448,-0.624283 8.08438,3.385406 15.91246,14.572558 15.97969,22.836654 0.0209,2.57282 -0.24389,2.64105 -10.24988,2.64105 -7.87769,0 -10.27135,-0.36263 -10.27135,-1.55608 0,-0.85586 -1.01883,-2.70459 -2.26405,-4.10832 -3.04761,-3.43549 -13.19833,-3.69806 -15.68148,-0.40563 -2.1796,2.88995 -2.09091,10.19893 0.15649,12.89563 0.97647,1.17172 7.46944,4.91951 14.4288,8.32843 6.95935,3.40892 14.48591,7.46357 16.72569,9.01034 8.09257,5.58864 11.16265,17.53057 7.24196,28.16964 -2.86705,7.77993 -5.97908,11.40195 -13.08361,15.22772 -7.43199,4.0021 -20.64328,5.05402 -28.81959,2.29468 z m 204.44884,0 c -7.26099,-2.45044 -10.11652,-4.44541 -14.282,-9.97791 -3.77214,-5.01008 -4.77878,-7.34601 -5.94983,-13.80679 l -0.69146,-3.81486 h 10.37329 c 10.04839,0 10.40123,0.0881 11.26556,2.81606 1.47558,4.657 4.76736,6.57435 11.28711,6.57435 7.70331,0 10.27135,-2.03503 10.27135,-8.13944 0,-2.4667 -0.6217,-5.10404 -1.38154,-5.86072 -0.75984,-0.7567 -7.4729,-4.46414 -14.91791,-8.23876 -19.75067,-10.01358 -24.81157,-16.07576 -24.76448,-29.66409 0.0388,-11.219213 4.78728,-19.466177 14.16277,-24.597671 6.46976,-3.541106 22.70461,-3.873792 30.46447,-0.624283 8.08439,3.385406 15.91249,14.572558 15.97969,22.836654 0.021,2.57282 -0.2439,2.64105 -10.24987,2.64105 -7.87769,0 -10.27135,-0.36263 -10.27135,-1.55608 0,-0.85586 -1.01883,-2.70459 -2.26405,-4.10832 -3.04761,-3.43549 -13.19833,-3.69806 -15.68149,-0.40563 -2.17959,2.88995 -2.09091,10.19893 0.15649,12.89563 0.97648,1.17172 7.46945,4.91951 14.4288,8.32843 6.95936,3.40892 14.48592,7.46357 16.72569,9.01034 8.09258,5.58864 11.16268,17.53057 7.24198,28.16964 -2.86706,7.77993 -5.97909,11.40195 -13.08363,15.22772 -7.43198,4.0021 -20.64328,5.05402 -28.81959,2.29468 z m 71.41042,0 c -7.261,-2.45044 -10.1166,-4.44541 -14.2821,-9.97791 -3.7721,-5.01008 -4.7787,-7.34601 -5.9498,-13.80679 l -0.6915,-3.81486 h 10.3733 c 10.0484,0 10.4013,0.0881 11.2656,2.81606 1.4756,4.657 4.7673,6.57435 11.2871,6.57435 7.7034,0 10.2713,-2.03503 10.2713,-8.13944 0,-2.4667 -0.6217,-5.10404 -1.3815,-5.86072 -0.7598,-0.7567 -7.4728,-4.46414 -14.9179,-8.23876 -19.7507,-10.01358 -24.8115,-16.07576 -24.7645,-29.66409 0.039,-11.219213 4.7873,-19.466177 14.1628,-24.597671 6.4698,-3.541106 22.7046,-3.873792 30.4645,-0.624283 8.0843,3.385406 15.9124,14.572558 15.9796,22.836654 0.021,2.57282 -0.2439,2.64105 -10.2498,2.64105 -7.8777,0 -10.2713,-0.36263 -10.2713,-1.55608 0,-0.85586 -1.0189,-2.70459 -2.2641,-4.10832 -3.0476,-3.43549 -13.1983,-3.69806 -15.6815,-0.40563 -2.1796,2.88995 -2.0909,10.19893 0.1565,12.89563 0.9765,1.17172 7.4694,4.91951 14.4288,8.32843 6.9593,3.40892 14.4859,7.46357 16.7257,9.01034 8.0926,5.58864 11.1626,17.53057 7.242,28.16964 -2.8671,7.77993 -5.9791,11.40195 -13.0837,15.22772 -7.4319,4.0021 -20.6432,5.05402 -28.8195,2.29468 z m 70.8625,-0.15984 c -6.0296,-2.22288 -12.4519,-9.79204 -14.8837,-17.54163 -1.5893,-5.06481 -1.8615,-10.23589 -2.1738,-41.29728 l -0.357,-35.507486 h 10.825 10.8251 v 34.365966 c 0,38.14991 0.015,38.2452 6.3817,40.76655 4.8444,1.91846 10.7642,0.47907 13.1789,-3.20442 1.8605,-2.83819 1.9603,-4.74504 1.9603,-37.45926 V 86.248264 h 10.7605 10.7605 v 46.365156 46.36515 h -7.4283 c -6.6056,0 -7.485,-0.26 -7.9399,-2.3476 -0.6623,-3.03913 -3.2557,-2.98646 -6.5609,0.13327 -5.8196,5.49289 -16.4723,7.10265 -25.3484,3.83042 z m 122.6111,-0.32414 c -9.5171,-4.06793 -14.5757,-13.95921 -13.376,-26.15495 1.5048,-15.29659 12.2528,-26.41408 29.8239,-30.84929 3.9308,-0.99218 8.6588,-1.80397 10.5068,-1.80397 h 3.3599 v -7.44779 c 0,-5.64414 -0.4209,-7.9047 -1.7375,-9.33452 -3.9933,-4.33634 -16.6379,-3.33655 -18.7886,1.48559 -0.5473,1.22681 -0.9948,3.58581 -0.9948,5.24223 v 3.01167 h -10.3925 -10.3925 l 0.4419,-6.39485 c 1.1375,-16.459829 14.6597,-26.386064 34.0381,-24.986458 15.4621,1.116747 25.6197,8.790924 28.2544,21.346618 0.6818,3.24895 1.0924,18.24451 1.0924,39.89951 v 34.69426 h -7.3876 c -7.3289,0 -7.3957,-0.0279 -8.4105,-3.5214 -1.1809,-4.06439 -2.7577,-4.45687 -5.1519,-1.28234 -5.3284,7.06501 -21.261,10.20954 -30.8855,6.09569 z m 21.447,-17.2991 c 1.7137,-0.41126 4.4099,-2.30063 5.9916,-4.1986 2.7071,-3.24829 2.876,-4.00675 2.876,-12.92072 v -9.46985 l -6.2856,0.7043 c -12.256,1.37329 -17.1919,5.82944 -17.1919,15.5209 0,9.28587 4.8288,12.7113 14.6099,10.36397 z m 145.3298,17.88662 c -15.6999,-5.95795 -23.9665,-22.59856 -23.9665,-48.24462 0,-35.88518 18.5577,-56.25637 43.8076,-48.088609 5.7302,1.853597 7.3407,3.047126 12.5876,9.328708 5.0842,6.087093 6.3347,8.439431 8.0702,15.182021 1.1297,4.38837 2.0538,8.20518 2.0538,8.48181 0,0.27663 -4.6638,0.35305 -10.3642,0.16982 l -10.3642,-0.33317 -1.3378,-4.6952 c -2.3494,-8.24651 -7.7986,-11.51944 -14.4717,-8.69211 -4.984,2.1117 -7.318,7.33831 -8.6605,19.39389 -1.2117,10.88087 0.092,25.36484 2.8642,31.81847 1.3913,3.23915 2.9513,4.87565 5.7963,6.08109 6.6731,2.82734 12.1223,-0.4456 14.4717,-8.6921 l 1.3378,-4.6952 10.3642,-0.33317 c 5.7004,-0.18323 10.3642,-0.10685 10.3642,0.16981 0,0.27663 -0.9241,4.09345 -2.0538,8.48182 -1.7373,6.7496 -2.9806,9.08586 -8.0702,15.16435 -5.0207,5.99607 -6.9988,7.51316 -11.9502,9.16492 -6.9167,2.30738 -14.9391,2.43959 -20.4785,0.33747 z m 77.2797,0 c -15.6999,-5.95795 -23.9665,-22.59856 -23.9665,-48.24462 0,-28.88495 11.3622,-47.510741 30.2356,-49.564272 21.0754,-2.293126 34.6581,14.513574 36.0249,44.575612 l 0.5203,11.44457 h -22.6299 -22.63 l 0.011,3.81485 c 0.011,5.89139 1.7767,12.18973 4.5212,16.10332 2.2117,3.15409 3.0956,3.55785 7.7882,3.55785 5.8824,0 8.5704,-2.15653 10.3582,-8.31035 l 0.9953,-3.42766 h 10.6214 10.6214 l -1.3632,4.63616 c -2.6872,9.1391 -6.1695,14.92716 -12.1421,20.1821 -7.062,6.21332 -20.1464,8.57733 -28.9607,5.23244 z m 21.0264,-60.86298 c -0.01,-4.88984 -2.0952,-11.7243 -4.4326,-14.529 -3.2449,-3.89362 -10.9274,-3.96394 -13.931,-0.12751 -2.5835,3.29981 -5.1084,10.38026 -5.1084,14.32535 v 2.97221 h 11.7387 c 11.523,0 11.7387,-0.0486 11.7333,-2.64105 z m 52.0765,60.75944 c -7.261,-2.45044 -10.1166,-4.44541 -14.2821,-9.97791 -3.7721,-5.01008 -4.7787,-7.34601 -5.9498,-13.80679 l -0.6915,-3.81486 h 10.3733 c 10.0485,0 10.4013,0.0881 11.2656,2.81606 1.4756,4.657 4.7673,6.57435 11.2871,6.57435 7.7034,0 10.2714,-2.03503 10.2714,-8.13944 0,-2.4667 -0.6217,-5.10404 -1.3815,-5.86072 -0.7599,-0.7567 -7.4729,-4.46414 -14.918,-8.23876 -19.7507,-10.01358 -24.8116,-16.07576 -24.7645,-29.66409 0.039,-11.219213 4.7873,-19.466177 14.1629,-24.597671 6.4697,-3.541106 22.7044,-3.873792 30.4643,-0.624283 8.0844,3.385406 15.9125,14.572558 15.9798,22.836654 0.021,2.57282 -0.2439,2.64105 -10.2499,2.64105 -7.8777,0 -10.2714,-0.36263 -10.2714,-1.55608 0,-0.85586 -1.0188,-2.70459 -2.264,-4.10832 -3.0476,-3.43549 -13.1984,-3.69806 -15.6815,-0.40563 -2.1796,2.88995 -2.0909,10.19893 0.1565,12.89563 0.9765,1.17172 7.4695,4.91951 14.4288,8.32843 6.9593,3.40892 14.4859,7.46357 16.7257,9.01034 8.0926,5.58864 11.1626,17.53057 7.2419,28.16964 -2.867,7.77993 -5.979,11.40195 -13.0835,15.22772 -7.4321,4.0021 -20.6433,5.05402 -28.8196,2.29468 z m -964.51785,-67.21535 0.25276,-65.43943 h 11.7387 11.73868 l 0.25443,53.70141 0.25443,53.70141 h 24.44573 24.44573 v 11.73802 11.73801 h -36.69162 -36.69161 z m 263.88417,64.86978 c 0,-0.50198 27.68097,-123.600808 28.97242,-128.841959 0.45537,-1.848106 2.11478,-2.054152 16.54321,-2.054152 h 16.03708 l 1.10197,4.988655 c 0.60609,2.743761 7.22606,32.082318 14.71106,65.196796 7.48501,33.11447 13.60911,60.44936 13.60911,60.74422 0,0.29484 -5.26545,0.53608 -11.70099,0.53608 H 907.5777 l -0.96665,-4.40176 c -0.53167,-2.42096 -1.92329,-9.02359 -3.09249,-14.67251 l -2.12584,-10.27077 h -15.98288 -15.98288 l -0.96665,4.40176 c -0.53167,2.42097 -1.92329,9.0236 -3.0925,14.67252 l -2.12583,10.27076 H 851.6234 c -6.39022,0 -11.61858,-0.25635 -11.61858,-0.56964 z m 55.75109,-54.30557 c -0.0154,-4.10922 -9.35758,-45.036982 -10.28643,-45.06437 -0.96158,-0.02835 -10.00666,39.55218 -10.16414,44.47747 -0.0824,2.57762 0.16226,2.64105 10.18691,2.64105 9.13302,0 10.2705,-0.22765 10.26366,-2.05415 z m 266.08459,8.51006 V 86.248264 h 7.4283 c 6.6056,0 7.485,0.26 7.9399,2.347603 0.6952,3.18988 1.8913,2.958085 5.7581,-1.115905 3.6475,-3.842825 8.5047,-5.385896 13.7426,-4.365941 5.5744,1.08544 6.2166,2.373151 6.2166,12.465028 v 9.043341 l -4.971,-1.22188 c -4.3065,-1.05856 -5.4474,-0.91371 -8.536,1.0837 -5.9052,3.81889 -6.0271,4.65248 -6.0431,41.33448 l -0.015,33.15988 h -10.7605 -10.7605 z m 127.1692,0 V 86.248264 h 7.3023 c 6.3011,0 7.4458,0.321865 8.3493,2.347603 1.3789,3.091587 3.0724,2.961272 7.4091,-0.570133 6.7542,-5.499885 14.7753,-6.678803 23.7303,-3.487785 6.5529,2.335061 11.1432,7.250043 14.5533,15.582761 l 2.7293,6.66908 0.3192,36.09439 0.3192,36.09439 h -10.835 -10.8352 v -34.46884 c 0,-32.93512 -0.089,-34.60452 -1.9988,-37.518 -2.4656,-3.76128 -7.6425,-5.08418 -12.7335,-3.25393 -6.7962,2.44333 -6.7886,2.39701 -6.7886,40.87481 v 34.36596 h -10.7605 -10.7604 z"
         id="path2786" /></g></g></svg>
