<svg xmlns="http://www.w3.org/2000/svg" width="51" height="51" fill="none" viewBox="0 0 51 51">
  <path fill="#fff" d="M.5.5h50v50H.5z"/>
  <rect width="27.216" height="10" x="18.18" y="20.5" fill="#186BFE" rx="4.872"/>
  <path fill="#00B4FE" d="m16.943 20.5-1.972 10h-2.296L9.42 25.014 8.336 30.5H5.603l1.972-10h2.297l3.268 5.471 1.07-5.471h2.733Z"/>
  <path fill="#186BFE" d="m16.943 20.5-1.972 10h-2.296L9.42 25.014 8.336 30.5H5.603l1.972-10h2.297l3.268 5.471 1.07-5.471h2.733Z"/>
  <path fill="#fff" fill-rule="evenodd" d="M35.166 28.643a.683.683 0 0 0-.053-.246l-2.574-6.024a.62.62 0 0 0-.586-.411.556.556 0 0 0-.376.092.684.684 0 0 0-.251.319l-2.605 6.147a.67.67 0 0 0-.031.195c0 .165.047.295.14.391.095.096.233.144.414.144a.557.557 0 0 0 .33-.108.634.634 0 0 0 .224-.303l.545-1.254h3.117l.544 1.243c.056.13.135.233.236.309a.574.574 0 0 0 .748-.056.577.577 0 0 0 .178-.438Zm-8.593-6.685c.333 0 .649.106.949.318.3.212.54.497.723.854.183.358.274.748.274 1.172 0 .417-.091.806-.274 1.167a2.297 2.297 0 0 1-.723.86c-.3.21-.616.317-.949.317h-1.701v1.969c0 .187-.052.34-.157.458a.522.522 0 0 1-.41.177.505.505 0 0 1-.401-.182.671.671 0 0 1-.157-.453v-6.021c0-.18.058-.332.172-.453a.56.56 0 0 1 .425-.183h2.23Zm.125 3.646c.128 0 .255-.058.38-.176.124-.117.225-.27.302-.456a1.53 1.53 0 0 0 0-1.177 1.24 1.24 0 0 0-.303-.45.556.556 0 0 0-.379-.171H24.94v2.43h1.758Zm4.207.695h1.875l-.947-2.43-.928 2.43Zm9.437-3.314a.73.73 0 0 0 .107-.384.645.645 0 0 0-.175-.456.54.54 0 0 0-.406-.187c-.187 0-.348.104-.483.312l-1.596 2.5-1.701-2.521c-.136-.194-.294-.29-.474-.29a.616.616 0 0 0-.42.18.587.587 0 0 0-.199.452c0 .16.058.322.174.487l2.011 2.863v2.676c0 .18.057.33.17.451a.541.541 0 0 0 .807 0 .647.647 0 0 0 .164-.45v-2.531l2.021-3.102Z" clip-rule="evenodd"/>
</svg>
