<?xml version="1.0" encoding="UTF-8" standalone="no"?>
<!-- Created with Inkscape (http://www.inkscape.org/) -->

<svg
   version="1.1"
   id="svg9"
   width="542"
   height="527"
   viewBox="0 0 542 527" inkscape:version="1.2.2 (732a01da63, 2022-12-09)"
   xmlns:inkscape="http://www.inkscape.org/namespaces/inkscape"
   xmlns:sodipodi="http://sodipodi.sourceforge.net/DTD/sodipodi-0.dtd"
   xmlns="http://www.w3.org/2000/svg"
   xmlns:svg="http://www.w3.org/2000/svg">
  <defs
     id="defs13" />
  <sodipodi:namedview
     id="namedview11"
     pagecolor="#ffffff"
     bordercolor="#000000"
     borderopacity="0.25"
     inkscape:showpageshadow="2"
     inkscape:pageopacity="0.0"
     inkscape:pagecheckerboard="0"
     inkscape:deskcolor="#d1d1d1"
     showgrid="false"
     inkscape:zoom="1.5294118"
     inkscape:cx="140.57692"
     inkscape:cy="287.03846"
     inkscape:window-width="1920"
     inkscape:window-height="1129"
     inkscape:window-x="1912"
     inkscape:window-y="-8"
     inkscape:window-maximized="1"
     inkscape:current-layer="g15" />
  <g id="g15">
    <g
       id="g800">
      <path
         style="display:inline;fill:#f7f005"
         d="M 179.5,414.44766 C 127.34735,407.42656 80.10292,381.16703 47.996735,341.35514 9.2560157,293.31638 -5.0259702,229.96743 10.041166,173 c 2.268335,-8.57636 13.051436,-40.24073 13.538022,-39.75415 0.177339,0.17734 -0.158651,5.03207 -0.746643,10.78829 C 21.508107,156.9999 22.352958,184.29641 24.471887,197 35.456727,262.85734 76.405746,317.91697 135.28248,345.9948 162.71737,359.07827 189.11407,365 220,365 c 32.38175,0 59.05313,-6.23974 87.88124,-20.55971 34.30961,-17.04283 59.93059,-39.62548 80.48479,-70.94029 3.61006,-5.5 7.24212,-10.9 8.07126,-12 1.96841,-2.61146 -9.44838,31.4268 -14.0554,41.90508 -13.8952,31.60337 -41.13924,62.71927 -71.88189,82.09756 -37.99823,23.95176 -87.25211,34.83462 -131,28.94502 z"
         id="path824" />
      <path
         style="display:inline;fill:#0667ad"
         d="M 248.5,288.49677 C 199.35298,280.56163 160.83693,244.06273 150.36366,195.5 c -2.13837,-9.91525 -2.84118,-28.3928 -1.47033,-38.65619 6.08963,-45.59215 36.59795,-83.038999 79.27596,-97.305733 38.04865,-12.719199 77.80362,-6.243958 109.93019,17.905294 29.45252,22.139198 46.2773,56.334839 46.2773,94.056629 0,32.167 -11.87922,61.04851 -34.35374,83.52304 -16.56494,16.56493 -36.8089,27.43363 -60.52304,32.49397 -10.47214,2.23464 -30.29402,2.70832 -41,0.97976 z"
         id="path808" />
      <path
         style="display:inline;fill:#db0022"
         d="M 243.5,519.30743 C 189.54274,514.50034 136.58667,492.17015 95.76393,457.01099 89.309091,451.45167 80.351401,442.76243 75.857951,437.70157 68.261327,429.14568 36,386.8827 36,385.48687 c 0,-0.34365 3.341002,2.28904 7.424448,5.8504 19.740391,17.21653 39.088566,30.07336 62.693732,41.65989 40.02429,19.6458 77.42837,28.36684 121.38182,28.30109 73.38156,-0.10978 139.99721,-28.6127 191.5,-81.93735 39.55943,-40.9588 63.11003,-89.42323 72.09389,-148.3609 2.64527,-17.35404 3.18423,-53.26715 1.03551,-69 -4.29458,-31.4447 -12.43136,-60.24905 -24.26772,-85.908192 -2.13325,-4.624505 -3.71876,-8.568066 -3.52335,-8.763468 0.54221,-0.542218 27.61179,35.90418 34.66412,46.67166 17.71873,27.05296 30.73893,62.38553 36.71558,99.63413 2.48217,15.4698 2.47223,58.31263 -0.0172,73.86587 -9.45708,59.08635 -33.28359,107.92532 -72.54785,148.7067 -44.61506,46.33892 -101.98089,74.82591 -165.68802,82.27813 -11.71813,1.37075 -42.53897,1.84055 -53.96501,0.8226 z"
         id="path804" />
      <path
         style="display:inline;fill:#019c3f;fill-opacity:1"
         d="m 178.5,321.31741 c -24.04771,-5.41778 -37.01946,-10.00146 -51,-18.02133 C 94.823567,284.55142 69.016018,253.02481 57.007707,217.1824 51.206128,199.86584 49.861047,191.36016 49.309117,168.5 48.827934,148.57006 48.938346,146.83758 51.47597,134.5 57.873987,103.39372 68.865546,80.970711 88.743987,58.472478 111.92898,32.231922 141.51354,14.953391 175.39594,7.8643755 183.38398,6.1930846 189.2696,5.733077 203.5,5.667822 221.64465,5.584618 225.72809,6.0467478 244,10.251281 l 9.5,2.186037 -11.04064,0.67275 C 180.11806,16.908775 124.08485,56.524687 101.17386,113 c -16.051425,39.56658 -16.229331,80.5959 -0.52249,120.5 13.56607,34.46537 41.40698,65.50978 75.09509,83.73588 7.87106,4.25844 8.64755,5.40941 2.75354,4.08153 z M 72,153.41667 c 0,-1.76593 -2.152759,-1.45839 -2.770833,0.39583 C 69.011458,154.46562 69.545833,155 70.416667,155 71.2875,155 72,154.2875 72,153.41667 Z"
         id="path802" />
    </g>
  </g>
</svg>
