<svg xmlns="http://www.w3.org/2000/svg" width="32" height="34" fill="none" viewBox="0 0 32 34">
  <path fill="#000" fill-opacity=".01" fill-rule="evenodd" d="M0 32h32V0H0v32Z" clip-rule="evenodd"/>
  <circle cx="16" cy="18" r="16" fill="#186BFE"/>
  <path fill="#fff" d="m22.44 5-2.313 11.604h-2.692l-3.816-6.365-1.272 6.365H9.143L11.455 5h2.693l3.832 6.35L19.235 5h3.205Z"/>
  <path fill="#fff" fill-rule="evenodd" d="M9.313 18.538c.39 0 .76.123 1.112.37.352.245.635.575.849.99.214.415.321.869.321 1.36 0 .484-.107.935-.321 1.354a2.673 2.673 0 0 1-.848.997 1.91 1.91 0 0 1-1.113.369H7.318v2.285a.769.769 0 0 1-.183.531.615.615 0 0 1-.481.206.594.594 0 0 1-.47-.212.774.774 0 0 1-.184-.525v-6.987c0-.21.067-.385.2-.526a.66.66 0 0 1 .5-.212h2.613Zm.147 4.231c.15 0 .298-.068.444-.204a1.51 1.51 0 0 0 .356-.53c.09-.217.136-.444.136-.682 0-.239-.045-.466-.136-.683a1.44 1.44 0 0 0-.356-.524c-.146-.131-.294-.197-.444-.197H7.4v2.82h2.06Zm9.928 3.527a.783.783 0 0 0-.061-.286l-3.018-6.99a.733.733 0 0 0-.687-.477.657.657 0 0 0-.442.106.796.796 0 0 0-.294.37l-3.054 7.134a.77.77 0 0 0-.037.227c0 .19.055.342.165.453.11.111.272.167.485.167a.658.658 0 0 0 .386-.125.736.736 0 0 0 .264-.352l.638-1.456h3.655l.638 1.444a.87.87 0 0 0 .276.358.677.677 0 0 0 .877-.066c.14-.131.209-.3.209-.507Zm-4.996-2.72h2.198l-1.11-2.821-1.088 2.82Zm11.066-3.846a.84.84 0 0 0 .124-.445.743.743 0 0 0-.204-.53.635.635 0 0 0-.476-.216c-.219 0-.408.12-.567.36l-1.87 2.901-1.996-2.925c-.158-.224-.344-.337-.555-.337a.726.726 0 0 0-.493.211.678.678 0 0 0-.233.524c0 .184.068.373.204.565l2.358 3.322v3.106c0 .208.067.383.199.523a.639.639 0 0 0 .946.001.747.747 0 0 0 .193-.524v-2.937l2.37-3.599Z" clip-rule="evenodd"/>
</svg>
