<svg xmlns="http://www.w3.org/2000/svg" width="22" height="22" fill="none" viewBox="0 0 22 22">
  <path fill="#fff" fill-rule="evenodd" d="M4.498.415h8.34c.375 0 .738.133 1.025.375l5.042 4.266c.357.302.562.744.562 1.212v13.288c0 1.895-.021 2.03-1.965 2.03H4.498c-1.945 0-1.966-.135-1.966-2.03V2.444c0-1.895.021-2.029 1.966-2.029" clip-rule="evenodd"/>
  <path fill="#D1D8E1" fill-rule="evenodd" d="M5.708 9.941h7.41a1.06 1.06 0 0 1 0 2.117h-7.41a1.059 1.059 0 0 1 0-2.117Zm0 4.234h3.175a1.06 1.06 0 0 1 0 2.117H5.708a1.059 1.059 0 0 1 0-2.117Z" clip-rule="evenodd"/>
</svg>
