<svg xmlns="http://www.w3.org/2000/svg" width="30" height="30" fill="none" viewBox="0 0 30 30">
  <mask id="a" width="15" height="18" x="0" y="0" maskUnits="userSpaceOnUse" style="mask-type:alpha">
    <path fill="#fff" fill-rule="evenodd" d="M0 0h15v18H0V0Z" clip-rule="evenodd"/>
  </mask>
  <g mask="url(#a)">
    <path fill="#00B4FE" fill-opacity=".3" fill-rule="evenodd" d="M3 0h9a3 3 0 0 1 3 3v12a3 3 0 0 1-3 3H3a3 3 0 0 1-3-3V3a3 3 0 0 1 3-3Z" clip-rule="evenodd"/>
  </g>
  <mask id="b" width="30" height="25" x="0" y="5" maskUnits="userSpaceOnUse" style="mask-type:alpha">
    <path fill="#fff" fill-rule="evenodd" d="M0 6h30v24H0V6Z" clip-rule="evenodd"/>
  </mask>
  <g mask="url(#b)">
    <path fill="#00B4FE" fill-rule="evenodd" d="M24 21a3 3 0 1 0 0-6.001 3 3 0 0 0 0 6ZM3 6h24a3 3 0 0 1 3 3v18a3 3 0 0 1-3 3H3a3 3 0 0 1-3-3V9a3 3 0 0 1 3-3Z" clip-rule="evenodd"/>
  </g>
</svg>
