<?xml version="1.0" encoding="UTF-8" standalone="no"?>
<!-- Created with Inkscape (http://www.inkscape.org/) -->

<svg
   width="135.46666mm"
   height="135.46666mm"
   viewBox="0 0 135.46666 135.46666"
   version="1.1"
   id="svg500"
   xml:space="preserve"
   inkscape:version="1.2.2 (732a01da63, 2022-12-09)"
   sodipodi:docname="office_insurance.svg"
   xmlns:inkscape="http://www.inkscape.org/namespaces/inkscape"
   xmlns:sodipodi="http://sodipodi.sourceforge.net/DTD/sodipodi-0.dtd"
   xmlns="http://www.w3.org/2000/svg"
   xmlns:svg="http://www.w3.org/2000/svg"><sodipodi:namedview
     id="namedview502"
     pagecolor="#ffffff"
     bordercolor="#000000"
     borderopacity="0.25"
     inkscape:showpageshadow="2"
     inkscape:pageopacity="0.0"
     inkscape:pagecheckerboard="0"
     inkscape:deskcolor="#d1d1d1"
     inkscape:document-units="mm"
     showgrid="false"
     inkscape:zoom="0.73851712"
     inkscape:cx="145.56196"
     inkscape:cy="366.95155"
     inkscape:window-width="1920"
     inkscape:window-height="1009"
     inkscape:window-x="-8"
     inkscape:window-y="-8"
     inkscape:window-maximized="1"
     inkscape:current-layer="layer1" /><defs
     id="defs497" /><g
     inkscape:label="Calque 1"
     inkscape:groupmode="layer"
     id="layer1"
     transform="translate(-54.07608,-51.568237)"><g
       id="g633"><path
         style="display:inline;fill:#eef4fe;stroke-width:0.264583"
         d="M 54.07608,119.30157 V 51.568237 h 67.73333 67.73333 V 119.30157 187.0349 H 121.80941 54.07608 Z m 106.36249,66.93958 c 0.51552,-0.51551 0.52917,-0.88195 0.52917,-14.20052 0,-12.35005 -0.0423,-13.71812 -0.43788,-14.15521 -0.3939,-0.43525 -0.92542,-0.48385 -5.29167,-0.48385 h -4.85378 v -3.175 c 0,-1.74625 0.0746,-3.175 0.16569,-3.175 0.0911,0 1.28313,0.60418 2.6489,1.34263 l 2.4832,1.34263 3.37038,-1.75845 c 16.89374,-8.81407 24.59305,-17.82447 27.13077,-31.75077 0.55534,-3.04755 0.57862,-3.84648 0.57992,-19.90246 0.001,-16.381559 -0.01,-16.738029 -0.52782,-17.238721 -0.35522,-0.343205 -5.46779,-1.916549 -15.55305,-4.786313 l -15.02389,-4.275048 -2.35611,0.677834 c -1.29586,0.372808 -2.48253,0.677834 -2.63705,0.677834 -0.19375,0 -0.28094,-3.452734 -0.28094,-11.124526 V 53.131684 l -0.64943,-0.649432 -0.64943,-0.649432 h -27.5287 c -27.175912,0 -27.53547,0.0068 -28.057855,0.529167 -0.516679,0.516679 -0.529167,0.881944 -0.529167,15.478124 V 82.789069 H 89.92712 86.884412 v -3.556873 c 0,-3.375633 -0.02996,-3.577858 -0.588039,-3.968749 -0.881902,-0.617709 -18.050353,-0.617709 -18.932256,0 -0.558075,0.390891 -0.588038,0.593116 -0.588038,3.968749 v 3.556873 h -4.447346 c -3.423255,0 -4.565612,0.08647 -4.960938,0.375536 -0.504909,0.369186 -0.514742,1.236964 -0.581741,51.339185 l -0.06815,50.96365 0.651438,0.65144 0.651437,0.65143 h 50.944311 c 50.59154,0 50.94798,-0.004 51.47348,-0.52916 z m -76.061493,-4.50676 2.11046,-2.12551 0.08331,1.26469 c 0.0763,1.15824 0.0043,1.33714 -0.856011,2.12551 -0.783749,0.71825 -1.147075,0.86082 -2.193764,0.86082 h -1.25445 z m 5.417751,1.39317 c 0,-0.57776 0.586346,-1.31668 2.778125,-3.501 l 2.778125,-2.76867 v 2.65535 2.65535 l -0.872493,0.84565 c -0.817253,0.79212 -0.99314,0.84566 -2.778124,0.84566 -1.905466,0 -1.905633,-7e-5 -1.905633,-0.73234 z m 48.418752,0.52486 c 0,-0.11411 0.65484,-0.85418 1.4552,-1.64461 l 1.45521,-1.43713 v 1.32711 c 0,0.72991 -0.14287,1.46998 -0.3175,1.64461 -0.34838,0.34838 -2.59291,0.44362 -2.59291,0.11002 z m 8.60392,-2.44461 2.64087,-2.65209 0.0771,2.30042 c 0.0424,1.26523 0.0164,2.45867 -0.0578,2.65209 -0.0995,0.25927 -0.8136,0.35167 -2.71797,0.35167 h -2.58303 z m -11.51434,-3.44307 v -3.308 l 2.45237,-2.44217 c 1.3488,-1.3432 2.65848,-2.44217 2.91041,-2.44217 0.40599,0 0.45805,0.32382 0.45805,2.84878 v 2.84878 l -2.91041,2.9014 -2.91042,2.90139 z m 8.73125,1.19091 v -1.32291 l 2.77812,-2.76868 2.77813,-2.76867 v 1.32292 1.32292 l -2.77813,2.76867 -2.77812,2.76867 z m -62.970831,-2.78104 v -3.31021 l 1.660765,-1.646 c 1.509686,-1.49627 1.762408,-1.646 2.778125,-1.646 h 1.117359 v 2.18754 2.18754 l -2.778124,2.76867 -2.778125,2.76867 z m 8.731249,1.45813 v -1.32292 l 2.778125,-2.76867 2.778125,-2.76867 v 1.32291 1.32292 l -2.778125,2.76867 -2.778125,2.76867 z m 54.239582,-6.73743 v -1.32291 h 1.37912 1.37911 l -1.30302,1.32291 c -0.71667,0.72761 -1.33727,1.32292 -1.37912,1.32292 -0.0419,0 -0.0761,-0.59531 -0.0761,-1.32292 z m -54.239582,-0.79375 c 0,-0.36546 0.17639,-0.52916 0.570175,-0.52916 0.553413,0 0.556096,0.0156 0.09128,0.52916 -0.263391,0.29105 -0.519968,0.52917 -0.570175,0.52917 -0.0502,0 -0.09128,-0.23812 -0.09128,-0.52917 z m -25.135415,-6.74687 v -3.04271 h 23.680207 23.68021 v 3.04271 3.04271 H 88.33962 64.659413 Z m -4.7625,-41.80416 V 85.699485 h 28.310415 28.310412 v 35.851045 35.85104 H 88.207328 59.896913 Z m 17.871401,28.32244 c 0.639854,-0.63986 0.649431,-0.71746 0.649431,-5.26236 0,-6.29581 0.435626,-5.86217 -5.889082,-5.86217 -3.74516,0 -4.979081,0.0843 -5.315044,0.36313 -0.37937,0.31485 -0.43754,1.04274 -0.43754,5.4751 0,4.98263 0.01488,5.12239 0.588038,5.52385 0.477281,0.3343 1.45132,0.41188 5.171402,0.41188 4.513509,0 4.593261,-0.01 5.232795,-0.64943 z m -8.081818,-5.24228 v -2.83954 h 2.778125 c 1.527968,0 2.778125,0.0319 2.778125,0.0709 0,0.039 -1.250157,1.31678 -2.778125,2.83955 l -2.778125,2.76867 z m 23.753626,5.47983 c 0.572114,-0.40072 0.588039,-0.54624 0.588039,-5.37339 0,-3.86608 -0.08287,-5.0749 -0.375356,-5.4751 -0.342588,-0.46875 -0.787228,-0.52149 -5.093229,-0.60405 -4.508153,-0.0864 -4.750215,-0.065 -5.445477,0.48223 l -0.727604,0.57268 v 4.82502 c 0,4.90996 0.10006,5.45839 1.058334,5.80087 0.218281,0.078 2.42421,0.15124 4.902064,0.16273 3.673721,0.017 4.61372,-0.0551 5.093229,-0.39099 z m -8.14321,-5.54125 v -2.77812 h 2.910416 2.910417 v 2.77812 2.77813 h -2.910417 -2.910416 z m 23.909108,5.40476 0.69714,-0.54837 v -4.71399 c 0,-6.41309 0.44427,-5.96323 -5.88908,-5.96323 -3.74516,0 -4.979084,0.0843 -5.315047,0.36313 -0.37937,0.31485 -0.437539,1.04274 -0.437539,5.4751 0,4.98263 0.01487,5.12239 0.58804,5.52385 0.476702,0.3339 1.446786,0.41188 5.123696,0.41188 4.18796,0 4.58909,-0.042 5.23279,-0.54837 z M 78.005868,133.53019 c 0.335284,-0.47868 0.411877,-1.46273 0.411877,-5.29166 0,-6.21268 0.458869,-5.76196 -5.866145,-5.76196 -4.102424,0 -4.878802,0.0642 -5.291666,0.43788 -0.436019,0.39459 -0.483855,0.92896 -0.483855,5.40506 0,4.16284 0.06733,5.0345 0.415774,5.38295 0.348601,0.3486 1.222477,0.41577 5.408955,0.41577 4.859876,0 5.004178,-0.0157 5.40506,-0.58804 z m 15.538439,0.15016 c 0.436044,-0.39461 0.483854,-0.92908 0.483854,-5.40895 0,-4.83703 -0.01585,-4.98218 -0.588039,-5.38296 -0.478684,-0.33528 -1.462733,-0.41187 -5.291666,-0.41187 -6.204045,0 -5.761961,-0.44209 -5.761961,5.76196 0,3.82893 0.07659,4.81298 0.411877,5.29166 0.400542,0.57186 0.547457,0.58804 5.336979,0.58804 4.211563,0 4.995201,-0.0634 5.408956,-0.43788 z m -8.1902,-5.3168 0.0751,-2.84427 2.844271,-0.0751 c 2.198711,-0.0581 2.844271,0.003 2.844271,0.26955 0,0.44294 -5.060061,5.49409 -5.503788,5.49409 -0.254093,0 -0.31682,-0.6866 -0.25985,-2.84427 z m 24.137173,5.16664 c 0.33529,-0.47868 0.41188,-1.46273 0.41188,-5.29166 0,-6.21268 0.45887,-5.76196 -5.86615,-5.76196 -4.102418,0 -4.878798,0.0642 -5.291661,0.43788 -0.436018,0.39459 -0.483855,0.92896 -0.483855,5.40506 0,4.16284 0.06733,5.0345 0.415775,5.38295 0.348601,0.3486 1.222475,0.41577 5.408951,0.41577 4.85988,0 5.00418,-0.0157 5.40506,-0.58804 z M 77.888579,117.44948 c 0.489478,-0.48948 0.529166,-0.88194 0.529166,-5.23279 0,-3.82893 -0.07659,-4.81298 -0.411877,-5.29167 -0.400882,-0.57234 -0.545184,-0.58804 -5.40506,-0.58804 -4.186478,0 -5.060354,0.0672 -5.408955,0.41578 -0.635149,0.63515 -0.615799,10.03716 0.02211,10.74204 0.393899,0.43525 0.925417,0.48385 5.291666,0.48385 4.501007,0 4.892245,-0.0385 5.38295,-0.52917 z m -7.9375,-2.58465 c 0,-0.11187 1.190625,-1.38956 2.645833,-2.8393 l 2.645834,-2.63591 v 2.29094 c 0,2.1598 -0.03991,2.32232 -0.69714,2.8393 -0.561953,0.44204 -1.075024,0.54837 -2.645833,0.54837 -1.071782,0 -1.948694,-0.0915 -1.948694,-0.2034 z m 23.593228,2.67594 c 0.435563,-0.39418 0.483854,-0.92684 0.483854,-5.33698 0,-4.18737 -0.06361,-4.96939 -0.437882,-5.38295 -0.394613,-0.43605 -0.929079,-0.48386 -5.408954,-0.48386 -4.83703,0 -4.982181,0.0159 -5.382953,0.58804 -0.335283,0.47869 -0.411877,1.46274 -0.411877,5.29167 0,6.21268 -0.458869,5.76196 5.866146,5.76196 4.102422,0 4.878803,-0.0643 5.291666,-0.43788 z m 15.829683,-0.0913 c 0.48948,-0.48948 0.52917,-0.88194 0.52917,-5.23279 0,-3.82893 -0.0766,-4.81298 -0.41188,-5.29167 -0.40088,-0.57234 -0.54518,-0.58804 -5.40506,-0.58804 -4.186476,0 -5.06035,0.0672 -5.408951,0.41578 -0.635151,0.63515 -0.615799,10.03716 0.02212,10.74204 0.393898,0.43525 0.925417,0.48385 5.291661,0.48385 4.50101,0 4.89225,-0.0385 5.38295,-0.52917 z m -8.20208,-5.29166 v -2.91042 h 2.77813 c 2.69732,0 2.77812,0.0172 2.77812,0.59008 0,0.71993 -4.38747,5.23075 -5.08771,5.23075 -0.41993,0 -0.46854,-0.30192 -0.46854,-2.91041 z M 77.768314,101.18963 c 0.639854,-0.63985 0.649431,-0.71746 0.649431,-5.262348 0,-6.295808 0.435626,-5.862172 -5.889082,-5.862172 -3.774415,0 -4.977694,0.08315 -5.320514,0.367665 -0.391415,0.324848 -0.434669,0.971063 -0.371394,5.548664 l 0.07162,5.181001 0.661458,0.33441 c 0.45382,0.22944 2.056415,0.33564 5.105256,0.33832 4.367754,0.004 4.45491,-0.007 5.093229,-0.64554 z m -8.081818,-4.18101 c 0,-1.622178 0.03509,-1.708398 1.134494,-2.78738 1.088503,-1.068286 1.201499,-1.113422 2.787381,-1.113422 h 1.652886 l -0.0754,2.711979 -0.0754,2.711979 -2.711979,0.0754 -2.711979,0.0754 z m 23.968865,4.18081 c 0.541348,-0.74033 0.539419,-9.868967 -0.0021,-10.610729 -0.342805,-0.469445 -0.781447,-0.520658 -5.103256,-0.595813 -4.491855,-0.07811 -4.764085,-0.05401 -5.445792,0.482224 l -0.717576,0.564447 0.004,4.809442 c 0.0021,2.645193 0.09152,4.938679 0.198437,5.096639 0.548693,0.81066 1.312619,0.91828 5.973149,0.84145 4.304498,-0.071 4.753273,-0.12275 5.093229,-0.58766 z m -5.178224,-5.045531 2.508316,-2.52017 0.07726,2.148938 c 0.04874,1.355656 -0.03647,2.285979 -0.230836,2.520169 -0.220736,0.265973 -0.953846,0.371232 -2.585574,0.371232 H 85.96882 Z m 20.776593,5.045731 c 0.63985,-0.63985 0.64943,-0.71746 0.64943,-5.262348 0,-6.295808 0.43563,-5.862172 -5.88908,-5.862172 -3.77442,0 -4.977695,0.08315 -5.320516,0.367665 -0.391416,0.324848 -0.434668,0.971063 -0.371393,5.548664 l 0.07162,5.181001 0.661458,0.33441 c 0.453819,0.22944 2.056411,0.33564 5.105251,0.33832 4.36775,0.004 4.45491,-0.007 5.09323,-0.64554 z m -6.22974,-26.786604 c 0,-1.849083 0.0653,-2.104185 0.71096,-2.778125 0.66732,-0.696524 0.84599,-0.742082 2.91042,-0.742082 h 2.19946 v 0.82195 c 0,0.661197 -0.37097,1.204526 -1.8968,2.778124 -1.70789,1.761355 -1.99775,1.956176 -2.91042,1.956176 h -1.01362 z m 31.48542,0 c 0,-1.849083 0.0653,-2.104185 0.71096,-2.778125 0.66731,-0.696524 0.84599,-0.742082 2.91042,-0.742082 1.90875,0 2.19945,0.06051 2.19945,0.457787 0,0.704949 -4.49825,5.098463 -5.22,5.098463 -0.57267,0 -0.60083,-0.09544 -0.60083,-2.036043 z m -15.61042,-1.444933 c 0,-1.831225 0.31144,-2.1306 2.10526,-2.0237 l 1.35447,0.08072 -1.72986,1.712148 -1.72987,1.712148 z"
         id="path649" /><path
         style="fill:#fde15c;stroke-width:0.264583"
         d="m 143.46981,133.7875 c -4.14307,-4.00455 -6.67832,-8.5775 -7.95768,-14.35364 -0.46975,-2.12084 -0.54233,-3.68513 -0.66372,-14.30403 l -0.1363,-11.922774 10.28355,-2.962318 c 5.65595,-1.629275 10.48275,-2.96129 10.72623,-2.960036 0.6536,0.0034 16.07988,4.47943 16.90062,4.903851 1.64615,0.851257 1.96395,2.201066 1.27257,5.404929 -2.30738,10.692278 -8.01282,21.052508 -15.9623,28.985128 -4.57448,4.56479 -10.41936,8.86254 -12.05292,8.86254 -0.49882,0 -1.18953,-0.47392 -2.41005,-1.65365 z m 10.14582,-8.07118 c 0.39472,-0.2539 1.58956,-1.47366 2.65518,-2.71059 15.57837,-18.08266 15.01568,-17.38773 15.01568,-18.5444 0,-0.69126 0.20952,-1.37961 0.57702,-1.89571 0.7023,-0.9863 0.95284,-3.292346 0.48136,-4.4306 -0.45327,-1.094295 -1.89863,-2.302248 -3.16166,-2.642348 -1.09981,-0.296148 -2.04546,-0.171672 -3.23168,0.425381 -0.38761,0.195096 -3.76737,3.928853 -7.51057,8.297247 -3.74321,4.36838 -6.91851,7.94252 -7.05624,7.94252 -0.13772,0 -1.53838,-1.01048 -3.11256,-2.24549 -1.57419,-1.23503 -3.17942,-2.36612 -3.56718,-2.51355 -1.76164,-0.66977 -3.75131,-0.12191 -5.08859,1.40117 -1.40163,1.59637 -1.43629,4.3793 -0.0699,5.61584 0.35594,0.32212 0.51921,0.81287 0.51921,1.56062 0,0.59991 0.17821,1.34518 0.39602,1.65615 0.33839,0.48312 8.24275,6.77233 10.18004,8.09988 0.84081,0.57618 2.06338,0.56955 2.97391,-0.0161 z"
         id="path647" /><path
         style="fill:#99a4cf;stroke-width:0.264583"
         d="m 83.532019,186.57189 c 14.090716,-0.0378 37.069781,-0.0378 51.064581,0 13.9948,0.0378 2.46604,0.0688 -25.61948,0.0688 -28.08552,0 -39.535815,-0.031 -25.445101,-0.0688 z m -26.680497,-51.7922 c 4e-6,-27.94 0.03097,-39.330764 0.06882,-25.31281 0.03785,14.01795 0.03784,36.87795 -7e-6,50.8 -0.03785,13.92204 -0.06881,2.45281 -0.06881,-25.48719 z m 32.73994,41.87031 -0.06122,-7.34219 h 0.977945 0.977942 l -0.840814,0.86751 -0.840817,0.8675 -0.07591,6.47468 -0.07591,6.47469 z m 0.864825,-6.54844 c 0.464812,-0.51361 0.462129,-0.52916 -0.09128,-0.52916 -0.393785,0 -0.570175,0.1637 -0.570175,0.52916 0,0.29105 0.04108,0.52917 0.09128,0.52917 0.05021,0 0.306784,-0.23812 0.570175,-0.52917 z m 59.132773,10.90196 0.1307,-2.83216 0.0778,2.6225 c 0.0428,1.44238 -0.016,2.71686 -0.1307,2.83217 -0.11469,0.11531 -0.14972,-1.06481 -0.0778,-2.62251 z m -89.692147,-4.41966 v -7.01146 h 9.128125 9.128124 v 7.01146 7.01145 h -9.128124 -9.128125 z m 38.364581,0 v -7.01146 h 9.128126 9.12812 v 7.01146 7.01145 h -9.12812 -9.128126 z m -11.562381,4.10104 c 0,-0.80037 0.0496,-1.12779 0.110223,-0.72761 0.06062,0.40019 0.06062,1.05503 0,1.45521 -0.06062,0.40018 -0.110223,0.0728 -0.110223,-0.7276 z m 59.976397,-2.97657 c 2.576,-2.64181 2.91515,-2.96448 2.91515,-2.77339 0,0.039 -1.27992,1.3189 -2.84427,2.84427 l -2.84427,2.7734 z m -62.899952,-0.86421 2.84427,-2.91474 v -2.16328 -2.16328 l -1.124479,-0.11044 -1.124479,-0.11045 1.190625,0.0291 1.190625,0.0291 0.07388,2.24895 0.07388,2.24896 -2.984299,2.91042 -2.984299,2.91042 z m 65.890772,-3.43526 c 0.002,-0.72761 0.0534,-0.99386 0.11419,-0.59168 0.0608,0.40218 0.0592,0.9975 -0.004,1.32292 -0.0628,0.32542 -0.11256,-0.004 -0.11057,-0.73124 z m -13.56942,0.0595 c 0,-0.04 0.92273,-0.96276 2.05052,-2.05052 l 2.05052,-1.97775 -1.97775,2.05052 c -1.8369,1.90448 -2.12329,2.17124 -2.12329,1.97775 z m 4.44831,-4.07672 c 0.19099,-0.0764 0.4192,-0.067 0.50712,0.0209 0.0879,0.0879 -0.0684,0.15046 -0.34727,0.13897 -0.30823,-0.0127 -0.37092,-0.0754 -0.15985,-0.15985 z m 4.22153,-0.011 c 0.47555,-0.0589 1.18993,-0.0577 1.5875,0.003 0.39758,0.0604 0.008,0.10855 -0.86463,0.10707 -0.87313,-0.002 -1.19842,-0.0509 -0.72287,-0.10977 z m -82.554733,-2.91567 -2.315104,-0.0882 v -3.0324 -3.03241 h 2.38125 2.38125 v 3.04271 3.04271 h 23.680207 23.68021 v -3.04271 -3.04271 h 2.38125 2.38125 v 3.00169 3.00169 l -3.61371,0.17331 c -3.54136,0.16984 -46.39897,0.14992 -50.956603,-0.0237 z m 71.768223,-4.5655 v -1.5875 h 12.03854 12.03854 v 1.5875 1.5875 H 146.01878 133.98024 Z M 59.760874,121.55053 c 8e-6,-19.79084 0.03145,-27.848034 0.06987,-17.90488 0.03842,9.94314 0.03841,26.13564 -1.3e-5,35.98333 -0.03843,9.84768 -0.06986,1.71238 -0.06986,-18.07845 z m 56.885416,0 c 1e-5,-19.79084 0.0315,-27.848034 0.0699,-17.90488 0.0384,9.94314 0.0384,26.13564 -2e-5,35.98333 -0.0384,9.84768 -0.0699,1.71238 -0.0699,-18.07845 z m 33.51976,32.60989 c -0.0254,-1.85539 0.0431,-3.37372 0.15221,-3.37405 0.10914,-2.7e-4 0.16657,1.04145 0.12761,2.3151 -0.1257,4.11013 -0.23247,4.51419 -0.27982,1.05895 z m -80.162208,-3.83483 c 1.265947,-0.0484 3.409072,-0.0486 4.7625,-5.3e-4 1.353428,0.0481 0.317654,0.0877 -2.301721,0.088 -2.619375,2.7e-4 -3.726726,-0.0391 -2.460779,-0.0875 z m 15.875,0 c 1.265946,-0.0484 3.409071,-0.0486 4.762499,-5.3e-4 1.353429,0.0481 0.317654,0.0877 -2.301721,0.088 -2.619375,2.7e-4 -3.726725,-0.0391 -2.460778,-0.0875 z m 15.610418,0 c 1.26594,-0.0484 3.40907,-0.0486 4.7625,-5.3e-4 1.35343,0.0481 0.31765,0.0877 -2.30172,0.088 -2.61938,2.7e-4 -3.72673,-0.0391 -2.46078,-0.0875 z m -8.254849,-0.16767 c 0,-0.0549 0.20836,-0.2633 0.463021,-0.46302 0.419645,-0.32911 0.429004,-0.31975 0.0999,0.0999 -0.345643,0.44073 -0.562917,0.58089 -0.562917,0.36313 z m 16.513989,-5.45635 c 0,-2.69214 0.0393,-3.79347 0.0873,-2.4474 0.048,1.34607 0.048,3.54872 0,4.89479 -0.048,1.34607 -0.0873,0.24474 -0.0873,-2.44739 z m -31.485918,-0.1323 c 2.64e-4,-2.61937 0.03987,-3.65515 0.08799,-2.30172 0.04812,1.35343 0.04789,3.49656 -5.03e-4,4.7625 -0.0484,1.26595 -0.08776,0.1586 -0.08749,-2.46078 z m 8.423492,2.84719 c 0.836745,-0.0525 2.205964,-0.0525 3.042708,0 0.836745,0.0525 0.152136,0.0955 -1.521354,0.0955 -1.673489,0 -2.358099,-0.043 -1.521354,-0.0955 z m -15.600755,-5.82112 c 0.842058,-0.0527 2.151746,-0.0522 2.910417,0.001 0.758671,0.0533 0.06971,0.0964 -1.531015,0.0958 -1.600729,-5.3e-4 -2.22146,-0.0442 -1.379402,-0.0968 z m 15.600755,2.6e-4 c 0.836745,-0.0525 2.205964,-0.0525 3.042708,0 0.836745,0.0525 0.152136,0.0955 -1.521354,0.0955 -1.673489,0 -2.358099,-0.043 -1.521354,-0.0955 z m 88.304686,-0.41641 c 0,-0.0455 0.38695,-0.43249 0.85989,-0.85989 l 0.8599,-0.77711 -0.77711,0.8599 c -0.72437,0.80154 -0.94268,0.98151 -0.94268,0.7771 z M 70.294799,138.68354 c 1.280453,-0.0486 3.304515,-0.0483 4.497917,5.3e-4 1.193402,0.0489 0.145759,0.0887 -2.328095,0.0884 -2.473854,-2.7e-4 -3.450274,-0.0403 -2.169822,-0.0889 z m 15.465134,2.7e-4 c 1.200546,-0.049 3.165078,-0.049 4.365624,0 1.200547,0.049 0.218282,0.0891 -2.182812,0.0891 -2.401094,0 -3.383359,-0.0401 -2.182812,-0.0891 z m 16.020277,-2.7e-4 c 1.28046,-0.0486 3.30452,-0.0483 4.49792,5.3e-4 1.1934,0.0489 0.14576,0.0887 -2.32809,0.0884 -2.47386,-2.7e-4 -3.45028,-0.0403 -2.16983,-0.0889 z M 78.262986,128.2974 c 0,-2.69214 0.03929,-3.79346 0.08731,-2.4474 0.04802,1.34607 0.04802,3.54873 0,4.8948 -0.04802,1.34606 -0.08731,0.24474 -0.08731,-2.4474 z m 31.485414,0 c 0,-2.69214 0.0393,-3.79346 0.0873,-2.4474 0.048,1.34607 0.048,3.54873 0,4.8948 -0.048,1.34606 -0.0873,0.24474 -0.0873,-2.4474 z m 76.64023,-10.73767 c 0.0127,-0.30823 0.0754,-0.37092 0.15985,-0.15986 0.0764,0.191 0.067,0.4192 -0.0209,0.50712 -0.0879,0.0879 -0.15045,-0.0683 -0.13896,-0.34726 z M 78.262986,112.15782 c 0,-2.69214 0.03929,-3.79347 0.08731,-2.4474 0.04802,1.34607 0.04802,3.54873 0,4.89479 -0.04802,1.34607 -0.08731,0.24474 -0.08731,-2.44739 z m 31.485414,0 c 0,-2.69214 0.0393,-3.79347 0.0873,-2.4474 0.048,1.34607 0.048,3.54873 0,4.89479 -0.048,1.34607 -0.0873,0.24474 -0.0873,-2.44739 z m 77.0072,-12.170835 c 0,-7.785365 0.0337,-10.970286 0.075,-7.077604 0.0412,3.892682 0.0412,10.262529 0,14.155209 -0.0412,3.89268 -0.075,0.70776 -0.075,-7.077605 z M 75.336661,111.49636 c -7.94e-4,-1.30969 0.04393,-1.87883 0.09942,-1.26475 0.05549,0.61407 0.05615,1.68563 0.0015,2.38125 -0.05467,0.69561 -0.100073,0.19319 -0.100879,-1.1165 z m 31.433279,-1.71979 c 0,-0.3638 0.06,-0.51263 0.13345,-0.33073 0.0734,0.1819 0.0734,0.47956 0,0.66146 -0.0734,0.1819 -0.13345,0.0331 -0.13345,-0.33073 z m -36.488132,-8.1345 c 1.273308,-0.0485 3.356901,-0.0485 4.630208,0 1.273308,0.0485 0.231511,0.0882 -2.315104,0.0882 -2.546614,0 -3.588411,-0.0397 -2.315104,-0.0882 z m 15.490687,-5e-5 c 1.207458,-0.0491 3.112458,-0.0489 4.233333,5.3e-4 1.120878,0.0495 0.132959,0.0897 -2.195375,0.0893 -2.328333,-2.7e-4 -3.245413,-0.0408 -2.037958,-0.09 z m 15.994725,5e-5 c 1.27331,-0.0485 3.3569,-0.0485 4.63021,0 1.27331,0.0485 0.23151,0.0882 -2.3151,0.0882 -2.54662,0 -3.58841,-0.0397 -2.31511,-0.0882 z M 78.262482,95.885943 c 2.64e-4,-2.619375 0.03987,-3.65515 0.08799,-2.301721 0.04812,1.353428 0.04789,3.496553 -5.03e-4,4.762499 -0.0484,1.265947 -0.08776,0.158597 -0.08749,-2.460778 z m 31.485418,0 c 2.6e-4,-2.619375 0.0399,-3.65515 0.088,-2.301721 0.0481,1.353428 0.0479,3.496553 -5.3e-4,4.762499 -0.0484,1.265947 -0.0878,0.158597 -0.0875,-2.460778 z m -38.795764,2.84734 c 0.768862,-0.05362 1.959487,-0.05305 2.645833,0.0013 0.686346,0.05431 0.05728,0.09817 -1.397932,0.09748 -1.455208,-7.94e-4 -2.016763,-0.04512 -1.247901,-0.09873 z m 15.86613,0.0016 c 0.618463,-0.0557 1.630495,-0.0557 2.248958,0 0.618464,0.05571 0.112448,0.101282 -1.124479,0.101282 -1.236927,0 -1.742943,-0.04558 -1.124479,-0.101282 z m -11.521113,-3.034739 -0.05441,-2.567065 -1.653646,-0.09394 -1.653646,-0.09394 1.66195,-0.05098 c 1.176073,-0.03608 1.701402,0.05183 1.796898,0.300688 0.07422,0.193419 0.09497,1.413809 0.0461,2.711979 l -0.08884,2.360311 z m -5.002354,-5.699919 c 1.280453,-0.04861 3.304515,-0.04836 4.497917,5.29e-4 1.193402,0.04891 0.145759,0.08868 -2.328095,0.08837 -2.473854,-2.65e-4 -3.450274,-0.04032 -2.169822,-0.08893 z m 15.597425,1.88e-4 c 1.273307,-0.0485 3.356901,-0.0485 4.630208,0 1.273308,0.0485 0.231511,0.08819 -2.315104,0.08819 -2.546614,0 -3.588411,-0.03968 -2.315104,-0.08819 z m 15.887986,-1.88e-4 c 1.28046,-0.04861 3.30452,-0.04836 4.49792,5.29e-4 1.1934,0.04891 0.14576,0.08868 -2.32809,0.08837 -2.47386,-2.65e-4 -3.45028,-0.04032 -2.16983,-0.08893 z M 69.686496,80.275527 v -2.513541 h 7.14375 7.143749 v 2.513541 2.513542 h -7.143749 -7.14375 z M 103.4901,76.516523 c 0.32912,-0.06329 0.80537,-0.06088 1.05833,0.0053 0.25297,0.06622 -0.0163,0.118003 -0.59839,0.115067 -0.58209,-0.0029 -0.78906,-0.05712 -0.45994,-0.120406 z m 31.21775,0.0119 c 0.1819,-0.0734 0.47955,-0.0734 0.66146,0 0.1819,0.0734 0.0331,0.133452 -0.33073,0.133452 -0.36381,0 -0.51263,-0.06005 -0.33073,-0.133452 z m 15.4707,-12.194042 c 0.0323,-6.221015 0.0914,-9.524999 0.13135,-7.342187 0.18505,10.110549 0.18887,18.653449 0.008,18.653294 -0.10914,-9.3e-5 -0.17201,-5.090091 -0.13971,-11.311107 z m -31.50101,8.73125 0.0431,-1.521354 0.15531,1.399786 0.15532,1.399787 1.69695,-1.715187 1.69696,-1.715187 -1.43238,-0.09868 -1.43237,-0.09868 1.52136,-0.04894 c 0.83674,-0.02692 1.52135,0.04355 1.52135,0.156591 0,0.25884 -3.51717,3.763216 -3.77695,3.763216 -0.10549,0 -0.17239,-0.684609 -0.14867,-1.521354 z m -13.06687,-2.376884 c 0.62232,-0.05589 1.57482,-0.0551 2.11667,0.0017 0.54186,0.05685 0.0327,0.102582 -1.13147,0.101622 -1.16417,-9.53e-4 -1.60751,-0.04748 -0.9852,-0.10337 z m 31.75,0 c 0.62231,-0.05589 1.57481,-0.0551 2.11667,0.0017 0.54186,0.05685 0.0327,0.102582 -1.13147,0.101622 -1.16417,-9.53e-4 -1.60751,-0.04748 -0.9852,-0.10337 z m -29.64032,-18.78973 c 7.60346,-0.039 20.04549,-0.039 27.64896,0 7.60346,0.039 1.38244,0.07092 -13.82448,0.07092 -15.20693,0 -21.42794,-0.03191 -13.82448,-0.07092 z"
         id="path645" /><path
         style="fill:#5dace1;stroke-width:0.264583"
         d="m 81.063579,181.80487 v -2.05504 l 2.910416,-2.90139 2.910417,-2.90139 v 2.63608 2.63609 l -2.309588,2.32034 c -1.550942,1.55816 -2.506945,2.32034 -2.910416,2.32034 -0.573146,0 -0.600829,-0.0947 -0.600829,-2.05503 z m 4.776742,1.11088 c 0.845992,-0.87601 0.918083,-0.90326 0.998868,-0.37763 0.146092,0.95055 -0.150691,1.32178 -1.056709,1.32178 h -0.853955 z m 7.923257,0.86136 c 0,-0.0455 0.357188,-0.425 0.79375,-0.84325 l 0.79375,-0.76046 v 0.84325 c 0,0.76055 -0.07784,0.84325 -0.79375,0.84325 -0.436562,0 -0.79375,-0.0373 -0.79375,-0.0828 z m 41.539582,-1.31079 v -1.39357 l 2.91042,-2.90139 2.91041,-2.9014 v 2.64897 2.64896 l -1.66076,1.64601 c -1.56545,1.55153 -1.73249,1.646 -2.91042,1.646 h -1.24965 z m 8.73125,-0.20338 v -1.71979 l 2.77812,-2.76867 2.77813,-2.76867 v 1.71979 1.71979 l -2.77813,2.76867 -2.77812,2.76868 z m -54.239582,-1.5875 v -1.71979 l 2.778125,-2.76867 2.778125,-2.76867 v 1.71979 1.71979 l -2.778125,2.76867 -2.778125,2.76868 z m 54.239582,-5.67614 v -2.63343 l 1.51307,-1.52903 c 1.42314,-1.43815 1.58826,-1.52903 2.77813,-1.52903 h 1.26505 v 1.3938 1.39378 l -2.77813,2.76867 -2.77812,2.76868 z m -54.239582,-1.34483 v -2.65535 l 0.872493,-0.84565 c 0.817253,-0.79212 0.99314,-0.84566 2.778125,-0.84566 1.905465,0 1.905632,7e-5 1.905632,0.73234 0,0.57776 -0.586346,1.31668 -2.778125,3.501 l -2.778125,2.76867 z m 45.508332,-1.71227 c 0,-1.74483 0.0949,-2.42281 0.35285,-2.52181 0.19406,-0.0745 1.29539,-0.1005 2.44739,-0.0578 l 2.09455,0.0776 -2.44739,2.44425 -2.4474,2.44425 z m -54.239581,-0.91459 v -1.7198 h 1.778293 1.778294 l -1.704504,1.7198 c -0.937477,0.94588 -1.737709,1.71979 -1.778294,1.71979 -0.04058,0 -0.07379,-0.77391 -0.07379,-1.71979 z m 38.629161,-25.79688 v -2.91041 h 2.51354 2.51355 v 2.91041 2.91042 h -2.51355 -2.51354 z m 14.81667,0 v -2.91041 h 1.55188 c 1.42825,0 1.66011,0.088 2.91042,1.10512 l 1.35853,1.10511 v 1.8053 1.8053 h -2.91041 -2.91042 z m -33.3375,-0.52021 v -2.91937 h 2.91937 2.91937 l -0.0751,2.84427 -0.0751,2.84427 -2.84427,0.0751 -2.84427,0.0751 z m -28.574998,-0.14125 c 1.522769,-1.52796 2.800564,-2.77812 2.839544,-2.77812 0.03898,0 0.07087,1.25016 0.07087,2.77812 v 2.77813 h -2.839543 -2.839544 z m -2.910416,-16.28082 v -2.91937 l 2.844271,0.0751 2.84427,0.0751 0.0751,2.84427 0.0751,2.84427 H 72.60587 69.686502 Z m 18.785416,0.40582 c 1.376698,-1.38244 2.535208,-2.51354 2.574461,-2.51354 0.03925,0 0.07137,1.1311 0.07137,2.51354 v 2.51355 h -2.574462 -2.574462 z m 12.699998,-0.39687 v -2.91042 h 2.91042 2.91041 v 2.91042 2.91042 h -2.91041 -2.91042 z m 18.52083,-0.92604 v -2.77813 h 2.51354 2.51355 v 2.77813 2.77812 h -2.51355 -2.51354 z m 29.98878,-8.85144 c -5.35442,-4.06475 -7.89845,-6.24662 -7.98348,-6.84694 -0.1076,-0.75974 0.63656,-1.63183 1.39246,-1.63183 0.66769,0 0.94696,0.18809 4.99873,3.36647 1.72083,1.3499 3.34475,2.45436 3.60871,2.45436 0.71359,0 0.9596,-0.26129 8.34524,-8.86354 3.74819,-4.36562 7.00061,-8.086325 7.22759,-8.268226 0.22698,-0.181901 0.62806,-0.330729 0.89129,-0.330729 0.62337,0 1.53693,0.922157 1.53693,1.5514 0,0.550895 -16.36084,19.705085 -17.06084,19.973695 -0.71791,0.27549 -0.78605,0.24311 -2.95663,-1.40466 z m -74.95316,-4.12888 c 0.349903,-0.37245 0.679545,-0.54712 0.732537,-0.38815 0.181681,0.54505 -0.201765,1.06534 -0.785135,1.06534 h -0.583591 z m 10.568552,-2.23322 v -2.91042 h 2.910416 2.910417 v 2.91042 2.91041 h -2.910417 -2.910416 z m 19.182288,0.52916 c 1.30362,-1.30968 2.40247,-2.38125 2.44188,-2.38125 0.0394,0 0.0717,1.07157 0.0717,2.38125 v 2.38125 h -2.44188 -2.44187 z m -34.792704,-0.60004 v -2.83954 h 2.778125 c 1.527968,0 2.778125,0.0319 2.778125,0.0709 0,0.039 -1.250157,1.31678 -2.778125,2.83955 l -2.778125,2.76867 z m 50.006244,-2.57496 v -2.91041 h 2.51354 2.51355 v 2.91041 2.91042 h -2.51355 -2.51354 z m 7.9375,-11.106868 v -11.40045 l 1.73922,1.316622 1.73922,1.316622 -0.0243,9.341728 c -0.0281,10.790686 0.0117,10.598726 -2.22398,10.745286 l -1.23014,0.0806 z m 53.44583,10.842288 c -0.50702,-0.50702 -0.52916,-0.88194 -0.52916,-8.9589 0,-4.636359 -0.0649,-8.952374 -0.14428,-9.59115 l -0.14428,-1.161407 1.56912,-1.124479 c 0.86302,-0.618463 1.64232,-1.124479 1.73178,-1.124479 0.0895,0 0.16266,5.060156 0.16266,11.244791 v 11.244794 h -1.05834 c -0.70555,0 -1.23472,-0.17639 -1.5875,-0.52917 z M 75.110454,98.399485 c 0.08994,-0.145521 0.216026,-0.264584 0.280198,-0.264584 0.06417,0 0.116677,0.119063 0.116677,0.264584 0,0.145521 -0.126089,0.264583 -0.280198,0.264583 -0.154109,0 -0.206614,-0.119062 -0.116677,-0.264583 z m 10.186458,-2.513542 v -2.778125 h 2.910416 c 1.600729,0 2.910417,0.09153 2.910417,0.203401 0,0.340326 -5.145484,5.352849 -5.494837,5.352849 -0.237575,0 -0.325996,-0.753528 -0.325996,-2.778125 z m 5.423958,2.513542 c 0.08994,-0.145521 0.216027,-0.264584 0.280199,-0.264584 0.06417,0 0.116676,0.119063 0.116676,0.264584 0,0.145521 -0.12609,0.264583 -0.280199,0.264583 -0.154109,0 -0.206613,-0.119062 -0.116676,-0.264583 z m 10.45104,-2.513542 v -2.778125 h 2.91042 2.91041 v 2.778125 2.778125 h -2.91041 -2.91042 z M 69.686496,94.166152 v -1.058334 h 1.11203 1.11203 l -1.033435,1.058334 c -0.568389,0.582083 -1.068803,1.058333 -1.11203,1.058333 -0.04323,0 -0.07859,-0.47625 -0.07859,-1.058333 z m 50.006244,-2.655763 v -2.920344 l 2.4474,0.07607 2.44739,0.07608 0.0751,2.84427 0.0751,2.844271 h -2.52249 -2.5225 z m 11.69644,-5.436217 c -0.90325,-0.671216 -1.64227,-1.300927 -1.64227,-1.39936 0,-0.09843 5.32805,-1.708475 11.8401,-3.577875 6.51206,-1.869403 11.99464,-3.455877 12.18352,-3.525501 0.26498,-0.09768 0.32541,0.287347 0.26459,1.685625 l -0.0788,1.812216 -8.46666,2.424658 c -7.39863,2.118793 -11.21348,3.272279 -12.18221,3.683492 -0.15177,0.06443 -1.01498,-0.432039 -1.91823,-1.103255 z m 45.98273,0.843418 c -0.3638,-0.191513 -4.88818,-1.562132 -10.05417,-3.045817 -5.16599,-1.483686 -9.54153,-2.747238 -9.72344,-2.807893 -0.22029,-0.07346 -0.33073,-0.696775 -0.33073,-1.866689 0,-1.398879 0.0756,-1.727397 0.37135,-1.613905 0.20424,0.07837 2.3176,0.697151 4.69635,1.375061 6.76471,1.927836 18.83832,5.417743 19.24129,5.56174 0.35022,0.125148 -2.85644,2.780127 -3.32904,2.756304 -0.11558,-0.0058 -0.50781,-0.167285 -0.87161,-0.358801 z M 106.86045,74.586986 c 1.01084,-1.018646 1.87085,-1.852083 1.91114,-1.852083 0.0403,0 0.0732,0.833437 0.0732,1.852083 v 1.852083 h -1.91114 -1.91113 z m 11.77396,1.090953 c 0,-0.599835 0.43454,-1.187673 2.05052,-2.77392 1.81369,-1.780317 2.16512,-2.013276 3.04271,-2.016995 l 0.99219,-0.0042 v 2.778125 2.778125 h -3.04271 -3.04271 z m 19.31458,-1.487828 c 1.2305,-1.236927 2.26967,-2.248958 2.30926,-2.248958 0.0396,0 0.072,1.012031 0.072,2.248958 v 2.248958 h -2.30926 -2.30926 z m -34.925,-2.645833 c 0,-0.540664 0.12922,-0.661459 0.70758,-0.661459 h 0.70758 l -0.62141,0.661459 c -0.34177,0.363802 -0.66018,0.661458 -0.70757,0.661458 -0.0474,0 -0.0862,-0.297656 -0.0862,-0.661458 z m 31.48542,0 c 0,-0.540664 0.12922,-0.661459 0.70758,-0.661459 h 0.70758 l -0.62141,0.661459 c -0.34178,0.363802 -0.66019,0.661458 -0.70758,0.661458 -0.0474,0 -0.0862,-0.297656 -0.0862,-0.661458 z m -15.875,-0.264584 c 0,-0.218281 0.19317,-0.396875 0.42927,-0.396875 0.35158,0 0.36966,0.07183 0.0999,0.396875 -0.18116,0.218282 -0.37433,0.396875 -0.42927,0.396875 -0.0549,0 -0.0999,-0.178593 -0.0999,-0.396875 z"
         id="path643" /><path
         style="fill:#fdb137;stroke-width:0.264583"
         d="m 153.17784,140.81566 c -2.32968,-1.31968 -5.93443,-3.68564 -7.15906,-4.6988 l -0.79375,-0.65668 0.67703,-0.01 c 1.63024,-0.0229 7.50243,-4.35336 12.03072,-8.87206 7.94948,-7.93262 13.65492,-18.29284 15.9623,-28.985126 0.69138,-3.203863 0.37358,-4.553672 -1.27257,-5.404929 -0.8445,-0.436703 -16.26007,-4.90156 -16.92338,-4.90156 -0.25599,0 -5.00202,1.309688 -10.54674,2.910417 -5.54471,1.600729 -10.14815,2.910416 -10.22985,2.910416 -0.0817,0 -0.14855,-0.571267 -0.14855,-1.269484 v -1.269481 l 10.46648,-2.985016 10.46648,-2.985018 9.75023,2.796746 c 5.36262,1.538208 10.06905,2.917962 10.45873,3.066121 l 0.70852,0.269378 -0.12283,13.160776 c -0.10062,10.78126 -0.2001,13.51818 -0.55022,15.13759 -1.70641,7.89245 -5.5469,13.54144 -12.6542,18.61311 -2.12566,1.51683 -7.20931,4.42253 -7.6776,4.38833 -0.18721,-0.0137 -1.28599,-0.56051 -2.44174,-1.21521 z m -9.03628,-6.23441 -0.50403,-0.59531 0.59532,0.50403 c 0.32742,0.27721 0.59531,0.5451 0.59531,0.59531 0,0.21174 -0.21294,0.0554 -0.6866,-0.50403 z m -2.52215,-2.51354 c -0.32911,-0.41964 -0.31975,-0.429 0.0999,-0.0999 0.25467,0.19972 0.46303,0.40808 0.46303,0.46302 0,0.21776 -0.21728,0.0776 -0.56292,-0.36313 z m 9.02231,-6.33527 c -2.11762,-1.45113 -9.88039,-7.65751 -10.2133,-8.16559 -0.22267,-0.33984 -0.36051,-1.02114 -0.31379,-1.55095 l 0.0833,-0.94486 3.70417,2.91965 c 5.45161,4.29701 6.59515,5.01504 7.98701,5.01504 0.63696,0 1.5462,-0.16215 2.02054,-0.36034 0.6024,-0.2517 3.32443,-3.22333 9.02789,-9.85573 4.49101,-5.22246 8.35473,-9.67398 8.58604,-9.89226 0.3083,-0.29093 0.33279,-0.29446 0.0917,-0.0132 -0.18086,0.21101 -0.32884,0.8964 -0.32884,1.52309 0,1.22382 0.70477,0.35089 -15.01568,18.59847 -1.06562,1.23693 -2.26046,2.45669 -2.65518,2.71059 -0.91053,0.58567 -2.1331,0.5923 -2.97391,0.0161 z m -15.79567,-11.19337 c 0,-0.65485 0.0516,-0.92274 0.11467,-0.59532 0.0631,0.32743 0.0631,0.86321 0,1.19063 -0.0631,0.32742 -0.11467,0.0595 -0.11467,-0.59531 z m 3.653,-2.27101 c 0.0127,-0.30823 0.0754,-0.37092 0.15985,-0.15985 0.0764,0.19099 0.067,0.4192 -0.0209,0.50712 -0.0879,0.0879 -0.15045,-0.0684 -0.13896,-0.34727 z m 12.67911,0.0504 c 0,-0.0572 0.18478,-0.17489 0.41062,-0.26156 0.23545,-0.0904 0.34166,-0.046 0.24896,0.10399 -0.15538,0.25141 -0.65958,0.37186 -0.65958,0.15757 z m 1.5875,-1.58342 c 0,-0.0549 0.20836,-0.2633 0.46302,-0.46302 0.41964,-0.3291 0.429,-0.31975 0.0999,0.0999 -0.34565,0.44073 -0.56292,0.58089 -0.56292,0.36312 z m 1.5875,-1.85208 c 0,-0.0549 0.20836,-0.2633 0.46302,-0.46302 0.41964,-0.32911 0.429,-0.31975 0.0999,0.0999 -0.34565,0.44073 -0.56292,0.58088 -0.56292,0.36312 z m 1.5875,-1.85208 c 0,-0.0549 0.20836,-0.2633 0.46302,-0.46302 0.41964,-0.32911 0.429,-0.31975 0.0999,0.0999 -0.34565,0.44073 -0.56292,0.58089 -0.56292,0.36313 z m 1.5875,-1.85209 c 0,-0.0549 0.20836,-0.2633 0.46302,-0.46302 0.41964,-0.3291 0.429,-0.31974 0.0999,0.0999 -0.34565,0.44073 -0.56292,0.58089 -0.56292,0.36312 z m 1.5875,-1.85208 c 0,-0.0549 0.20836,-0.2633 0.46302,-0.46302 0.41964,-0.32911 0.429,-0.31975 0.0999,0.0999 -0.34565,0.44073 -0.56292,0.58088 -0.56292,0.36312 z m 1.5875,-1.85208 c 0,-0.0549 0.20836,-0.2633 0.46302,-0.46302 0.41964,-0.32911 0.429,-0.31975 0.0999,0.0999 -0.34564,0.44073 -0.56291,0.58089 -0.56291,0.36313 z m 1.5875,-1.852085 c 0,-0.05494 0.20836,-0.2633 0.46302,-0.463021 0.41964,-0.329107 0.429,-0.319749 0.0999,0.0999 -0.34564,0.44073 -0.56291,0.580888 -0.56291,0.363125 z m 1.98437,-2.281354 c 0.26339,-0.291041 0.53842,-0.529166 0.61119,-0.529166 0.0728,0 -0.0832,0.238125 -0.3466,0.529166 -0.26339,0.291042 -0.53843,0.529167 -0.61119,0.529167 -0.0728,0 0.0832,-0.238125 0.3466,-0.529167 z m 3.50573,-2.027311 c 0.1819,-0.0734 0.47956,-0.0734 0.66146,0 0.1819,0.0734 0.0331,0.133453 -0.33073,0.133453 -0.3638,0 -0.51263,-0.06006 -0.33073,-0.133453 z"
         id="path641" /><path
         style="fill:#505bd1;stroke-width:0.264583"
         d="m 151.50912,148.13546 c -10.01175,-5.37297 -16.6467,-11.50763 -20.16819,-18.64744 -2.45813,-4.98387 -3.37664,-8.88879 -3.62517,-15.41197 l -0.16381,-4.29948 h 1.18877 c 0.87216,0 1.32299,-0.14824 1.69279,-0.55659 0.46984,-0.51884 0.513,-1.18727 0.63632,-9.855732 0.0844,-5.934842 0.22801,-9.299138 0.39687,-9.299138 0.17102,0 0.31627,4.77175 0.41075,13.49375 0.13672,12.62198 0.184,13.66868 0.73174,16.20141 2.16817,10.02563 7.17109,16.39732 17.88923,22.78362 1.7362,1.0345 3.25908,1.91503 3.3842,1.95673 0.12511,0.0417 0.19286,1.1721 0.15056,2.51199 l -0.0769,2.43616 z m 5.75445,-1.03579 v -2.3644 l 2.4474,-1.37534 c 11.08201,-6.22765 16.73989,-13.20472 19.01338,-23.44653 0.54011,-2.43317 0.58365,-3.44361 0.69318,-16.08996 0.0841,-9.716105 0.20304,-13.597916 0.42469,-13.865841 0.54299,-0.656378 0.64074,0.789885 0.67338,9.96324 0.03,8.422411 0.0539,8.819951 0.56047,9.326561 0.35853,0.35852 0.88195,0.52917 1.62314,0.52917 h 1.09397 l -0.15079,4.69635 c -0.16133,5.02448 -0.58467,7.49436 -1.91602,11.17865 -3.25791,9.0157 -10.10647,16.11645 -21.52558,22.31823 -1.51324,0.82185 -2.79316,1.49427 -2.84427,1.49427 -0.0511,0 -0.093,-1.06398 -0.093,-2.3644 z m -36.44635,-22.70092 c 0.69123,-0.0545 1.82232,-0.0545 2.51354,0 0.69123,0.0545 0.12568,0.0991 -1.25677,0.0991 -1.38244,0 -1.94799,-0.0446 -1.25677,-0.0991 z m 12.50977,-36.833907 c -0.0854,-0.138219 0.0863,-0.380595 0.38152,-0.538615 0.29526,-0.158017 5.00156,-1.571316 10.45845,-3.140662 8.50968,-2.447298 9.92162,-2.787851 9.92162,-2.393064 0,0.316063 -0.3938,0.586796 -1.25678,0.864026 -2.22886,0.716021 -18.81039,5.459624 -19.08443,5.459624 -0.14578,0 -0.33496,-0.113088 -0.42038,-0.251309 z m 35.71054,-2.145488 c -12.23266,-3.519164 -11.77396,-3.365685 -11.77396,-3.939492 0,-0.450204 0.0992,-0.472911 0.99219,-0.227089 5.47247,1.506487 18.38073,5.323707 19.06411,5.637622 0.80977,0.371978 0.9594,0.949907 0.23486,0.907169 -0.17331,-0.01021 -4.00605,-1.080418 -8.5172,-2.37821 z"
         id="path639" /><path
         style="fill:#5e6096;stroke-width:0.264583"
         d="m 160.82603,172.08594 c -4e-5,-7.42156 0.0339,-10.49574 0.0753,-6.83152 0.0415,3.66423 0.0415,9.73642 8e-5,13.49375 -0.0414,3.75734 -0.0754,0.75933 -0.0754,-6.66223 z m -101.1937,4.49792 v -7.27605 l 9.326562,0.0626 9.326562,0.0626 -9.194271,0.0731 -9.19427,0.0731 v 7.0046 7.0046 l 9.19427,0.0731 9.194271,0.0731 -9.326562,0.0626 -9.326562,0.0626 z m 47.69114,7.07771 9.19427,-0.0731 v -7.0046 -7.0046 l -9.19427,-0.0731 -9.194267,-0.0731 9.326557,-0.0626 9.32657,-0.0626 v 7.27605 7.27604 l -9.32657,-0.0626 -9.326557,-0.0626 z m 12.28567,0.0265 c -0.0995,-0.0995 -0.18098,-5.38567 -0.18098,-11.74696 v -11.56597 l 14.61823,-0.18302 c 8.04002,-0.10066 16.76135,-0.14171 19.38073,-0.0912 2.61937,0.0505 -0.68461,0.11862 -7.34219,0.15142 l -12.10469,0.0596 v 1.5875 1.5875 h 12.03854 12.03854 v 10.18646 10.18646 h -2.77812 -2.77812 v -8.28146 c 0,-6.08836 -0.0841,-8.36554 -0.3175,-8.59896 -0.48623,-0.48623 -18.82048,-0.45222 -19.22539,0.0357 -0.19695,0.23731 -0.31606,3.03615 -0.36312,8.53281 l -0.07,8.17966 -6.36745,0.0707 c -3.5021,0.0389 -6.4489,-0.0107 -6.54844,-0.11024 z m 24.277,-7.10424 c 1.3e-4,-4.07459 0.0369,-5.70449 0.0816,-3.62202 0.0447,2.08248 0.0446,5.41623 -2.5e-4,7.40834 -0.0449,1.9921 -0.0815,0.28826 -0.0814,-3.78632 z m -48.437177,2.77812 c 0,-1.52797 0.04373,-2.15305 0.09718,-1.38906 0.05345,0.76398 0.05345,2.01414 0,2.77812 -0.05344,0.76399 -0.09718,0.13891 -0.09718,-1.38906 z m -14.545574,-3.04271 c 5.3e-4,-2.03729 0.04194,-2.83575 0.09229,-1.77436 0.05035,1.06139 0.05001,2.72827 -7.94e-4,3.70417 -0.05072,0.9759 -0.09191,0.10748 -0.0915,-1.92981 z m 68.776221,0.13229 c 0,-1.0914 0.0467,-1.53789 0.10379,-0.99218 0.0571,0.5457 0.0571,1.43867 0,1.98437 -0.0571,0.5457 -0.10379,0.0992 -0.10379,-0.99219 z m -54.249247,-4.49791 c 0,-0.80037 0.0496,-1.12779 0.110223,-0.72761 0.06062,0.40019 0.06062,1.05503 0,1.45521 -0.06062,0.40018 -0.110223,0.0728 -0.110223,-0.7276 z m 54.242287,-1.19063 c 0.002,-0.87312 0.0509,-1.19841 0.10976,-0.72286 0.0589,0.47555 0.0577,1.18992 -0.003,1.5875 -0.0604,0.39757 -0.10855,0.008 -0.10706,-0.86464 z m -89.982318,-7.34218 0.07429,-3.24115 28.376569,-0.002 28.376569,-0.002 -28.310423,0.0691 -28.310423,0.0693 v 3.03121 3.03121 l 2.315104,0.0882 2.315104,0.0882 -2.455539,0.0544 -2.455539,0.0544 z m 53.453978,3.04666 c 0.69122,-0.0545 1.82231,-0.0545 2.51354,0 0.69122,0.0545 0.12567,0.0991 -1.25677,0.0991 -1.38245,0 -1.948,-0.0446 -1.25677,-0.0991 z m 6.54843,-12.24093 v -3.175 h 3.39858 c 2.95647,0 3.45554,-0.063 3.83646,-0.48386 0.37427,-0.41356 0.43788,-1.19558 0.43788,-5.38295 0,-6.15026 0.28085,-5.77486 -4.32031,-5.77486 h -3.35261 v -3.175 -3.175 h 3.51896 c 2.38419,0 3.62135,-0.10239 3.83646,-0.3175 0.19317,-0.19317 0.31994,-1.15155 0.32372,-2.4474 l 0.006,-2.12989 1.5703,3.00457 c 1.34874,2.58063 2.29651,3.99064 5.12005,7.61718 l 0.48509,0.62304 h -0.94811 c -0.59533,0 -1.145,0.19689 -1.47727,0.52917 -0.48997,0.48996 -0.52917,0.88194 -0.52917,5.29166 0,4.40973 0.0392,4.8017 0.52917,5.29167 0.48997,0.48997 0.88194,0.52917 5.29166,0.52917 5.76566,0 5.82084,-0.0262 5.82084,-2.76624 v -1.70791 l 2.11666,1.34725 2.11667,1.34726 v 4.06482 4.06482 h -13.89062 -13.89063 v -3.175 z m 34.49247,-7.01146 c 7.9e-4,-1.45521 0.0451,-2.01677 0.0987,-1.2479 0.0536,0.76886 0.0531,1.95948 -0.001,2.64583 -0.0543,0.68634 -0.0982,0.0573 -0.0975,-1.39793 z m 2.85613,0.0818 c -0.0233,-1.41024 0.047,-2.61966 0.15609,-2.68759 0.10914,-0.0679 0.16585,0.72871 0.12602,1.77032 -0.12327,3.22364 -0.23787,3.59626 -0.28211,0.91727 z m -74.546583,-2.7276 c -2.64e-4,-2.47385 0.03947,-3.52149 0.08837,-2.32809 0.04891,1.1934 0.04916,3.21746 5.29e-4,4.49792 -0.0486,1.28045 -0.08862,0.30403 -0.08893,-2.16983 z m 37.033463,0.66146 c 0,-1.67349 0.043,-2.3581 0.0955,-1.52135 0.0525,0.83674 0.0525,2.20596 0,3.04271 -0.0525,0.83674 -0.0955,0.15213 -0.0955,-1.52136 z m -49.992108,2.03264 c -0.07358,-0.19174 -0.09495,-1.59073 -0.0475,-3.10886 l 0.08628,-2.76024 0.0558,2.9679 0.0558,2.9679 2.976562,0.0844 2.976563,0.0844 -2.984867,0.0565 c -2.266569,0.0429 -3.017059,-0.0273 -3.118642,-0.29205 z m 31.488748,-2.6941 0.0148,-2.91041 2.97706,-0.0136 2.97705,-0.0136 -2.90204,0.0883 -2.90205,0.0883 -0.0898,2.83569 -0.0898,2.83569 0.0148,-2.91042 z m 72.11371,-1.81968 c 0,-0.0549 0.20836,-0.2633 0.46302,-0.46302 0.41965,-0.32911 0.42901,-0.31975 0.0999,0.0999 -0.34564,0.44073 -0.56292,0.58089 -0.56292,0.36313 z m -2.91041,-1.32292 c 0,-0.0549 0.20836,-0.2633 0.46302,-0.46302 0.41964,-0.32911 0.429,-0.31975 0.0999,0.0999 -0.34564,0.44072 -0.56291,0.58088 -0.56291,0.36312 z m -32.54375,-2.94281 c -0.64268,-0.65485 -1.10898,-1.19063 -1.03622,-1.19063 0.0728,0 0.65812,0.53578 1.3008,1.19063 0.64268,0.65484 1.10898,1.19062 1.03622,1.19062 -0.0728,0 -0.65812,-0.53578 -1.3008,-1.19062 z m 35.85104,-0.13229 c 0.71666,-0.72761 1.36256,-1.32292 1.43532,-1.32292 0.0728,0 -0.45407,0.59531 -1.17074,1.32292 -0.71666,0.7276 -1.36255,1.32291 -1.43531,1.32291 -0.0728,0 0.45407,-0.59531 1.17073,-1.32291 z m 3.57187,0.42927 c 0,-0.0549 0.20836,-0.2633 0.46302,-0.46302 0.41965,-0.32911 0.42901,-0.31975 0.0999,0.0999 -0.34564,0.44073 -0.56292,0.58089 -0.56292,0.36313 z m -7.01145,-3.07511 c 0.26339,-0.29104 0.53842,-0.52916 0.61118,-0.52916 0.0728,0 -0.0832,0.23812 -0.3466,0.52916 -0.26339,0.29104 -0.53842,0.52917 -0.61118,0.52917 -0.0728,0 0.0832,-0.23813 0.3466,-0.52917 z m 5.68854,0.16469 c 0,-0.0549 0.20836,-0.2633 0.46302,-0.46302 0.41964,-0.32911 0.429,-0.31975 0.0999,0.0999 -0.34564,0.44073 -0.56291,0.58088 -0.56291,0.36312 z M 92.391052,133.9375 c 0.190995,-0.0764 0.419198,-0.067 0.507119,0.0209 0.08792,0.0879 -0.06835,0.15045 -0.347266,0.13896 -0.308226,-0.0127 -0.370919,-0.0754 -0.159853,-0.15985 z m -9.896295,-5.5078 c -2.64e-4,-2.47385 0.03947,-3.5215 0.08837,-2.32809 0.04891,1.1934 0.04916,3.21746 5.29e-4,4.49791 -0.0486,1.28045 -0.08862,0.30404 -0.08893,-2.16982 z M 69.52197,128.2974 c 0,-1.67349 0.04296,-2.3581 0.09547,-1.52135 0.05251,0.83674 0.05251,2.20596 0,3.0427 -0.05251,0.83675 -0.09547,0.15214 -0.09547,-1.52135 z m 31.48542,0 c 0,-1.67349 0.043,-2.3581 0.0955,-1.52135 0.0525,0.83674 0.0525,2.20596 0,3.0427 -0.0525,0.83675 -0.0955,0.15214 -0.0955,-1.52135 z m 18.53497,1.76805 c -0.0736,-0.19174 -0.0949,-1.59072 -0.0475,-3.10885 l 0.0863,-2.76024 0.0558,2.96698 0.0558,2.96698 2.57969,0.0865 2.57969,0.0865 -2.58799,0.0554 c -1.93758,0.0415 -2.62162,-0.0322 -2.72177,-0.29324 z m -49.247561,-7.52149 c 1.280453,-0.0486 3.304515,-0.0484 4.497917,5.3e-4 1.193402,0.0489 0.145759,0.0887 -2.328095,0.0884 -2.473854,-2.6e-4 -3.450274,-0.0403 -2.169822,-0.0889 z m 15.875,0 c 1.280453,-0.0486 3.304516,-0.0484 4.497916,5.3e-4 1.193403,0.0489 0.145759,0.0887 -2.328095,0.0884 -2.473854,-2.6e-4 -3.450272,-0.0403 -2.169821,-0.0889 z m 15.610411,0 c 1.28046,-0.0486 3.30452,-0.0484 4.49792,5.3e-4 1.1934,0.0489 0.14576,0.0887 -2.32809,0.0884 -2.47386,-2.6e-4 -3.45028,-0.0403 -2.16983,-0.0889 z m 20.35993,-1.05828 -2.4474,-0.0873 v -3.03278 -3.03278 h 2.49451 2.4945 l 0.17029,1.52135 c 0.0937,0.83675 0.28083,2.1683 0.41592,2.95901 0.32128,1.88051 0.3215,1.87864 -0.2174,1.81473 -0.25467,-0.0302 -1.56435,-0.0942 -2.91042,-0.14223 z m 6.04016,-0.75095 c 0.0127,-0.30823 0.0754,-0.37092 0.15985,-0.15986 0.0764,0.191 0.067,0.4192 -0.0209,0.50712 -0.0879,0.0879 -0.15045,-0.0684 -0.13896,-0.34726 z m 24.34282,-0.70556 c 0.0606,-0.0364 0.46743,-0.3638 0.904,-0.7276 l 0.79375,-0.66146 -0.64144,0.7276 c -0.35279,0.40019 -0.75958,0.72761 -0.90399,0.72761 -0.14441,0 -0.21295,-0.0298 -0.15232,-0.0662 z m -24.6074,-0.88194 c 0.0127,-0.30823 0.0754,-0.37092 0.15985,-0.15986 0.0764,0.191 0.067,0.4192 -0.0209,0.50712 -0.0879,0.0879 -0.15045,-0.0683 -0.13896,-0.34726 z m 58.20833,0 c 0.0127,-0.30823 0.0754,-0.37092 0.15985,-0.15986 0.0764,0.191 0.067,0.4192 -0.0209,0.50712 -0.0879,0.0879 -0.15045,-0.0683 -0.13896,-0.34726 z m -36.56714,-0.57327 c -0.32911,-0.41964 -0.31975,-0.429 0.0999,-0.0999 0.44073,0.34564 0.58089,0.56291 0.36313,0.56291 -0.0549,0 -0.2633,-0.20836 -0.46302,-0.46302 z m 33.9213,-0.74965 c 0.0127,-0.30823 0.0754,-0.37092 0.15985,-0.15985 0.0764,0.19099 0.067,0.4192 -0.0209,0.50712 -0.0879,0.0879 -0.15046,-0.0684 -0.13897,-0.34727 z m -113.474368,-0.0425 c 1.265947,-0.0484 3.409072,-0.0486 4.7625,-5.3e-4 1.353428,0.0481 0.317654,0.0877 -2.301721,0.088 -2.619375,2.6e-4 -3.726726,-0.0391 -2.460779,-0.0875 z m 15.888382,-2e-4 c 1.273307,-0.0485 3.356901,-0.0485 4.630208,0 1.273308,0.0485 0.231511,0.0882 -2.315104,0.0882 -2.546614,0 -3.588411,-0.0397 -2.315104,-0.0882 z m 15.597036,2e-4 c 1.26594,-0.0484 3.40907,-0.0486 4.7625,-5.3e-4 1.35343,0.0481 0.31765,0.0877 -2.30172,0.088 -2.61938,2.6e-4 -3.72673,-0.0391 -2.46078,-0.0875 z m 53.52536,-0.33237 c 0.26339,-0.29104 0.53842,-0.52916 0.61118,-0.52916 0.0728,0 -0.0832,0.23812 -0.3466,0.52916 -0.26339,0.29105 -0.53842,0.52917 -0.61118,0.52917 -0.0728,0 0.0832,-0.23812 0.3466,-0.52917 z m -22.86557,-0.15434 c 0.0127,-0.30822 0.0754,-0.37091 0.15985,-0.15985 0.0764,0.191 0.067,0.4192 -0.0209,0.50712 -0.0879,0.0879 -0.15045,-0.0683 -0.13896,-0.34727 z m 46.83125,0 c 0.0127,-0.30822 0.0754,-0.37091 0.15985,-0.15985 0.0764,0.191 0.067,0.4192 -0.0209,0.50712 -0.0879,0.0879 -0.15045,-0.0683 -0.13896,-0.34727 z m -51.30828,-0.37482 c 0,-0.3638 0.06,-0.51263 0.13345,-0.33073 0.0734,0.1819 0.0734,0.47956 0,0.66146 -0.0734,0.1819 -0.13345,0.0331 -0.13345,-0.33073 z m 19.50364,-0.19844 c -0.32911,-0.41965 -0.31975,-0.429 0.0999,-0.0999 0.25467,0.19972 0.46303,0.40808 0.46303,0.46302 0,0.21777 -0.21728,0.0776 -0.56292,-0.36312 z m 39.21297,0.0441 c 0.0127,-0.30823 0.0754,-0.37092 0.15985,-0.15986 0.0764,0.191 0.067,0.4192 -0.0209,0.50712 -0.0879,0.0879 -0.15045,-0.0684 -0.13896,-0.34726 z M 82.49531,112.15782 c 0,-2.54662 0.03968,-3.58841 0.08819,-2.31511 0.0485,1.27331 0.0485,3.3569 0,4.63021 -0.0485,1.27331 -0.08819,0.23151 -0.08819,-2.3151 z m 63.35743,3.50573 c -0.32911,-0.41965 -0.31975,-0.42901 0.0999,-0.0999 0.25466,0.19972 0.46302,0.40808 0.46302,0.46302 0,0.21776 -0.21727,0.0776 -0.56292,-0.36312 z m 10.74938,-0.0662 c 0.26339,-0.29104 0.53842,-0.52917 0.61118,-0.52917 0.0728,0 -0.0832,0.23813 -0.3466,0.52917 -0.26339,0.29104 -0.53842,0.52917 -0.61118,0.52917 -0.0728,0 0.0832,-0.23813 0.3466,-0.52917 z m -5.22552,0.0894 c 0.1819,-0.0734 0.47955,-0.0734 0.66145,0 0.18191,0.0734 0.0331,0.13345 -0.33072,0.13345 -0.36381,0 -0.51263,-0.0601 -0.33073,-0.13345 z m 1.12448,-0.18926 c 0,-0.0549 0.20835,-0.2633 0.46302,-0.46302 0.41964,-0.3291 0.429,-0.31975 0.0999,0.0999 -0.34564,0.44073 -0.56291,0.58089 -0.56291,0.36312 z m 31.34425,-14.45218 c 0,-7.930887 0.0337,-11.17534 0.0748,-7.209898 0.0412,3.965443 0.0412,10.454348 0,14.419788 -0.0412,3.96545 -0.0748,0.72099 -0.0748,-7.20989 z m -114.32336,11.1125 c 0,-1.67349 0.04296,-2.3581 0.09547,-1.52136 0.05251,0.83675 0.05251,2.20597 0,3.04271 -0.05251,0.83675 -0.09547,0.15214 -0.09547,-1.52135 z m 31.48542,0 c 0,-1.67349 0.043,-2.3581 0.0955,-1.52136 0.0525,0.83675 0.0525,2.20597 0,3.04271 -0.0525,0.83675 -0.0955,0.15214 -0.0955,-1.52135 z m 30.91963,-9.50417 c -0.0576,-11.148111 -0.10529,-12.333079 -0.51664,-12.83229 l -0.4532,-0.55 0.58817,0.539194 0.58817,0.539197 -0.0715,12.293099 -0.0715,12.29309 z m 17.36531,11.68698 c -0.32911,-0.41965 -0.31975,-0.429 0.0999,-0.0999 0.44073,0.34565 0.58089,0.56292 0.36313,0.56292 -0.0549,0 -0.2633,-0.20836 -0.46302,-0.46302 z m 29.9951,-11.74156 c -0.059,-11.478892 -0.0312,-12.362129 0.39958,-12.700002 0.40956,-0.321196 0.42514,-0.314539 0.13496,0.05764 -0.24782,0.317857 -0.34555,3.424015 -0.39958,12.700002 l -0.0715,12.27923 z m -35.81594,11.21239 c -0.32911,-0.41964 -0.31975,-0.429 0.0999,-0.0999 0.44073,0.34564 0.58089,0.56291 0.36312,0.56291 -0.0549,0 -0.2633,-0.20836 -0.46302,-0.46302 z m 14.85042,-0.19843 c 0.34177,-0.36381 0.68094,-0.66146 0.7537,-0.66146 0.0728,0 -0.14734,0.29765 -0.48912,0.66146 -0.34177,0.3638 -0.68094,0.66145 -0.7537,0.66145 -0.0728,0 0.14734,-0.29765 0.48912,-0.66145 z m -4.10104,-0.1323 c 0.26339,-0.29104 0.53842,-0.52916 0.61118,-0.52916 0.0728,0 -0.0832,0.23812 -0.3466,0.52916 -0.26339,0.29105 -0.53842,0.52917 -0.61118,0.52917 -0.0728,0 0.0832,-0.23812 0.3466,-0.52917 z m -12.19597,-0.85989 -0.50403,-0.59531 0.59531,0.50402 c 0.55945,0.47367 0.71576,0.6866 0.50403,0.6866 -0.0502,0 -0.3181,-0.26789 -0.59531,-0.59531 z m 4.88618,-0.13229 c -0.32911,-0.41965 -0.31975,-0.42901 0.0999,-0.0999 0.44073,0.34564 0.58089,0.56292 0.36313,0.56292 -0.0549,0 -0.2633,-0.20836 -0.46302,-0.46302 z m -27.38286,-2.97657 c 0,-1.67349 0.043,-2.35809 0.0955,-1.52135 0.0525,0.83674 0.0525,2.20596 0,3.04271 -0.0525,0.83674 -0.0955,0.15213 -0.0955,-1.52136 z m 40.38119,2.24896 c 0.34177,-0.3638 0.68094,-0.66146 0.7537,-0.66146 0.0728,0 -0.14734,0.29766 -0.48912,0.66146 -0.34177,0.3638 -0.68094,0.66146 -0.7537,0.66146 -0.0728,0 0.14734,-0.29766 0.48912,-0.66146 z m -3.96875,-0.26458 c 0.34177,-0.3638 0.68094,-0.66146 0.7537,-0.66146 0.0728,0 -0.14734,0.29766 -0.48912,0.66146 -0.34177,0.3638 -0.68094,0.66146 -0.7537,0.66146 -0.0728,0 0.14734,-0.29766 0.48912,-0.66146 z m -10.3525,-0.0661 c -0.32911,-0.41964 -0.31975,-0.429 0.0999,-0.0999 0.44073,0.34564 0.58089,0.56291 0.36313,0.56291 -0.0549,0 -0.2633,-0.20836 -0.46302,-0.46302 z m -3.935,-0.69521 c 0,-0.0549 0.20836,-0.2633 0.46302,-0.46302 0.41964,-0.3291 0.429,-0.31975 0.0999,0.0999 -0.34565,0.44073 -0.56292,0.58089 -0.56292,0.36312 z m 19.97604,-0.95843 c 0.26339,-0.29104 0.53842,-0.52917 0.61118,-0.52917 0.0728,0 -0.0832,0.23813 -0.3466,0.52917 -0.26339,0.29104 -0.53842,0.52916 -0.61118,0.52916 -0.0728,0 0.0832,-0.23812 0.3466,-0.52916 z m -18.70273,0.0838 c 0.19099,-0.0764 0.4192,-0.067 0.50712,0.0209 0.0879,0.0879 -0.0684,0.15045 -0.34727,0.13896 -0.30823,-0.0127 -0.37092,-0.0754 -0.15985,-0.15985 z m 14.73398,-0.34843 c 0.26339,-0.29104 0.53842,-0.52916 0.61118,-0.52916 0.0728,0 -0.0832,0.23812 -0.3466,0.52916 -0.26339,0.29105 -0.53842,0.52917 -0.61118,0.52917 -0.0728,0 0.0832,-0.23812 0.3466,-0.52917 z M 127.48708,98.399485 c 0,-6.330156 0.0345,-8.919765 0.0767,-5.754688 0.0422,3.165078 0.0422,8.344293 0,11.509373 -0.0422,3.16508 -0.0767,0.57547 -0.0767,-5.754685 z m 35.72962,9.524995 c 0.26339,-0.29104 0.53842,-0.52916 0.61118,-0.52916 0.0728,0 -0.0832,0.23812 -0.3466,0.52916 -0.26339,0.29105 -0.53842,0.52917 -0.61118,0.52917 -0.0728,0 0.0832,-0.23812 0.3466,-0.52917 z m -3.96875,-0.26458 c 0.26339,-0.29104 0.53842,-0.52917 0.61118,-0.52917 0.0728,0 -0.0832,0.23813 -0.3466,0.52917 -0.26339,0.29104 -0.53842,0.52917 -0.61118,0.52917 -0.0728,0 0.0832,-0.23813 0.3466,-0.52917 z m 5.55625,-1.5875 c 0.26339,-0.29104 0.53842,-0.52917 0.61118,-0.52917 0.0728,0 -0.0832,0.23813 -0.3466,0.52917 -0.26339,0.29104 -0.53842,0.52917 -0.61118,0.52917 -0.0728,0 0.0832,-0.23813 0.3466,-0.52917 z m -3.83646,-0.39687 c 0.34178,-0.36381 0.68094,-0.66146 0.7537,-0.66146 0.0728,0 -0.14734,0.29765 -0.48912,0.66146 -0.34177,0.3638 -0.68093,0.66145 -0.7537,0.66145 -0.0728,0 0.14735,-0.29765 0.48912,-0.66145 z m 5.42396,-1.45521 c 0.26339,-0.29104 0.53842,-0.52917 0.61118,-0.52917 0.0728,0 -0.0832,0.23813 -0.3466,0.52917 -0.26339,0.29104 -0.53842,0.52916 -0.61118,0.52916 -0.0728,0 0.0832,-0.23812 0.3466,-0.52916 z m -3.70417,-0.52917 c 0.26339,-0.29104 0.53842,-0.52917 0.61119,-0.52917 0.0728,0 -0.0832,0.23813 -0.3466,0.52917 -0.26339,0.29104 -0.53843,0.52917 -0.61119,0.52917 -0.0728,0 0.0832,-0.23813 0.3466,-0.52917 z m -42.99479,-3.175 v -3.174999 h 2.51354 2.51355 v 3.174999 3.175 h -2.51355 -2.51354 z m 48.28646,1.85208 c 0.26339,-0.29104 0.53842,-0.52916 0.61118,-0.52916 0.0728,0 -0.0832,0.23812 -0.3466,0.52916 -0.26339,0.29105 -0.53842,0.52917 -0.61118,0.52917 -0.0728,0 0.0832,-0.23812 0.3466,-0.52917 z m -3.70417,-0.52916 c 0.26339,-0.29104 0.53842,-0.52917 0.61119,-0.52917 0.0728,0 -0.0832,0.23813 -0.3466,0.52917 -0.26339,0.29104 -0.53843,0.52916 -0.61119,0.52916 -0.0728,0 0.0832,-0.23812 0.3466,-0.52916 z m 1.71979,-1.984377 c 0.34178,-0.363802 0.68094,-0.661458 0.7537,-0.661458 0.0728,0 -0.14734,0.297656 -0.48911,0.661458 -0.34178,0.363807 -0.68094,0.661457 -0.7537,0.661457 -0.0728,0 0.14734,-0.29765 0.48911,-0.661457 z m -83.500063,-3.96875 c -2.64e-4,-2.473854 0.03947,-3.521498 0.08837,-2.328095 0.04891,1.1934 0.04916,3.217463 5.29e-4,4.497917 -0.0486,1.28045 -0.08862,0.304032 -0.08893,-2.169822 z m -12.953545,0 0.01299,-2.910416 1.322917,-0.02701 1.322917,-0.02701 -1.248238,0.107307 -1.248238,0.107309 -0.08767,2.830121 -0.08767,2.830124 0.01299,-2.910417 z m 5.387341,2.861969 c 0.190996,-0.07643 0.419199,-0.06703 0.507118,0.02088 0.08792,0.08792 -0.06835,0.150453 -0.347266,0.138965 -0.308224,-0.0127 -0.370919,-0.07539 -0.159852,-0.159851 z m 15.329296,0.0055 c 0.181901,-0.0734 0.479557,-0.0734 0.661458,0 0.181901,0.0734 0.03307,0.133453 -0.330729,0.133453 -0.363802,0 -0.51263,-0.06006 -0.330729,-0.133453 z m 10.763311,-0.174334 c -0.0738,-0.192259 -0.0998,-1.531712 -0.0578,-2.976562 l 0.0763,-2.626992 2.97705,-0.01363 2.97706,-0.01363 -2.91091,0.08843 -2.91091,0.08845 v 2.760795 2.760795 l 2.97656,0.0844 2.97657,0.0844 -2.98487,0.05656 c -2.27055,0.04302 -3.01697,-0.0271 -3.11901,-0.293005 z m 18.50706,-7.058763 c 0,-1.673489 0.043,-2.358098 0.0955,-1.521354 0.0525,0.836745 0.0525,2.205964 0,3.042708 -0.0525,0.836745 -0.0955,0.152136 -0.0955,-1.521354 z m -32.842246,1.391976 c 0.836745,-0.05251 2.205964,-0.05251 3.042708,0 0.836745,0.05251 0.152136,0.09547 -1.521354,0.09547 -1.673489,0 -2.358099,-0.04296 -1.521354,-0.09547 z M 119.61284,84.58429 c -0.0827,-0.61641 -0.35756,-1.267272 -0.61457,-1.455208 -0.36163,-0.264424 -2.98299,-0.340013 -11.79151,-0.340013 H 95.880245 V 73.660944 64.53282 h 25.796875 25.79687 v 5.912343 5.912342 l -1.96153,0.569949 c -1.07885,0.313472 -2.03135,0.569948 -2.11667,0.569948 -0.0853,0 -0.15513,-1.878507 -0.15513,-4.174461 0,-5.770263 0.45662,-5.350538 -5.82083,-5.350538 -4.86391,0 -5.00806,0.01567 -5.40896,0.588038 -0.33395,0.47678 -0.41188,1.447395 -0.41188,5.130063 0,5.666154 -0.0262,5.61682 3.03935,5.720085 l 2.11331,0.07119 -5.47187,1.55217 c -3.00953,0.853694 -5.71669,1.72365 -6.01591,1.933234 -0.4102,0.287314 -0.54404,0.670282 -0.54404,1.556681 v 1.175623 h -2.47871 -2.4787 z m -8.26947,-5.822843 c 0.33369,-0.476417 0.41187,-1.444589 0.41187,-5.100503 0,-3.655914 -0.0782,-4.624086 -0.41187,-5.100503 -0.40055,-0.571851 -0.54746,-0.588038 -5.33698,-0.588038 -4.21157,0 -4.9952,0.06344 -5.40896,0.437882 -0.43512,0.393781 -0.48385,0.924828 -0.48385,5.272768 0,4.042572 0.0681,4.90302 0.41577,5.250658 0.3486,0.348602 1.22248,0.415775 5.40896,0.415775 4.85987,0 5.00417,-0.01569 5.40506,-0.588039 z m -5.46811,-2.251866 c 0.62231,-0.05589 1.57481,-0.0551 2.11666,0.0017 0.54186,0.05685 0.0327,0.102583 -1.13147,0.101622 -1.16416,-9.53e-4 -1.6075,-0.04748 -0.98519,-0.10337 z m -3.02515,-2.054887 c 0.001,-1.164166 0.0475,-1.607504 0.10337,-0.985194 0.0559,0.622311 0.0551,1.57481 -0.002,2.116667 -0.0567,0.541857 -0.10248,0.03269 -0.10152,-1.131473 z m 0.50461,-3.754259 c 0.25466,-0.06655 0.67138,-0.06655 0.92605,0 0.25466,0.06655 0.0463,0.121 -0.46303,0.121 -0.50932,0 -0.71768,-0.05445 -0.46302,-0.121 z m 23.69344,8.331551 c 0.44798,-0.447985 0.44798,-10.294098 0,-10.742083 -0.44798,-0.447985 -10.2941,-0.447985 -10.74208,0 -0.44799,0.447985 -0.44799,10.294098 0,10.742083 0.44798,0.447984 10.2941,0.447984 10.74208,0 z m -6.88203,-2.524499 c 0.91521,-0.05181 2.34396,-0.05139 3.175,9.52e-4 0.83104,0.05234 0.0822,0.09473 -1.66401,0.09421 -1.74625,-5.29e-4 -2.4262,-0.04334 -1.51099,-0.09516 z m -1.33328,-5.799896 c 0.1819,-0.0734 0.47955,-0.0734 0.66146,0 0.1819,0.0734 0.0331,0.133452 -0.33073,0.133452 -0.36381,0 -0.51263,-0.06005 -0.33073,-0.133452 z m 4.23333,-0.0115 c 0.32742,-0.06306 0.8632,-0.06306 1.19063,0 0.32742,0.06306 0.0595,0.114662 -0.59532,0.114662 -0.65484,0 -0.92273,-0.0516 -0.59531,-0.114662 z m -63.103121,12.16056 c 1.273307,-0.0485 3.356901,-0.0485 4.630208,0 1.273307,0.0485 0.23151,0.08819 -2.315104,0.08819 -2.546615,0 -3.588411,-0.03968 -2.315104,-0.08819 z m 29.961404,0.0034 3.040968,-0.08769 0.07171,-14.874441 0.07171,-14.874435 -0.0034,14.948958 -0.0034,14.948957 -3.109312,0.01318 -3.109312,0.01318 3.040967,-0.08769 z M 69.518547,80.275527 c 6.88e-4,-1.455208 0.04512,-2.016765 0.09874,-1.247902 0.05362,0.768864 0.05305,1.959489 -0.0012,2.645834 -0.05431,0.686345 -0.09818,0.05728 -0.09749,-1.397932 z m 14.55083,0.132292 c 0,-1.382448 0.04459,-1.947995 0.0991,-1.256771 0.0545,0.691224 0.0545,1.822318 0,2.513542 -0.05451,0.691224 -0.0991,0.125677 -0.0991,-1.256771 z m 69.676833,1.665364 c 0.19144,-0.136189 0.35739,-1.123378 0.4148,-2.467538 l 0.0957,-2.240534 -0.0179,2.359898 c -0.0142,1.862849 -0.10151,2.38257 -0.41479,2.467538 -0.2816,0.07637 -0.30419,0.0417 -0.0778,-0.119364 z m 3.36487,-0.167397 c -0.0747,-0.194765 -0.095,-1.296093 -0.0449,-2.447395 l 0.0909,-2.09328 0.0532,2.293056 c 0.0359,1.544304 0.16124,2.336631 0.38397,2.426507 0.25905,0.104526 0.25725,0.13798 -0.008,0.154339 -0.18647,0.01148 -0.40019,-0.138464 -0.47493,-0.333227 z m -20.41886,-5.396613 c 0.69123,-0.0545 1.82232,-0.0545 2.51354,0 0.69123,0.0545 0.12568,0.0991 -1.25677,0.0991 -1.38245,0 -1.94799,-0.04459 -1.25677,-0.0991 z M 72.398475,74.918164 c 2.437474,-0.04366 6.426067,-0.04366 8.863541,0 2.437474,0.04366 0.443177,0.07939 -4.43177,0.07939 -4.874948,0 -6.869245,-0.03572 -4.431771,-0.07939 z M 134.97552,70.69569 c 0.32911,-0.06329 0.80536,-0.06088 1.05833,0.0053 0.25296,0.06622 -0.0163,0.118003 -0.5984,0.115067 -0.58208,-0.0029 -0.78905,-0.05712 -0.45993,-0.120406 z M 95.880245,58.18282 v -3.439583 h 25.796875 25.79687 v 3.439583 3.439583 H 121.67712 95.880245 Z"
         id="path637" /><path
         style="display:inline;fill:#302d3e;stroke-width:0.264583"
         d="m 57.40227,186.08996 c -0.375099,-0.3751 -0.415773,-5.40426 -0.415773,-51.40854 0,-39.308266 0.07275,-51.06552 0.3175,-51.310268 0.222474,-0.222475 1.687453,-0.3175 4.894791,-0.3175 h 4.577291 v -3.530867 c 0,-3.084629 0.06115,-3.586209 0.483855,-3.96875 0.430615,-0.389702 1.491565,-0.437882 9.642288,-0.437882 h 9.158433 l 0.41188,0.588038 c 0.320738,0.45792 0.411877,1.337958 0.411877,3.977146 v 3.389108 l 3.108854,-0.07454 3.108854,-0.07454 0.06835,-15.056793 c 0.04805,-10.584291 0.155908,-15.162299 0.363124,-15.411979 0.243216,-0.293056 5.145265,-0.355184 28.024736,-0.355184 24.85627,0 27.77303,0.04309 28.14572,0.415773 0.36507,0.365063 0.41578,1.801114 0.41578,11.773958 0,6.247001 0.0954,11.358184 0.21202,11.358184 0.11662,0 1.21794,-0.295158 2.4474,-0.655907 1.22945,-0.360748 2.47349,-0.661534 2.76453,-0.668413 0.29104,-0.0069 7.29612,1.914565 15.56683,4.269873 14.13693,4.025879 15.05308,4.322966 15.29526,4.959943 0.16153,0.424849 0.21774,7.045512 0.15071,17.75113 -0.0915,14.6139 -0.17088,17.39757 -0.55105,19.32253 -2.20135,11.14645 -8.05398,19.45728 -18.5555,26.34908 -3.01979,1.98179 -11.13019,6.45926 -11.70019,6.45926 -0.17893,0 -1.43948,-0.59531 -2.80124,-1.32292 -1.36175,-0.72761 -2.55531,-1.32292 -2.65235,-1.32292 -0.097,0 -0.17642,1.48828 -0.17642,3.30729 v 3.3073 h 4.87589 c 4.07985,0 4.94377,0.0679 5.29166,0.41577 0.36737,0.36736 0.41578,2.02481 0.41578,14.23458 0,10.39519 -0.0787,13.89747 -0.3175,14.13631 -0.24475,0.24475 -12.0314,0.3175 -51.44256,0.3175 -46.124546,0 -51.165722,-0.0407 -51.54083,-0.41577 z m 20.750892,-9.5061 v -7.27605 H 68.892746 59.63233 v 7.27605 7.27604 h 9.260416 9.260416 z m 8.73125,0 v -7.27605 h -2.880905 -2.880905 l -0.190259,3.4206 c -0.104643,1.88133 -0.103529,5.15554 0.0024,7.27604 l 0.192828,3.85545 H 84.006 86.884431 Z m 8.565768,5.4901 c 0.12309,-1.4386 0.07907,-9.58229 -0.06579,-12.17083 -0.03242,-0.57927 -0.111782,-0.59532 -2.943731,-0.59532 h -2.910416 v 7.27605 7.27604 h 2.883564 2.883564 z m 21.33215,-5.4901 v -7.27605 h -9.26042 -9.260416 v 7.27605 7.27604 h 9.260416 9.26042 z m 15.81274,-1.03591 c 0.0471,-5.49666 0.16617,-8.2955 0.36312,-8.53281 0.40491,-0.48788 18.73916,-0.52189 19.22539,-0.0357 0.23342,0.23342 0.3175,2.5106 0.3175,8.59896 v 8.28146 h 2.77812 2.77812 V 171.95365 160.0474 l -8.40052,2.6e-4 c -4.62028,1.9e-4 -13.31184,0.0791 -19.31458,0.17534 l -10.91406,0.17499 v 11.55452 c 0,6.35499 0.0814,11.63597 0.18098,11.73551 0.0995,0.0995 3.04634,0.14915 6.54844,0.11024 l 6.36745,-0.0707 z m 8.52892,1.03591 v -7.27605 h -2.91041 -2.91042 v 7.27605 7.27604 h 2.91042 2.91041 z m 8.73125,0 v -7.27605 h -3.04271 -3.0427 v 7.27605 7.27604 h 3.0427 3.04271 z m -33.13092,-13.16302 -0.0743,-3.24115 H 88.207328 59.764621 l -0.07429,3.24115 -0.07429,3.24114 h 28.591285 28.591284 z m 0.058,-41.87031 V 85.699485 H 88.207328 59.63233 v 35.851045 35.85104 h 28.574998 28.575002 z m -49.594373,28.11925 c -0.604206,-0.86263 -0.604206,-9.33838 0,-10.20101 0.400209,-0.57138 0.549599,-0.58804 5.272768,-0.58804 4.066213,0 4.928862,0.068 5.276663,0.41578 0.617947,0.61794 0.617947,9.92758 0,10.54553 -0.347801,0.3478 -1.21045,0.41578 -5.276663,0.41578 -4.723169,0 -4.872559,-0.0167 -5.272768,-0.58804 z m 8.319372,-5.10051 v -3.0427 h -3.042708 -3.042708 v 2.86631 c 0,1.57648 0.07937,2.9457 0.176389,3.04271 0.09701,0.097 1.466232,0.17639 3.042708,0.17639 h 2.866319 z m 7.60677,5.40277 c -0.415099,-0.24177 -0.46302,-0.78667 -0.46302,-5.26472 0,-4.18817 0.06716,-5.0622 0.415774,-5.41081 0.583054,-0.58306 9.525372,-0.61793 10.315426,-0.0402 0.476232,0.34823 0.513591,0.7302 0.513591,5.251 0,3.74342 -0.08432,4.97705 -0.363125,5.313 -0.313825,0.37813 -1.014328,0.43644 -5.159375,0.42949 -2.763033,-0.005 -4.992534,-0.12237 -5.259271,-0.27773 z m 8.003646,-5.40277 v -3.0427 h -2.910417 -2.910416 v 3.0427 3.04271 h 2.910416 2.910417 z m 7.555626,5.10051 c -0.333695,-0.47642 -0.411877,-1.44459 -0.411877,-5.10051 0,-3.65591 0.07818,-4.62408 0.411877,-5.1005 0.400209,-0.57138 0.549601,-0.58804 5.272769,-0.58804 4.06621,0 4.92886,0.068 5.27666,0.41578 0.61795,0.61794 0.61795,9.92758 0,10.54553 -0.3478,0.3478 -1.21045,0.41578 -5.27666,0.41578 -4.723168,0 -4.87256,-0.0167 -5.272769,-0.58804 z m 8.319369,-5.10917 v -3.05137 l -2.97656,0.0748 -2.97656,0.0748 -0.0763,2.627 c -0.042,1.44485 -0.0159,2.7843 0.0578,2.97656 0.1,0.26046 0.8781,0.34956 3.05286,0.34956 h 2.91872 z M 67.834413,133.93462 c -0.954154,-0.34101 -1.058334,-0.89686 -1.058334,-5.64678 0,-4.1891 0.04991,-4.71609 0.483855,-5.10881 0.413796,-0.37448 1.197789,-0.43788 5.414649,-0.43788 4.604143,0 4.948939,0.0339 5.204687,0.51177 0.159717,0.29844 0.273892,2.49808 0.273892,5.27666 0,6.02994 0.432145,5.59633 -5.548975,5.56776 -2.405095,-0.0115 -4.551493,-0.0847 -4.769774,-0.16272 z m 7.672916,-5.63722 v -2.91042 h -3.042708 -3.042708 v 2.91042 2.91042 h 3.042708 3.042708 z m 7.739062,5.42568 c -0.580943,-0.41826 -0.595312,-0.54831 -0.595312,-5.38777 0,-3.50435 0.09314,-5.0523 0.3175,-5.27666 0.224279,-0.22428 1.768448,-0.3175 5.25927,-0.3175 4.275897,0 4.990698,0.059 5.304896,0.43792 0.510016,0.61507 0.527367,9.95512 0.01945,10.46313 -0.249185,0.24922 -1.631508,0.36653 -5.027083,0.42661 -3.985337,0.0705 -4.772126,0.019 -5.278707,-0.34573 z m 7.871354,-5.4427 v -2.8934 h -2.910417 -2.910416 v 2.86632 c 0,1.57648 0.04911,2.91593 0.109143,2.97656 0.06003,0.0606 1.369719,0.0728 2.910417,0.0271 l 2.801273,-0.0832 z m 8.202083,5.65424 c -0.954154,-0.34101 -1.058334,-0.89686 -1.058334,-5.64678 0,-4.1891 0.04991,-4.71609 0.483855,-5.10881 0.413472,-0.37418 1.194757,-0.43788 5.371041,-0.43788 3.44837,0 4.98066,0.0935 5.20469,0.3175 0.22436,0.22436 0.3175,1.77231 0.3175,5.27666 0,6.25577 0.44789,5.79068 -5.54898,5.76203 -2.40509,-0.0115 -4.551491,-0.0847 -4.769772,-0.16272 z m 7.672912,-5.63722 v -2.91042 h -3.0427 -3.04271 v 2.91042 2.91042 h 3.04271 3.0427 z M 67.191853,117.29829 c -0.583056,-0.58305 -0.617928,-9.52537 -0.04023,-10.31542 0.348228,-0.47623 0.730202,-0.51359 5.251001,-0.51359 3.743424,0 4.977048,0.0843 5.312995,0.36312 0.37842,0.31406 0.43754,1.03086 0.43754,5.3049 0,3.49082 -0.09322,5.03499 -0.3175,5.25927 -0.224341,0.22434 -1.771448,0.3175 -5.272767,0.3175 -4.152011,0 -5.022666,-0.0674 -5.371042,-0.41578 z m 8.315476,-5.14047 v -2.91042 h -3.042708 -3.042708 v 2.91042 2.91041 h 3.042708 3.042708 z m 7.46125,5.23875 c -0.224399,-0.2244 -0.3175,-1.7743 -0.3175,-5.28557 0,-6.30574 -0.481291,-5.84033 5.920522,-5.72516 3.35938,0.0604 4.732335,0.17824 4.980993,0.42739 0.507548,0.50856 0.489826,9.84917 -0.01984,10.4633 -0.31406,0.37842 -1.030864,0.43754 -5.304895,0.43754 -3.490823,0 -5.034992,-0.0932 -5.259271,-0.3175 z m 8.149166,-5.23875 v -2.91042 h -2.910417 -2.910416 v 2.91042 2.91041 h 2.910416 2.910417 z m 7.417641,5.04447 c -0.444863,-0.83123 -0.357727,-9.59118 0.101655,-10.21942 0.348229,-0.47623 0.730203,-0.51359 5.250999,-0.51359 3.74343,0 4.97705,0.0843 5.313,0.36312 0.37842,0.31406 0.43754,1.03086 0.43754,5.3049 0,3.49082 -0.0932,5.03499 -0.3175,5.25927 -0.22497,0.22497 -1.80298,0.3175 -5.41465,0.3175 -4.768614,0 -5.114806,-0.033 -5.371044,-0.51178 z m 8.457354,-5.04447 v -2.91042 h -3.0427 -3.04271 v 2.91042 2.91041 h 3.04271 3.0427 z M 67.187957,100.98645 c -0.604206,-0.86263 -0.604206,-9.338386 0,-10.201009 0.400209,-0.571378 0.549599,-0.588039 5.272768,-0.588039 4.066213,0 4.928862,0.06797 5.276663,0.415774 0.617947,0.617948 0.617947,9.927584 0,10.545534 -0.347801,0.3478 -1.21045,0.41577 -5.276663,0.41577 -4.723169,0 -4.872559,-0.0167 -5.272768,-0.58803 z m 8.319372,-5.109172 v -3.051373 l -2.976562,0.07481 -2.976563,0.07481 -0.07481,2.976562 -0.07481,2.976562 h 3.051373 3.051374 z m 7.60677,5.411432 c -0.415099,-0.24177 -0.46302,-0.78667 -0.46302,-5.264723 0,-4.188166 0.06716,-5.062199 0.415774,-5.410811 0.583054,-0.583057 9.525372,-0.617929 10.315426,-0.04023 0.476634,0.348522 0.513591,0.730826 0.513591,5.312994 0,4.58217 -0.03696,4.96448 -0.513591,5.313 -0.398489,0.29138 -1.554758,0.37374 -5.159375,0.3675 -2.660779,-0.005 -4.843618,-0.12328 -5.108805,-0.27773 z m 8.003646,-5.402767 v -3.042708 h -2.910417 -2.910416 v 3.042708 3.042708 h 2.910416 2.910417 z m 7.555626,5.100507 c -0.333695,-0.47642 -0.411877,-1.444592 -0.411877,-5.100507 0,-3.655914 0.07818,-4.624085 0.411877,-5.100502 0.400209,-0.571378 0.549601,-0.588039 5.272769,-0.588039 4.06621,0 4.92886,0.06797 5.27666,0.415774 0.61795,0.617948 0.61795,9.927584 0,10.545534 -0.3478,0.3478 -1.21045,0.41577 -5.27666,0.41577 -4.723168,0 -4.87256,-0.0167 -5.272769,-0.58803 z m 8.319369,-5.109172 v -3.051373 l -2.97656,0.07481 -2.97656,0.07481 -0.0763,2.627 c -0.042,1.44485 -0.0159,2.784303 0.0578,2.976562 0.1,0.260461 0.8781,0.349562 3.05286,0.349562 h 2.91872 z m 40.48125,57.459472 v -4.06482 l -2.11666,-1.34726 -2.11667,-1.34725 v 1.70791 c 0,2.74002 -0.0552,2.76624 -5.82083,2.76624 -4.40973,0 -4.8017,-0.0392 -5.29167,-0.52917 -0.48997,-0.48997 -0.52917,-0.88194 -0.52917,-5.29167 0,-4.40972 0.0392,-4.8017 0.52917,-5.29166 0.33227,-0.33228 0.88194,-0.52917 1.47728,-0.52917 h 0.9481 l -0.48508,-0.62304 c -2.82355,-3.62654 -3.77132,-5.03655 -5.12006,-7.61718 l -1.5703,-3.00457 -0.006,2.12989 c -0.004,1.29585 -0.13056,2.25423 -0.32373,2.4474 -0.21511,0.21511 -1.45227,0.3175 -3.83646,0.3175 h -3.51895 v 3.175 3.175 h 3.3526 c 4.60116,0 4.32031,-0.3754 4.32031,5.77486 0,4.18737 -0.0636,4.96939 -0.43788,5.38295 -0.38092,0.42091 -0.87999,0.48386 -3.83646,0.48386 h -3.39858 v 3.175 3.175 h 13.89063 13.89062 z m 6.42951,-8.85187 c -0.26201,-0.19194 -1.74082,-1.0917 -3.28624,-1.99947 -11.06603,-6.50011 -16.28064,-13.36709 -18.08357,-23.81381 -0.32708,-1.89519 -0.40553,-4.87444 -0.40553,-15.40009 V 90.221183 l -2.10105,-1.599391 c -1.15557,-0.879665 -2.24517,-1.59939 -2.42133,-1.59939 -0.41174,0 -0.14217,28.742458 0.29779,31.749998 1.82161,12.45261 8.919,21.41218 23.1423,29.21427 l 3.175,1.74162 0.0795,-2.44722 c 0.0685,-2.10816 0.0135,-2.49556 -0.39688,-2.79619 z m 12.09132,0.0778 c 11.14187,-7.4189 16.65955,-16.11768 17.72658,-27.94648 0.18448,-2.04512 0.26447,-8.23493 0.21378,-16.54395 l -0.081,-13.276228 -2.31511,1.729084 -2.3151,1.729084 v 13.02188 c 0,14.33458 -0.11928,15.83073 -1.62562,20.39116 -2.60596,7.88949 -8.21542,14.10077 -17.46279,19.33633 l -3.13659,1.77584 v 2.49755 2.49756 l 2.84427,-1.50482 c 1.56435,-0.82765 4.33255,-2.49581 6.15156,-3.70701 z m -41.27499,0.66809 v -2.91041 h -2.64584 -2.64583 v 2.91041 2.91042 h 2.64583 2.64584 z m 15.61041,1.08297 v -1.82744 l -1.29349,-1.08297 c -1.20433,-1.00833 -1.40493,-1.08297 -2.91041,-1.08297 h -1.61693 v 2.91041 2.91042 h 2.91042 2.91041 z m 18.11024,-5.61588 c 9.66267,-5.47857 14.99191,-11.65627 17.08816,-19.80875 0.87684,-3.41013 1.04511,-6.38785 1.04735,-18.53436 l 0.002,-11.787484 -10.44265,-3.003222 -10.44264,-3.003224 -10.47806,2.99371 -10.47807,2.99371 0.0995,13.78137 0.0995,13.78137 0.69464,2.568 c 2.30306,8.51421 7.52883,14.52076 17.53208,20.15157 1.16417,0.6553 2.28909,1.19906 2.49982,1.20834 0.21074,0.009 1.46089,-0.59418 2.77813,-1.34103 z m -8.56031,-18.24342 c -0.49562,-0.30215 -3.01035,-2.20295 -5.5883,-4.22401 -5.00237,-3.92176 -5.54913,-4.57223 -5.54913,-6.60174 0,-2.91546 2.75938,-5.04004 5.48523,-4.22335 0.56506,0.16929 2.38977,1.36678 4.05493,2.66108 1.66515,1.29429 3.10888,2.32412 3.20828,2.2885 0.0994,-0.0356 3.23012,-3.60763 6.95716,-7.93779 3.72703,-4.33015 7.07552,-8.068983 7.44108,-8.308508 1.93529,-1.268055 4.97473,-0.397039 6.11072,1.751158 0.722,1.365313 0.76098,2.42561 0.13931,3.78876 -0.69784,1.53015 -17.09663,20.42703 -18.16775,20.93531 -1.24508,0.59083 -3.00123,0.53528 -4.09153,-0.12941 z m 11.38428,-12.0201 c 6.06961,-7.06299 8.32388,-9.86455 8.38268,-10.41786 0.10749,-1.011343 -0.57645,-1.668237 -1.62952,-1.565097 -0.7153,0.07006 -1.76511,1.172816 -8.13671,8.547097 -6.13318,7.09836 -7.43824,8.478 -8.07524,8.53676 -0.6153,0.0568 -1.42787,-0.45603 -4.27284,-2.69647 -1.93217,-1.52161 -3.75371,-2.84295 -4.04785,-2.93631 -0.8906,-0.28266 -1.83181,0.53206 -1.83181,1.58564 0,0.86037 0.24528,1.09764 4.91686,4.7564 3.65367,2.86152 5.10638,3.85086 5.65452,3.85086 0.6421,0 1.81312,-1.25148 9.03991,-9.66102 z m -36.54462,16.93706 v -3.04271 h -2.64584 -2.64583 v 2.86632 c 0,1.57648 0.0794,2.94569 0.17639,3.04271 0.097,0.097 1.28764,0.17639 2.64583,0.17639 h 2.46945 z m 0.79375,-5.90453 c 0,-0.1188 -0.11053,-0.86294 -0.24562,-1.65365 -0.13509,-0.79071 -0.32225,-2.12226 -0.41592,-2.95901 l -0.17029,-1.52135 h -2.4945 -2.49451 v 3.03278 3.03278 l 2.4474,0.0873 c 1.34607,0.048 2.65575,0.11202 2.91042,0.14223 0.25466,0.0302 0.46302,-0.0423 0.46302,-0.16108 z m -0.79375,-11.95485 v -2.91041 h -2.64584 -2.64583 v 2.91041 2.91042 h 2.64583 2.64584 z m 0,-8.99583 v -3.174999 h -2.51355 -2.51354 v 3.174999 3.175 h 2.51354 2.51355 z m 0,-8.995832 v -2.910416 h -2.64584 -2.64583 v 2.910416 2.910417 h 2.64583 2.64584 z m 19.57916,-6.575575 9.92188,-2.865535 0.0764,-2.290903 c 0.0601,-1.800822 -0.001,-2.290903 -0.28612,-2.290903 -0.25761,0 -21.27589,5.944449 -24.65758,6.973729 -0.37522,0.114205 4.05638,3.3456 4.5834,3.342084 0.24206,-0.0016 4.90495,-1.292426 10.36198,-2.868472 z m 35.7858,1.232866 c 2.00334,-1.525008 2.10767,-1.651389 1.50574,-1.823906 -0.35571,-0.101946 -5.8727,-1.686319 -12.25997,-3.520828 -6.38727,-1.83451 -11.77948,-3.335473 -11.98269,-3.335473 -0.29366,0 -0.35379,0.469574 -0.29303,2.288368 l 0.0764,2.288366 9.78959,2.845598 c 5.38427,1.56508 10.0645,2.857032 10.40051,2.871007 0.36785,0.01529 1.46738,-0.626544 2.76341,-1.613132 z m -55.36496,-1.653747 c 0,-0.886399 0.13384,-1.269367 0.54404,-1.556681 0.29922,-0.209584 3.00638,-1.07954 6.01591,-1.933234 l 5.47187,-1.55217 -2.11331,-0.07119 c -3.06556,-0.103265 -3.03935,-0.05393 -3.03935,-5.720085 0,-3.682668 0.0779,-4.653283 0.41188,-5.130063 0.4009,-0.572367 0.54505,-0.588038 5.40896,-0.588038 6.27745,0 5.82083,-0.419725 5.82083,5.350538 0,2.295954 0.0698,4.174461 0.15513,4.174461 0.0853,0 1.03782,-0.256476 2.11667,-0.569948 l 1.96153,-0.569949 V 70.445163 64.53282 H 121.67712 95.880245 v 9.128124 9.128125 h 11.326515 c 8.80852,0 11.42988,0.07559 11.79151,0.340013 0.25701,0.187936 0.53189,0.838798 0.61457,1.455208 l 0.14958,1.115195 h 2.4787 2.47871 z m -24.19048,-5.590151 c -0.34764,-0.347638 -0.41577,-1.208086 -0.41577,-5.250658 0,-4.34794 0.0487,-4.878987 0.48385,-5.272768 0.41376,-0.374443 1.19739,-0.437882 5.40896,-0.437882 4.78952,0 4.93643,0.01619 5.33698,0.588038 0.33369,0.476417 0.41187,1.444589 0.41187,5.100503 0,3.655914 -0.0782,4.624086 -0.41187,5.100503 -0.40089,0.572338 -0.54519,0.588039 -5.40506,0.588039 -4.18648,0 -5.06036,-0.06717 -5.40896,-0.415775 z m 8.31548,-5.272767 v -3.042708 h -2.87357 -2.87356 l -0.16684,1.389062 c -0.21963,1.828449 -0.21693,4.298101 0.005,4.519965 0.097,0.09701 1.46623,0.176389 3.04271,0.176389 h 2.86632 z m 7.46125,5.371042 c -0.44799,-0.447985 -0.44799,-10.294098 0,-10.742083 0.44798,-0.447985 10.2941,-0.447985 10.74208,0 0.44798,0.447985 0.44798,10.294098 0,10.742083 -0.44798,0.447984 -10.2941,0.447984 -10.74208,0 z m 8.41375,-5.371042 v -3.042708 h -3.04271 -3.04271 v 3.042708 3.042708 h 3.04271 3.04271 z m -40.537468,6.680729 -0.07608,-2.447396 -7.342187,-0.07033 -7.342187,-0.07033 v 2.517727 2.517727 h 7.418261 7.418261 z m 56.147878,-6.680729 v -3.042708 h -2.91041 -2.91042 v 3.042708 3.042708 h 2.91042 2.91041 z M 147.47399,58.18282 V 54.743237 H 121.67712 95.880245 v 3.439583 3.439583 h 25.796875 25.79687 z"
         id="path635" /></g></g></svg>
