<?xml version="1.0" encoding="UTF-8" standalone="no"?>
<!-- Created with Inkscape (http://www.inkscape.org/) -->

<svg
   width="135.46666mm"
   height="135.46666mm"
   viewBox="0 0 135.46666 135.46666"
   version="1.1"
   id="svg334"
   xml:space="preserve"
   inkscape:version="1.2.2 (732a01da63, 2022-12-09)"
   sodipodi:docname="office_building.svg"
   xmlns:inkscape="http://www.inkscape.org/namespaces/inkscape"
   xmlns:sodipodi="http://sodipodi.sourceforge.net/DTD/sodipodi-0.dtd"
   xmlns="http://www.w3.org/2000/svg"
   xmlns:svg="http://www.w3.org/2000/svg"><sodipodi:namedview
     id="namedview336"
     pagecolor="#ffffff"
     bordercolor="#000000"
     borderopacity="0.25"
     inkscape:showpageshadow="2"
     inkscape:pageopacity="0.0"
     inkscape:pagecheckerboard="0"
     inkscape:deskcolor="#d1d1d1"
     inkscape:document-units="mm"
     showgrid="false"
     inkscape:zoom="0.73851712"
     inkscape:cx="230.86804"
     inkscape:cy="338.51619"
     inkscape:window-width="1920"
     inkscape:window-height="1009"
     inkscape:window-x="-8"
     inkscape:window-y="-8"
     inkscape:window-maximized="1"
     inkscape:current-layer="layer1" /><defs
     id="defs331" /><g
     inkscape:label="Calque 1"
     inkscape:groupmode="layer"
     id="layer1"
     transform="translate(-31.147249,-59.091763)"><g
       id="g467"><path
         style="display:inline;fill:#e9e9fe;stroke-width:0.264583"
         d="m 141.54967,184.58549 c 0.25744,-0.0671 0.61462,-0.0627 0.79375,0.01 0.17914,0.0725 -0.0315,0.12737 -0.46805,0.12197 -0.43656,-0.005 -0.58313,-0.0647 -0.3257,-0.13177 z m -86.523776,-1.85213 0.727604,-0.11471 V 137.65236 92.686074 l 0.905673,-0.988304 0.905673,-0.9883 33.820889,-0.132292 c 18.601487,-0.07276 36.229927,-0.07276 39.174317,0 l 5.35343,0.132292 0.86428,0.864965 0.86428,0.864965 0.0684,45.08979 0.0684,45.08979 0.72535,0.11455 c 0.39895,0.063 0.20272,0.0705 -0.43605,0.0166 -0.63878,-0.0539 -7.27651,-0.0979 -14.75052,-0.0979 H 109.7285 v -12.5677 c 0,-12.21493 -0.0148,-12.58257 -0.52917,-13.09688 -0.51349,-0.51349 -0.88195,-0.52917 -12.435418,-0.52917 -11.553472,0 -11.921928,0.0157 -12.435416,0.52917 -0.514313,0.51431 -0.529166,0.88195 -0.529166,13.09688 v 12.5677 H 70.210217 c -7.474011,0 -14.111746,0.0441 -14.75052,0.0979 -0.638774,0.0539 -0.833986,0.0463 -0.433803,-0.0168 z m 22.635103,-12.56952 c 0.451223,-0.45122 0.451223,-12.93669 0,-13.38792 -0.228759,-0.22875 -2.038877,-0.3175 -6.476193,-0.3175 h -6.15869 l -0.416981,0.6364 c -0.600122,0.9159 -0.473847,12.74029 0.140198,13.1279 0.612478,0.38661 12.520471,0.33232 12.911666,-0.0589 z m 50.963563,0.1569 c 0.366,-0.14044 0.41852,-0.98046 0.41852,-6.69396 0,-4.72872 -0.0877,-6.62105 -0.3175,-6.85086 -0.45069,-0.45068 -12.40806,-0.45068 -12.85875,0 -0.46493,0.46493 -0.45234,13.34233 0.0132,13.53019 0.47706,0.1925 12.24578,0.20601 12.7445,0.0146 z m 0.003,-22.48017 c 0.63452,-0.63452 0.61524,-9.7732 -0.0221,-10.47746 -0.41952,-0.46357 -1.75419,-0.48385 -31.841278,-0.48385 H 65.360513 l -0.504029,0.55694 c -0.4563,0.50421 -0.504028,1.00732 -0.504028,5.313 0,4.4026 0.03817,4.78396 0.51359,5.1316 0.436735,0.31934 5.214848,0.37554 31.929537,0.37554 28.207177,0 31.458417,-0.0425 31.831717,-0.41577 z m 0,-18.52083 c 0.63452,-0.63452 0.61524,-9.7732 -0.0221,-10.47746 -0.41952,-0.46357 -1.75419,-0.48385 -31.841278,-0.48385 H 65.360513 l -0.504029,0.55694 c -0.4563,0.50421 -0.504028,1.00731 -0.504028,5.313 0,4.4026 0.03817,4.78396 0.51359,5.13159 0.436735,0.31935 5.214848,0.37555 31.929537,0.37555 28.207177,0 31.458417,-0.0425 31.831717,-0.41577 z m 0,-18.52084 c 0.63452,-0.63452 0.61524,-9.77319 -0.0221,-10.47745 -0.41952,-0.463575 -1.75419,-0.483856 -31.841278,-0.483856 H 65.360513 l -0.504029,0.556946 c -0.4563,0.50421 -0.504028,1.00731 -0.504028,5.31299 0,4.40261 0.03817,4.78396 0.51359,5.1316 0.436735,0.31935 5.214848,0.37555 31.929537,0.37555 28.207177,0 31.458417,-0.0425 31.831717,-0.41578 z M 67.924331,85.475451 c 0,-3.601618 0.320024,-4.671444 1.637723,-5.474823 0.862891,-0.52609 1.263613,-0.533986 27.148852,-0.53496 28.663914,-0.0011 27.185274,-0.07993 28.255574,1.506841 0.41152,0.610105 0.51633,1.349207 0.59282,4.180711 l 0.0929,3.439583 H 96.788278 67.924331 Z"
         id="path481" /><path
         style="display:inline;fill:#d0d0fc;stroke-width:0.264583"
         d="m 62.69881,182.71851 c 3.892682,-0.0412 10.262525,-0.0412 14.155208,0 3.892682,0.0412 0.70776,0.075 -7.077604,0.075 -7.785364,0 -10.970286,-0.0337 -7.077604,-0.075 z m 53.975,0 c 3.89268,-0.0412 10.26252,-0.0412 14.1552,0 3.89269,0.0412 0.70777,0.075 -7.0776,0.075 -7.78536,0 -10.97028,-0.0337 -7.0776,-0.075 z M 64.333615,163.46988 c 1.85e-4,-3.34698 0.0381,-4.67971 0.08426,-2.96163 0.04616,1.71808 0.046,4.45652 -2.65e-4,6.08541 -0.04634,1.6289 -0.08411,0.2232 -0.08392,-3.12378 z m 3.804327,-6.94464 c 1.790975,-0.0458 4.648475,-0.0457 6.35,2.7e-4 1.701524,0.046 0.23618,0.0835 -3.25632,0.0833 -3.4925,-1.8e-4 -4.884655,-0.0378 -3.09368,-0.0837 z m 19.4317,2.7e-4 c 1.564349,-0.0468 4.124193,-0.0468 5.688541,0 1.564349,0.0468 0.284428,0.085 -2.84427,0.085 -3.128698,0 -4.40862,-0.0383 -2.844271,-0.085 z m 12.699998,0 c 1.56435,-0.0468 4.12419,-0.0468 5.68854,0 1.56435,0.0468 0.28443,0.085 -2.84427,0.085 -3.128696,0 -4.408617,-0.0383 -2.84427,-0.085 z m 18.93288,-2.7e-4 c 1.79098,-0.0458 4.64848,-0.0457 6.35,2.7e-4 1.70153,0.046 0.23618,0.0835 -3.25632,0.0833 -3.4925,-1.8e-4 -4.88465,-0.0378 -3.09368,-0.0837 z M 64.327873,142.70009 c 0,-2.40109 0.04011,-3.38336 0.08914,-2.18281 0.04903,1.20055 0.04903,3.16508 0,4.36562 -0.04903,1.20055 -0.08914,0.21829 -0.08914,-2.18281 z m 0,-18.52083 c 0,-2.40109 0.04011,-3.38336 0.08914,-2.18281 0.04903,1.20054 0.04903,3.16508 0,4.36562 -0.04903,1.20055 -0.08914,0.21828 -0.08914,-2.18281 z m 0,-18.52083 c 0,-2.4011 0.04011,-3.38336 0.08914,-2.18282 0.04903,1.20055 0.04903,3.16508 0,4.36563 -0.04903,1.20055 -0.08914,0.21828 -0.08914,-2.18281 z m 7.631353,-5.754489 c 3.747161,-0.0414 9.87888,-0.0414 13.626041,0 3.747161,0.0414 0.681302,0.07528 -6.81302,0.07528 -7.494323,0 -10.560182,-0.03387 -6.813021,-0.07528 z m 29.116264,0.0013 c 1.13443,-0.04972 2.92037,-0.04941 3.96875,7.94e-4 1.04837,0.05009 0.12019,0.09076 -2.06262,0.09039 -2.18281,-2.64e-4 -3.040573,-0.04135 -1.90613,-0.09107 z M 67.974435,89.586145 68.056625,88.59278 h 28.70729 28.707285 v 0.926042 0.926041 l -28.789472,0.06732 -28.789478,0.06732 z"
         id="path479" /><path
         style="display:inline;fill:#8dccf9;stroke-width:0.264583"
         d="m 83.860247,170.44451 c -0.05642,-11.67322 -0.02671,-12.6447 0.402104,-13.14802 0.441187,-0.51785 0.762463,-0.54555 6.81302,-0.58743 10.955589,-0.0758 17.861039,0.007 17.814839,0.21239 -0.0245,0.10914 0.0588,0.67468 0.18502,1.25677 l 0.22956,1.05833 0.18055,-0.79375 c 0.0993,-0.43656 0.19463,4.89148 0.21185,11.8401 l 0.0313,12.63386 h -6.08542 -6.085418 v -13.09688 -13.09687 h -0.79375 -0.79375 v 13.09687 13.09688 h -3.294856 -3.294853 l -0.273921,-0.99219 c -0.150659,-0.5457 -1.317114,-4.61268 -2.592125,-9.03772 l -2.318202,-8.04553 -0.13752,9.10387 -0.13752,9.10386 z m -15.869771,-0.16075 c 1.70987,-0.0461 4.507839,-0.0461 6.217708,0 1.70987,0.0461 0.310886,0.0838 -3.108854,0.0838 -3.419739,0 -4.818723,-0.0377 -3.108854,-0.0838 z m 49.839174,-0.0465 1.61886,-0.15277 -1.90678,-6.54716 c -1.04872,-3.60093 -1.84666,-6.60726 -1.7732,-6.68073 0.0735,-0.0735 1.77165,-0.13357 3.77374,-0.13357 h 3.64017 l 0.4084,1.38906 c 0.22462,0.76398 1.09678,3.79449 1.93813,6.73445 1.4287,4.99235 1.57342,5.35232 2.19119,5.45046 0.3638,0.0578 -2.07698,0.10236 -5.42396,0.0991 -3.34698,-0.003 -5.35693,-0.0748 -4.46655,-0.15879 z m -40.231018,-0.36262 c 0.09936,-0.26094 0.247303,-0.40778 0.328766,-0.32632 0.08146,0.0815 1.69e-4,0.29495 -0.180652,0.47443 -0.261308,0.25936 -0.291698,0.22897 -0.148114,-0.14811 z m 0,-12.80947 c -0.143584,-0.37709 -0.113194,-0.40748 0.148114,-0.14811 0.180821,0.17947 0.262114,0.39296 0.180652,0.47443 -0.08146,0.0815 -0.229407,-0.0654 -0.328766,-0.32632 z m 0.222816,-14.29891 -1.587823,-5.49011 -5.411419,-0.14058 c -2.976279,-0.0773 8.697489,-0.13952 25.941706,-0.13822 17.244218,10e-4 29.001638,0.0373 26.127608,0.08 -2.87404,0.0427 -5.22553,0.1726 -5.22553,0.28863 0,0.11603 0.69367,2.61383 1.54148,5.55066 l 1.54147,5.33968 h -3.79874 c -2.80349,0 -3.82776,-0.0866 -3.90956,-0.33073 -0.0609,-0.1819 -0.78925,-2.68221 -1.61844,-5.55625 l -1.50762,-5.22552 h -3.40033 c -1.87019,0 -3.40034,0.0671 -3.40034,0.14907 0,0.11969 1.96743,7.01022 2.9226,10.23583 l 0.21546,0.7276 H 92.830622 79.409273 Z M 64.484747,137.8377 c 0,-0.0549 0.20836,-0.2633 0.463021,-0.46302 0.419645,-0.32911 0.429004,-0.31975 0.0999,0.0999 -0.345643,0.44073 -0.562917,0.58089 -0.562917,0.36313 z m 9.274045,-9.09438 c -0.149241,-0.5457 -0.850082,-3.01625 -1.557424,-5.4901 l -1.286074,-4.49792 -2.752251,-0.14664 c -1.513739,-0.0807 11.29712,-0.14203 28.468578,-0.13639 17.171459,0.006 27.699939,0.0436 23.396619,0.0844 l -7.82421,0.0741 1.54036,5.33582 c 0.84719,2.9347 1.54035,5.43655 1.54035,5.55965 0,0.12311 -1.69664,0.19079 -3.77031,0.15042 l -3.77031,-0.0734 -1.57583,-5.49011 -1.57582,-5.4901 h -3.38511 c -1.923233,0 -3.385114,0.10683 -3.385114,0.24736 0,0.13605 0.654843,2.50388 1.455208,5.26184 0.800366,2.75796 1.455206,5.14696 1.455206,5.30889 0,0.21227 -3.724968,0.29441 -13.351258,0.29441 H 74.030144 Z m -9.274045,-9.42646 c 0,-0.0549 0.20836,-0.2633 0.463021,-0.46302 0.419645,-0.3291 0.429004,-0.31975 0.0999,0.0999 -0.345643,0.44073 -0.562917,0.58089 -0.562917,0.36312 z m 3.733202,-9.88812 c -0.287395,-0.98227 -1.007369,-3.44233 -1.599943,-5.46681 -0.592574,-2.02449 -1.047083,-3.7095 -1.01002,-3.74449 0.03706,-0.035 14.057229,-0.11014 31.155926,-0.16702 17.098698,-0.05687 26.370298,-0.0387 20.603568,0.0403 l -10.48498,0.14373 1.54925,5.29167 c 0.85208,2.91041 1.55196,5.38096 1.55528,5.4901 0.003,0.10914 -1.69451,0.19844 -3.77298,0.19844 h -3.77902 l -1.5822,-5.49011 -1.582192,-5.4901 -3.474889,-0.0736 -3.474889,-0.0736 1.558158,5.3653 c 0.856988,2.95092 1.559017,5.4546 1.560068,5.56374 0.0011,0.10914 -6.005703,0.19844 -13.348343,0.19844 H 68.740488 Z m -3.733202,-8.63271 c 0,-0.0549 0.20836,-0.2633 0.463021,-0.46302 0.419645,-0.32911 0.429004,-0.31975 0.0999,0.0999 -0.345643,0.44073 -0.562917,0.58088 -0.562917,0.36312 z"
         id="path477" /><path
         style="display:inline;fill:#6ec0f7;stroke-width:0.264583"
         d="m 84.063913,173.87683 c 0,-4.97196 0.04461,-8.99032 0.09914,-8.92969 0.05453,0.0606 1.192379,3.92024 2.528559,8.57691 1.336181,4.65667 2.490214,8.67502 2.564522,8.92969 0.122333,0.41925 -0.11666,0.46302 -2.528559,0.46302 h -2.663664 z m 11.906249,-4.05695 v -13.09687 h 0.79375 0.79375 v 13.09687 13.09688 h -0.79375 -0.79375 z m -31.324815,-0.0216 c -0.321175,-0.83696 -0.178694,-12.42214 0.1569,-12.75773 0.228748,-0.22875 2.038162,-0.3175 6.472984,-0.3175 5.814954,0 6.170633,0.0283 6.429374,0.51177 0.3667,0.68518 0.3667,11.78502 0,12.4702 -0.25904,0.48403 -0.616198,0.51178 -6.586275,0.51178 -5.511993,0 -6.332749,-0.0531 -6.472983,-0.41852 z m 51.032763,-0.17679 c -0.0802,-0.32743 -0.11228,-3.27422 -0.0712,-6.54844 l 0.0747,-5.95313 1.41889,4.89479 c 0.78038,2.69214 1.63518,5.63894 1.89955,6.54844 l 0.48067,1.65365 h -1.82837 c -1.67647,0 -1.84049,-0.0495 -1.97425,-0.59531 z m 9.55158,-5.82349 c -1.00596,-3.52742 -1.8819,-6.56232 -1.94654,-6.74422 -0.16224,-0.45657 4.98657,-0.46909 5.44243,-0.0132 0.33559,0.33559 0.47807,11.92077 0.1569,12.75773 -0.0997,0.25972 -0.47612,0.41751 -0.99219,0.41587 l -0.83159,-0.003 -1.82901,-6.41349 z m -16.19204,-5.68914 c -0.16168,-0.61667 -0.18771,-1.12123 -0.0578,-1.12123 0.34681,0 0.53554,0.64496 0.43769,1.49576 -0.0783,0.68098 -0.11176,0.64801 -0.37985,-0.37453 z M 65.013914,147.72718 c -0.48849,-0.48849 -0.529167,-0.88195 -0.529167,-5.11837 0,-4.13106 0.04892,-4.63348 0.490046,-5.03269 0.430548,-0.38964 1.143198,-0.43477 5.869611,-0.37174 l 5.379564,0.0718 1.395336,4.7625 c 0.767434,2.61938 1.469318,5.08993 1.559745,5.49011 l 0.164409,0.7276 h -6.900187 c -6.547413,0 -6.927244,-0.0271 -7.429357,-0.52916 z m 41.140276,0.19843 c -0.23028,-0.64484 -3.04028,-10.46011 -3.04028,-10.61965 0,-0.0892 1.52961,-0.16212 3.39912,-0.16212 h 3.39912 l 1.10024,3.77031 c 0.60513,2.07368 1.32932,4.57399 1.60929,5.55625 l 0.50905,1.78594 h -3.42921 c -2.50399,0 -3.46108,-0.0892 -3.54733,-0.33073 z m 14.60133,0.1419 c -0.16386,-0.26513 -3.08953,-10.41638 -3.08953,-10.7198 0,-0.11213 2.3745,-0.20387 5.27667,-0.20387 5.15282,0 5.28633,0.0138 5.68854,0.58804 0.57526,0.82129 0.60617,9.09887 0.0369,9.87858 -0.33447,0.4581 -0.77457,0.52285 -4.07337,0.59925 -2.03411,0.0471 -3.76175,-0.0169 -3.83921,-0.1422 z M 65.013914,129.20634 c -0.48849,-0.48849 -0.529167,-0.88194 -0.529167,-5.11836 0,-5.742 -0.154842,-5.51613 3.707741,-5.40846 l 2.718729,0.0758 1.402741,4.89479 c 0.771509,2.69214 1.470949,5.16269 1.554308,5.49011 l 0.151562,0.59531 h -4.238374 c -3.885596,0 -4.282419,-0.044 -4.76754,-0.52917 z m 34.326238,-4.83066 c -0.838639,-2.94569 -1.523248,-5.44509 -1.521354,-5.55423 0.0019,-0.10914 1.525924,-0.19844 3.386732,-0.19844 h 3.38328 l 1.59485,5.55625 1.59485,5.55625 -3.45678,-0.002 -3.45678,-0.002 -1.524798,-5.3558 z m 14.466008,-0.18365 -1.59851,-5.56902 h 8.00583 c 7.97307,0 8.00753,0.002 8.41772,0.58804 0.57541,0.82152 0.60617,9.09902 0.0367,9.87858 -0.3507,0.48008 -0.79564,0.51874 -6.8192,0.5925 l -6.44402,0.0789 z M 65.013914,110.68551 c -0.48849,-0.48849 -0.529167,-0.88194 -0.529167,-5.11837 0,-4.25318 0.03875,-4.62426 0.529167,-5.06809 0.291042,-0.26339 0.529167,-0.42638 0.529167,-0.36222 0,0.10326 2.694445,9.43397 3.065261,10.61483 0.127516,0.40607 -0.05205,0.46302 -1.459931,0.46302 -1.252553,0 -1.721617,-0.11629 -2.134497,-0.52917 z m 28.918018,-5.03455 -1.60637,-5.56373 3.466486,0.0736 3.466488,0.0736 1.390774,4.7625 c 0.76493,2.61937 1.46325,5.08992 1.55184,5.4901 l 0.16106,0.72761 h -3.411953 -3.411953 z m 14.552048,0.0834 -1.59768,-5.49985 10.61537,-0.0721 c 10.55805,-0.0717 10.61787,-0.0691 11.07839,0.49233 0.39995,0.48757 0.46302,1.16625 0.46302,4.98249 0,3.39657 -0.0868,4.53678 -0.37532,4.93162 -0.35698,0.48852 -0.8199,0.5173 -9.4807,0.58948 l -9.1054,0.0759 z"
         id="path475" /><path
         style="display:inline;fill:#95dd9a;stroke-width:0.264583"
         d="m 35.177383,189.79592 c 0,-0.50932 0.05445,-0.71768 0.121,-0.46302 0.06655,0.25466 0.06655,0.67138 0,0.92604 -0.06655,0.25467 -0.121,0.0463 -0.121,-0.46302 z m 127.264577,0 c 0,-0.50932 0.0545,-0.71768 0.121,-0.46302 0.0666,0.25466 0.0666,0.67138 0,0.92604 -0.0666,0.25467 -0.121,0.0463 -0.121,-0.46302 z M 38.56408,187.5572 c -0.788013,-0.94949 1.304907,-3.84669 2.778833,-3.84669 0.535399,0 0.652075,0.13035 0.651263,0.7276 -0.0013,0.98942 -0.870614,2.34133 -1.914822,2.97799 -1.03272,0.62966 -1.104279,0.63632 -1.515274,0.1411 z m 119.11772,-0.1411 c -1.0442,-0.63666 -1.91347,-1.98857 -1.91482,-2.97799 -7.9e-4,-0.59725 0.11587,-0.7276 0.65126,-0.7276 1.47393,0 3.56685,2.8972 2.77884,3.84669 -0.411,0.49522 -0.48256,0.48856 -1.51528,-0.1411 z m -13.29289,-1.95749 c 0,-0.0572 0.18478,-0.17489 0.41062,-0.26156 0.23546,-0.0904 0.34166,-0.046 0.24897,0.10399 -0.15538,0.25141 -0.65959,0.37185 -0.65959,0.15757 z m -92.748903,-1.54967 -1.045884,-1.12447 1.124479,1.04588 c 1.045755,0.97266 1.246062,1.20307 1.045884,1.20307 -0.04323,0 -0.549243,-0.50601 -1.124479,-1.12448 z m 94.336403,-0.0661 c 0.49365,-0.50932 0.95709,-0.92604 1.02985,-0.92604 0.0728,0 -0.27161,0.41672 -0.76527,0.92604 -0.49365,0.50932 -0.95708,0.92604 -1.02984,0.92604 -0.0728,0 0.27161,-0.41672 0.76526,-0.92604 z M 37.894124,183.71051 c 0.263389,-0.29104 0.53842,-0.52917 0.611181,-0.52917 0.07276,0 -0.08321,0.23813 -0.346598,0.52917 -0.263389,0.29104 -0.53842,0.52916 -0.611181,0.52916 -0.07276,0 0.08321,-0.23812 0.346598,-0.52916 z m 121.683186,-0.0661 -0.50403,-0.59531 0.59532,0.50403 c 0.32742,0.27721 0.59531,0.5451 0.59531,0.59531 0,0.21173 -0.21293,0.0554 -0.6866,-0.50403 z M 44.313354,180.87754 c 0.329119,-0.0633 0.805369,-0.0609 1.058333,0.005 0.252965,0.0662 -0.01631,0.118 -0.598397,0.11507 -0.582083,-0.003 -0.789054,-0.0571 -0.459936,-0.12041 z m 108.214576,0 c 0.32912,-0.0633 0.80537,-0.0609 1.05834,0.005 0.25296,0.0662 -0.0163,0.118 -0.5984,0.11507 -0.58209,-0.003 -0.78906,-0.0571 -0.45994,-0.12041 z"
         id="path473" /><path
         style="display:inline;fill:#79d480;stroke-width:0.264583"
         d="m 35.431438,189.18625 c 0.238781,-2.87938 2.289683,-5.69576 5.184578,-7.11967 1.625047,-0.7993 1.971546,-0.86939 4.285551,-0.86683 3.106754,0.003 4.355224,0.50569 6.61509,2.66124 1.511945,1.44215 1.599561,1.4858 2.413189,1.20217 3.03241,-1.05711 6.618412,0.74728 7.520215,3.78398 0.213868,0.72018 0.388853,1.40686 0.388853,1.52597 0,0.11911 -5.967868,0.21656 -13.261929,0.21656 h -13.26193 z m 4.647916,-1.77015 c 1.044208,-0.63666 1.913477,-1.98857 1.914822,-2.97799 8.2e-4,-0.59725 -0.115864,-0.7276 -0.651263,-0.7276 -1.473926,0 -3.566846,2.8972 -2.778833,3.84669 0.410995,0.49522 0.482554,0.48856 1.515274,-0.1411 z m 95.842886,2.95701 c 0,-1.00058 0.92165,-2.97563 1.77792,-3.81003 1.76093,-1.71594 3.79025,-2.19111 5.99766,-1.40438 l 1.0287,0.36664 1.30225,-1.42488 c 0.77044,-0.84298 1.91708,-1.7268 2.80776,-2.16419 1.32787,-0.65207 1.80256,-0.7393 4.02306,-0.7393 2.3111,0 2.66255,0.0713 4.28555,0.86961 2.8949,1.42391 4.9458,4.24029 5.18458,7.11967 l 0.11638,1.40342 h -13.26193 c -7.29406,0 -13.26193,-0.0975 -13.26193,-0.21656 z m 23.27484,-2.81591 c 0.78801,-0.94949 -1.30491,-3.84669 -2.77884,-3.84669 -0.53539,0 -0.65207,0.13035 -0.65126,0.7276 0.001,0.98942 0.87062,2.34133 1.91482,2.97799 1.03272,0.62966 1.10428,0.63632 1.51528,0.1411 z"
         id="path471" /><path
         style="display:inline;fill:#4e5c98;stroke-width:0.264583"
         d="m 61.563128,189.22006 c -0.409493,-1.70695 -1.937795,-3.44863 -3.5747,-4.07377 -1.144651,-0.43714 -3.092927,-0.42505 -4.550034,0.0282 -0.525044,0.16333 -0.595313,0.0927 -0.595313,-0.59841 0,-0.43098 0.217735,-0.98065 0.483855,-1.22148 0.446053,-0.40368 3.843133,-0.43788 43.482948,-0.43788 41.320806,0 43.016186,0.0189 43.436976,0.48385 0.71521,0.7903 0.5232,1.3056 -0.6866,1.84263 -1.59914,0.70986 -2.96726,2.33038 -3.36414,3.98478 l -0.32666,1.36165 H 98.880579 61.891693 Z M 94.763932,79.122544 c -0.07757,-0.20216 -0.105801,-3.671369 -0.06272,-7.709353 l 0.07833,-7.341789 0.624623,-0.505445 c 0.790503,-0.639672 1.39991,-0.63964 2.190337,1.15e-4 l 0.624623,0.505559 v 7.630378 7.630378 l -1.65707,0.07886 c -1.225949,0.05834 -1.693767,-0.01677 -1.798119,-0.288703 z"
         id="path469" /></g></g></svg>
