<svg xmlns="http://www.w3.org/2000/svg" width="304" height="274" fill="none" viewBox="0 0 304 274">
  <g filter="url(#a)">
    <rect width="160" height="160" x="71.5" y="56" fill="#fff" rx="22"/>
  </g>
  <path fill="#186BFE" fill-rule="evenodd" d="M151.377 159.306 141.696 164l-4.406-9.828-10.43-2.64 2.935-10.368-6.295-8.731 8.898-6.056.782-10.744 10.702 1.094 7.495-7.727 7.495 7.727 10.701-1.094.783 10.744 8.897 6.056-6.295 8.731 2.935 10.368-10.43 2.64-4.406 9.828-9.68-4.694Z" clip-rule="evenodd"/>
  <path fill="#fff" fill-rule="evenodd" d="M148.27 129.379c0 2.648-2.086 4.792-4.663 4.792-2.571 0-4.659-2.144-4.659-4.792 0-2.648 2.088-4.792 4.659-4.792 2.577 0 4.663 2.144 4.663 4.792Zm10.876 20.761c-2.572 0-4.663-2.144-4.663-4.792 0-2.654 2.091-4.792 4.663-4.792 2.576 0 4.659 2.138 4.659 4.792 0 2.648-2.083 4.792-4.659 4.792Zm-1.706-22.304-15.858 16.662 3.732 3.68 15.857-16.66-3.731-3.682Z" clip-rule="evenodd"/>
  <g filter="url(#b)">
    <rect width="60" height="60" x="189" y="166" fill="#fff" rx="22"/>
  </g>
  <path fill="#00B4FE" fill-rule="evenodd" d="m228.334 197.465-1.024 6.28-.004.021c-.146.816-.91 1.358-1.708 1.209l-16.709-3.101a1.485 1.485 0 0 1-1.151-1.064l-2.682-9.585a1.565 1.565 0 0 1-.056-.414c0-.827.657-1.5 1.47-1.5h20.173l.901-3.944a1.738 1.738 0 0 1 1.687-1.367h3.036c.957 0 1.733.794 1.733 1.771 0 .977-.776 1.77-1.733 1.77h-1.659l-2.274 9.924ZM223.662 211a2 2 0 1 1 .001-4.001 2 2 0 0 1-.001 4.001Zm-13 0a2 2 0 1 1 .001-4.001 2 2 0 0 1-.001 4.001Z" clip-rule="evenodd"/>
  <g filter="url(#c)">
    <rect width="80" height="80" x="32" y="106" fill="#fff" rx="22"/>
  </g>
  <path fill="#FE685A" fill-rule="evenodd" d="M77.714 147h13.572c1.498 0 2.714 1.192 2.714 2.667v18.666c0 1.475-1.216 2.667-2.714 2.667H77.714c-1.498 0-2.714-1.192-2.714-2.667v-18.666c0-1.475 1.216-2.667 2.714-2.667Zm-24 0h13.572c1.498 0 2.714 1.192 2.714 2.667v18.666c0 1.475-1.216 2.667-2.714 2.667H53.714c-1.498 0-2.714-1.192-2.714-2.667v-18.666c0-1.475 1.216-2.667 2.714-2.667Zm-3.047-14h42.666A2.666 2.666 0 0 1 96 135.667v2.666A2.666 2.666 0 0 1 93.333 141H50.667A2.666 2.666 0 0 1 48 138.333v-2.666A2.666 2.666 0 0 1 50.667 133Z" clip-rule="evenodd"/>
  <path fill="#FE685A" fill-rule="evenodd" d="M78.113 123.441c1.147-.803 2.702-.479 3.467.725.766 1.204.455 2.827-.695 3.631L72 134l-8.888-6.203c-1.147-.804-1.457-2.427-.692-3.631.765-1.204 2.317-1.528 3.465-.725L72 127.708l6.113-4.267Z" clip-rule="evenodd"/>
  <g filter="url(#d)">
    <rect width="80" height="80" x="192" y="16" fill="#fff" rx="22"/>
  </g>
  <path fill="#47C78F" fill-rule="evenodd" d="M234.828 40.828a3.998 3.998 0 0 1-5.656 0 3.997 3.997 0 0 1 0-5.656 3.998 3.998 0 0 1 5.656 0 3.997 3.997 0 0 1 0 5.656Z" clip-rule="evenodd"/>
  <rect width="47" height="27" x="208" y="54" fill="#47C78F" rx="4"/>
  <path fill="#186BFE" fill-rule="evenodd" d="M216.446 73a9.735 9.735 0 0 1-2.487-.317c-.804-.212-1.457-.494-1.959-.847l.98-2.206a6.321 6.321 0 0 0 1.642.756 6.24 6.24 0 0 0 1.839.287c1.146 0 1.718-.287 1.718-.861 0-.302-.163-.526-.489-.673-.327-.146-.852-.3-1.575-.46a15.037 15.037 0 0 1-1.99-.552 3.346 3.346 0 0 1-1.371-.944c-.382-.434-.573-1.018-.573-1.753 0-.645.176-1.227.527-1.745.352-.519.877-.93 1.575-1.232.699-.302 1.555-.453 2.57-.453.693 0 1.377.078 2.05.234a6.26 6.26 0 0 1 1.778.688l-.919 2.22c-1.005-.543-1.98-.815-2.924-.815-.593 0-1.025.088-1.296.264-.271.177-.407.406-.407.688 0 .282.161.493.482.635.322.14.839.287 1.553.438.803.17 1.469.355 1.997.551a3.45 3.45 0 0 1 1.371.937c.387.428.58 1.01.58 1.745 0 .635-.176 1.209-.527 1.723-.352.513-.879.924-1.583 1.231-.703.307-1.557.461-2.562.461Zm13.941-.212-.829-2.054h-4.461l-.829 2.055h-3.044l4.657-10.578h2.939l4.672 10.578h-3.105Zm-3.059-7.645 1.356 3.385h-2.713l1.357-3.385Zm7.008-2.931h2.984v8.204h5.034v2.373h-8.018V62.21ZM252 72.787v-2.311h-5.516v-1.934h4.687v-2.237h-4.687v-1.783h5.32v-2.311h-8.274v10.576H252Z" clip-rule="evenodd"/>
  <path fill="#fff" fill-rule="evenodd" d="M216.446 73a9.735 9.735 0 0 1-2.487-.317c-.804-.212-1.457-.494-1.959-.847l.98-2.206a6.321 6.321 0 0 0 1.642.756 6.24 6.24 0 0 0 1.839.287c1.146 0 1.718-.287 1.718-.861 0-.302-.163-.526-.489-.673-.327-.146-.852-.3-1.575-.46a15.037 15.037 0 0 1-1.99-.552 3.346 3.346 0 0 1-1.371-.944c-.382-.434-.573-1.018-.573-1.753 0-.645.176-1.227.527-1.745.352-.519.877-.93 1.575-1.232.699-.302 1.555-.453 2.57-.453.693 0 1.377.078 2.05.234a6.26 6.26 0 0 1 1.778.688l-.919 2.22c-1.005-.543-1.98-.815-2.924-.815-.593 0-1.025.088-1.296.264-.271.177-.407.406-.407.688 0 .282.161.493.482.635.322.14.839.287 1.553.438.803.17 1.469.355 1.997.551a3.45 3.45 0 0 1 1.371.937c.387.428.58 1.01.58 1.745 0 .635-.176 1.209-.527 1.723-.352.513-.879.924-1.583 1.231-.703.307-1.557.461-2.562.461Zm13.941-.212-.829-2.054h-4.461l-.829 2.055h-3.044l4.657-10.578h2.939l4.672 10.578h-3.105Zm-3.059-7.645 1.356 3.385h-2.713l1.357-3.385Zm7.008-2.931h2.984v8.204h5.034v2.373h-8.018V62.21ZM252 72.787v-2.311h-5.516v-1.934h4.687v-2.237h-4.687v-1.783h5.32v-2.311h-8.274v10.576H252Z" clip-rule="evenodd"/>
  <path stroke="#47C78F" stroke-linecap="round" stroke-linejoin="round" stroke-width="2" d="m231 39-16 16m20-16 16 16"/>
  <defs>
    <filter id="a" width="224" height="235.183" x="39.5" y="28.817" color-interpolation-filters="sRGB" filterUnits="userSpaceOnUse">
      <feFlood flood-opacity="0" result="BackgroundImageFix"/>
      <feGaussianBlur in="BackgroundImage" stdDeviation="13.591"/>
      <feComposite in2="SourceAlpha" operator="in" result="effect1_backgroundBlur_0_299"/>
      <feColorMatrix in="SourceAlpha" result="hardAlpha" values="0 0 0 0 0 0 0 0 0 0 0 0 0 0 0 0 0 0 127 0"/>
      <feOffset dy="16"/>
      <feGaussianBlur stdDeviation="16"/>
      <feColorMatrix values="0 0 0 0 0.145098 0 0 0 0 0.14902 0 0 0 0 0.368627 0 0 0 0.1 0"/>
      <feBlend in2="effect1_backgroundBlur_0_299" result="effect2_dropShadow_0_299"/>
      <feBlend in="SourceGraphic" in2="effect2_dropShadow_0_299" result="shape"/>
    </filter>
    <filter id="b" width="124" height="135.183" x="157" y="138.817" color-interpolation-filters="sRGB" filterUnits="userSpaceOnUse">
      <feFlood flood-opacity="0" result="BackgroundImageFix"/>
      <feGaussianBlur in="BackgroundImage" stdDeviation="13.591"/>
      <feComposite in2="SourceAlpha" operator="in" result="effect1_backgroundBlur_0_299"/>
      <feColorMatrix in="SourceAlpha" result="hardAlpha" values="0 0 0 0 0 0 0 0 0 0 0 0 0 0 0 0 0 0 127 0"/>
      <feOffset dy="16"/>
      <feGaussianBlur stdDeviation="16"/>
      <feColorMatrix values="0 0 0 0 0.145098 0 0 0 0 0.14902 0 0 0 0 0.368627 0 0 0 0.1 0"/>
      <feBlend in2="effect1_backgroundBlur_0_299" result="effect2_dropShadow_0_299"/>
      <feBlend in="SourceGraphic" in2="effect2_dropShadow_0_299" result="shape"/>
    </filter>
    <filter id="c" width="144" height="155.183" x="0" y="78.817" color-interpolation-filters="sRGB" filterUnits="userSpaceOnUse">
      <feFlood flood-opacity="0" result="BackgroundImageFix"/>
      <feGaussianBlur in="BackgroundImage" stdDeviation="13.591"/>
      <feComposite in2="SourceAlpha" operator="in" result="effect1_backgroundBlur_0_299"/>
      <feColorMatrix in="SourceAlpha" result="hardAlpha" values="0 0 0 0 0 0 0 0 0 0 0 0 0 0 0 0 0 0 127 0"/>
      <feOffset dy="16"/>
      <feGaussianBlur stdDeviation="16"/>
      <feColorMatrix values="0 0 0 0 0.145098 0 0 0 0 0.14902 0 0 0 0 0.368627 0 0 0 0.1 0"/>
      <feBlend in2="effect1_backgroundBlur_0_299" result="effect2_dropShadow_0_299"/>
      <feBlend in="SourceGraphic" in2="effect2_dropShadow_0_299" result="shape"/>
    </filter>
    <filter id="d" width="144" height="155.183" x="160" y="-11.183" color-interpolation-filters="sRGB" filterUnits="userSpaceOnUse">
      <feFlood flood-opacity="0" result="BackgroundImageFix"/>
      <feGaussianBlur in="BackgroundImage" stdDeviation="13.591"/>
      <feComposite in2="SourceAlpha" operator="in" result="effect1_backgroundBlur_0_299"/>
      <feColorMatrix in="SourceAlpha" result="hardAlpha" values="0 0 0 0 0 0 0 0 0 0 0 0 0 0 0 0 0 0 127 0"/>
      <feOffset dy="16"/>
      <feGaussianBlur stdDeviation="16"/>
      <feColorMatrix values="0 0 0 0 0.145098 0 0 0 0 0.14902 0 0 0 0 0.368627 0 0 0 0.1 0"/>
      <feBlend in2="effect1_backgroundBlur_0_299" result="effect2_dropShadow_0_299"/>
      <feBlend in="SourceGraphic" in2="effect2_dropShadow_0_299" result="shape"/>
    </filter>
  </defs>
</svg>
