<svg xmlns="http://www.w3.org/2000/svg" width="294" height="304" fill="none" viewBox="0 0 294 304">
  <g filter="url(#a)">
    <rect width="160" height="160" x="71.5" y="56" fill="#fff" rx="22"/>
  </g>
  <path stroke="#E0E3EA" stroke-linecap="round" stroke-linejoin="round" d="m130.759 118.741 12 11m22-17-7 14m20 12.375-16-1.749m6 24.374-10-17m-30 10 16-12"/>
  <path fill="#A2F05E" fill-rule="evenodd" d="M131.759 114.741c0 4.42-3.357 8-7.5 8s-7.5-3.58-7.5-8c0-4.419 3.357-8 7.5-8s7.5 3.581 7.5 8Z" clip-rule="evenodd"/>
  <path fill="#00EAFE" fill-rule="evenodd" d="M174.759 166.241c0 2.484-2.24 4.5-5 4.5s-5-2.016-5-4.5 2.24-4.5 5-4.5 5 2.016 5 4.5Z" clip-rule="evenodd"/>
  <path fill="#4985FE" fill-rule="evenodd" d="M186.759 138.741c0 2.76-2.016 5-4.5 5s-4.5-2.24-4.5-5 2.016-5 4.5-5 4.5 2.24 4.5 5Z" clip-rule="evenodd"/>
  <path fill="#47C78F" fill-rule="evenodd" d="M174.759 106.741c0 3.312-2.912 6-6.5 6s-6.5-2.688-6.5-6 2.912-6 6.5-6 6.5 2.688 6.5 6Z" clip-rule="evenodd"/>
  <path fill="#FE685A" fill-rule="evenodd" d="M128.759 158.741c0 3.312-2.688 6-6 6s-6-2.688-6-6 2.688-6 6-6 6 2.688 6 6Z" clip-rule="evenodd"/>
  <path fill="#186BFE" fill-rule="evenodd" d="M161.759 135.741c0 5.523-4.478 10-10 10-5.523 0-10-4.477-10-10 0-5.522 4.477-10 10-10 5.522 0 10 4.478 10 10Z" clip-rule="evenodd"/>
  <g filter="url(#b)">
    <rect width="60" height="60" x="202" y="74" fill="#fff" rx="22"/>
  </g>
  <rect width="30" height="20" x="217" y="94" fill="#47C78F" rx="4"/>
  <path fill="#fff" d="M217 99h30v4h-30z"/>
  <rect width="6" height="3" x="238" y="107" fill="#fff" rx="1"/>
  <g filter="url(#c)">
    <rect width="80" height="80" x="32" y="16" fill="#fff" rx="22"/>
  </g>
  <path fill="#FE685A" fill-rule="evenodd" d="M63.5 36H60a5 5 0 0 0-5 5v34a5 5 0 0 0 5 5h24a5 5 0 0 0 5-5V41a5 5 0 0 0-5-5h-3.5v1.1c0 1.822-1.427 3.3-3.188 3.3H66.689c-1.76 0-3.188-1.477-3.188-3.3V36Z" clip-rule="evenodd"/>
  <path fill="#FE685A" fill-rule="evenodd" d="M73.667 34.333H77.5a.5.5 0 0 1 .5.5V38.5a.5.5 0 0 1-.5.5h-12a.5.5 0 0 1-.5-.5v-3.667a.5.5 0 0 1 .5-.5h3.833c0-1.288.97-2.333 2.167-2.333 1.197 0 2.167 1.045 2.167 2.333Z" clip-rule="evenodd"/>
  <rect width="15" height="4" x="67" y="50" fill="#fff" rx="2"/>
  <rect width="4" height="4" x="61" y="50" fill="#fff" rx="2"/>
  <rect width="4" height="4" x="61" y="58" fill="#fff" rx="2"/>
  <rect width="15" height="4" x="67" y="58" fill="#fff" rx="2"/>
  <rect width="4" height="4" x="61" y="67" fill="#fff" rx="2"/>
  <rect width="15" height="4" x="67" y="67" fill="#fff" rx="2"/>
  <g filter="url(#d)">
    <rect width="80" height="80" x="56" y="176" fill="#fff" rx="22"/>
  </g>
  <path fill="#00EFE0" d="M86.304 224.264a.75.75 0 0 1 1.254-.555l5.181 4.7a.75.75 0 0 1 .006 1.106l-5.181 4.798a.75.75 0 0 1-1.26-.55v-9.499Z" opacity=".3"/>
  <path fill="#00EFE0" d="M75.552 234.143c0-.642-.138-3.175 1.86-5.184 1.344-1.352 3.357-1.587 5.763-1.694v-3.001a.75.75 0 0 1 1.254-.555l5.181 4.7a.75.75 0 0 1 .006 1.106l-5.181 4.798a.75.75 0 0 1-1.26-.55v-2.977c-1.528.042-2.616.139-3.605.453-1.911.609-3.045 3.216-3.351 4.01a.357.357 0 0 1-.33.231.34.34 0 0 1-.34-.341l.002-.996Z"/>
  <path fill="#00EAFE" d="M106.879 197.04a.75.75 0 0 0-1.254-.555l-5.181 4.7a.75.75 0 0 0-.005 1.106l5.181 4.798a.75.75 0 0 0 1.259-.551v-9.498Z" opacity=".3"/>
  <path fill="#00EAFE" d="M117.632 206.918c0-.642.138-3.174-1.86-5.183-1.345-1.353-3.357-1.587-5.764-1.694v-3.001a.75.75 0 0 0-1.253-.555l-5.181 4.7a.75.75 0 0 0-.006 1.106l5.181 4.798a.75.75 0 0 0 1.259-.551v-2.977c1.528.042 2.617.139 3.606.454 1.911.608 3.045 3.215 3.351 4.01.053.137.183.23.33.23a.34.34 0 0 0 .34-.341l-.003-.996Z"/>
  <path fill="#186BFE" fill-rule="evenodd" d="M94.877 206.784a1.55 1.55 0 1 1 3.1 0v1.182c0 .05-.003.099-.008.147.705.051 1.42.184 2.147.398.955.281 1.792.697 2.51 1.247l-2.498 2.206c-.336-.358-.776-.642-1.318-.853a4.322 4.322 0 0 0-1.57-.317c-.26 0-.523.019-.79.058a2.287 2.287 0 0 0-.722.22c-.214.109-.394.25-.54.422-.144.173-.217.394-.217.662 0 .23.057.422.172.576.115.153.283.288.504.403.222.115.485.22.791.316.306.096.65.195 1.031.298.55.153 1.123.323 1.72.508a6.88 6.88 0 0 1 1.626.739 4.21 4.21 0 0 1 1.215 1.141c.321.454.481 1.02.481 1.698 0 .78-.172 1.455-.515 2.024a4.294 4.294 0 0 1-1.387 1.41 6.455 6.455 0 0 1-1.994.825 9.18 9.18 0 0 1-.639.13v1.958a1.55 1.55 0 1 1-3.1 0v-1.906a11.128 11.128 0 0 1-1.945-.422c-1.084-.338-1.986-.821-2.704-1.448l2.567-2.187c.397.409.92.751 1.57 1.026s1.295.413 1.936.413c.29 0 .573-.026.848-.077.276-.051.516-.134.722-.249.207-.116.37-.269.493-.461a1.26 1.26 0 0 0 .183-.691.971.971 0 0 0-.229-.652 2.152 2.152 0 0 0-.653-.489 5.84 5.84 0 0 0-1.054-.403c-.42-.122-.898-.253-1.433-.393a15.422 15.422 0 0 1-1.524-.499 5.262 5.262 0 0 1-1.329-.739 3.51 3.51 0 0 1-.94-1.093c-.236-.429-.355-.95-.355-1.564 0-.755.184-1.4.55-1.938a4.368 4.368 0 0 1 1.444-1.323 6.784 6.784 0 0 1 1.903-.733 1.555 1.555 0 0 1-.05-.388v-1.182Z" clip-rule="evenodd"/>
  <defs>
    <filter id="a" width="224" height="235.183" x="39.5" y="28.817" color-interpolation-filters="sRGB" filterUnits="userSpaceOnUse">
      <feFlood flood-opacity="0" result="BackgroundImageFix"/>
      <feGaussianBlur in="BackgroundImage" stdDeviation="13.591"/>
      <feComposite in2="SourceAlpha" operator="in" result="effect1_backgroundBlur_0_469"/>
      <feColorMatrix in="SourceAlpha" result="hardAlpha" values="0 0 0 0 0 0 0 0 0 0 0 0 0 0 0 0 0 0 127 0"/>
      <feOffset dy="16"/>
      <feGaussianBlur stdDeviation="16"/>
      <feColorMatrix values="0 0 0 0 0.145098 0 0 0 0 0.14902 0 0 0 0 0.368627 0 0 0 0.1 0"/>
      <feBlend in2="effect1_backgroundBlur_0_469" result="effect2_dropShadow_0_469"/>
      <feBlend in="SourceGraphic" in2="effect2_dropShadow_0_469" result="shape"/>
    </filter>
    <filter id="b" width="124" height="135.183" x="170" y="46.817" color-interpolation-filters="sRGB" filterUnits="userSpaceOnUse">
      <feFlood flood-opacity="0" result="BackgroundImageFix"/>
      <feGaussianBlur in="BackgroundImage" stdDeviation="13.591"/>
      <feComposite in2="SourceAlpha" operator="in" result="effect1_backgroundBlur_0_469"/>
      <feColorMatrix in="SourceAlpha" result="hardAlpha" values="0 0 0 0 0 0 0 0 0 0 0 0 0 0 0 0 0 0 127 0"/>
      <feOffset dy="16"/>
      <feGaussianBlur stdDeviation="16"/>
      <feColorMatrix values="0 0 0 0 0.145098 0 0 0 0 0.14902 0 0 0 0 0.368627 0 0 0 0.1 0"/>
      <feBlend in2="effect1_backgroundBlur_0_469" result="effect2_dropShadow_0_469"/>
      <feBlend in="SourceGraphic" in2="effect2_dropShadow_0_469" result="shape"/>
    </filter>
    <filter id="c" width="144" height="155.183" x="0" y="-11.183" color-interpolation-filters="sRGB" filterUnits="userSpaceOnUse">
      <feFlood flood-opacity="0" result="BackgroundImageFix"/>
      <feGaussianBlur in="BackgroundImage" stdDeviation="13.591"/>
      <feComposite in2="SourceAlpha" operator="in" result="effect1_backgroundBlur_0_469"/>
      <feColorMatrix in="SourceAlpha" result="hardAlpha" values="0 0 0 0 0 0 0 0 0 0 0 0 0 0 0 0 0 0 127 0"/>
      <feOffset dy="16"/>
      <feGaussianBlur stdDeviation="16"/>
      <feColorMatrix values="0 0 0 0 0.145098 0 0 0 0 0.14902 0 0 0 0 0.368627 0 0 0 0.1 0"/>
      <feBlend in2="effect1_backgroundBlur_0_469" result="effect2_dropShadow_0_469"/>
      <feBlend in="SourceGraphic" in2="effect2_dropShadow_0_469" result="shape"/>
    </filter>
    <filter id="d" width="144" height="155.183" x="24" y="148.817" color-interpolation-filters="sRGB" filterUnits="userSpaceOnUse">
      <feFlood flood-opacity="0" result="BackgroundImageFix"/>
      <feGaussianBlur in="BackgroundImage" stdDeviation="13.591"/>
      <feComposite in2="SourceAlpha" operator="in" result="effect1_backgroundBlur_0_469"/>
      <feColorMatrix in="SourceAlpha" result="hardAlpha" values="0 0 0 0 0 0 0 0 0 0 0 0 0 0 0 0 0 0 127 0"/>
      <feOffset dy="16"/>
      <feGaussianBlur stdDeviation="16"/>
      <feColorMatrix values="0 0 0 0 0.145098 0 0 0 0 0.14902 0 0 0 0 0.368627 0 0 0 0.1 0"/>
      <feBlend in2="effect1_backgroundBlur_0_469" result="effect2_dropShadow_0_469"/>
      <feBlend in="SourceGraphic" in2="effect2_dropShadow_0_469" result="shape"/>
    </filter>
  </defs>
</svg>
