<svg xmlns="http://www.w3.org/2000/svg" width="288" height="278" fill="none" viewBox="0 0 288 278">
  <g filter="url(#a)">
    <rect width="160" height="160" x="71.5" y="46" fill="#fff" rx="22"/>
  </g>
  <path fill="#00EFE0" d="M136.358 138.193a.75.75 0 0 1 1.254-.555l8.64 7.838a.75.75 0 0 1 .006 1.106l-8.64 8.001a.75.75 0 0 1-1.26-.55v-15.84Z" opacity=".3"/>
  <path fill="#00EFE0" d="M120.322 153.756c0-.957-.205-4.734 2.775-7.73 2.005-2.017 5.006-2.366 8.595-2.526v-5.307a.75.75 0 0 1 1.254-.555l8.64 7.838a.75.75 0 0 1 .005 1.106l-8.64 8.001a.75.75 0 0 1-1.259-.55v-5.283c-2.279.063-3.902.208-5.377.677-2.85.907-4.541 4.795-4.998 5.979a.53.53 0 0 1-.492.344.507.507 0 0 1-.507-.508c.001-.517.004-1.112.004-1.486Z"/>
  <path fill="#00EAFE" d="M168.642 96.193a.75.75 0 0 0-1.254-.555l-8.64 7.838a.75.75 0 0 0-.006 1.106l8.64 8.001a.75.75 0 0 0 1.26-.55v-15.84Z" opacity=".3"/>
  <path fill="#00EAFE" d="M184.678 111.756c0-.957.205-4.734-2.775-7.73-2.005-2.017-5.006-2.366-8.595-2.526v-5.307a.75.75 0 0 0-1.254-.555l-8.64 7.838a.75.75 0 0 0-.005 1.106l8.64 8.001a.75.75 0 0 0 1.259-.55v-5.283c2.279.063 3.902.208 5.377.677 2.85.907 4.541 4.795 4.998 5.979a.53.53 0 0 0 .492.344.507.507 0 0 0 .507-.508c-.001-.517-.004-1.112-.004-1.486Z"/>
  <path fill="#186BFE" fill-rule="evenodd" d="M149.89 111.405a2.359 2.359 0 1 1 4.717 0v1.918c0 .062-.002.123-.007.184 1.071.08 2.159.285 3.263.617 1.454.436 2.727 1.08 3.819 1.932l-3.801 3.418c-.512-.555-1.18-.995-2.005-1.322-.826-.327-1.622-.491-2.389-.491-.396 0-.797.03-1.204.089-.407.06-.773.174-1.098.342a2.607 2.607 0 0 0-.82.654c-.221.268-.331.609-.331 1.026 0 .356.087.654.261.891.175.238.43.446.768.625a7.38 7.38 0 0 0 1.203.49c.465.149.988.302 1.569.461.837.238 1.709.5 2.616.788.907.287 1.732.668 2.476 1.144a6.464 6.464 0 0 1 1.849 1.769c.488.703.732 1.58.732 2.631 0 1.208-.262 2.254-.785 3.136a6.591 6.591 0 0 1-2.11 2.185c-.883.574-1.895 1-3.034 1.278-.321.078-.645.145-.972.201v3.076a2.359 2.359 0 0 1-4.717 0v-2.996a16.644 16.644 0 0 1-2.96-.653c-1.651-.525-3.023-1.273-4.116-2.244l3.907-3.389c.604.634 1.4 1.164 2.389 1.59.988.427 1.97.64 2.947.64.441 0 .871-.04 1.29-.119.419-.08.785-.208 1.099-.387.313-.178.563-.416.749-.713.186-.297.279-.654.279-1.07 0-.397-.116-.734-.348-1.011-.233-.277-.564-.53-.994-.758-.43-.228-.965-.436-1.605-.624a89.618 89.618 0 0 0-2.179-.61 22.938 22.938 0 0 1-2.32-.773 7.97 7.97 0 0 1-2.022-1.144 5.426 5.426 0 0 1-1.43-1.694c-.361-.664-.541-1.472-.541-2.423 0-1.169.279-2.17.837-3.002a6.711 6.711 0 0 1 2.197-2.052 10.23 10.23 0 0 1 2.888-1.133 2.338 2.338 0 0 1-.067-.559v-1.918Z" clip-rule="evenodd"/>
  <g filter="url(#b)">
    <rect width="60" height="60" x="154" y="16" fill="#fff" rx="22"/>
  </g>
  <path fill="#2ABA00" fill-rule="evenodd" d="M181.839 40.673a.5.5 0 0 1 .498-.459h.501a.5.5 0 0 1 .497.447l.657 6.078 4.67 2.47a.5.5 0 0 1 .267.441v.362a.5.5 0 0 1-.623.485l-6.723-1.697a.5.5 0 0 1-.376-.526l.632-7.601Z" clip-rule="evenodd"/>
  <path fill="#2ABA00" fill-rule="evenodd" d="M175.997 31.618a.5.5 0 0 0-.868.206l-1.653 6.89a.5.5 0 0 0 .514.616l7.129-.401a.5.5 0 0 0 .354-.822l-1.821-2.158a11.451 11.451 0 0 1 3.491-.54c6.323 0 11.449 5.125 11.449 11.448s-5.126 11.45-11.449 11.45c-6.323 0-11.449-5.127-11.449-11.45 0-1.061.144-2.101.424-3.1l-2.594-.728a14.175 14.175 0 0 0-.524 3.828C169 54.668 175.332 61 183.143 61c7.811 0 14.143-6.332 14.143-14.143 0-7.81-6.332-14.143-14.143-14.143-1.89 0-3.693.37-5.341 1.043l-1.805-2.139Z" clip-rule="evenodd"/>
  <g filter="url(#c)">
    <rect width="80" height="80" x="176" y="150" fill="#fff" rx="22"/>
  </g>
  <path fill="#FE685A" fill-rule="evenodd" d="M217.237 213.031c-.46.605-1.234.969-2.064.969-1.37 0-2.481-.974-2.481-2.176v-16.022h-15.211c-.49 0-.969-.127-1.376-.365-1.14-.667-1.448-2.018-.688-3.018l19.346-25.45c.46-.605 1.234-.969 2.064-.969 1.37 0 2.481.974 2.481 2.176v16.022h15.211c.49 0 .969.127 1.376.365 1.14.667 1.448 2.018.688 3.018l-19.346 25.45Z" clip-rule="evenodd"/>
  <g filter="url(#d)">
    <rect width="80" height="80" x="32" y="62" fill="#fff" rx="22"/>
  </g>
  <path fill="#0079FE" fill-rule="evenodd" d="M61.455 81.727A2.273 2.273 0 0 0 59.181 84v30a2.273 2.273 0 0 0 2.273 2.273H76A2.273 2.273 0 0 0 78.273 114V84A2.273 2.273 0 0 0 76 81.727H61.455Z" clip-rule="evenodd" opacity=".3"/>
  <path fill="#2475FE" fill-rule="evenodd" d="M61.455 79H76a5 5 0 0 1 5 5v30a5 5 0 0 1-5 5H61.455a5 5 0 0 1-5-5V84a5 5 0 0 1 5-5Zm0 2.727A2.273 2.273 0 0 0 59.182 84v30a2.273 2.273 0 0 0 2.273 2.273H76A2.273 2.273 0 0 0 78.273 114V84A2.273 2.273 0 0 0 76 81.727h-1.818v-.863a.5.5 0 0 0-.5-.5h-9.91a.5.5 0 0 0-.5.5v.863h-1.817Zm1.818 0V83.5a.5.5 0 0 0 .5.5h9.909a.5.5 0 0 0 .5-.5v-1.773h-10.91Z" clip-rule="evenodd"/>
  <circle cx="80" cy="118" r="8" fill="#00E9BE"/>
  <path fill="#fff" fill-rule="evenodd" d="m83.936 118.345.875-.813C83.63 115.94 81.883 115 79.999 115c-1.88 0-3.626.937-4.806 2.526l.873.814c.966-1.301 2.393-2.067 3.933-2.067 1.542 0 2.971.768 3.937 2.072Zm-1.744 1.632.877-.809c-.75-1.02-1.867-1.623-3.07-1.623-1.199 0-2.312.599-3.062 1.613l.874.812c.537-.725 1.331-1.152 2.188-1.152.86 0 1.657.43 2.194 1.159Zm-.892.788-.867.824-.449.411-.428-.397-.887-.796c.32-.449.807-.716 1.33-.716.507 0 .98.25 1.3.674Z" clip-rule="evenodd"/>
  <defs>
    <filter id="a" width="224" height="235.183" x="39.5" y="18.817" color-interpolation-filters="sRGB" filterUnits="userSpaceOnUse">
      <feFlood flood-opacity="0" result="BackgroundImageFix"/>
      <feGaussianBlur in="BackgroundImage" stdDeviation="13.591"/>
      <feComposite in2="SourceAlpha" operator="in" result="effect1_backgroundBlur_0_360"/>
      <feColorMatrix in="SourceAlpha" result="hardAlpha" values="0 0 0 0 0 0 0 0 0 0 0 0 0 0 0 0 0 0 127 0"/>
      <feOffset dy="16"/>
      <feGaussianBlur stdDeviation="16"/>
      <feColorMatrix values="0 0 0 0 0.145098 0 0 0 0 0.14902 0 0 0 0 0.368627 0 0 0 0.1 0"/>
      <feBlend in2="effect1_backgroundBlur_0_360" result="effect2_dropShadow_0_360"/>
      <feBlend in="SourceGraphic" in2="effect2_dropShadow_0_360" result="shape"/>
    </filter>
    <filter id="b" width="124" height="135.183" x="122" y="-11.183" color-interpolation-filters="sRGB" filterUnits="userSpaceOnUse">
      <feFlood flood-opacity="0" result="BackgroundImageFix"/>
      <feGaussianBlur in="BackgroundImage" stdDeviation="13.591"/>
      <feComposite in2="SourceAlpha" operator="in" result="effect1_backgroundBlur_0_360"/>
      <feColorMatrix in="SourceAlpha" result="hardAlpha" values="0 0 0 0 0 0 0 0 0 0 0 0 0 0 0 0 0 0 127 0"/>
      <feOffset dy="16"/>
      <feGaussianBlur stdDeviation="16"/>
      <feColorMatrix values="0 0 0 0 0.145098 0 0 0 0 0.14902 0 0 0 0 0.368627 0 0 0 0.1 0"/>
      <feBlend in2="effect1_backgroundBlur_0_360" result="effect2_dropShadow_0_360"/>
      <feBlend in="SourceGraphic" in2="effect2_dropShadow_0_360" result="shape"/>
    </filter>
    <filter id="c" width="144" height="155.183" x="144" y="122.817" color-interpolation-filters="sRGB" filterUnits="userSpaceOnUse">
      <feFlood flood-opacity="0" result="BackgroundImageFix"/>
      <feGaussianBlur in="BackgroundImage" stdDeviation="13.591"/>
      <feComposite in2="SourceAlpha" operator="in" result="effect1_backgroundBlur_0_360"/>
      <feColorMatrix in="SourceAlpha" result="hardAlpha" values="0 0 0 0 0 0 0 0 0 0 0 0 0 0 0 0 0 0 127 0"/>
      <feOffset dy="16"/>
      <feGaussianBlur stdDeviation="16"/>
      <feColorMatrix values="0 0 0 0 0.145098 0 0 0 0 0.14902 0 0 0 0 0.368627 0 0 0 0.1 0"/>
      <feBlend in2="effect1_backgroundBlur_0_360" result="effect2_dropShadow_0_360"/>
      <feBlend in="SourceGraphic" in2="effect2_dropShadow_0_360" result="shape"/>
    </filter>
    <filter id="d" width="144" height="155.183" x="0" y="34.817" color-interpolation-filters="sRGB" filterUnits="userSpaceOnUse">
      <feFlood flood-opacity="0" result="BackgroundImageFix"/>
      <feGaussianBlur in="BackgroundImage" stdDeviation="13.591"/>
      <feComposite in2="SourceAlpha" operator="in" result="effect1_backgroundBlur_0_360"/>
      <feColorMatrix in="SourceAlpha" result="hardAlpha" values="0 0 0 0 0 0 0 0 0 0 0 0 0 0 0 0 0 0 127 0"/>
      <feOffset dy="16"/>
      <feGaussianBlur stdDeviation="16"/>
      <feColorMatrix values="0 0 0 0 0.145098 0 0 0 0 0.14902 0 0 0 0 0.368627 0 0 0 0.1 0"/>
      <feBlend in2="effect1_backgroundBlur_0_360" result="effect2_dropShadow_0_360"/>
      <feBlend in="SourceGraphic" in2="effect2_dropShadow_0_360" result="shape"/>
    </filter>
  </defs>
</svg>
