<svg xmlns="http://www.w3.org/2000/svg" width="34" height="34" fill="none" viewBox="0 0 34 34">
  <path fill="#00E9BE" fill-rule="evenodd" d="M30.077 31.044V0H6.538v31.044L9.478 34l2.935-2.956L15.353 34l2.941-2.956L21.237 34l2.944-2.956L27.128 34l2.948-2.956Z" clip-rule="evenodd"/>
  <path fill="#00E9BE" fill-opacity=".3" fill-rule="evenodd" d="M6.538 0v6.538H3.923V3.27C3.923 1.465 5.095 0 6.538 0Z" clip-rule="evenodd"/>
  <mask id="a" width="9" height="15" x="14" y="9" maskUnits="userSpaceOnUse" style="mask-type:alpha">
    <path fill="#fff" fill-rule="evenodd" d="M14.385 9.154h7.846V23.54h-7.846V9.154Z" clip-rule="evenodd"/>
  </mask>
  <g mask="url(#a)">
    <path fill="#fff" fill-rule="evenodd" d="M21.085 16.002a4.04 4.04 0 0 0-1.03-.554c-.377-.14-.74-.266-1.087-.381-.242-.077-.46-.15-.654-.222a3.016 3.016 0 0 1-.498-.237.977.977 0 0 1-.322-.304.787.787 0 0 1-.108-.431c0-.2.045-.366.139-.496.092-.13.205-.236.34-.317.136-.082.29-.136.457-.165a2.37 2.37 0 0 1 1.494.195c.344.157.622.372.833.639l1.582-1.653a4.56 4.56 0 0 0-1.588-.935 5.452 5.452 0 0 0-1.514-.293V9.91a.76.76 0 0 0-.765-.756.76.76 0 0 0-.762.756v1.061c-.056.013-.114.018-.172.032-.475.12-.899.309-1.277.568-.376.261-.68.591-.913.994-.232.402-.349.885-.349 1.452 0 .461.076.852.226 1.172.15.321.349.595.594.82.247.226.528.41.84.555.317.142.638.268.966.374.339.104.642.203.907.295.266.09.487.192.668.302.178.109.316.232.413.367a.82.82 0 0 1 .144.488c0 .202-.039.374-.116.517a.927.927 0 0 1-.312.346 1.35 1.35 0 0 1-.455.187 2.53 2.53 0 0 1-.539.06c-.405 0-.813-.105-1.225-.311a3.031 3.031 0 0 1-.994-.77l-1.623 1.64c.455.47 1.024.833 1.71 1.085.49.181.993.295 1.508.348v1.288c0 .42.342.759.761.759.423 0 .765-.34.765-.759v-1.338a5.3 5.3 0 0 0 .565-.118c.473-.133.892-.34 1.26-.618.367-.277.66-.63.878-1.058.218-.426.326-.932.326-1.517 0-.508-.1-.932-.303-1.273a2.958 2.958 0 0 0-.77-.856Z" clip-rule="evenodd"/>
  </g>
</svg>
