<svg xmlns="http://www.w3.org/2000/svg" width="18" height="18" fill="none" viewBox="0 0 18 18">
  <path fill="#fff" fill-rule="evenodd" d="M16.5 10.875v3a.75.75 0 0 1-.75.75H15v-3.75h1.5Zm0-4.5H15v-3h.75a.75.75 0 0 1 .75.75v2.25Zm-4.5 8.25h1.5v-3.75H12v3.75Zm0-8.25h1.5v-3H12v3Zm-8.25 4.5v3.75h-1.5a.75.75 0 0 1-.75-.75v-3h2.25Zm0-4.5H1.5v-2.25a.75.75 0 0 1 .75-.75h1.5v3Zm6 8.25h1.5v-3.75h-1.5v3.75Zm0-8.25h1.5v-3h-1.5v3Z" clip-rule="evenodd"/>
  <path fill="#fff" fill-opacity=".3" fill-rule="evenodd" d="M5.25 14.625h1.5v-3.75h-1.5v3.75Zm0-8.25h1.5v-3h-1.5v3Z" clip-rule="evenodd"/>
  <mask id="a" width="18" height="3" x="0" y="7" maskUnits="userSpaceOnUse" style="mask-type:alpha">
    <path fill="#fff" fill-rule="evenodd" d="M0 7.875h18v1.5H0v-1.5Z" clip-rule="evenodd"/>
  </mask>
  <g mask="url(#a)">
    <path fill="#fff" fill-rule="evenodd" d="M.75 7.875h16.5a.75.75 0 1 1 0 1.5H.75a.75.75 0 0 1 0-1.5Z" clip-rule="evenodd"/>
  </g>
</svg>
