<svg xmlns="http://www.w3.org/2000/svg" width="34" height="40" fill="none" viewBox="0 0 34 40">
  <path fill="#000" fill-opacity=".01" fill-rule="evenodd" d="M2 31h30V1H2v30Z" clip-rule="evenodd"/>
  <g filter="url(#a)">
    <mask id="b" width="26" height="32" x="4" y="0" maskUnits="userSpaceOnUse" style="mask-type:alpha">
      <path fill="#fff" fill-rule="evenodd" stroke="#fff" d="M5.489 1H28.51v30H5.49V1Z" clip-rule="evenodd"/>
    </mask>
    <g mask="url(#b)">
      <path fill="#4ADC00" fill-rule="evenodd" d="m17.678 30.395 10.604-15.907a1.36 1.36 0 0 0-1.13-2.114h-8.34V2.36a1.36 1.36 0 0 0-2.49-.755L5.718 17.512a1.36 1.36 0 0 0 1.13 2.114h8.34V29.64a1.359 1.359 0 0 0 2.49.755" clip-rule="evenodd"/>
      <path stroke="#000" d="m17.678 30.395 10.604-15.907a1.36 1.36 0 0 0-1.13-2.114h-8.34V2.36a1.36 1.36 0 0 0-2.49-.755L5.718 17.512a1.36 1.36 0 0 0 1.13 2.114h8.34V29.64a1.359 1.359 0 0 0 2.49.755"/>
    </g>
  </g>
  <defs>
    <filter id="a" width="32.023" height="38.999" x=".989" y=".5" color-interpolation-filters="sRGB" filterUnits="userSpaceOnUse">
      <feFlood flood-opacity="0" result="BackgroundImageFix"/>
      <feColorMatrix in="SourceAlpha" result="hardAlpha" values="0 0 0 0 0 0 0 0 0 0 0 0 0 0 0 0 0 0 127 0"/>
      <feOffset dy="4"/>
      <feGaussianBlur stdDeviation="2"/>
      <feComposite in2="hardAlpha" operator="out"/>
      <feColorMatrix values="0 0 0 0 0 0 0 0 0 0 0 0 0 0 0 0 0 0 0.25 0"/>
      <feBlend in2="BackgroundImageFix" result="effect1_dropShadow_0_4341"/>
      <feBlend in="SourceGraphic" in2="effect1_dropShadow_0_4341" result="shape"/>
    </filter>
  </defs>
</svg>
