<svg xmlns="http://www.w3.org/2000/svg" width="30" height="30" fill="none" viewBox="0 0 30 30">
  <path fill="#00B4FE" fill-opacity=".3" fill-rule="evenodd" d="M25.817 13.918a5.3 5.3 0 0 0-.556-.029c-1.995 0-3.765.93-4.919 2.377L5.931 20.132a1.221 1.221 0 0 1-1.5-.87l-1.598-5.93a1.24 1.24 0 0 1 .87-1.508l5.516-1.479 13.47-3.612a1.238 1.238 0 0 1 1.51.87l.777 2.895.811 3.036c.03.131.051.264.03.384Z" clip-rule="evenodd"/>
  <path fill="#00B4FE" fill-rule="evenodd" d="M26.267 9.402a2.461 2.461 0 0 0-.889-.16H4.621a2.6 2.6 0 0 0-2.598 2.596v15.565A2.6 2.6 0 0 0 4.621 30h20.757a2.6 2.6 0 0 0 2.598-2.597V11.838a2.599 2.599 0 0 0-1.71-2.436Zm-12.729-7.94v4.46l-.959-.958a.742.742 0 1 0-1.048 1.049l2.223 2.225c.29.29.76.29 1.05 0l2.224-2.225a.742.742 0 0 0-1.05-1.049l-.957.959v-4.46a.743.743 0 0 0-1.483 0Z" clip-rule="evenodd"/>
  <path fill="#fff" fill-rule="evenodd" d="M12.028 19.347a3.24 3.24 0 0 0-.814-.442c-.299-.11-.585-.211-.86-.304a10.08 10.08 0 0 1-.516-.177 2.188 2.188 0 0 1-.395-.19.749.749 0 0 1-.253-.24.633.633 0 0 1-.087-.345.66.66 0 0 1 .11-.394.877.877 0 0 1 .269-.253.99.99 0 0 1 .361-.131 1.854 1.854 0 0 1 1.182.154c.27.126.491.296.658.51l1.251-1.319a3.602 3.602 0 0 0-1.256-.745 4.273 4.273 0 0 0-1.197-.234v-.747a.602.602 0 1 0-1.207 0v.846c-.046.01-.09.014-.136.025a3.15 3.15 0 0 0-1.01.453 2.417 2.417 0 0 0-.722.792c-.183.321-.274.707-.274 1.159 0 .366.058.678.177.933.12.258.275.476.47.655.195.18.418.326.666.441.248.115.502.214.762.298.267.084.506.163.717.236.21.072.386.152.527.24.142.088.25.186.327.293a.658.658 0 0 1 .115.39c0 .16-.031.297-.091.413a.758.758 0 0 1-.247.274 1.04 1.04 0 0 1-.362.15c-.138.03-.278.045-.424.045-.32 0-.645-.082-.969-.247a2.344 2.344 0 0 1-.786-.612L6.73 22.58c.36.375.81.663 1.353.867a4.78 4.78 0 0 0 1.191.275v1.028a.603.603 0 1 0 1.207 0v-1.067c.15-.025.3-.052.447-.093a2.99 2.99 0 0 0 .997-.494 2.43 2.43 0 0 0 .694-.843c.171-.34.258-.744.258-1.21 0-.405-.08-.743-.242-1.014a2.278 2.278 0 0 0-.607-.683Zm12.27-.924a1.694 1.694 0 1 1-2.395 2.396 1.694 1.694 0 0 1 2.395-2.396Z" clip-rule="evenodd"/>
</svg>
