<svg xmlns="http://www.w3.org/2000/svg" width="35" height="34" fill="none" viewBox="0 0 35 34">
  <path fill="#000" fill-opacity=".01" fill-rule="evenodd" d="M.5 34h34V0H.5v34Z" clip-rule="evenodd"/>
  <path fill="#47C78F" fill-opacity=".3" fill-rule="evenodd" d="M10.959 21.295a4.607 4.607 0 1 1 0-9.214 4.607 4.607 0 0 1 0 9.214Z" clip-rule="evenodd"/>
  <path fill="#47C78F" fill-rule="evenodd" d="M.593 31.89c.447-5.496 4.909-8.292 10.346-8.292 5.515 0 10.046 2.642 10.384 8.294.013.225 0 .921-.866.921H1.43c-.289 0-.863-.623-.838-.923ZM34.262 3.438a2.477 2.477 0 0 0-2.467-2.252H18.903a2.479 2.479 0 0 0-2.467 2.247 42.917 42.917 0 0 0-.194 3.948c0 1.247.066 2.563.194 3.945a2.479 2.479 0 0 0 2.467 2.246h.309l-.528 2.72 4.203-2.72h8.854a2.477 2.477 0 0 0 2.468-2.255c.133-1.471.197-2.943.197-4.414a38.02 38.02 0 0 0-.144-3.465Z" clip-rule="evenodd"/>
  <path fill="#fff" fill-rule="evenodd" d="M26.688 7.623a1.969 1.969 0 0 0-.506-.275c-.184-.07-.362-.132-.534-.188-.119-.04-.226-.075-.32-.11a1.597 1.597 0 0 1-.246-.118.526.526 0 0 1-.157-.15.401.401 0 0 1-.053-.215c0-.099.023-.18.068-.244a.548.548 0 0 1 .167-.157.61.61 0 0 1 .225-.082 1.161 1.161 0 0 1 .732.095c.169.08.306.184.41.318l.778-.819a2.206 2.206 0 0 0-.781-.463 2.63 2.63 0 0 0-.743-.145v-.464a.375.375 0 0 0-.75 0v.526c-.028.006-.057.009-.084.015a1.926 1.926 0 0 0-.628.281 1.495 1.495 0 0 0-.447.492c-.115.2-.171.44-.171.72 0 .228.036.42.11.58.073.158.17.294.291.405.122.113.26.203.413.275.155.072.313.132.474.186.166.052.315.1.446.146.13.045.24.094.327.15a.674.674 0 0 1 .202.18.399.399 0 0 1 .072.243c0 .1-.02.186-.056.256a.458.458 0 0 1-.153.17.655.655 0 0 1-.225.094 1.263 1.263 0 0 1-.866-.125 1.474 1.474 0 0 1-.487-.38l-.798.811c.222.233.503.412.84.538.241.09.487.146.74.171v.638a.376.376 0 1 0 .75 0v-.662a2.57 2.57 0 0 0 .277-.058c.232-.067.439-.169.619-.306.18-.138.324-.313.432-.523.105-.212.16-.463.16-.752 0-.253-.05-.462-.15-.63-.1-.17-.226-.31-.378-.424Z" clip-rule="evenodd"/>
</svg>
