<svg xmlns="http://www.w3.org/2000/svg" width="26" height="26" fill="none" viewBox="0 0 26 26">
  <path fill="#000" fill-opacity=".01" fill-rule="evenodd" d="M0 26h26V0H0v26Z" clip-rule="evenodd"/>
  <path fill="#4985FE" fill-rule="evenodd" d="M17.008 9.242h.501c.277 0 .502.225.502.501v6.514a.502.502 0 0 1-.502.501h-.5V9.242Zm-2.004 7.516h1.002V9.242h-1.002v7.516ZM9.492 9.242v7.516H8.49a.502.502 0 0 1-.5-.5V9.742a.5.5 0 0 1 .5-.5h1.002Zm4.01 7.516h1.001V9.242h-1.002v7.516Z" clip-rule="evenodd"/>
  <path fill="#4985FE" fill-opacity=".3" fill-rule="evenodd" d="M10.494 16.758h1.003V9.242h-1.003v7.516Z" clip-rule="evenodd"/>
  <path fill="#4985FE" fill-rule="evenodd" d="M5.485 5.484v3.758c-.144.835-.562 1.253-1.253 1.253-.692 0-1.11-.418-1.253-1.253V2.978h6.264c.835 0 1.252.418 1.252 1.253s-.417 1.253-1.252 1.253H5.485Zm15.03 0h-3.757c-.835-.144-1.252-.56-1.252-1.253 0-.69.417-1.109 1.252-1.253h6.263v6.264c0 .835-.417 1.253-1.252 1.253-.836 0-1.253-.418-1.253-1.253V5.484Zm0 15.031v-3.758c.145-.835.562-1.252 1.254-1.252s1.11.417 1.252 1.252v6.264h-6.263c-.835 0-1.252-.418-1.252-1.253s.417-1.253 1.252-1.253h3.758Zm-15.03 0h3.758c.835.144 1.252.561 1.252 1.253 0 .692-.417 1.11-1.252 1.253H2.979v-6.264c0-.835.418-1.252 1.253-1.252s1.253.417 1.253 1.252v3.758Z" clip-rule="evenodd"/>
</svg>
