<svg xmlns="http://www.w3.org/2000/svg" width="18" height="18" fill="none" viewBox="0 0 18 18">
  <path fill="#fff" fill-rule="evenodd" d="M12.006 6.182h.376c.208 0 .376.168.376.375v4.886a.376.376 0 0 1-.376.376h-.376V6.182Zm-1.503 5.637h.752V6.182h-.752v5.637ZM6.37 6.182v5.637h-.752a.376.376 0 0 1-.375-.376V6.557c0-.207.168-.375.375-.375h.752Zm3.007 5.637h.751V6.182h-.75v5.637Z" clip-rule="evenodd"/>
  <path fill="#fff" fill-opacity=".3" fill-rule="evenodd" d="M7.121 11.819h.751V6.182h-.751v5.637Z" clip-rule="evenodd"/>
  <path fill="#fff" fill-rule="evenodd" d="M3.364 3.363v2.819c-.107.626-.421.94-.94.94-.52 0-.831-.314-.94-.94V1.484h4.697c.627 0 .94.314.94.94 0 .627-.314.939-.94.939H3.364Zm11.273 0h-2.819c-.627-.107-.938-.42-.938-.94 0-.518.311-.831.938-.94h4.697v4.699c0 .626-.313.94-.939.94-.626 0-.94-.314-.94-.94v-2.82Zm0 11.274v-2.818c.107-.627.42-.94.94-.94.518 0 .832.313.938.94v4.697h-4.697c-.627 0-.938-.313-.938-.94 0-.626.311-.94.938-.94h2.819Zm-11.274 0h2.818c.627.108.94.42.94.94 0 .518-.314.832-.94.939H1.484v-4.697c0-.627.314-.94.94-.94.627 0 .94.313.94.94v2.818Z" clip-rule="evenodd"/>
</svg>
