<svg xmlns="http://www.w3.org/2000/svg" width="60" height="60" fill="none" viewBox="0 0 60 60">
  <mask id="a" width="60" height="45" x="0" y="5" maskUnits="userSpaceOnUse" style="mask-type:alpha">
    <path fill="#fff" fill-rule="evenodd" d="M0 5.86h60v43.355H0V5.861Z" clip-rule="evenodd"/>
  </mask>
  <g mask="url(#a)">
    <path fill="#186BFE" fill-opacity=".3" fill-rule="evenodd" d="M27.292 37.642c5.581 1.496 11.317-1.816 12.813-7.397 1.495-5.58-1.817-11.317-7.398-12.813-5.58-1.494-11.317 1.817-12.812 7.398-1.496 5.582 1.816 11.318 7.397 12.813M10.062 5.95l48 12.86a2.616 2.616 0 0 1 1.848 3.204l-6.769 25.262a2.615 2.615 0 0 1-3.203 1.85l-48-12.861A2.617 2.617 0 0 1 .09 33.061L6.86 7.798a2.616 2.616 0 0 1 3.203-1.848" clip-rule="evenodd"/>
  </g>
  <path fill="#186BFE" fill-rule="evenodd" d="M30 37.999c5.777 0 10.461-4.684 10.461-10.461 0-5.778-4.684-10.462-10.46-10.462-5.779 0-10.463 4.684-10.463 10.462 0 5.777 4.684 10.46 10.462 10.46M5.153 11.847h49.693a2.615 2.615 0 0 1 2.615 2.615v26.154a2.615 2.615 0 0 1-2.615 2.615H5.153a2.615 2.615 0 0 1-2.615-2.615V14.46a2.615 2.615 0 0 1 2.615-2.615" clip-rule="evenodd"/>
  <path fill="#186BFE" fill-rule="evenodd" d="M32.529 27.223a3.701 3.701 0 0 0-.937-.51 28.902 28.902 0 0 0-.991-.349c-.22-.07-.418-.139-.594-.204a2.624 2.624 0 0 1-.456-.218.895.895 0 0 1-.291-.279.74.74 0 0 1-.098-.396c0-.184.042-.335.125-.454a1.02 1.02 0 0 1 .31-.29c.123-.075.262-.127.416-.154.155-.026.306-.04.456-.04.29 0 .592.075.905.22.312.145.565.34.759.587l1.439-1.518a4.19 4.19 0 0 0-1.445-.86 4.925 4.925 0 0 0-1.38-.267v-.86a.696.696 0 0 0-1.39 0v.973c-.052.012-.103.015-.156.03-.431.11-.818.284-1.161.521a2.755 2.755 0 0 0-.832.912c-.212.37-.318.814-.318 1.334 0 .422.069.78.205 1.076.136.294.317.546.54.752.226.207.48.377.767.509.286.13.579.245.879.343.308.096.583.186.825.27.242.084.444.177.608.277.163.102.288.213.376.337a.758.758 0 0 1 .13.448c0 .186-.034.345-.104.477a.854.854 0 0 1-.284.316 1.21 1.21 0 0 1-.415.172 2.278 2.278 0 0 1-.49.053c-.37 0-.741-.095-1.115-.284a2.734 2.734 0 0 1-.905-.706l-1.48 1.506c.415.43.934.762 1.559.997.446.165.903.27 1.372.317v1.184a.695.695 0 0 0 1.39 0v-1.228c.173-.03.344-.06.513-.108a3.398 3.398 0 0 0 1.149-.57c.335-.255.6-.578.799-.97.198-.392.298-.855.298-1.392 0-.468-.093-.857-.278-1.17a2.681 2.681 0 0 0-.7-.785" clip-rule="evenodd"/>
  <path fill="#47C78F" fill-rule="evenodd" d="M49.337 34.14c5.523 0 10 4.477 10 10s-4.477 10-10 10c-5.522 0-10-4.477-10-10s4.478-10 10-10" clip-rule="evenodd"/>
  <path fill="#fff" fill-rule="evenodd" d="M54.107 39.958a1 1 0 0 1 1.462 1.364l-7 7.5a1 1 0 0 1-1.382.077l-3.5-3a1 1 0 1 1 1.302-1.518l2.772 2.376 6.346-6.8Z" clip-rule="evenodd"/>
</svg>
