<?xml version="1.0" encoding="UTF-8" standalone="no"?>
<!-- Created with Inkscape (http://www.inkscape.org/) -->

<svg
   width="135.46666mm"
   height="135.46666mm"
   viewBox="0 0 135.46666 135.46666"
   version="1.1"
   id="svg276"
   xml:space="preserve"
   inkscape:version="1.2.2 (732a01da63, 2022-12-09)"
   sodipodi:docname="tab_2u.svg"
   xmlns:inkscape="http://www.inkscape.org/namespaces/inkscape"
   xmlns:sodipodi="http://sodipodi.sourceforge.net/DTD/sodipodi-0.dtd"
   xmlns="http://www.w3.org/2000/svg"
   xmlns:svg="http://www.w3.org/2000/svg"><sodipodi:namedview
     id="namedview278"
     pagecolor="#ffffff"
     bordercolor="#000000"
     borderopacity="0.25"
     inkscape:showpageshadow="2"
     inkscape:pageopacity="0.0"
     inkscape:pagecheckerboard="0"
     inkscape:deskcolor="#d1d1d1"
     inkscape:document-units="px"
     showgrid="false"
     inkscape:zoom="0.73851712"
     inkscape:cx="260.65746"
     inkscape:cy="268.10482"
     inkscape:window-width="1920"
     inkscape:window-height="1009"
     inkscape:window-x="-8"
     inkscape:window-y="-8"
     inkscape:window-maximized="1"
     inkscape:current-layer="layer1" /><defs
     id="defs273" /><g
     inkscape:label="Calque 1"
     inkscape:groupmode="layer"
     id="layer1"
     transform="translate(-21.115887,-78.079697)"><g
       id="g1063"><path
         style="fill:#f7f7f7;stroke-width:0.264583"
         d="m 21.115887,208.73774 v -4.80862 l 0.612365,0.57528 c 0.480494,0.4514 0.936312,0.57529 2.116667,0.57529 h 1.504301 v 3.175 3.175 h 8.353406 8.353406 l 1.181129,0.69219 c 0.649621,0.3807 1.682853,0.84899 2.296073,1.04063 0.957641,0.29929 -0.686174,0.35095 -11.651202,0.36615 l -12.766145,0.0177 z m 111.038773,4.42788 c 0.60742,-0.18993 1.66421,-0.65821 2.34843,-1.04063 l 1.24403,-0.6953 h 8.30104 8.30105 v -3.175 -3.175 h 1.50431 c 1.18035,0 1.63617,-0.12389 2.11666,-0.57529 l 0.61237,-0.57528 v 4.80862 4.80862 l -12.76615,-0.0177 c -10.90664,-0.0151 -12.60528,-0.068 -11.66174,-0.36304 z m -85.185416,-4.22888 c -1.650954,-0.44397 -3.067117,-1.61439 -3.891756,-3.21641 l -0.662644,-1.28732 -0.05536,-18.52822 -0.05536,-18.52822 1.961631,-1.26672 c 4.128542,-2.666 7.1243,-7.62926 8.220085,-13.6187 l 0.439293,-2.40114 4.402145,-0.0904 c 4.005484,-0.0822 4.509431,-0.14631 5.592773,-0.71133 1.621017,-0.84545 3.080527,-2.28561 3.924191,-3.87217 0.619207,-1.16445 0.703538,-1.62401 0.704014,-3.83646 5.29e-4,-2.12628 -0.09539,-2.69698 -0.622094,-3.70416 -0.848,-1.62158 -2.287764,-3.08054 -3.87382,-3.92547 l -1.322916,-0.70474 -9.730454,-0.0784 -9.730452,-0.0784 0.07316,-22.94769 0.07316,-22.947685 0.675905,-1.313181 c 0.846154,-1.643949 2.465499,-2.901689 4.220535,-3.278077 1.895552,-0.406522 81.18032,-0.406522 83.07587,0 1.75504,0.376388 3.37438,1.634128 4.22054,3.278077 l 0.6759,1.313181 0.0732,22.947685 0.0732,22.94769 -9.73045,0.0784 -9.73045,0.0784 -1.32292,0.70474 c -1.58605,0.84493 -3.02582,2.30389 -3.87382,3.92547 -0.52671,1.00718 -0.62255,1.57788 -0.62209,3.70416 5.3e-4,2.21245 0.0848,2.67201 0.70401,3.83646 0.84366,1.58656 2.30318,3.02672 3.92419,3.87217 1.08274,0.5647 1.58793,0.62914 5.57523,0.71105 l 4.3846,0.0901 0.46381,2.41951 c 1.1632,6.0679 4.11258,10.94165 8.23066,13.6009 l 1.96163,1.26672 -0.0554,18.52822 -0.0554,18.52822 -0.6759,1.31308 c -0.84618,1.64388 -2.46556,2.90161 -4.22054,3.27799 -2.10302,0.45101 -81.725992,0.36765 -83.41791,-0.0873 z m 39.150942,-12.899 c 0.611317,-0.57431 0.612364,-0.58773 0.612364,-7.8543 0,-7.10939 -0.01341,-7.29329 -0.575286,-7.89138 l -0.575289,-0.61237 H 69.836297 54.090615 l -0.612365,0.57529 c -0.611317,0.5743 -0.612365,0.58773 -0.612365,7.8543 0,7.10939 0.01342,7.29328 0.575287,7.89138 l 0.575288,0.61236 h 15.745679 15.745682 z m 38.099994,0 c 0.61132,-0.57431 0.61237,-0.58773 0.61237,-7.8543 0,-7.10939 -0.0134,-7.29329 -0.57529,-7.89138 l -0.57529,-0.61237 H 107.93629 92.190613 l -0.612365,0.57529 c -0.611317,0.5743 -0.612364,0.58773 -0.612364,7.8543 0,7.10939 0.01341,7.29328 0.575286,7.89138 l 0.575289,0.61236 h 15.745681 15.74568 z m -5.73763,-22.70805 v -2.11666 H 88.849217 59.215885 v 2.11666 2.11667 h 29.633332 29.633333 z m -50.799999,-8.46666 v -2.11667 h -2.116666 -2.116667 v 2.11667 2.11666 h 2.116667 2.116666 z m 46.566669,0 v -2.11667 H 93.08255 71.915885 v 2.11667 2.11666 h 21.166665 21.16667 z m -21.176602,-16.6844 c 4.045206,-2.31756 5.704577,-3.4402 8.984132,-6.07817 5.3494,-4.3029 10.06822,-9.96314 12.77831,-15.32762 l 1.39853,-2.76832 0.0753,-9.67853 0.0753,-9.67853 -0.60446,-0.55102 c -0.41375,-0.37718 -1.25336,-0.64465 -2.66117,-0.84778 -5.02534,-0.72509 -8.49642,-4.195597 -9.22137,-9.219858 -0.20127,-1.394964 -0.47186,-2.250369 -0.83944,-2.653793 l -0.54243,-0.595313 H 88.849217 75.183126 l -0.54243,0.595313 c -0.367586,0.403424 -0.638167,1.258829 -0.839446,2.653793 -0.724951,5.024261 -4.19603,8.494768 -9.221369,9.219858 -1.407803,0.20313 -2.247416,0.4706 -2.661166,0.84778 l -0.604465,0.55102 0.0753,9.67853 0.0753,9.67853 1.39853,2.76832 c 3.35363,6.63833 9.696309,13.55796 16.930596,18.47067 3.518734,2.38953 8.068789,4.80285 9.055248,4.80285 0.709202,0 1.823363,-0.49272 4.223401,-1.86773 z m -71.95092,35.05291 0.0058,-3.94872 0.482001,1.05833 c 0.516597,1.1343 2.266121,2.87525 3.181295,3.16572 0.457523,0.14521 0.558415,0.38913 0.558415,1.35003 v 1.17279 h -1.504301 c -1.180355,0 -1.636173,0.12389 -2.116667,0.57529 l -0.612365,0.57529 z m 134.799392,3.32732 c -0.37484,-0.41419 -0.81491,-0.52917 -2.02538,-0.52917 h -1.5465 v -1.17279 c 0,-0.9609 0.1009,-1.20482 0.55842,-1.35003 0.91517,-0.29047 2.6647,-2.03142 3.18129,-3.16572 l 0.48201,-1.05833 0.006,3.9026 c 0.003,2.14643 -0.0353,3.9026 -0.0855,3.9026 -0.0502,0 -0.30678,-0.23812 -0.57017,-0.52916 z m -134.798054,-69.78385 -0.0071,-38.695313 12.766145,0.0177 c 10.709624,0.01485 12.595657,0.07176 11.707812,0.353285 -2.905855,0.921413 -5.265596,2.96984 -6.582897,5.714432 l -0.825436,1.719792 -0.0769,15.610414 -0.0769,15.61042 -2.745219,1.80677 c -1.50987,0.99373 -2.927761,2.00848 -3.150869,2.25501 -0.223107,0.24654 -1.719461,5.7438 -3.325229,12.21615 -2.762832,11.1361 -2.993702,11.90985 -4.300228,14.41182 -0.759358,1.45416 -1.829598,3.77588 -2.378313,5.15938 l -0.997663,2.51545 z m 134.688414,36.77708 c -0.34875,-0.98227 -1.3864,-3.27422 -2.30591,-5.09323 -1.64718,-3.25853 -1.71509,-3.48086 -4.60632,-15.07947 -1.61396,-6.47469 -3.11529,-11.97195 -3.33627,-12.21614 -0.22098,-0.24418 -1.63987,-1.25701 -3.15309,-2.25074 l -2.7513,-1.80677 -0.005,-15.09938 c -0.005,-16.881127 0.0271,-16.54476 -1.85979,-19.370352 -1.19803,-1.794068 -3.20434,-3.316428 -5.3453,-4.055954 -1.39127,-0.48057 -1.33217,-0.483127 11.3676,-0.491719 l 12.76615,-0.0086 V 116.7089 c 0,21.24604 -0.0308,38.62917 -0.0685,38.62917 -0.0377,0 -0.35385,-0.80368 -0.70259,-1.78594 z"
         id="path1079" /><path
         style="fill:#e2e2e2;stroke-width:0.264583"
         d="m 29.582553,183.42998 c 0,-2.37535 -0.05285,-2.64936 -0.612365,-3.175 -0.336801,-0.31641 -0.86698,-0.57529 -1.178175,-0.57529 -0.900276,0 -1.83065,-0.53347 -2.149033,-1.23225 -0.199422,-0.43768 -0.29376,-3.99477 -0.29376,-11.07643 V 156.9393 l 0.791831,-1.99332 c 3.9949,-10.05658 10.200958,-16.50846 16.670668,-17.33099 1.091406,-0.13876 4.853189,-0.25597 8.359513,-0.26046 7.179807,-0.009 6.870808,-0.0937 7.640812,2.08875 0.694642,1.96883 0.439597,3.98713 -0.712978,5.64214 l -0.506714,0.72761 h -3.904613 c -3.739348,0 -3.928961,0.0259 -4.479901,0.61236 -0.316407,0.3368 -0.575286,0.81305 -0.575286,1.05834 0,0.38041 -0.305742,0.44596 -2.080129,0.44596 h -2.080129 l -0.170995,1.65365 c -0.610857,5.90741 -3.473971,11.86637 -6.859878,14.27734 -0.495496,0.35283 -1.396351,0.65861 -2.170197,0.73664 l -1.323046,0.13341 -0.06915,10.64948 -0.06915,10.64948 h -2.113665 -2.113665 z m 114.236847,-8.04977 -0.0691,-10.64948 -1.32305,-0.13341 c -0.77385,-0.078 -1.6747,-0.38381 -2.1702,-0.73664 -3.3859,-2.41097 -6.24902,-8.36993 -6.85988,-14.27734 l -0.17099,-1.65365 h -2.08013 c -1.83754,0 -2.08013,-0.0563 -2.08013,-0.48304 0,-0.26568 -0.27556,-0.74193 -0.61236,-1.05834 -0.57073,-0.53617 -0.87378,-0.57528 -4.45691,-0.57528 -4.3369,0 -4.37605,-0.0161 -5.11022,-2.09692 -0.51263,-1.45294 -0.51263,-2.81989 0,-4.27283 0.77,-2.18242 0.46101,-2.09795 7.64081,-2.08875 3.50633,0.004 7.26811,0.1217 8.35951,0.26046 6.46972,0.82253 12.67577,7.27441 16.67067,17.33099 l 0.79183,1.99332 v 10.43171 c 0,7.08166 -0.0943,10.63875 -0.29376,11.07643 -0.32306,0.70905 -1.25125,1.23225 -2.18611,1.23225 -0.33159,0 -0.86176,0.27557 -1.17817,0.61237 -0.50892,0.54171 -0.57529,0.90803 -0.57529,3.175 v 2.56263 h -2.11367 -2.11366 z M 70.592968,100.46938 c 0,-0.0549 0.208359,-0.2633 0.463021,-0.46302 0.419645,-0.329104 0.429003,-0.319746 0.0999,0.0999 -0.345644,0.44073 -0.562917,0.58089 -0.562917,0.36312 z M 136.44046,81.056259 c -0.3291,-0.419644 -0.31974,-0.429002 0.0999,-0.09989 0.44073,0.345643 0.58089,0.562915 0.36313,0.562915 -0.0549,0 -0.2633,-0.208359 -0.46303,-0.463021 z"
         id="path1077" /><path
         style="fill:#d6d6d6;stroke-width:0.264583"
         d="m 33.815886,177.56303 v -8.46667 l 1.124479,-0.003 c 0.618464,-0.002 1.570964,-0.0767 2.116667,-0.16691 l 0.992187,-0.164 v 8.63358 8.63357 h -2.116666 -2.116667 z m 105.833324,-0.16691 v -8.63358 l 0.99219,0.164 c 0.54571,0.0902 1.49821,0.16531 2.11667,0.16691 l 1.12448,0.003 v 8.46667 8.46666 h -2.11667 -2.11667 z M 34.416234,164.67967 c 0.257431,-0.0671 0.614619,-0.0627 0.79375,0.01 0.179132,0.0725 -0.03149,0.12736 -0.468056,0.12197 -0.436562,-0.005 -0.583125,-0.0647 -0.325694,-0.13177 z m 96.481706,-0.54425 -0.64143,-0.7276 0.7276,0.64143 c 0.68006,0.59952 0.84894,0.81378 0.64143,0.81378 -0.0474,0 -0.37481,-0.32743 -0.7276,-0.72761 z m 11.73287,0.54425 c 0.25743,-0.0671 0.61462,-0.0627 0.79375,0.01 0.17913,0.0725 -0.0315,0.12736 -0.46805,0.12197 -0.43657,-0.005 -0.58313,-0.0647 -0.3257,-0.13177 z M 37.430021,163.8395 c 3.472036,-2.51514 6.254047,-8.2871 6.871278,-14.25616 l 0.170995,-1.65365 h 2.093268 2.093266 l -0.180306,1.65365 c -0.80763,7.40703 -4.516182,12.83067 -9.924201,14.51383 -2.17208,0.67603 -2.355281,0.63404 -1.1243,-0.25767 z m 9.218156,0.22978 c 0.263389,-0.29105 0.538421,-0.52917 0.611181,-0.52917 0.07276,0 -0.08321,0.23812 -0.346597,0.52917 -0.263389,0.29104 -0.538421,0.52916 -0.611181,0.52916 -0.07276,0 0.08321,-0.23812 0.346597,-0.52916 z m 92.408883,0.0154 c -5.34313,-1.70806 -9.03576,-7.1515 -9.83715,-14.50131 l -0.1803,-1.65365 h 2.09326 2.09327 l 0.17099,1.65365 c 0.61724,5.96906 3.39925,11.74102 6.87128,14.25616 1.20423,0.87233 0.92643,0.92855 -1.21135,0.24516 z M 58.099066,145.08542 c 0.6913,-0.99265 1.116819,-2.33074 1.116819,-3.51194 0,-1.1665 -0.632124,-3.08082 -1.238599,-3.75096 -0.408781,-0.4517 -0.37053,-0.47616 0.744654,-0.47616 1.778209,0 3.407838,0.93518 4.131966,2.37117 0.327422,0.6493 0.595312,1.48727 0.595312,1.86216 0,0.3749 -0.26789,1.21287 -0.595312,1.86217 -0.719857,1.42752 -2.355093,2.37117 -4.108974,2.37117 h -1.15258 z m 58.521314,0.13229 c -1.2708,-0.64082 -2.37116,-2.32908 -2.37116,-3.63802 0,-0.37489 0.26789,-1.21286 0.59531,-1.86216 0.72413,-1.43599 2.35376,-2.37117 4.13196,-2.37117 1.11519,0 1.15344,0.0245 0.74466,0.47616 -0.6077,0.67149 -1.2386,2.58528 -1.2386,3.75717 0,1.1719 0.6309,3.08568 1.2386,3.75718 0.40878,0.4517 0.37053,0.47616 -0.74466,0.47616 -0.69293,0 -1.66025,-0.24441 -2.35611,-0.59532 z m -82.936785,-2.84427 c 0.568389,-0.58208 1.092966,-1.05833 1.165726,-1.05833 0.07276,0 -0.332754,0.47625 -0.901143,1.05833 -0.568389,0.58209 -1.092966,1.05834 -1.165727,1.05834 -0.07276,0 0.332754,-0.47625 0.901144,-1.05834 z m 110.054215,-0.0661 -1.04589,-1.12448 1.12448,1.04588 c 1.04576,0.97266 1.24606,1.20308 1.04589,1.20308 -0.0432,0 -0.54925,-0.50602 -1.12448,-1.12448 z m -70.532759,-2.24896 c -0.329107,-0.41965 -0.319749,-0.429 0.0999,-0.0999 0.254661,0.19972 0.463021,0.40808 0.463021,0.46302 0,0.21777 -0.217273,0.0776 -0.562917,-0.36312 z M 43.27474,137.43572 c 0.181901,-0.0734 0.479557,-0.0734 0.661458,0 0.181901,0.0734 0.03307,0.13345 -0.330729,0.13345 -0.363802,0 -0.51263,-0.0601 -0.330729,-0.13345 z m 90.4875,0 c 0.1819,-0.0734 0.47955,-0.0734 0.66145,0 0.1819,0.0734 0.0331,0.13345 -0.33073,0.13345 -0.3638,0 -0.51263,-0.0601 -0.33072,-0.13345 z m -101.261755,-0.2878 c 0.0041,-0.10914 0.749039,-3.14834 1.655346,-6.75378 l 1.64783,-6.55535 1.122779,-0.66954 1.122779,-0.66955 v 5.83202 5.83202 l -1.653645,0.83169 c -0.909505,0.45743 -2.087498,1.17352 -2.617762,1.59131 -0.986664,0.77738 -1.290572,0.9109 -1.277327,0.56118 z m 111.643735,-0.47571 c -0.50772,-0.38039 -1.7268,-1.10019 -2.70907,-1.59956 l -1.78594,-0.90794 v -5.81751 c 0,-3.19963 0.0658,-5.81751 0.14633,-5.81751 0.0805,0 0.5865,0.29899 1.12448,0.66441 l 0.97815,0.66441 1.64572,6.54549 c 0.90515,3.60001 1.61822,6.63871 1.58459,6.75265 -0.0336,0.11394 -0.47654,-0.10405 -0.98426,-0.48444 z"
         id="path1075" /><path
         style="fill:#b0b0b0;stroke-width:0.264583"
         d="m 85.021196,143.27355 c -3.908678,-2.39111 -7.234803,-5.03523 -10.59177,-8.42 -3.61174,-3.64165 -5.787826,-6.5536 -7.604781,-10.17641 l -1.25876,-2.50984 v -7.21694 -7.21693 l 1.124479,-0.28967 c 2.127067,-0.54793 2.77527,-0.80842 4.329102,-1.73971 3.557484,-2.1322 5.923457,-5.37365 6.982732,-9.566541 l 0.284083,-1.12448 h 8.559313 8.559315 l 0.170249,0.907508 c 0.09364,0.49913 0.586528,1.7396 1.095314,2.756601 1.551151,3.100572 4.683138,5.598842 8.151648,6.502272 0.78634,0.20482 1.80038,0.56407 2.25341,0.79834 l 0.82369,0.42595 -0.006,8.12914 c -0.006,7.9843 -0.0177,8.15686 -0.64583,9.68471 -1.99094,4.84255 -7.03797,11.25091 -12.312476,15.63349 -2.632676,2.18749 -6.593639,4.90735 -7.119702,4.88886 -0.231507,-0.008 -1.488688,-0.66799 -2.793735,-1.46635 z m 13.798989,-12.85248 c 0.611317,-0.5743 0.612365,-0.58773 0.612365,-7.8543 0,-7.10938 -0.01342,-7.29328 -0.575286,-7.89138 -0.31641,-0.3368 -0.778095,-0.61236 -1.02597,-0.61236 -0.381251,0 -0.468749,-0.35667 -0.567946,-2.31511 -0.08696,-1.71679 -0.273519,-2.6228 -0.721876,-3.50572 -0.816229,-1.60736 -2.257692,-3.07439 -3.855797,-3.9242 -1.164762,-0.61937 -1.623412,-0.70347 -3.836458,-0.70347 -2.213046,0 -2.671696,0.0841 -3.836458,0.70347 -1.598105,0.84981 -3.039568,2.31684 -3.855797,3.9242 -0.448357,0.88292 -0.634918,1.78893 -0.721876,3.50572 -0.09487,1.8731 -0.19623,2.31511 -0.530867,2.31511 -0.227481,0 -0.689169,0.25888 -1.02597,0.57528 -0.611317,0.57431 -0.612365,0.58774 -0.612365,7.85431 0,7.10938 0.01341,7.29328 0.575286,7.89138 l 0.575289,0.61236 h 9.395679 c 9.282618,0 9.403051,-0.007 10.008047,-0.57529 z m -14.14114,-18.04745 c 0.23154,-2.88451 1.727301,-4.49777 4.170172,-4.49777 2.442871,0 3.938632,1.61326 4.170172,4.49777 l 0.135609,1.68941 h -4.305781 -4.305781 z"
         id="path1073" /><path
         style="fill:#a8a8a8;stroke-width:0.264583"
         d="m 29.582553,208.25469 v -3.175 h 4.365625 c 3.316,0 4.365675,0.0795 4.365834,0.33073 4.76e-4,0.74956 1.628169,3.69419 2.66199,4.81575 l 1.109362,1.20352 h -6.251405 -6.251406 z m 107.139877,1.97148 c 1.03382,-1.12156 2.66152,-4.06619 2.66199,-4.81575 1.6e-4,-0.25121 1.04984,-0.33073 4.36584,-0.33073 h 4.36562 v 3.175 3.175 h -6.2514 -6.25141 z M 25.34922,195.55469 v -5.29167 h 6.35 6.349999 v 5.29167 5.29167 h -6.349999 -6.35 z m 114.29999,0 v -5.29167 h 6.35 6.35 v 5.29167 5.29167 h -6.35 -6.35 z m -82.549991,-7.40833 v -4.23333 h 12.699999 12.699999 v 4.23333 4.23333 H 69.799218 57.099219 Z m 25.399998,-65.61667 v -4.23333 h 2.116667 2.116666 v 2.11667 2.11666 h 2.116667 2.116667 v -2.11666 -2.11667 h 2.116666 2.116667 v 4.23333 4.23334 h -6.35 -6.35 z"
         id="path1071" /><path
         style="fill:#969696;stroke-width:0.264583"
         d="m 35.61836,164.68229 c 0.190996,-0.0764 0.419199,-0.067 0.507118,0.0209 0.08792,0.0879 -0.06835,0.15045 -0.347265,0.13897 -0.308225,-0.0127 -0.37092,-0.0754 -0.159853,-0.15985 z m 106.09791,0 c 0.191,-0.0764 0.4192,-0.067 0.50712,0.0209 0.0879,0.0879 -0.0683,0.15045 -0.34727,0.13897 -0.30822,-0.0127 -0.37091,-0.0754 -0.15985,-0.15985 z m -7.92164,-3.72187 c -0.32911,-0.41964 -0.31975,-0.429 0.0999,-0.0999 0.44073,0.34564 0.58088,0.56291 0.36312,0.56291 -0.0549,0 -0.2633,-0.20836 -0.46302,-0.46302 z M 88.055467,145.15157 c -0.438825,-0.25086 -0.519784,-0.38128 -0.240535,-0.3875 0.54034,-0.012 4.55767,-2.78424 7.119701,-4.91303 5.313227,-4.41476 10.375997,-10.86057 12.330087,-15.69843 0.64699,-1.60178 0.64904,-1.63644 0.57575,-9.7606 l -0.0735,-8.1531 1.66569,0.60477 c 0.91612,0.33262 1.89839,0.60477 2.18281,0.60477 0.50093,0 0.51713,0.23443 0.51713,7.48194 v 7.48194 l -0.9238,1.92765 c -2.79126,5.82438 -8.71774,12.42679 -15.043836,16.75961 -2.361089,1.61715 -7.031871,4.45685 -7.302111,4.43948 -0.08023,-0.005 -0.443534,-0.17953 -0.807336,-0.3875 z M 34.87422,141.21521 c 0,-0.0549 0.208359,-0.2633 0.46302,-0.46302 0.419644,-0.3291 0.429003,-0.31975 0.09989,0.0999 -0.345643,0.44073 -0.562915,0.58089 -0.562915,0.36312 z m 45.209997,-1.15687 c -0.329107,-0.41965 -0.319749,-0.429 0.0999,-0.0999 0.254662,0.19972 0.463021,0.40808 0.463021,0.46302 0,0.21777 -0.217273,0.0776 -0.562917,-0.36312 z m 24.772293,-0.59531 c 0.26339,-0.29104 0.53842,-0.52917 0.61118,-0.52917 0.0728,0 -0.0832,0.23813 -0.3466,0.52917 -0.26339,0.29104 -0.53842,0.52916 -0.61118,0.52916 -0.0728,0 0.0832,-0.23812 0.3466,-0.52916 z m -32.696068,-0.46302 -0.641432,-0.72761 0.727604,0.64143 c 0.680056,0.59952 0.848939,0.81378 0.641432,0.81378 -0.04739,0 -0.374814,-0.32742 -0.727604,-0.7276 z m 5.291666,-1.05834 -0.641432,-0.7276 0.727604,0.64143 c 0.680056,0.59952 0.848939,0.81378 0.641432,0.81378 -0.04739,0 -0.374814,-0.32742 -0.727604,-0.72761 z M 42.497527,137.4302 c 0.190996,-0.0764 0.419199,-0.067 0.507118,0.0209 0.08792,0.0879 -0.06835,0.15045 -0.347266,0.13896 -0.308224,-0.0127 -0.370919,-0.0754 -0.159852,-0.15985 z m 27.546248,-0.54686 -0.641432,-0.7276 0.727604,0.64143 c 0.680056,0.59951 0.848939,0.81377 0.641432,0.81377 -0.04739,0 -0.374814,-0.32742 -0.727604,-0.7276 z m 37.326275,0.0661 c 0.34177,-0.36381 0.68094,-0.66146 0.7537,-0.66146 0.0728,0 -0.14734,0.29765 -0.48912,0.66146 -0.34177,0.3638 -0.68094,0.66145 -0.7537,0.66145 -0.0728,0 0.14734,-0.29765 0.48912,-0.66145 z m 27.46706,0.48071 c 0.19099,-0.0764 0.4192,-0.067 0.50711,0.0209 0.0879,0.0879 -0.0684,0.15045 -0.34726,0.13896 -0.30823,-0.0127 -0.37092,-0.0754 -0.15985,-0.15985 z m -60.547619,-2.39894 -1.712148,-1.78594 1.785937,1.71215 c 1.658856,1.59031 1.906887,1.85972 1.712148,1.85972 -0.04058,0 -0.844256,-0.80367 -1.785937,-1.78593 z m -2.79562,-3.04271 -0.504028,-0.59531 0.595312,0.50402 c 0.327422,0.27722 0.595313,0.54511 0.595313,0.59532 0,0.21173 -0.212934,0.0554 -0.686597,-0.50403 z m -1.199237,-1.45521 c -0.329107,-0.41964 -0.319749,-0.429 0.0999,-0.0999 0.254662,0.19972 0.463021,0.40808 0.463021,0.46302 0,0.21777 -0.217273,0.0776 -0.562917,-0.36312 z m 11.410833,-23.44937 c 0,-0.0549 0.20836,-0.2633 0.463021,-0.46302 0.419645,-0.32911 0.429003,-0.31975 0.0999,0.0999 -0.345643,0.44073 -0.562917,0.58089 -0.562917,0.36313 z m 13.724583,-0.36313 c -0.329107,-0.41964 -0.319749,-0.429 0.0999,-0.0999 0.44073,0.34564 0.580887,0.56291 0.363125,0.56291 -0.05494,0 -0.263301,-0.20836 -0.463021,-0.46302 z m -12.137083,-1.22437 c 0,-0.0549 0.20836,-0.2633 0.463021,-0.46302 0.419645,-0.32911 0.429003,-0.31975 0.0999,0.0999 -0.345644,0.44073 -0.562917,0.58089 -0.562917,0.36313 z m 10.549583,-0.36313 c -0.329107,-0.41964 -0.319749,-0.429 0.0999,-0.0999 0.254661,0.19972 0.463021,0.40808 0.463021,0.46302 0,0.21776 -0.217273,0.0776 -0.562917,-0.36313 z m 10.95166,0.0551 c -3.50163,-0.94303 -6.613613,-3.45332 -8.138938,-6.565301 -0.509604,-1.039697 -1.001043,-2.277311 -1.092087,-2.750254 l -0.165531,-0.859896 h 2.115923 2.115923 l 0.177837,1.12448 c 0.433113,2.738612 3.010443,6.686051 5.710633,8.746381 0.50932,0.38863 0.86651,0.70009 0.79375,0.69213 -0.0728,-0.008 -0.75564,-0.18236 -1.51751,-0.38754 z m -31.952284,-0.91503 c 0.26339,-0.29105 0.538422,-0.52917 0.611182,-0.52917 0.07276,0 -0.08321,0.23812 -0.346599,0.52917 -0.26339,0.29104 -0.538421,0.52916 -0.611182,0.52916 -0.07276,0 0.08321,-0.23812 0.346599,-0.52916 z m 1.852083,-1.85209 c 0.26339,-0.29104 0.538422,-0.52916 0.611183,-0.52916 0.07276,0 -0.08321,0.23812 -0.346599,0.52916 -0.26339,0.29104 -0.538422,0.52917 -0.611182,0.52917 -0.07276,0 0.08321,-0.23813 0.346598,-0.52917 z"
         id="path1069" /><path
         style="fill:#8e8e8e;stroke-width:0.264583"
         d="m 95.199217,188.14636 v -4.23333 h 12.700003 12.7 v 4.23333 4.23333 h -12.7 -12.700003 z M 32.228386,137.46304 c 0,-0.22687 0.121005,-0.33771 0.2689,-0.2463 0.147894,0.0914 0.200399,0.27702 0.116676,0.41249 -0.226811,0.36698 -0.385576,0.29856 -0.385576,-0.16619 z m 112.749094,0.0597 c -0.22162,-0.26703 -0.19734,-0.35278 0.0999,-0.35278 0.21597,0 0.39268,0.15875 0.39268,0.35278 0,0.19403 -0.045,0.35278 -0.0999,0.35278 -0.0549,0 -0.23164,-0.15875 -0.39267,-0.35278 z m -1.12868,-0.90399 c -0.32911,-0.41965 -0.31975,-0.42901 0.0999,-0.0999 0.44073,0.34564 0.58089,0.56292 0.36313,0.56292 -0.0549,0 -0.2633,-0.20836 -0.46302,-0.46302 z"
         id="path1067" /><path
         style="fill:#010101;stroke-width:0.264583"
         d="m 46.008608,213.12617 c -1.923889,-0.51727 -3.987881,-1.7333 -5.178181,-3.05083 -0.933585,-1.03336 -2.515975,-3.96679 -2.516415,-4.66492 -1.59e-4,-0.25121 -1.049834,-0.33073 -4.365834,-0.33073 h -4.365625 v 3.175 3.175 H 27.465887 25.34922 v -3.175 -3.175 h -1.178175 c -1.47919,0 -2.383893,-0.40372 -2.761399,-1.23225 -0.4048,-0.88844 -0.4048,-15.69706 0,-16.5855 0.377506,-0.82853 1.282209,-1.23225 2.761399,-1.23225 h 1.178175 l -0.0068,-1.25677 c -0.0065,-1.20582 -0.04966,-1.27652 -1.063298,-1.74395 -0.58106,-0.26795 -1.365841,-0.89279 -1.743959,-1.38853 -1.370544,-1.79687 -1.395161,-2.04537 -1.407637,-14.20928 l -0.01161,-11.32249 0.952052,-2.56814 c 0.523628,-1.41247 1.65622,-3.93735 2.516871,-5.61084 1.523185,-2.96175 1.638838,-3.3419 4.346682,-14.2875 1.530024,-6.18463 2.902583,-11.54244 3.050132,-11.90625 0.163709,-0.40364 1.39451,-1.40692 3.157852,-2.57409 l 2.889583,-1.91264 0.07623,-15.41757 0.07623,-15.417568 0.614529,-1.521906 c 1.187369,-2.940568 3.516116,-5.167065 6.48967,-6.204726 1.289144,-0.449864 3.63359,-0.475451 43.563507,-0.475451 39.929916,0 42.274366,0.02559 43.563506,0.475451 2.97356,1.037661 5.30231,3.264158 6.48967,6.204726 l 0.61453,1.521906 0.0761,15.373218 0.0761,15.37321 2.88891,1.94054 c 1.8026,1.21085 2.99007,2.19546 3.15794,2.61845 0.14797,0.37285 1.52087,5.73807 3.05089,11.9227 2.70785,10.9456 2.8235,11.32575 4.34668,14.2875 0.86065,1.67349 1.99325,4.19837 2.51687,5.61084 l 0.95206,2.56814 -0.0116,11.32249 c -0.0125,12.16391 -0.0371,12.41241 -1.40764,14.20928 -0.37811,0.49574 -1.1629,1.12058 -1.74396,1.38853 -1.01364,0.46743 -1.05674,0.53813 -1.06329,1.74395 l -0.007,1.25677 h 1.17818 c 1.47919,0 2.38389,0.40372 2.7614,1.23225 0.4048,0.88844 0.4048,15.69706 0,16.5855 -0.37751,0.82853 -1.28221,1.23225 -2.7614,1.23225 h -1.17818 v 3.175 3.175 h -2.11666 -2.11667 v -3.175 -3.175 h -4.36562 c -3.51328,0 -4.36563,0.0705 -4.36563,0.36133 0,0.19873 -0.41792,1.19671 -0.92872,2.21773 -1.45634,2.91104 -3.62786,4.63346 -6.92401,5.49199 -2.25439,0.5872 -83.334545,0.5639 -85.523295,-0.0246 z m 85.873462,-4.40073 c 1.06405,-0.58241 2.36382,-1.88218 2.94622,-2.94622 0.41658,-0.76108 0.4615,-2.43206 0.5282,-19.6479 l 0.0729,-18.81608 -1.74099,-1.1343 c -1.98649,-1.29425 -4.07632,-3.49447 -5.39428,-5.67924 -1.28258,-2.12612 -2.64221,-5.90969 -2.99606,-8.33745 l -0.3023,-2.07408 -4.2488,-0.0881 c -3.92838,-0.0814 -4.35987,-0.14014 -5.72162,-0.7788 -5.31163,-2.49113 -6.59151,-9.48353 -2.48711,-13.58793 0.55207,-0.55206 1.66889,-1.31567 2.48184,-1.69691 l 1.47809,-0.69316 h 9.46433 9.46434 l -0.0716,-23.28333 c -0.066,-21.443761 -0.10759,-23.349055 -0.52692,-24.115154 -0.5824,-1.064046 -1.88217,-2.363812 -2.94622,-2.946218 -0.777,-0.425293 -3.6128,-0.455296 -43.032853,-0.455296 -39.420052,0 -42.255855,0.03 -43.032858,0.455296 -1.064046,0.582406 -2.363813,1.882172 -2.946219,2.946218 -0.419323,0.766099 -0.460954,2.671393 -0.526918,24.115154 l -0.07162,23.28333 h 9.464329 9.464331 l 1.478089,0.69316 c 3.111016,1.45893 4.868439,4.21728 4.868439,7.64121 0,3.42394 -1.757423,6.18229 -4.868439,7.64122 -1.3678,0.64144 -1.794798,0.69972 -5.722593,0.78114 l -4.244501,0.088 -0.339643,2.16098 c -0.911294,5.79814 -4.183613,11.24783 -8.385618,13.96532 l -1.703441,1.10164 0.0015,18.28555 c 9e-4,11.17364 0.102716,18.64998 0.261776,19.22254 0.491756,1.77012 2.110716,3.4672 3.930978,4.12065 0.782641,0.28096 8.870088,0.33584 42.76931,0.29025 38.981691,-0.0524 41.860321,-0.087 42.635981,-0.51151 z M 54.020548,196.30357 c -1.046866,-0.5069 -1.154663,-1.26844 -1.154663,-8.15721 0,-6.98824 0.100897,-7.65743 1.23225,-8.17291 0.905547,-0.41259 30.496619,-0.41259 31.402166,0 1.131353,0.51548 1.232249,1.18467 1.232249,8.17291 0,6.98824 -0.100896,7.65743 -1.232249,8.17291 -0.865526,0.39435 -30.663577,0.3795 -31.479753,-0.0157 z m 28.478669,-8.15721 v -4.23333 H 69.799218 57.099219 v 4.23333 4.23333 h 12.699999 12.699999 z m 9.621329,8.15721 c -1.046866,-0.5069 -1.154662,-1.26844 -1.154662,-8.15721 0,-6.98824 0.100896,-7.65743 1.232249,-8.17291 0.905547,-0.41259 30.496617,-0.41259 31.402167,0 1.13135,0.51548 1.23225,1.18467 1.23225,8.17291 0,6.98824 -0.1009,7.65743 -1.23225,8.17291 -0.86553,0.39435 -30.663578,0.3795 -31.479754,-0.0157 z m 28.478674,-8.15721 v -4.23333 h -12.7 -12.700003 v 4.23333 4.23333 h 12.700003 12.7 z M 59.215885,173.32969 v -2.11666 h 29.633332 29.633333 v 2.11666 2.11667 H 88.849217 59.215885 Z m 4.233333,-8.46666 v -2.11667 h 2.116667 2.116666 v 2.11667 2.11666 h -2.116666 -2.116667 z m 8.466667,0 v -2.11667 h 21.166665 21.16667 v 2.11667 2.11666 H 93.08255 71.915885 Z m 14.41979,-15.89776 C 75.016383,143.01129 65.556069,133.58159 62.089001,124.79704 l -0.738235,-1.87047 -0.0091,-8.78495 c -0.0061,-5.8935 0.08758,-8.99715 0.284652,-9.42968 0.353457,-0.77576 1.268076,-1.23224 2.468941,-1.23224 1.482375,0 4.174,-0.99266 5.565346,-2.05248 2.508062,-1.910444 4.371948,-5.271965 4.371948,-7.884819 0,-1.200863 0.456486,-2.115484 1.232249,-2.468945 0.902658,-0.411278 26.266178,-0.411278 27.168828,0 0.77577,0.353461 1.23225,1.268082 1.23225,2.468945 0,2.612854 1.86389,5.974375 4.37195,7.884819 1.39135,1.05982 4.08297,2.05248 5.56535,2.05248 1.20086,0 2.11548,0.45648 2.46894,1.23224 0.19708,0.43253 0.29076,3.53618 0.28466,9.42968 l -0.009,8.78495 -0.73823,1.87047 c -2.13021,5.39734 -7.46777,12.20085 -13.32996,16.99102 -3.839026,3.13698 -11.332523,7.80397 -13.076603,8.14418 -0.557591,0.10876 -1.294659,-0.13982 -2.867194,-0.96697 z m 5.080297,-4.83934 c 9.339018,-5.51859 16.281068,-12.45825 19.792778,-19.78595 l 0.9238,-1.92765 v -7.41933 -7.41933 l -1.38906,-0.32523 c -4.12385,-0.96553 -7.85073,-3.96576 -9.71085,-7.817473 -0.5761,-1.192939 -1.127491,-2.674995 -1.225303,-3.293458 L 99.6295,95.013029 H 88.878014 78.126528 l -0.321201,1.352191 c -1.241452,5.22621 -5.661044,9.6458 -10.887252,10.88725 l -1.35219,0.3212 v 7.41933 7.41933 l 0.9238,1.92765 c 2.891803,6.03418 8.672433,12.39277 15.612657,17.17365 1.71499,1.18139 6.486377,4.03481 6.746875,4.03481 0.08771,0 1.242745,-0.64013 2.566755,-1.42251 z M 79.407659,130.73501 c -1.064106,-0.43809 -1.141775,-1.00489 -1.141775,-8.33224 v -7.04088 l 0.649433,-0.64943 c 0.357188,-0.35719 0.818139,-0.64943 1.024337,-0.64943 0.281107,0 0.40468,-0.51434 0.493914,-2.05576 0.291338,-5.03271 3.659983,-8.39181 8.415649,-8.39181 4.735637,0 8.124462,3.36169 8.412977,8.34563 0.111525,1.92652 0.147735,2.02142 0.876205,2.29639 0.435387,0.16434 0.879099,0.60041 1.039077,1.02119 0.177908,0.46793 0.25083,3.25712 0.200996,7.68785 -0.07039,6.25788 -0.125447,7.00071 -0.550387,7.42552 -0.432768,0.43264 -1.238652,0.47657 -9.657291,0.52649 -5.051813,0.0299 -9.445225,-0.0526 -9.763135,-0.18352 z m 15.791558,-8.20532 v -4.23333 H 93.08255 90.965884 v 2.11667 2.11666 H 88.849217 86.73255 v -2.11666 -2.11667 h -2.116666 -2.116667 v 4.23333 4.23334 h 6.35 6.35 z M 93.03809,112.2194 c -0.165156,-2.92286 -1.554925,-4.37408 -4.188873,-4.37408 -2.633948,0 -4.023717,1.45122 -4.188873,4.37408 l -0.104174,1.84363 h 4.293047 4.293047 z m -54.988871,83.33529 v -5.29167 h -6.349999 -6.35 v 5.29167 5.29167 h 6.35 6.349999 z m 114.299991,0 v -5.29167 h -6.35 -6.35 v 5.29167 5.29167 h 6.35 6.35 z M 38.049219,177.34039 v -8.68931 l -1.25677,0.20687 c -0.691224,0.11377 -1.643724,0.21396 -2.116667,0.22264 l -0.859896,0.0158 v -2.11667 -2.11666 l 0.992188,-0.004 c 1.382569,-0.005 4.101869,-0.68006 5.432287,-1.34766 4.200099,-2.1076 6.883264,-6.0983 7.977073,-11.8644 0.228315,-1.20357 0.415118,-2.58628 0.415118,-3.07268 0,-1.07434 0.450406,-2.13021 1.028026,-2.40996 0.23495,-0.11379 2.829909,-0.26917 5.766575,-0.34529 4.857236,-0.12589 5.405283,-0.18765 6.069067,-0.68391 1.387933,-1.03762 1.820707,-1.88276 1.820707,-3.55552 0,-1.67335 -0.433348,-2.51908 -1.821839,-3.55552 -0.706602,-0.52745 -1.047888,-0.54552 -10.302404,-0.54552 -9.248332,0 -9.624214,0.0199 -11.129778,0.58823 -4.657736,1.75835 -8.896454,6.19667 -12.20263,12.77726 -2.652268,5.27906 -2.511056,4.3388 -2.511056,16.71985 0,10.81787 0.0039,10.89508 0.575287,11.50334 0.316408,0.3368 0.846587,0.61236 1.178176,0.61236 0.934852,0 1.863044,0.5232 2.186111,1.23225 0.161568,0.3546 0.293759,1.65116 0.293759,2.88124 v 2.23651 h 4.233333 4.233333 z m 110.066661,6.45279 c 0,-1.23008 0.13219,-2.52664 0.29376,-2.88124 0.31838,-0.69877 1.24876,-1.23225 2.14903,-1.23225 0.3112,0 0.84138,-0.25888 1.17818,-0.57528 l 0.61236,-0.57529 v -10.92805 c 0,-12.42349 0.14192,-11.47648 -2.51105,-16.75693 -2.52442,-5.02458 -5.58554,-8.79996 -8.97115,-11.06439 -3.37104,-2.25469 -3.66335,-2.3011 -14.49371,-2.3011 -9.1211,0 -9.46409,0.0184 -10.1701,0.54552 -1.38842,1.0366 -1.82169,1.88225 -1.82169,3.55552 0,1.67276 0.43277,2.5179 1.8207,3.55553 0.66379,0.49626 1.21184,0.55801 6.06907,0.68391 2.93667,0.0761 5.53163,0.23149 5.76658,0.34528 0.57762,0.27975 1.02802,1.33562 1.02802,2.40996 0,0.4864 0.18681,1.86911 0.41512,3.07269 1.09381,5.7661 3.77697,9.7568 7.97707,11.86439 1.33042,0.6676 4.04972,1.34222 5.43229,1.34767 l 0.99219,0.004 v 2.11666 2.11667 l -0.8599,-0.0158 c -0.47294,-0.009 -1.42544,-0.10886 -2.11666,-0.22264 l -1.25678,-0.20686 v 8.6893 8.6893 h 4.23334 4.23333 v -2.23651 z m -111.444878,-48.80715 1.378217,-0.64054 v -6.0529 -6.0529 l -1.182308,0.81345 c -0.867697,0.59699 -1.251406,1.07561 -1.441975,1.79865 -0.561123,2.12895 -3.19655,12.7497 -3.19655,12.88206 0,0.0773 0.68949,-0.36518 1.5322,-0.98335 0.842709,-0.61816 2.152397,-1.41217 2.910416,-1.76447 z m 107.341218,-3.22858 c -0.81348,-3.25626 -1.59591,-6.3638 -1.73872,-6.90566 -0.19057,-0.72304 -0.57428,-1.20166 -1.44198,-1.79865 l -1.18231,-0.81345 v 6.04948 6.04948 l 1.54691,0.73935 c 0.8508,0.40664 2.13072,1.18911 2.84427,1.73882 0.71355,0.5497 1.33191,0.96833 1.37412,0.93027 0.0422,-0.038 -0.58881,-2.73339 -1.40229,-5.98964 z"
         id="path1065" /></g></g></svg>
