<?xml version="1.0" encoding="UTF-8" standalone="no"?>
<!-- Created with Inkscape (http://www.inkscape.org/) -->

<svg
   width="135.46666mm"
   height="135.46666mm"
   viewBox="0 0 135.46666 135.46666"
   version="1.1"
   id="svg245"
   xml:space="preserve"
   inkscape:version="1.2.2 (732a01da63, 2022-12-09)"
   sodipodi:docname="tab_3.svg"
   xmlns:inkscape="http://www.inkscape.org/namespaces/inkscape"
   xmlns:sodipodi="http://sodipodi.sourceforge.net/DTD/sodipodi-0.dtd"
   xmlns="http://www.w3.org/2000/svg"
   xmlns:svg="http://www.w3.org/2000/svg"><sodipodi:namedview
     id="namedview247"
     pagecolor="#ffffff"
     bordercolor="#000000"
     borderopacity="0.25"
     inkscape:showpageshadow="2"
     inkscape:pageopacity="0.0"
     inkscape:pagecheckerboard="0"
     inkscape:deskcolor="#d1d1d1"
     inkscape:document-units="mm"
     showgrid="false"
     inkscape:zoom="0.73851712"
     inkscape:cx="210.55707"
     inkscape:cy="318.20522"
     inkscape:window-width="1920"
     inkscape:window-height="1009"
     inkscape:window-x="-8"
     inkscape:window-y="-8"
     inkscape:window-maximized="1"
     inkscape:current-layer="layer1" /><defs
     id="defs242" /><g
     inkscape:label="Calque 1"
     inkscape:groupmode="layer"
     id="layer1"
     transform="translate(-36.521194,-64.465706)"><g
       id="g432"><path
         style="fill:#fefefe;stroke-width:0.264583"
         d="M 36.521194,132.19904 V 64.465706 h 18.711995 c 16.983264,0 18.657859,0.03792 18.126004,0.410444 -1.158787,0.811647 -1.245669,1.299076 -1.383834,7.763724 l -0.132292,6.189793 -2.094709,1.299329 C 55.95846,88.682751 45.455456,103.03217 41.415762,118.83758 c -1.597284,6.24941 -1.85186,8.48631 -1.85186,16.27187 0,7.78391 0.254148,10.01808 1.851012,16.27188 4.728756,18.51922 18.043727,34.50913 35.494609,42.62536 5.499258,2.55765 13.961522,4.95798 19.804376,5.61753 1.366388,0.15424 -8.926506,0.2512 -29.038019,0.27354 l -31.154686,0.0346 z m 74.083326,67.55372 c 24.76771,-2.53873 45.82838,-18.8131 54.55113,-42.15373 1.26233,-3.37777 2.64661,-8.64539 3.30268,-12.5677 0.69809,-4.17353 0.69835,-15.66753 5.3e-4,-19.84375 -1.91282,-11.44625 -6.39819,-21.66913 -13.31491,-30.346822 L 153.7316,93.068933 V 79.675967 c 0,-8.641642 -0.0962,-13.572762 -0.27123,-13.899774 -0.14918,-0.278744 -0.59566,-0.682868 -0.99219,-0.898054 -0.64709,-0.351164 0.31586,-0.392332 9.39936,-0.40184 l 10.12031,-0.01059 v 67.733331 67.73333 l -31.15468,-0.0423 c -17.13508,-0.0233 -30.73797,-0.085 -30.22865,-0.13726 z m -4.28137,-14.9127 c -0.2447,-0.14275 -1.29542,-1.74648 -2.33493,-3.56383 l -1.89003,-3.30428 h -9.622452 -9.622457 l -0.411879,-0.58804 c -0.631902,-0.90216 -0.516967,-1.93672 0.285263,-2.56776 0.677601,-0.533 0.979966,-0.54837 10.789044,-0.54837 8.420741,0 10.183261,0.064 10.643561,0.3864 0.30342,0.21252 1.0565,1.23615 1.67351,2.27474 0.61701,1.03859 1.21799,1.78745 1.33549,1.66413 0.11751,-0.12333 1.05856,-2.06969 2.09123,-4.32527 1.03266,-2.25557 2.07816,-4.24987 2.32332,-4.43177 0.69304,-0.5142 1.78428,-0.39261 2.3747,0.26459 0.29416,0.32742 1.29718,1.93273 2.22894,3.56736 l 1.6941,2.97204 6.11209,0.005 c 3.57297,0.003 6.44307,0.1199 6.90884,0.28227 1.58565,0.55277 1.69824,2.69938 0.17791,3.39209 -0.96176,0.43821 -14.03373,0.40301 -14.91863,-0.0402 -0.36932,-0.18497 -1.23248,-1.29686 -1.95438,-2.51758 -0.71111,-1.20247 -1.33587,-2.14336 -1.38836,-2.09087 -0.0525,0.0525 -0.92357,1.9313 -1.93572,4.17513 -1.01215,2.24383 -2.07502,4.34758 -2.36193,4.675 -0.54812,0.62553 -1.44842,0.75651 -2.19723,0.31967 z M 78.060775,162.8907 c -0.476117,-0.47612 -0.529166,-0.88194 -0.529166,-4.04812 0,-2.38419 -0.102386,-3.62135 -0.3175,-3.83646 -0.215115,-0.21512 -1.452269,-0.3175 -3.836458,-0.3175 -4.686007,0 -4.577292,0.10369 -4.577292,-4.36563 v -3.30729 h 2.778125 2.778125 v -4.08604 c 0,-5.23651 -0.370287,-4.90979 5.564552,-4.90979 3.369088,0 4.507775,0.0871 4.902065,0.37499 0.463434,0.33838 0.521869,0.77765 0.59836,4.49792 l 0.08477,4.12292 h 4.073107 c 3.756173,0 4.094419,0.0398 4.347,0.51177 0.156753,0.2929 0.273892,2.36115 0.273892,4.83592 0,5.84617 0.300482,5.50023 -4.777502,5.50023 h -3.953748 v 2.77812 2.77813 h -3.439583 c -3.086806,0 -3.493857,-0.0543 -3.96875,-0.52917 z"
         id="path448" /><path
         style="fill:#e9f4fd;stroke-width:0.264583"
         d="m 58.183277,180.94851 c -0.329107,-0.41964 -0.319749,-0.429 0.0999,-0.0999 0.254662,0.19972 0.463021,0.40808 0.463021,0.46302 0,0.21776 -0.217272,0.0776 -0.562916,-0.36313 z m 91.579583,0.36313 c 0,-0.0549 0.20835,-0.2633 0.46302,-0.46302 0.41964,-0.32911 0.429,-0.31975 0.0999,0.0999 -0.34564,0.44073 -0.56291,0.58089 -0.56291,0.36313 z m -52.784377,-3.07511 -5.291667,-0.14924 5.209905,-0.0577 c 3.251599,-0.036 5.271369,0.0418 5.373429,0.20691 0.0899,0.14552 0.12673,0.23863 0.0818,0.20692 -0.045,-0.0317 -2.463011,-0.12483 -5.373427,-0.20692 z m 32.723327,-8.77389 c -0.55649,-3.74942 -2.99203,-7.07228 -6.33044,-8.63678 -1.36758,-0.64089 -1.81743,-0.71268 -4.43247,-0.70734 -2.65573,0.005 -3.04626,0.0721 -4.46268,0.76144 -0.85375,0.41552 -2.34293,1.50137 -3.3093,2.413 l -1.75704,1.6575 -1.66196,-1.56214 -1.66197,-1.56213 0.45064,-1.91514 c 0.37879,-1.60978 0.46759,-3.78752 0.55695,-13.6583 0.11356,-12.54315 0.10536,-12.63745 -1.20459,-13.85762 -0.38961,-0.36291 -5.73877,-2.89104 -11.88703,-5.61808 L 82.823275,121.81881 V 93.95076 66.082714 l 0.638522,-0.742358 0.638521,-0.742358 33.691162,-0.06994 c 24.96402,-0.05182 33.88237,0.009 34.42931,0.234902 1.62705,0.671939 1.51081,-3.40226 1.51081,52.95601 0,55.63946 0.0739,52.62628 -1.30826,53.36597 -0.32564,0.17428 -4.45974,0.27243 -11.47467,0.27243 h -10.96564 z m 8.38548,-17.97685 c 0.46135,-0.16083 0.95537,-0.51019 1.09782,-0.77636 0.42745,-0.7987 0.29734,-2.06789 -0.27017,-2.63539 -0.51476,-0.51476 -0.88194,-0.52917 -13.48344,-0.52917 h -12.95428 l -0.53947,0.57906 c -0.60752,0.65208 -0.71181,1.99454 -0.20844,2.68293 0.18207,0.249 0.68809,0.55918 1.12448,0.68929 1.19832,0.35728 24.20598,0.34784 25.2335,-0.0104 z m 0.82765,-8.43884 c 0.56751,-0.56751 0.69762,-1.8367 0.27017,-2.6354 -0.52852,-0.98754 -1.57456,-1.06876 -13.76392,-1.06876 -12.18936,0 -13.2354,0.0812 -13.76392,1.06876 -0.42961,0.80275 -0.29321,1.90342 0.31629,2.5522 l 0.57529,0.61237 h 12.91846 c 12.56569,0 12.93291,-0.0145 13.44763,-0.52917 z m -0.0499,-7.94781 c 0.72978,-0.67989 0.76485,-2.08279 0.0734,-2.93694 l -0.50563,-0.62462 -12.3928,-0.076 c -6.81605,-0.0418 -12.66373,-0.009 -12.99485,0.0729 -1.5831,0.39145 -2.17435,2.318 -1.07163,3.49179 l 0.57529,0.61237 h 12.86857 c 12.5848,0 12.88134,-0.0119 13.44763,-0.53948 z m 0.0499,-14.80635 c 0.67854,-0.67854 0.69,-2.12401 0.0234,-2.94726 l -0.50579,-0.62462 h -25.41602 c -25.067762,0 -25.423095,0.007 -25.931667,0.52917 -0.819901,0.84141 -0.832858,2.23808 -0.02823,3.04271 0.521816,0.52181 0.881943,0.52916 25.929167,0.52916 25.04722,0 25.40735,-0.007 25.92917,-0.52916 z m -0.0832,-7.98362 c 0.81014,-0.76109 0.83861,-2.31296 0.0554,-3.02173 -0.53953,-0.48827 -1.34994,-0.50403 -25.92181,-0.50403 -25.016609,0 -25.371955,0.007 -25.880513,0.52917 -0.841801,0.86388 -0.831991,2.2371 0.02167,3.0324 0.574363,0.5351 0.783865,0.53947 25.845963,0.53947 h 25.26691 l 0.61237,-0.57528 z m -0.0848,-7.91059 c 0.98484,-0.77467 0.98484,-2.36192 0,-3.13659 -0.69415,-0.54601 -0.80496,-0.54837 -25.78212,-0.54837 H 87.879867 l -0.692047,0.59531 c -0.978119,0.8414 -0.989599,2.19153 -0.02569,3.02066 l 0.71773,0.61736 h 25.08498 c 24.97717,0 25.08798,-0.002 25.78212,-0.54837 z M 94.276653,94.095813 c 0.372256,-0.292815 0.751975,-0.874538 0.843822,-1.29272 0.128403,-0.584608 0.357302,-0.798394 0.990407,-0.925015 4.359028,-0.871805 4.963268,-7.950845 0.867601,-10.164599 -0.507021,-0.274051 -1.739577,-0.480017 -3.412072,-0.570174 -2.868491,-0.154627 -3.295727,-0.397252 -2.971848,-1.68769 l 0.176292,-0.70241 h 2.998187 c 4.243596,0 5.193816,-0.432472 5.193816,-2.363856 0,-1.22488 -0.804593,-1.869477 -2.333501,-1.869477 -1.184627,0 -1.302041,-0.06106 -1.653646,-0.859896 -0.208163,-0.472942 -0.722169,-1.023018 -1.142235,-1.222389 -1.07011,-0.507896 -2.488422,0.15308 -2.710436,1.263143 -0.124503,0.622512 -0.328023,0.803463 -1.057625,0.940337 -1.013851,0.1902 -2.592919,1.455234 -3.117818,2.497768 -0.925782,1.83876 -0.672608,4.723011 0.555969,6.333759 1.023348,1.341679 2.460712,1.882498 5.021506,1.889384 2.728322,0.0073 2.998202,0.112816 2.998202,1.171826 0,1.369509 -0.299783,1.479818 -4.021666,1.479818 -3.03389,0 -3.441787,0.05512 -3.915833,0.529166 -0.291042,0.291042 -0.542878,0.737526 -0.559634,0.992188 -0.117117,1.779801 0.49524,2.424369 2.499762,2.631254 1.244151,0.128408 1.499455,0.240599 1.499455,0.658934 0,0.708811 1.175324,1.803041 1.936668,1.803041 0.35079,0 0.942374,-0.239575 1.314627,-0.532392 z m 43.810637,-7.168355 c 0.46135,-0.160827 0.95537,-0.510187 1.09782,-0.776355 0.42745,-0.7987 0.29734,-2.067889 -0.27017,-2.635398 -0.51468,-0.514675 -0.88194,-0.529167 -13.41055,-0.529167 -12.86147,0 -12.88233,9e-4 -13.49375,0.575288 -1.06227,0.997949 -0.77559,2.702429 0.55171,3.280236 1.07405,0.467562 24.20665,0.544954 25.52494,0.0854 z M 74.674109,166.27737 c -0.219276,-0.21928 -0.3175,-1.56986 -0.3175,-4.36563 v -4.04812 h -4.048125 c -2.795765,0 -4.146349,-0.0982 -4.365625,-0.3175 -0.223721,-0.22372 -0.3175,-1.74205 -0.3175,-5.14048 0,-4.03174 0.06821,-4.89118 0.415774,-5.23875 0.346824,-0.34682 1.081755,-0.40645 4.431771,-0.35958 3.499659,0.049 3.650308,0.0671 1.171726,0.14124 l -2.844271,0.085 v 3.29834 c 0,4.45901 -0.107513,4.35668 4.577292,4.35668 2.384189,0 3.621343,0.10238 3.836458,0.3175 0.215114,0.21511 0.3175,1.45227 0.3175,3.83646 0,4.70321 -0.123741,4.57729 4.497916,4.57729 h 3.439583 v 1.17172 c 0,1.95707 -0.130421,2.00328 -5.654524,2.00328 -3.398424,0 -4.916754,-0.0938 -5.140475,-0.3175 z m 12.725322,-19.45855 c 1.134436,-0.0497 2.920373,-0.0494 3.96875,7.9e-4 1.048375,0.0501 0.120198,0.0908 -2.062615,0.0904 -2.182812,-2.6e-4 -3.040573,-0.0413 -1.906135,-0.0911 z M 57.952443,89.501227 c 0,-0.05494 0.208359,-0.263302 0.463021,-0.463021 0.419644,-0.329108 0.429002,-0.319749 0.09989,0.0999 -0.345644,0.440729 -0.562916,0.580887 -0.562916,0.363126 z m 14.022495,-16.647782 0.131869,-6.138781 0.07176,5.934706 c 0.03947,3.264089 -0.01987,6.02654 -0.131871,6.138781 -0.111993,0.112241 -0.144285,-2.558377 -0.07176,-5.934706 z"
         id="path446" /><path
         style="fill:#d6eafb;stroke-width:0.264583"
         d="m 99.55817,199.74998 c 0.254662,-0.0666 0.67138,-0.0666 0.92604,0 0.25466,0.0666 0.0463,0.121 -0.46302,0.121 -0.509322,0 -0.717681,-0.0545 -0.46302,-0.121 z m 8.46667,0 c 0.25466,-0.0666 0.67138,-0.0666 0.92604,0 0.25466,0.0666 0.0463,0.121 -0.46302,0.121 -0.50933,0 -0.71769,-0.0545 -0.46302,-0.121 z m -11.228258,-0.26294 c 0.190994,-0.0764 0.419198,-0.067 0.507119,0.0209 0.08792,0.0879 -0.06835,0.15045 -0.347266,0.13896 -0.308226,-0.0127 -0.370919,-0.0754 -0.159853,-0.15985 z m 14.552078,0 c 0.191,-0.0764 0.4192,-0.067 0.50712,0.0209 0.0879,0.0879 -0.0683,0.15045 -0.34726,0.13896 -0.30823,-0.0127 -0.37092,-0.0754 -0.15986,-0.15985 z m -16.668745,-0.26458 c 0.190995,-0.0764 0.419198,-0.067 0.507119,0.0209 0.08792,0.0879 -0.06835,0.15045 -0.347266,0.13896 -0.308226,-0.0127 -0.370919,-0.0754 -0.159853,-0.15985 z m 18.785415,0 c 0.191,-0.0764 0.4192,-0.067 0.50712,0.0209 0.0879,0.0879 -0.0683,0.15045 -0.34727,0.13896 -0.30822,-0.0127 -0.37092,-0.0754 -0.15985,-0.15985 z m 1.5875,-0.26458 c 0.191,-0.0764 0.4192,-0.067 0.50712,0.0209 0.0879,0.0879 -0.0683,0.15045 -0.34727,0.13897 -0.30822,-0.0127 -0.37092,-0.0754 -0.15985,-0.15985 z m 1.5875,-0.26459 c 0.191,-0.0764 0.4192,-0.067 0.50712,0.0209 0.0879,0.0879 -0.0684,0.15045 -0.34727,0.13896 -0.30822,-0.0127 -0.37092,-0.0754 -0.15985,-0.15985 z M 62.681194,184.91726 c -0.329108,-0.41964 -0.319749,-0.429 0.0999,-0.0999 0.254661,0.19972 0.46302,0.40808 0.46302,0.46302 0,0.21776 -0.217273,0.0776 -0.562915,-0.36313 z m 82.583746,0.36313 c 0,-0.0549 0.20836,-0.2633 0.46302,-0.46302 0.41964,-0.32911 0.429,-0.31975 0.0999,0.0999 -0.34565,0.44073 -0.56292,0.58089 -0.56292,0.36313 z m -84.686689,-2.21521 -0.641433,-0.7276 0.727604,0.64143 c 0.680056,0.59951 0.848939,0.81377 0.641433,0.81377 -0.04739,0 -0.374816,-0.32742 -0.727604,-0.7276 z m 86.935649,0.19844 c 0.26339,-0.29104 0.53842,-0.52917 0.61118,-0.52917 0.0728,0 -0.0832,0.23813 -0.3466,0.52917 -0.26339,0.29104 -0.53842,0.52916 -0.61118,0.52916 -0.0728,0 0.0832,-0.23812 0.3466,-0.52916 z m -91.570971,-4.82865 -0.504028,-0.59531 0.595313,0.50403 c 0.559447,0.47366 0.715762,0.68659 0.504028,0.68659 -0.05021,0 -0.318097,-0.26789 -0.595313,-0.59531 z m 96.333471,0.0661 c 0.26339,-0.29104 0.53842,-0.52917 0.61118,-0.52917 0.0728,0 -0.0832,0.23813 -0.3466,0.52917 -0.26339,0.29104 -0.53842,0.52916 -0.61118,0.52916 -0.0728,0 0.0832,-0.23812 0.3466,-0.52916 z m -66.873438,-0.46143 c 1.200547,-0.049 3.165078,-0.049 4.365625,0 1.200547,0.049 0.218281,0.0891 -2.182812,0.0891 -2.401094,0 -3.383359,-0.0401 -2.182813,-0.0891 z M 54.214528,176.4506 c -0.329108,-0.41965 -0.31975,-0.42901 0.09989,-0.0999 0.254662,0.19972 0.463021,0.40808 0.463021,0.46302 0,0.21776 -0.217272,0.0776 -0.562915,-0.36312 z m 99.517072,0.36312 c 0,-0.0549 0.20836,-0.2633 0.46303,-0.46302 0.41964,-0.32911 0.429,-0.31975 0.0999,0.0999 -0.34564,0.44073 -0.56292,0.58088 -0.56292,0.36312 z m -71.702075,-1.5875 c 0,-0.0549 0.208359,-0.2633 0.463021,-0.46302 0.419645,-0.32911 0.429003,-0.31975 0.0999,0.0999 -0.345644,0.44073 -0.562917,0.58088 -0.562917,0.36312 z m 47.664645,-4.46417 c 0.0367,-0.79609 0.0478,-0.80612 0.14958,-0.13521 l 0.10994,0.72469 10.89677,0.0721 10.89677,0.0721 -11.04635,0.0631 -11.04636,0.0631 z m 23.65757,-0.80516 c 0.0994,-0.26093 0.2473,-0.40778 0.32877,-0.32632 0.0815,0.0815 1.7e-4,0.29496 -0.18066,0.47444 -0.2613,0.25936 -0.29169,0.22897 -0.14811,-0.14812 z M 77.730046,166.6626 c 1.200547,-0.049 3.165078,-0.049 4.365625,0 1.200547,0.049 0.218281,0.0891 -2.182812,0.0891 -2.401094,0 -3.38336,-0.0401 -2.182813,-0.0891 z m 30.086404,-3.04429 -1.31297,-1.38907 1.38906,1.31297 c 1.29075,1.22004 1.5104,1.46516 1.31298,1.46516 -0.0419,0 -0.66693,-0.62508 -1.38907,-1.38906 z m 12.79263,-3.55418 c 0.191,-0.0764 0.4192,-0.067 0.50712,0.0209 0.0879,0.0879 -0.0684,0.15046 -0.34727,0.13897 -0.30822,-0.0127 -0.37092,-0.0754 -0.15985,-0.15985 z m -13.68783,-3.94235 c 0.0127,-0.30823 0.0754,-0.37092 0.15985,-0.15985 0.0764,0.19099 0.067,0.4192 -0.0209,0.50711 -0.0879,0.0879 -0.15045,-0.0684 -0.13896,-0.34726 z m 12.63111,-4.54182 c 3.39333,-0.0419 8.87021,-0.0419 12.17083,1e-4 3.30062,0.042 0.52425,0.0762 -6.16971,0.0762 -6.69396,-6e-5 -9.39446,-0.0344 -6.00112,-0.0763 z m 48.48763,-5.51235 c 0.0127,-0.30822 0.0754,-0.37092 0.15985,-0.15985 0.0764,0.19099 0.067,0.4192 -0.0209,0.50712 -0.0879,0.0879 -0.15045,-0.0684 -0.13897,-0.34727 z m -128.058325,-1.5875 c 0.0127,-0.30822 0.07539,-0.37092 0.159853,-0.15985 0.07643,0.19099 0.06703,0.4192 -0.02089,0.50712 -0.08792,0.0879 -0.150453,-0.0684 -0.138965,-0.34727 z m 128.322915,0 c 0.0127,-0.30822 0.0754,-0.37092 0.15985,-0.15985 0.0764,0.19099 0.067,0.4192 -0.0209,0.50712 -0.0879,0.0879 -0.15045,-0.0684 -0.13896,-0.34727 z M 39.73797,142.51779 c 0,-0.36381 0.06005,-0.51263 0.133452,-0.33073 0.0734,0.1819 0.0734,0.47955 0,0.66145 -0.0734,0.18191 -0.133452,0.0331 -0.133452,-0.33072 z m 128.83119,-0.15434 c 0.0127,-0.30823 0.0754,-0.37092 0.15985,-0.15986 0.0764,0.191 0.067,0.4192 -0.0209,0.50712 -0.0879,0.0879 -0.15045,-0.0684 -0.13896,-0.34726 z M 39.498334,139.47508 c 0.0029,-0.58209 0.05712,-0.78906 0.120406,-0.45994 0.06329,0.32912 0.06088,0.80537 -0.0053,1.05833 -0.06622,0.25297 -0.118004,-0.0163 -0.115067,-0.59839 z m 129.375906,-0.13229 c 0,-0.50933 0.0545,-0.71769 0.121,-0.46303 0.0666,0.25467 0.0666,0.67139 0,0.92605 -0.0666,0.25466 -0.121,0.0463 -0.121,-0.46302 z m -49.60461,0.0664 c 3.38336,-0.0419 8.91976,-0.0419 12.30312,0 3.38336,0.0419 0.61516,0.0762 -6.15156,0.0762 -6.76672,0 -9.53492,-0.0343 -6.15156,-0.0762 z m 19.34698,-7.40857 c -0.32911,-0.41965 -0.31975,-0.429 0.0999,-0.0999 0.44073,0.34565 0.58089,0.56292 0.36313,0.56292 -0.0549,0 -0.2633,-0.20836 -0.46302,-0.46302 z m -99.118276,-1.25677 c 0.0029,-0.58209 0.05712,-0.78906 0.120406,-0.45994 0.06329,0.32912 0.06088,0.80537 -0.0053,1.05834 -0.06622,0.25296 -0.118004,-0.0163 -0.115067,-0.5984 z m 79.639006,0.72783 c 3.45612,-0.0418 9.11158,-0.0418 12.5677,0 3.45612,0.0418 0.62839,0.076 -6.28385,0.076 -6.91224,0 -9.73997,-0.0342 -6.28385,-0.076 z m 49.7369,-0.59554 c 0,-0.50932 0.0545,-0.71768 0.121,-0.46302 0.0666,0.25466 0.0666,0.67138 0,0.92604 -0.0666,0.25466 -0.121,0.0463 -0.121,-0.46302 z m -129.13627,-3.175 c 0,-0.3638 0.06005,-0.51263 0.133452,-0.33073 0.0734,0.1819 0.0734,0.47956 0,0.66146 -0.0734,0.1819 -0.133452,0.0331 -0.133452,-0.33073 z m 128.83119,0.11024 c 0.0127,-0.30822 0.0754,-0.37092 0.15985,-0.15985 0.0764,0.19099 0.067,0.4192 -0.0209,0.50712 -0.0879,0.0879 -0.15045,-0.0683 -0.13896,-0.34727 z M 39.981665,125.6947 c 0.0127,-0.30823 0.07539,-0.37092 0.159853,-0.15986 0.07643,0.191 0.06703,0.4192 -0.02089,0.50712 -0.08792,0.0879 -0.150453,-0.0684 -0.138965,-0.34726 z m 128.322915,0 c 0.0127,-0.30823 0.0754,-0.37092 0.15985,-0.15986 0.0764,0.191 0.067,0.4192 -0.0209,0.50712 -0.0879,0.0879 -0.15045,-0.0684 -0.13896,-0.34726 z m -0.26459,-1.5875 c 0.0127,-0.30823 0.0754,-0.37092 0.15985,-0.15986 0.0764,0.191 0.067,0.4192 -0.0209,0.50712 -0.0879,0.0879 -0.15045,-0.0683 -0.13897,-0.34726 z M 72.031316,95.393123 c 0.144904,-31.375778 0.06428,-29.885888 1.656442,-30.611323 0.467352,-0.212941 2.394974,-0.310621 5.90682,-0.299323 3.209689,0.01033 4.995172,0.104704 4.64607,0.245585 -1.496052,0.603732 -1.417373,-1.022806 -1.417373,29.301107 v 27.858221 l -0.958352,-0.40043 c -1.648312,-0.68871 -2.831714,-0.50601 -6.150282,0.94949 -1.692804,0.74245 -3.243874,1.41664 -3.446825,1.4982 -0.314743,0.12649 -0.349517,-4.0704 -0.2365,-28.541527 z m 66.585294,21.790807 c -0.32911,-0.41964 -0.31975,-0.429 0.0999,-0.0999 0.25466,0.19972 0.46302,0.40808 0.46302,0.46302 0,0.21776 -0.21727,0.0776 -0.56291,-0.36313 z m -38.1324,-0.5291 c 6.87586,-0.0393 18.12727,-0.0393 25.00313,0 6.87585,0.0393 1.25015,0.0714 -12.50157,0.0714 -13.751715,0 -19.377417,-0.0321 -12.50156,-0.0714 z M 53.983693,93.999142 c 0,-0.05494 0.20836,-0.2633 0.463021,-0.463021 0.419644,-0.329107 0.429002,-0.319749 0.09989,0.0999 -0.345644,0.44073 -0.562916,0.580887 -0.562916,0.363125 z m 99.978747,-0.363125 c -0.32911,-0.419645 -0.31975,-0.429003 0.0999,-0.0999 0.25467,0.199721 0.46302,0.40808 0.46302,0.463021 0,0.217762 -0.21727,0.0776 -0.56291,-0.363125 z M 95.014997,92.357199 c 0.0127,-0.308227 0.07539,-0.37092 0.15985,-0.159854 0.07643,0.190995 0.06703,0.419198 -0.02088,0.507119 -0.08792,0.08792 -0.150453,-0.06835 -0.138965,-0.347265 z M 55.968068,91.717788 c 0.263389,-0.291042 0.53842,-0.529167 0.611181,-0.529167 0.07276,0 -0.08321,0.238125 -0.346598,0.529167 -0.263389,0.291042 -0.53842,0.529167 -0.61118,0.529167 -0.07276,0 0.08321,-0.238125 0.346597,-0.529167 z m 33.403644,0.342442 c 0.327422,-0.06307 0.863203,-0.06307 1.190625,0 0.327422,0.06306 0.05953,0.114663 -0.595312,0.114663 -0.654844,0 -0.922735,-0.0516 -0.595313,-0.114663 z m -1.943367,-0.673171 -0.504028,-0.595313 0.595312,0.504029 c 0.327422,0.277214 0.595312,0.545105 0.595312,0.595312 0,0.211733 -0.212934,0.05542 -0.686596,-0.504028 z m 10.740763,-0.859896 c 0.341775,-0.363802 0.680939,-0.661458 0.7537,-0.661458 0.07276,0 -0.147342,0.297656 -0.489117,0.661458 -0.341776,0.363802 -0.68094,0.661458 -0.7537,0.661458 -0.07276,0 0.147341,-0.297656 0.489117,-0.661458 z m -37.43854,-3.571875 c 0.263389,-0.291041 0.53842,-0.529166 0.611181,-0.529166 0.07276,0 -0.08321,0.238125 -0.346598,0.529166 -0.263389,0.291042 -0.53842,0.529167 -0.611181,0.529167 -0.07276,0 0.08321,-0.238125 0.346598,-0.529167 z m 58.539062,0.06639 c 3.38336,-0.04188 8.91976,-0.04188 12.30312,0 3.38336,0.04188 0.61516,0.07614 -6.15156,0.07614 -6.76672,0 -9.53492,-0.03426 -6.15156,-0.07614 z M 62.450359,85.532477 c 0,-0.05494 0.20836,-0.263302 0.463021,-0.463021 0.419645,-0.329107 0.429004,-0.319749 0.0999,0.0999 -0.345644,0.440729 -0.562917,0.580887 -0.562917,0.363126 z m 23.86408,-5.588647 c 0.0054,-0.436562 0.06469,-0.583124 0.131773,-0.325693 0.06708,0.25743 0.06267,0.614618 -0.0098,0.79375 -0.07246,0.179131 -0.127349,-0.03149 -0.121957,-0.468057 z m 6.242642,-1.38679 c 0.915207,-0.05181 2.343957,-0.05139 3.175,9.52e-4 0.83104,0.05234 0.08224,0.09473 -1.664015,0.09421 -1.74625,-5.29e-4 -2.426194,-0.04334 -1.510985,-0.09516 z m 0.270751,-6.334575 c 0.190995,-0.07643 0.419198,-0.06703 0.507119,0.02089 0.08792,0.08792 -0.06835,0.150453 -0.347266,0.138964 -0.308226,-0.01269 -0.370919,-0.07539 -0.159853,-0.159852 z"
         id="path444" /><path
         style="fill:#84acde;stroke-width:0.264583"
         d="M 99.888899,199.75768 C 80.306995,198.17136 63.403656,188.84005 51.927695,173.28121 35.109009,150.47883 35.408853,118.60143 52.654992,95.95995 57.464359,89.646007 64.524605,83.273635 70.586296,79.775681 l 1.389063,-0.801571 -0.0019,22.57757 -0.0019,22.57756 -8.754208,3.83646 c -9.484407,4.15642 -9.977498,4.46778 -10.574691,6.67726 -0.478024,1.76857 -0.155826,21.33959 0.399705,24.27899 2.076216,10.98558 8.247813,18.1271 21.314148,24.66387 5.419055,2.71102 5.501735,2.71287 10.485823,0.2342 2.018162,-1.00367 4.676902,-2.43618 5.908312,-3.18335 l 2.238928,-1.35849 7.550654,7.52111 c 7.15844,7.13043 8.24684,8.10599 9.04353,8.10599 0.18537,0 3.55953,-3.21468 7.49814,-7.14375 l 7.1611,-7.14375 h 3.45334 c 3.26764,0 3.48428,-0.0329 4.02863,-0.61236 0.76418,-0.81344 0.74778,-2.04376 -0.0371,-2.7811 -0.48049,-0.4514 -0.93631,-0.57529 -2.11667,-0.57529 -0.82736,0 -1.5043,-0.0344 -1.5043,-0.0763 0,-0.042 0.23295,-0.53326 0.51766,-1.09171 0.28472,-0.55845 0.66085,-1.65519 0.83586,-2.4372 l 0.31819,-1.42183 h 10.76633 c 6.99484,0 11.0521,-0.0996 11.5821,-0.28438 1.76997,-0.61701 1.64444,2.41139 1.64444,-39.67401 0,-27.44658 0.0808,-38.074999 0.28838,-37.946689 0.15861,0.09803 1.15546,1.3433 2.21522,2.767277 11.89385,15.981522 15.77573,36.824572 10.42135,55.955512 -6.01244,21.48214 -22.42919,38.24673 -43.79508,44.72302 -6.94076,2.10384 -16.16841,3.1462 -22.972567,2.595 z m -25.739096,-37.8519 -0.05778,-3.76305 -3.770312,-0.0813 -3.770312,-0.0813 3.778615,-0.0583 c 2.899534,-0.0447 3.809336,0.0218 3.910652,0.2858 0.07262,0.18924 0.09488,1.94541 0.04948,3.9026 l -0.08256,3.55853 z m -8.680212,-9.59841 c 0,-2.54662 0.03968,-3.58841 0.08819,-2.31511 0.0485,1.27331 0.0485,3.35691 0,4.63021 -0.0485,1.27331 -0.08819,0.23151 -0.08819,-2.3151 z m 41.451659,3.02066 c 0.0127,-0.30823 0.0754,-0.37092 0.15985,-0.15985 0.0764,0.19099 0.067,0.4192 -0.0209,0.50711 -0.0879,0.0879 -0.15045,-0.0683 -0.13896,-0.34726 z m -6.30475,-46.6107 c 6.8031,-0.0393 17.93545,-0.0393 24.73854,0 6.8031,0.0393 1.23693,0.0714 -12.36927,0.0714 -13.606194,0 -19.172365,-0.0322 -12.36927,-0.0714 z m -0.13229,-7.9375 c 6.87586,-0.0393 18.12727,-0.0393 25.00313,0 6.87585,0.0393 1.25015,0.0714 -12.50157,0.0714 -13.751715,0 -19.377417,-0.0321 -12.50156,-0.0714 z m -7.656378,-6.332365 c 0.190995,-0.07643 0.419198,-0.06703 0.507119,0.02088 0.08792,0.08792 -0.06835,0.150452 -0.347266,0.138964 -0.308226,-0.0127 -0.370919,-0.07539 -0.159853,-0.159851 z m 6.736254,-7.75676 c 0,-0.654844 0.0516,-0.922734 0.114663,-0.595313 0.06307,0.327422 0.06307,0.863204 0,1.190625 -0.06306,0.327422 -0.114663,0.05953 -0.114663,-0.595312 z m -7.274964,-5.485738 c 0.62231,-0.05589 1.57481,-0.0551 2.116666,0.0017 0.541856,0.05685 0.0327,0.102583 -1.131472,0.101622 -1.164166,-9.53e-4 -1.607505,-0.04748 -0.985194,-0.10337 z"
         id="path442" /><path
         style="fill:#51b29c;stroke-width:0.264583"
         d="m 61.118405,174.59851 -1.44617,-1.52135 1.521354,1.44617 c 1.413386,1.34354 1.642557,1.59654 1.44617,1.59654 -0.04135,0 -0.725961,-0.68461 -1.521354,-1.52136 z M 91.9514,163.15528 c 0.26339,-0.29104 0.538421,-0.52916 0.611182,-0.52916 0.07276,0 -0.08321,0.23812 -0.346599,0.52916 -0.26339,0.29105 -0.538422,0.52917 -0.611182,0.52917 -0.07276,0 0.08321,-0.23812 0.346599,-0.52917 z m -4.551969,-5.22396 c 1.134436,-0.0497 2.920373,-0.0494 3.96875,7.9e-4 1.048375,0.0501 0.120198,0.0908 -2.062615,0.0904 -2.182812,-2.6e-4 -3.040573,-0.0413 -1.906135,-0.0911 z m 19.257229,-0.75121 c 0.0127,-0.30822 0.0754,-0.37092 0.15985,-0.15985 0.0764,0.19099 0.067,0.4192 -0.0209,0.50712 -0.0879,0.0879 -0.15045,-0.0683 -0.13897,-0.34727 z m -53.974995,-0.52916 c 0.01269,-0.30823 0.07539,-0.37092 0.159852,-0.15986 0.07643,0.191 0.06703,0.4192 -0.02089,0.50712 -0.08792,0.0879 -0.150453,-0.0684 -0.138964,-0.34726 z m 54.339005,-11.88421 c 7e-5,-5.67531 0.0351,-7.95938 0.0778,-5.0757 0.0428,2.88367 0.0427,7.52711 -1.3e-4,10.31874 -0.0428,2.79164 -0.0778,0.43228 -0.0777,-5.24304 z m -54.505202,-0.39687 c 0,-5.16599 0.03544,-7.27935 0.07876,-4.69636 0.04332,2.583 0.04332,6.80972 0,9.39271 -0.04332,2.583 -0.07876,0.46964 -0.07876,-4.69635 z m 58.934382,5.15937 c 0.005,-0.43656 0.0647,-0.58312 0.13178,-0.32569 0.0671,0.25743 0.0627,0.61462 -0.01,0.79375 -0.0725,0.17913 -0.12736,-0.0315 -0.12197,-0.46806 z m 0.21301,-1.02593 c 0,-0.0549 0.20836,-0.2633 0.46302,-0.46303 0.41964,-0.3291 0.429,-0.31974 0.0999,0.0999 -0.34564,0.44073 -0.56291,0.58089 -0.56291,0.36313 z m -37.465017,-5.58865 c 2.65e-4,-2.18281 0.04135,-3.04057 0.09107,-1.90613 0.04971,1.13443 0.04941,2.92037 -7.94e-4,3.96875 -0.05009,1.04837 -0.09076,0.12019 -0.09039,-2.06262 z m 37.695847,-0.0661 c -0.32911,-0.41964 -0.31975,-0.429 0.0999,-0.0999 0.44073,0.34564 0.58088,0.56292 0.36312,0.56292 -0.0549,0 -0.2633,-0.20836 -0.46302,-0.46303 z m -0.45364,-1.38906 c 0,-0.3638 0.0601,-0.51263 0.13345,-0.33073 0.0734,0.1819 0.0734,0.47956 0,0.66146 -0.0734,0.1819 -0.13345,0.0331 -0.13345,-0.33073 z m 7.69729,-6.01904 c 3.45612,-0.0418 9.11158,-0.0418 12.5677,0 3.45612,0.0418 0.62839,0.076 -6.28385,0.076 -6.91224,0 -9.73997,-0.0342 -6.28385,-0.076 z m -7.24365,-0.52939 c -0.32911,-0.41965 -0.31975,-0.42901 0.0999,-0.0999 0.44073,0.34564 0.58088,0.56292 0.36312,0.56292 -0.0549,0 -0.2633,-0.20836 -0.46302,-0.46302 z m 26.49208,0.36312 c 0,-0.0549 0.20836,-0.2633 0.46302,-0.46302 0.41965,-0.32911 0.42901,-0.31975 0.0999,0.0999 -0.34564,0.44072 -0.56292,0.58088 -0.56292,0.36312 z M 111.44005,133.522 c 0,-0.3638 0.0601,-0.51263 0.13345,-0.33073 0.0734,0.1819 0.0734,0.47956 0,0.66146 -0.0734,0.1819 -0.13345,0.0331 -0.13345,-0.33073 z m -10.95584,-20.83587 c 6.87586,-0.0393 18.12727,-0.0393 25.00313,0 6.87585,0.0393 1.25015,0.0714 -12.50157,0.0714 -13.751715,0 -19.377417,-0.0321 -12.50156,-0.0714 z m 37.90156,-0.16611 c 0,-0.0549 0.20836,-0.2633 0.46302,-0.46302 0.41965,-0.3291 0.42901,-0.31975 0.0999,0.0999 -0.34564,0.44073 -0.56292,0.58089 -0.56292,0.36312 z m -37.90156,-7.77139 c 6.87586,-0.0393 18.12727,-0.0393 25.00313,0 6.87585,0.0393 1.25015,0.0714 -12.50157,0.0714 -13.751715,0 -19.377417,-0.0321 -12.50156,-0.0714 z M 87.022858,104.2194 c -0.329107,-0.41965 -0.319749,-0.429 0.0999,-0.0999 0.254661,0.19972 0.463021,0.40808 0.463021,0.46302 0,0.21777 -0.217273,0.0776 -0.562917,-0.36312 z m 4.044275,-11.707812 c 0,-0.363802 0.06006,-0.51263 0.133453,-0.330729 0.0734,0.181901 0.0734,0.479557 0,0.661458 -0.0734,0.181901 -0.133453,0.03307 -0.133453,-0.330729 z m 4.517525,-5.820833 c 0,-0.509323 0.05445,-0.717682 0.121002,-0.463021 0.06655,0.254662 0.06655,0.67138 0,0.926042 -0.06655,0.254661 -0.121002,0.0463 -0.121002,-0.463021 z m 15.865192,-1.719792 c 0.005,-0.436562 0.0647,-0.583124 0.13178,-0.325693 0.0671,0.257431 0.0627,0.614618 -0.01,0.79375 -0.0725,0.179131 -0.12735,-0.03149 -0.12196,-0.468057 z m -19.425312,0.202804 c 0.622311,-0.05589 1.574811,-0.0551 2.116667,0.0017 0.541856,0.05685 0.03269,0.102583 -1.131472,0.101622 -1.164167,-9.52e-4 -1.607505,-0.04748 -0.985195,-0.103369 z m 19.638322,-1.22874 c 0,-0.05494 0.20836,-0.263302 0.46302,-0.463021 0.41964,-0.329107 0.429,-0.319749 0.0999,0.0999 -0.34564,0.440729 -0.56291,0.580887 -0.56291,0.363126 z m 26.95375,-0.363126 c -0.32911,-0.419644 -0.31975,-0.429002 0.0999,-0.0999 0.25466,0.199719 0.46302,0.408079 0.46302,0.463021 0,0.217761 -0.21727,0.0776 -0.56291,-0.363126 z m -51.030835,-7.30979 c 0,-0.05494 0.208359,-0.263302 0.463021,-0.463021 0.419645,-0.329108 0.429003,-0.319749 0.0999,0.0999 -0.345644,0.440729 -0.562917,0.580887 -0.562917,0.363126 z m 2.960296,-1.651356 c 0.245713,-0.07335 0.506767,-0.334407 0.58012,-0.580121 0.09672,-0.323996 0.11853,-0.302185 0.07937,0.07937 -0.03165,0.308383 -0.271738,0.548474 -0.58012,0.580121 -0.381561,0.03916 -0.403371,0.01735 -0.07937,-0.07937 z"
         id="path440" /><path
         style="fill:#f42735;stroke-width:0.264583"
         d="m 108.35557,194.402 c -0.43657,-0.27572 -4.30534,-4.02575 -8.59728,-8.33339 l -7.803528,-7.83208 h 5.067223 5.067225 l 1.64807,2.84427 c 0.90644,1.56435 1.89064,3.11217 2.18711,3.43959 0.66721,0.73685 2.03669,0.79441 2.65465,0.11157 0.24078,-0.26606 1.27797,-2.31667 2.30486,-4.55691 1.0269,-2.24024 1.91062,-4.11671 1.96384,-4.16992 0.0532,-0.0532 0.6534,0.8683 1.33375,2.04783 0.68035,1.17952 1.45571,2.26163 1.72304,2.4047 0.26732,0.14307 2.25004,0.26073 4.40604,0.26147 l 3.91999,10e-4 -7.15374,7.14239 c -3.93456,3.92833 -7.32784,7.14196 -7.54063,7.14141 -0.21278,-5.2e-4 -0.74406,-0.22657 -1.18062,-0.50229 z m -2.46574,-17.59372 c -0.62855,-1.10679 -1.36486,-2.13117 -1.63625,-2.27642 -0.29332,-0.15698 -3.38597,-0.26408 -7.625895,-0.26408 h -7.13246 l -0.146182,-0.59531 c -1.009084,-4.10942 0.109035,-7.91499 3.165596,-10.77425 2.269112,-2.12264 3.936616,-2.76167 7.241969,-2.77529 2.294572,-0.009 2.670552,0.064 4.315912,0.84333 1.12407,0.53241 2.4397,1.46568 3.49587,2.47987 l 1.6935,1.62618 1.76619,-1.61839 c 3.03129,-2.77763 6.17049,-3.85656 9.54102,-3.27921 7.22754,1.23802 11.14147,8.75852 7.9886,15.34984 l -0.53788,1.12448 h -4.98805 -4.98804 l -1.49939,-2.57968 c -2.36034,-4.06097 -2.67184,-4.4846 -3.39987,-4.62377 -1.51864,-0.29031 -1.98256,0.34319 -4.85938,6.6356 l -1.25244,2.73944 z"
         id="path438" /><path
         style="fill:#07a169;stroke-width:0.264583"
         d="m 74.350381,183.45889 c -5.567357,-2.79169 -9.247524,-5.25335 -12.458331,-8.33336 -3.854043,-3.69704 -6.269407,-7.50439 -7.761024,-12.23373 -1.280573,-4.0602 -1.466989,-6.3221 -1.46869,-17.82049 -0.0017,-11.57455 0.02115,-11.75804 1.605169,-12.88597 0.411257,-0.29284 2.15275,-1.13415 3.869985,-1.86959 1.717234,-0.73543 7.051307,-3.07946 11.853494,-5.20894 7.090547,-3.14424 8.954981,-3.8706 9.921875,-3.86542 0.968745,0.005 3.434069,1.00672 13.229166,5.37424 6.621197,2.95232 12.259085,5.5649 12.528645,5.80574 1.21288,1.08362 1.22998,1.2623 1.22445,12.79526 -0.005,10.19778 -0.15877,13.21422 -0.79475,15.57929 l -0.25491,0.94793 -1.6456,-0.81564 c -1.52408,-0.7554 -1.85148,-0.81563 -4.433492,-0.81563 -2.582966,0 -2.918201,0.0617 -4.560781,0.83989 -4.100137,1.9424 -6.593134,6.22132 -6.216282,10.66948 0.08013,0.94589 0.226581,1.92815 0.325435,2.18281 0.165277,0.42578 -0.08483,0.46302 -3.109746,0.46302 -3.096355,0 -3.323251,0.036 -3.864766,0.61237 -0.76313,0.81231 -0.733354,1.89945 0.07415,2.70695 0.638251,0.63826 0.726347,0.64943 5.118367,0.64943 3.996324,0 4.515326,0.0513 4.9076,0.48472 0.417983,0.46187 0.27791,0.58064 -2.970631,2.51887 -4.404566,2.62797 -8.297558,4.3949 -9.695372,4.40049 -0.810562,0.003 -2.104708,-0.51731 -5.423958,-2.18172 z m 10.702953,-17.01521 c 0.340842,-0.34084 0.415774,-1.12763 0.415774,-4.36563 v -3.94985 h 3.777586 c 5.308126,0 4.953664,0.4138 4.953664,-5.78292 0,-3.50435 -0.09314,-5.0523 -0.3175,-5.27666 -0.219276,-0.21928 -1.56986,-0.3175 -4.365625,-0.3175 h -4.048125 v -4.04813 c 0,-2.79576 -0.09822,-4.14634 -0.3175,-4.36562 -0.224358,-0.22436 -1.772314,-0.3175 -5.276664,-0.3175 -6.196719,0 -5.782919,-0.35446 -5.782919,4.95366 v 3.77759 h -3.94985 c -3.237997,0 -4.024783,0.0749 -4.365625,0.41577 -0.347057,0.34706 -0.415774,1.19979 -0.415774,5.15938 0,6.16484 -0.306173,5.80193 4.894791,5.80193 h 3.836458 v 3.83646 c 0,5.20096 -0.362913,4.89479 5.801934,4.89479 3.959588,0 4.812321,-0.0687 5.159375,-0.41577 z M 112.5889,151.19745 c -0.73701,-0.41793 -0.91732,-0.74908 -0.92199,-1.69334 -0.002,-0.50026 0.21257,-1.01501 0.55267,-1.32292 0.52747,-0.47754 1.19146,-0.50828 12.63385,-0.58485 7.96254,-0.0533 12.40439,0.0147 13.0377,0.19958 1.7453,0.50949 1.94882,2.68213 0.32073,3.42394 -0.9138,0.41635 -24.88619,0.39539 -25.62296,-0.0224 z m 0.39687,-7.80904 c -0.81969,-0.30139 -1.32279,-0.97717 -1.31886,-1.77153 0.005,-0.96694 0.19167,-1.29525 0.97074,-1.70532 0.80787,-0.42523 24.65301,-0.43015 25.5855,-0.005 1.52033,0.69271 1.40774,2.83933 -0.17791,3.39209 -0.8268,0.28822 -24.29119,0.37254 -25.05947,0.09 z m -0.88503,-8.49823 c -0.53696,-0.59333 -0.56824,-1.8825 -0.0625,-2.57443 0.36135,-0.49435 0.85539,-0.51634 13.19087,-0.58701 11.95797,-0.0685 12.85268,-0.0419 13.37164,0.39688 0.85233,0.72071 0.97115,1.69163 0.30991,2.53226 l -0.56332,0.71616 h -12.90438 c -12.16552,0 -12.92944,-0.0277 -13.34225,-0.48386 z m -11.48424,-14.2666 c 6.8031,-0.0393 17.93545,-0.0393 24.73854,0 6.8031,0.0393 1.23693,0.0714 -12.36927,0.0714 -13.606194,0 -19.172365,-0.0322 -12.36927,-0.0714 z M 91.87798,93.951744 c -0.381177,-0.266988 -0.588039,-0.685826 -0.588039,-1.190625 0,-0.744878 -0.05103,-0.778748 -1.1734,-0.778748 -2.225924,0 -3.296902,-0.948089 -2.892245,-2.560374 0.265223,-1.056736 1.496203,-1.408375 4.930272,-1.408375 3.246953,0 3.63329,-0.144287 3.63329,-1.356935 0,-1.281418 -0.568354,-1.55301 -3.260045,-1.557834 -2.025102,-0.0036 -2.602995,-0.103186 -3.479006,-0.599342 -3.850116,-2.180634 -3.039933,-8.816004 1.181867,-9.679454 0.681696,-0.139422 0.921943,-0.365335 1.158132,-1.089041 0.56453,-1.729767 3.053889,-1.636709 3.497492,0.130745 0.133477,0.531816 0.329806,0.658111 1.023051,0.658111 2.166601,0 3.437408,1.249199 2.7672,2.720146 -0.172992,0.37968 -0.506767,0.782913 -0.741717,0.896073 -0.23495,0.11316 -1.974995,0.268538 -3.866766,0.345284 l -3.439583,0.139539 -0.08331,1.164402 c -0.05384,0.752457 0.03977,1.24245 0.264583,1.385011 0.191341,0.121335 1.394433,0.222432 2.673538,0.22466 2.719445,0.0047 3.960386,0.493495 5.122989,2.017746 0.580165,0.760635 0.754909,1.313532 0.840631,2.659772 0.189588,2.977379 -1.058915,4.997641 -3.506059,5.673329 -0.64294,0.177525 -0.946748,0.415777 -0.946748,0.74246 0,0.264576 -0.246766,0.794761 -0.54837,1.178187 -0.631034,0.80223 -1.665592,0.917165 -2.567757,0.285263 z m 20.71092,-7.312618 c -0.73701,-0.417933 -0.91732,-0.74909 -0.92199,-1.693351 -0.002,-0.500258 0.21257,-1.015007 0.55268,-1.322917 0.52799,-0.478007 1.18855,-0.507832 12.79522,-0.577721 7.57349,-0.0456 12.49946,0.02554 12.92317,0.186628 0.37659,0.143176 0.88367,0.563994 1.12687,0.93515 0.37803,0.576949 0.39323,0.79296 0.10481,1.489276 -0.18555,0.447946 -0.62417,0.923493 -0.97472,1.056772 -0.96684,0.367591 -24.94955,0.298435 -25.60604,-0.07384 z"
         id="path436" /><path
         style="fill:#00794d;stroke-width:0.264583"
         d="m 87.060857,119.84122 c -0.393676,-0.50048 -0.513738,-0.91881 -0.398668,-1.38907 0.38141,-1.5587 -1.259285,-1.45982 25.605371,-1.54324 13.56465,-0.0421 25.05866,-0.005 25.54224,0.0818 0.66278,0.11936 0.96519,0.36278 1.2284,0.98876 0.37369,0.88876 0.29571,1.37847 -0.33678,2.11491 -0.37358,0.43498 -1.9322,0.46302 -25.73745,0.46302 H 87.624182 Z m 0,-7.9375 c -0.658934,-0.8377 -0.542943,-1.81094 0.30093,-2.525 0.512741,-0.43386 2.126173,-0.46302 25.623983,-0.46302 23.97625,0 25.10324,0.0214 25.67937,0.48794 0.7437,0.60221 0.80333,1.92923 0.1206,2.68365 -0.47662,0.52666 -0.76385,0.53258 -25.82177,0.53258 H 87.624182 Z m 0,-7.9375 c -0.658934,-0.8377 -0.542943,-1.81094 0.30093,-2.52499 0.512741,-0.43387 2.126173,-0.46303 25.623983,-0.46303 23.97625,0 25.10324,0.0214 25.67937,0.48794 0.7437,0.60221 0.80333,1.92923 0.1206,2.68365 -0.47662,0.52666 -0.76385,0.53258 -25.82177,0.53258 H 87.624182 Z"
         id="path434" /></g></g></svg>
