<?xml version="1.0" encoding="UTF-8" standalone="no"?>
<!-- Created with Inkscape (http://www.inkscape.org/) -->

<svg
   width="135.46666mm"
   height="135.46666mm"
   viewBox="0 0 135.46666 135.46666"
   version="1.1"
   id="svg5"
   xml:space="preserve"
   inkscape:version="1.2.2 (732a01da63, 2022-12-09)"
   sodipodi:docname="tab_4.svg"
   xmlns:inkscape="http://www.inkscape.org/namespaces/inkscape"
   xmlns:sodipodi="http://sodipodi.sourceforge.net/DTD/sodipodi-0.dtd"
   xmlns="http://www.w3.org/2000/svg"
   xmlns:svg="http://www.w3.org/2000/svg"><sodipodi:namedview
     id="namedview7"
     pagecolor="#ffffff"
     bordercolor="#000000"
     borderopacity="0.25"
     inkscape:showpageshadow="2"
     inkscape:pageopacity="0.0"
     inkscape:pagecheckerboard="0"
     inkscape:deskcolor="#d1d1d1"
     inkscape:document-units="mm"
     showgrid="false"
     inkscape:zoom="0.73851712"
     inkscape:cx="211.91113"
     inkscape:cy="204.46378"
     inkscape:window-width="1920"
     inkscape:window-height="1009"
     inkscape:window-x="-8"
     inkscape:window-y="-8"
     inkscape:window-maximized="1"
     inkscape:current-layer="layer1" /><defs
     id="defs2" /><g
     inkscape:label="Calque 1"
     inkscape:groupmode="layer"
     id="layer1"
     transform="translate(-34.013351,-37.595982)"><g
       id="g302"><path
         style="fill:#fefefe;stroke-width:0.264933"
         d="M 34.013351,105.50844 V 37.595982 h 67.733329 67.73333 V 105.50844 173.4209 H 101.74668 34.013351 Z m 126.553969,40.63239 c 1.27587,-0.62979 2.08648,-1.25832 2.81559,-2.18315 2.00875,-2.54798 1.8796,0.24754 1.80145,-38.9935 l -0.07,-35.136308 -0.70706,-1.34325 c -0.84499,-1.60531 -2.47835,-3.148509 -4.15535,-3.925979 l -1.22301,-0.566998 H 101.74668 44.464392 l -1.223011,0.566998 c -1.677,0.77747 -3.310362,2.320669 -4.155355,3.925979 l -0.70705,1.34325 -0.06998,35.136308 c -0.07766,38.99296 -0.18982,36.39787 1.679265,38.85221 1.028804,1.35095 2.781779,2.48922 4.589726,2.98029 0.946331,0.25704 13.494905,0.31761 57.703473,0.27852 l 56.49415,-0.05 z"
         id="path318" /><path
         style="fill:#eeebec;stroke-width:0.264933"
         d="m 53.526371,108.2281 -4.167187,-0.0803 V 91.706988 75.266175 h 19.140981 19.140981 l 0.173601,4.021423 c 0.09548,2.211784 0.173601,9.594115 0.173601,16.40518 v 12.383752 l -6.151562,0.1744 c -5.8166,0.16491 -19.124342,0.15417 -28.310415,-0.0228 z m 25.958097,-1.63735 c -0.600659,-4.40372 -4.027921,-8.039374 -8.633885,-9.158856 -0.833448,-0.202567 -1.287695,-0.378254 -1.009438,-0.390409 1.006654,-0.04398 2.782061,-1.353644 3.499895,-2.581772 0.548621,-0.938627 0.712586,-1.56779 0.712586,-2.734301 0,-5.054746 -6.077603,-7.467723 -9.432147,-3.744826 -1.719815,1.908664 -1.969442,4.590543 -0.617884,6.638287 0.77747,1.177944 1.560306,1.772518 2.976441,2.260649 l 0.947295,0.326526 -1.222287,0.167977 c -4.242022,0.582971 -8.494091,5.002215 -9.039127,9.394515 l -0.172823,1.39273 h 11.102795 11.102794 z"
         id="path316" /><path
         style="fill:#d3eff8;stroke-width:0.264933"
         d="m 73.634703,146.95893 c 15.461588,-0.0378 40.762367,-0.0378 56.223957,0 15.46159,0.0378 2.8112,0.0687 -28.11198,0.0687 -30.923175,0 -43.573565,-0.0309 -28.111977,-0.0687 z m -33.026794,-2.38756 -0.641433,-0.72953 0.727604,0.64313 c 0.680055,0.6011 0.848939,0.81593 0.641433,0.81593 -0.04739,0 -0.374816,-0.32829 -0.727604,-0.72953 z m 121.992931,0.0663 c 0.34178,-0.36476 0.68094,-0.66321 0.7537,-0.66321 0.0728,0 -0.14734,0.29845 -0.48911,0.66321 -0.34178,0.36477 -0.68094,0.66321 -0.7537,0.66321 -0.0728,0 0.14734,-0.29844 0.48911,-0.66321 z m -124.333268,-4.5319 c 0.0127,-0.30904 0.07539,-0.3719 0.159853,-0.16027 0.07643,0.1915 0.06703,0.42031 -0.02089,0.50846 -0.08792,0.0882 -0.150453,-0.0685 -0.138965,-0.34819 z m 126.735408,0 c 0.0127,-0.30904 0.0754,-0.3719 0.15985,-0.16027 0.0764,0.1915 0.067,0.42031 -0.0209,0.50846 -0.0879,0.0882 -0.15045,-0.0685 -0.13897,-0.34819 z M 49.212642,127.65958 c 1.06e-4,-4.66899 0.03611,-6.54166 0.08,-4.16151 0.04389,2.38016 0.04381,6.20024 -1.93e-4,8.48906 -0.044,2.28883 -0.07991,0.34143 -0.07981,-4.32755 z m 0.0033,-19.56463 c -0.06967,-0.18238 -0.09458,-6.41985 -0.05536,-13.861037 l 0.0713,-13.529436 0.06367,13.721662 0.06367,13.721661 4.167188,0.0803 4.167187,0.0803 -4.175491,0.0591 c -3.14099,0.0444 -4.206874,-0.0231 -4.302156,-0.27252 z m 32.633437,0.13404 c 1.207458,-0.0493 3.112458,-0.049 4.233333,5.3e-4 1.120878,0.0496 0.132959,0.0899 -2.195374,0.0896 -2.328334,-2.6e-4 -3.245414,-0.0409 -2.037959,-0.0902 z m 5.92933,-30.241932 -0.05491,-2.717419 -19.248437,-0.06981 -19.248436,-0.06981 19.256739,-0.06456 c 15.787859,-0.05293 19.280975,-0.0013 19.391272,0.286943 0.07399,0.193328 0.09496,1.476634 0.04661,2.851793 l -0.08792,2.500287 z"
         id="path314" /><path
         style="fill:#b7eefd;stroke-width:0.264933"
         d="m 44.3321,146.64575 c -2.305922,-0.71011 -4.354215,-2.5202 -5.387623,-4.76106 l -0.565501,-1.22624 -0.07163,-30.04331 -0.07163,-30.043304 5.495589,-3e-5 5.495589,-2.9e-5 v 13.861069 13.861064 l 19.380728,0.068 19.380728,0.068 V 94.500917 80.571836 h 38.63465 38.63465 l -0.0716,30.043304 -0.0716,30.04331 -0.56551,1.22624 c -0.77542,1.68144 -2.31454,3.31912 -3.91562,4.16634 l -1.33971,0.70893 -57.14999,0.0447 c -31.432502,0.0246 -57.447657,-0.0469 -57.81146,-0.15895 z m 111.62486,-8.65613 c 1.01423,-0.85567 1.29221,-2.13388 0.7097,-3.26333 -0.88886,-1.72339 0.86851,-1.62841 -30.12917,-1.62841 H 98.385354 l -0.899025,0.60581 c -1.215896,0.81933 -1.593445,2.24765 -0.923719,3.49455 0.260665,0.4853 0.730044,1.00663 1.043064,1.15852 0.382836,0.18576 9.894436,0.28203 29.057686,0.29411 l 28.48855,0.018 z M 87.988348,127.65958 v -8.35642 H 68.541474 49.0946 v 8.35642 8.35641 h 19.446874 19.446874 z m 67.797602,-0.49353 c 1.0582,-0.71962 1.44472,-2.21653 0.88027,-3.40915 -0.83859,-1.77188 1.01778,-1.66827 -29.89029,-1.66827 -15.43958,0 -28.403073,0.0927 -28.807769,0.20608 -0.838837,0.23494 -1.775751,1.59587 -1.775751,2.57939 0,1.05462 0.9325,2.33687 1.906172,2.62112 0.534276,0.15597 11.692048,0.23668 28.915808,0.20916 26.867,-0.0429 28.07633,-0.0656 28.77156,-0.53833 z m -0.3202,-10.91814 c 1.74828,-0.90645 2.00094,-3.21561 0.49121,-4.48933 l -0.80505,-0.67919 H 126.57075 97.989598 l -0.899583,0.90196 c -1.349569,1.35314 -1.140439,3.14494 0.482883,4.1373 0.851643,0.52062 1.348475,0.52971 28.991612,0.53069 24.62341,7.9e-4 28.22174,-0.0491 28.90124,-0.40143 z m -27.52002,-11.14014 c 0.97514,-0.5056 1.31762,-1.14533 1.31762,-2.46127 0,-1.1665 -0.8459,-2.31551 -1.89568,-2.57496 -0.33983,-0.08399 -7.1339,-0.118664 -15.09794,-0.07705 l -14.480067,0.07565 -0.687086,0.68905 c -0.428522,0.42975 -0.742169,1.10082 -0.833461,1.78325 -0.132332,0.9892 -0.0568,1.18402 0.787053,2.0301 l 0.933429,0.9359 h 14.591682 c 12.49734,0 14.70259,-0.0575 15.36445,-0.40067 z M 73.634703,63.925337 c 15.461588,-0.03781 40.762367,-0.03781 56.223957,0 15.46159,0.03781 2.8112,0.06874 -28.11198,0.06874 -30.923175,0 -43.573565,-0.03093 -28.111977,-0.06874 z"
         id="path312" /><path
         style="fill:#fae29f;stroke-width:0.264933"
         d="m 49.359184,127.65958 v -8.35642 h 19.314582 19.314582 v 8.35642 8.35641 H 68.673766 49.359184 Z M 67.022523,96.921185 c -1.489798,-0.55419 -2.245516,-1.13052 -3.018928,-2.302312 -1.435856,-2.175465 -1.027636,-5.179578 0.94688,-6.968153 3.585141,-3.247529 9.103151,-0.777592 9.103151,4.074692 0,3.655982 -3.740266,6.419927 -7.031103,5.195773 z"
         id="path310" /><path
         style="fill:#79c2fa;stroke-width:0.264933"
         d="m 96.251815,136.01599 c 0,-0.51067 0.05445,-0.71958 0.121001,-0.46424 0.06655,0.25533 0.06655,0.67315 0,0.92849 -0.06655,0.25533 -0.121001,0.0464 -0.121001,-0.46425 z m 60.579775,-0.13264 c 0.005,-0.43772 0.0647,-0.58467 0.13178,-0.32655 0.0671,0.25811 0.0627,0.61624 -0.01,0.79584 -0.0725,0.17961 -0.12736,-0.0316 -0.12197,-0.46929 z m -59.9797,-1.72434 c 0.26339,-0.29181 0.538421,-0.53057 0.611182,-0.53057 0.07276,0 -0.08321,0.23876 -0.346599,0.53057 -0.26339,0.29181 -0.538422,0.53057 -0.611182,0.53057 -0.07276,0 0.08321,-0.23876 0.346599,-0.53057 z m 59.10062,-0.19896 c -0.32911,-0.42076 -0.31975,-0.43014 0.0999,-0.10016 0.25466,0.20025 0.46302,0.40916 0.46302,0.46424 0,0.21834 -0.21727,0.0778 -0.56292,-0.36408 z m -43.55635,-0.7958 c 7.82174,-0.039 20.62096,-0.039 28.44271,0 7.82174,0.039 1.42213,0.071 -14.22136,0.071 -15.64349,0 -22.04309,-0.0319 -14.22135,-0.071 z m 0.26458,-5.57094 c 7.67623,-0.0391 20.23732,-0.0391 27.91354,0 7.67623,0.0391 1.39568,0.0711 -13.95677,0.0711 -15.35244,0 -21.63299,-0.032 -13.95677,-0.0711 z m -15.710309,-0.7959 c -0.329107,-0.42076 -0.319749,-0.43014 0.0999,-0.10016 0.254662,0.20025 0.463021,0.40916 0.463021,0.46424 0,0.21834 -0.217273,0.0778 -0.562917,-0.36408 z m -0.698616,-1.92331 c 0,-0.51067 0.05445,-0.71958 0.121001,-0.46424 0.06655,0.25533 0.06655,0.67315 0,0.92849 -0.06655,0.25533 -0.121001,0.0464 -0.121001,-0.46425 z m 60.569975,0 c 0,-0.36476 0.0601,-0.51398 0.13345,-0.3316 0.0734,0.18238 0.0734,0.48083 0,0.66321 -0.0734,0.18238 -0.13345,0.0332 -0.13345,-0.33161 z m -60.102192,-1.69185 c 0,-0.0551 0.208359,-0.264 0.463021,-0.46425 0.419645,-0.32998 0.429003,-0.32059 0.0999,0.10016 -0.345644,0.4419 -0.562917,0.58242 -0.562917,0.36409 z m 16.073432,-1.15989 c 7.60347,-0.0391 20.0455,-0.0391 27.64896,0 7.60346,0.0391 1.38245,0.0711 -13.82448,0.0711 -15.20692,0 -21.42794,-0.032 -13.82448,-0.0711 z m -0.39687,-5.57094 c 7.82174,-0.039 20.62096,-0.039 28.44271,0 7.82174,0.039 1.42213,0.071 -14.22136,0.071 -15.64349,0 -22.04309,-0.0319 -14.22135,-0.071 z m -15.569408,-0.92854 -0.504029,-0.59689 0.595312,0.50536 c 0.559446,0.47492 0.715762,0.68841 0.504029,0.68841 -0.05021,0 -0.318098,-0.2686 -0.595312,-0.59688 z m 58.894928,0.49672 c 0,-0.0551 0.20836,-0.26399 0.46302,-0.46424 0.41964,-0.32998 0.429,-0.3206 0.0999,0.10016 -0.34565,0.44189 -0.56292,0.58242 -0.56292,0.36408 z m -59.469865,-2.28738 c 0,-0.51067 0.05445,-0.71958 0.121001,-0.46425 0.06655,0.25534 0.06655,0.67316 0,0.92849 -0.06655,0.25534 -0.121001,0.0464 -0.121001,-0.46424 z m 60.579775,0.13264 c 0.005,-0.43772 0.0647,-0.58467 0.13178,-0.32656 0.0671,0.25811 0.0627,0.61625 -0.01,0.79585 -0.0725,0.17961 -0.12736,-0.0316 -0.12197,-0.46929 z m -28.62658,-8.98714 c 0,-0.0551 0.20836,-0.264 0.46302,-0.46425 0.41965,-0.32998 0.42901,-0.32059 0.0999,0.10016 -0.34564,0.4419 -0.56292,0.58242 -0.56292,0.36409 z m -31.953195,-2.02211 c 0,-0.51067 0.05445,-0.71958 0.121001,-0.46424 0.06655,0.25533 0.06655,0.67315 0,0.92849 -0.06655,0.25533 -0.121001,0.0464 -0.121001,-0.46425 z m 9.265175,-2.85162 c 4.03821,-0.04118 10.64617,-0.04118 14.68438,0 4.0382,0.0412 0.73422,0.0749 -7.34219,0.0749 -8.07641,0 -11.38039,-0.0337 -7.34219,-0.0749 z M 49.193572,77.786364 c 6.09e-4,-1.604963 0.04417,-2.227335 0.09684,-1.383051 0.05266,0.844285 0.05218,2.157436 -0.0011,2.918114 -0.05326,0.760678 -0.09635,0.0699 -0.09576,-1.535063 z m -10.926,-6.3889 c 0.0127,-0.309041 0.07539,-0.3719 0.159853,-0.160276 0.07643,0.1915 0.06703,0.420307 -0.02089,0.50846 -0.08792,0.08815 -0.150453,-0.06853 -0.138965,-0.348184 z m 126.735408,0 c 0.0127,-0.309041 0.0754,-0.3719 0.15985,-0.160276 0.0764,0.1915 0.067,0.420307 -0.0209,0.50846 -0.0879,0.08815 -0.15045,-0.06853 -0.13897,-0.348184 z"
         id="path308" /><path
         style="fill:#fd8d9d;stroke-width:0.264933"
         d="m 57.561267,107.68644 c 0,-0.82865 0.771091,-3.48102 1.333115,-4.58559 0.690614,-1.3573 2.166586,-2.99682 3.568484,-3.963897 3.08829,-2.130419 7.509581,-2.455391 10.865992,-0.798663 3.336396,1.646845 5.766755,4.96465 6.115018,8.34792 l 0.151839,1.47506 H 68.57849 c -10.409767,0 -11.017223,-0.0262 -11.017223,-0.47483 z"
         id="path306" /><path
         style="fill:#63b2fa;stroke-width:0.264933"
         d="m 97.718437,138.2553 c -0.930132,-0.5061 -1.263422,-1.15599 -1.263422,-2.46357 0,-0.85239 0.156331,-1.18688 0.814051,-1.74178 l 0.814049,-0.68679 h 28.575055 28.57505 l 0.77339,0.77545 c 1.28408,1.28746 1.01615,3.32051 -0.54422,4.12954 -1.15479,0.59875 -56.64263,0.58639 -57.743953,-0.0129 z m -0.490024,-11.50381 c -1.090636,-1.09352 -1.089181,-2.66271 0.0035,-3.75827 l 0.776886,-0.77894 28.747101,0.0698 28.7471,0.0698 0.63852,0.74432 c 0.93702,1.0923 0.88004,2.63564 -0.13489,3.65325 l -0.7734,0.77544 H 126.61751 98.001808 Z M 97.165974,115.641 c -0.762918,-0.79842 -0.961507,-2.27012 -0.438534,-3.24989 0.724289,-1.35692 -0.305826,-1.31172 29.89433,-1.31172 20.15744,0 28.23936,0.0836 28.65428,0.29633 1.67059,0.8566 2.02875,2.93227 0.73056,4.23388 l -0.77339,0.77545 H 126.55507 97.876933 Z m 0.698936,-10.51467 c -1.030562,-0.45513 -1.409895,-1.12302 -1.409895,-2.48239 0,-0.77256 0.180567,-1.22344 0.697536,-1.74178 l 0.69754,-0.69938 h 14.898119 14.89813 l 0.69257,0.5973 c 0.46087,0.39748 0.74133,0.96176 0.83831,1.68671 0.12658,0.9462 0.0403,1.2077 -0.65596,1.98921 l -0.80169,0.8998 -14.5078,0.0606 c -11.94158,0.0498 -14.656215,-0.005 -15.34686,-0.31002 z M 38.312013,75.597778 c 0.0965,-3.922032 0.224322,-5.254121 0.60434,-6.29822 0.670934,-1.843388 2.738066,-3.865561 4.706269,-4.603907 l 1.523079,-0.571364 h 56.600979 56.60098 l 1.52308,0.571364 c 1.9682,0.738346 4.03533,2.760519 4.70627,4.603907 0.38002,1.044099 0.50784,2.376188 0.60434,6.29822 l 0.12239,4.974058 H 126.64604 87.988348 V 77.786364 75.000892 H 68.541474 49.0946 v 2.785472 2.785472 h -5.452487 -5.452488 z"
         id="path304" /></g></g></svg>
