<?xml version="1.0" encoding="UTF-8" standalone="no"?>
<!-- Created with Inkscape (http://www.inkscape.org/) -->

<svg
   width="135.46666mm"
   height="135.46666mm"
   viewBox="0 0 135.46666 135.46666"
   version="1.1"
   id="svg5"
   xml:space="preserve"
   sodipodi:docname="tab_1u.svg"
   inkscape:version="1.2.2 (732a01da63, 2022-12-09)"
   xmlns:inkscape="http://www.inkscape.org/namespaces/inkscape"
   xmlns:sodipodi="http://sodipodi.sourceforge.net/DTD/sodipodi-0.dtd"
   xmlns="http://www.w3.org/2000/svg"
   xmlns:svg="http://www.w3.org/2000/svg"><sodipodi:namedview
     id="namedview7"
     pagecolor="#ffffff"
     bordercolor="#000000"
     borderopacity="0.25"
     inkscape:showpageshadow="2"
     inkscape:pageopacity="0.0"
     inkscape:pagecheckerboard="0"
     inkscape:deskcolor="#d1d1d1"
     inkscape:document-units="mm"
     showgrid="false"
     inkscape:zoom="0.73851712"
     inkscape:cx="188.89203"
     inkscape:cy="239.66946"
     inkscape:window-width="1920"
     inkscape:window-height="1009"
     inkscape:window-x="-8"
     inkscape:window-y="-8"
     inkscape:window-maximized="1"
     inkscape:current-layer="layer1" /><defs
     id="defs2" /><g
     inkscape:label="Calque 1"
     inkscape:groupmode="layer"
     id="layer1"
     transform="translate(-42.253403,-85.244957)"><g
       id="g1107"><path
         style="fill:#fefefe;stroke-width:0.264583"
         d="M 42.253403,152.97829 V 85.244957 h 67.733327 67.73333 v 67.733333 67.73333 H 109.98673 42.253403 Z m 55.905114,61.32458 c 3.709873,-1.77145 6.526213,-5.20979 7.320353,-8.93709 0.22501,-1.0561 0.28703,-6.54033 0.22614,-19.99633 l -0.0839,-18.54113 -1.11094,-2.24162 c -1.42651,-2.87836 -3.45089,-4.8729 -6.351653,-6.258 l -2.062408,-0.98479 H 76.649235 57.202361 l -2.062409,0.98479 c -2.900759,1.3851 -4.925148,3.37964 -6.351653,6.258 l -1.110938,2.24162 -0.0839,18.54113 c -0.06154,13.59974 -1.63e-4,18.92895 0.230304,19.99633 0.957056,4.43251 4.769175,8.43197 9.222975,9.67624 0.942934,0.26343 5.437436,0.3287 20.131663,0.29239 l 18.917708,-0.0468 z m -39.046526,-5.51711 c -1.487163,-0.35706 -2.371778,-0.88627 -3.418936,-2.04535 -1.712303,-1.89531 -1.665694,-1.3238 -1.665694,-20.42462 0,-19.61973 -0.07686,-18.85192 2.086693,-20.84621 1.992176,-1.83632 1.290706,-1.77567 20.535181,-1.77567 19.619729,0 18.851913,-0.0769 20.846205,2.08669 1.836324,1.99218 1.775669,1.29071 1.775669,20.53519 0,14.00221 -0.06964,17.52738 -0.362662,18.35697 -0.493435,1.39702 -2.034212,3.04344 -3.473797,3.71198 -1.165534,0.54127 -1.550251,0.55385 -18.256249,0.59711 -9.490855,0.0246 -17.509834,-0.0625 -18.06641,-0.19609 z m 106.246829,5.51894 c 2.73711,-1.30697 4.64735,-3.21721 5.95433,-5.95433 l 0.98295,-2.05854 v -19.97604 -19.97605 l -0.98295,-2.05854 c -1.30698,-2.73712 -3.21722,-4.64736 -5.95433,-5.95433 l -2.05855,-0.98296 h -19.97604 -19.97604 l -1.98437,0.95958 c -3.38094,1.63492 -5.45863,3.9434 -6.60088,7.3341 -0.54782,1.62618 -0.55495,1.9383 -0.4833,21.15239 l 0.0727,19.50185 0.98295,2.05854 c 1.55786,3.26252 4.22851,5.57234 7.7483,6.70143 0.82825,0.26569 5.31484,0.32824 20.6375,0.28768 l 19.57916,-0.0518 z M 98.158517,147.62787 c 3.574373,-1.70675 6.257663,-4.86466 7.227073,-8.50539 0.52988,-1.99001 0.52988,-36.97338 0,-38.96339 -0.96941,-3.640727 -3.6527,-6.798636 -7.227073,-8.505383 L 96.096109,90.668915 H 76.649235 57.202361 l -2.062409,0.984792 c -2.901066,1.385246 -4.925201,3.379648 -6.351653,6.258348 l -1.110938,2.241965 v 19.46682 19.46682 l 0.984792,2.06241 c 1.675857,3.50968 4.828832,6.22357 8.384585,7.21695 0.942934,0.26343 5.437436,0.32871 20.131663,0.29239 l 18.917708,-0.0468 z m 67.200303,0.002 c 2.73711,-1.30697 4.64735,-3.21721 5.95433,-5.95433 l 0.98295,-2.05856 V 119.64079 99.664748 l -0.98295,-2.058546 c -1.30698,-2.737118 -3.21722,-4.647354 -5.95433,-5.95433 l -2.05855,-0.982957 h -19.97604 -19.97604 l -2.05854,0.982957 c -2.73712,1.306976 -4.64736,3.217212 -5.95434,5.95433 l -0.98295,2.058546 -0.0727,19.501852 c -0.0717,19.21408 -0.0645,19.5262 0.4833,21.15239 1.04655,3.10661 3.15374,5.60333 5.93942,7.03732 2.72458,1.40254 2.04108,1.3637 23.01875,1.30817 l 19.57916,-0.0518 2.05855,-0.98295 z m -40.33832,-5.60386 c -1.67999,-0.45236 -2.94968,-1.48204 -3.69574,-2.99715 l -0.6224,-1.26396 v -18.12396 -18.12396 l 0.6224,-1.26396 c 0.73687,-1.496438 1.9299,-2.476695 3.64105,-2.991676 1.83807,-0.553178 34.87877,-0.553178 36.71684,0 1.71115,0.514981 2.90419,1.495238 3.64106,2.991676 l 0.6224,1.26396 v 18.12396 18.12396 l -0.63043,1.28054 c -0.76828,1.56056 -2.24302,2.6836 -4.0262,3.06603 -2.00611,0.43023 -34.63935,0.35334 -36.26898,-0.0855 z"
         id="path1119" /><path
         style="fill:#cdcdcd;stroke-width:0.264583"
         d="m 117.6259,211.78193 c -0.32911,-0.41965 -0.31975,-0.429 0.0999,-0.0999 0.44072,0.34565 0.58088,0.56292 0.36312,0.56292 -0.0549,0 -0.2633,-0.20836 -0.46302,-0.46302 z m 50.83375,0.36312 c 0,-0.0549 0.20836,-0.2633 0.46302,-0.46302 0.41964,-0.3291 0.429,-0.31975 0.0999,0.0999 -0.34564,0.44073 -0.56291,0.58089 -0.56291,0.36312 z m -51.06458,-51.06458 c 0,-0.0549 0.20836,-0.2633 0.46302,-0.46302 0.41964,-0.3291 0.429,-0.31975 0.0999,0.0999 -0.34564,0.44073 -0.56291,0.58089 -0.56291,0.36312 z m 51.29541,-0.36312 c -0.32911,-0.41965 -0.31975,-0.429 0.0999,-0.0999 0.44073,0.34565 0.58088,0.56292 0.36312,0.56292 -0.0549,0 -0.2633,-0.20836 -0.46302,-0.46302 z M 117.6259,145.10693 c -0.32911,-0.41964 -0.31975,-0.429 0.0999,-0.0999 0.25466,0.19972 0.46302,0.40808 0.46302,0.46302 0,0.21776 -0.21728,0.0776 -0.56292,-0.36313 z m 50.83375,0.36313 c 0,-0.0549 0.20836,-0.2633 0.46302,-0.46302 0.41964,-0.32911 0.429,-0.31975 0.0999,0.0999 -0.34564,0.44073 -0.56291,0.58089 -0.56291,0.36313 z M 117.39507,94.405478 c 0,-0.05494 0.20836,-0.263301 0.46302,-0.46302 0.41964,-0.329108 0.429,-0.31975 0.0999,0.09989 -0.34564,0.44073 -0.56291,0.580888 -0.56291,0.363126 z m 51.29541,-0.363126 c -0.32911,-0.419644 -0.31975,-0.429002 0.0999,-0.09989 0.44073,0.345643 0.58088,0.562915 0.36312,0.562915 -0.0549,0 -0.2633,-0.208359 -0.46302,-0.463021 z"
         id="path1117" /><path
         style="fill:#b2b2b2;stroke-width:0.264583"
         d="m 125.20027,208.82699 c -1.82585,-0.45472 -3.07208,-1.44967 -4.00394,-3.19662 -0.46862,-0.87851 -0.49397,-1.86985 -0.49397,-19.31458 0,-18.31915 0.002,-18.39254 0.56956,-19.44688 0.66004,-1.22645 1.43672,-1.98705 2.73773,-2.68103 0.87851,-0.46862 1.86985,-0.49397 19.31458,-0.49397 18.31914,0 18.39254,0.002 19.44688,0.56956 1.22644,0.66004 1.98704,1.43673 2.68103,2.73773 0.46861,0.87851 0.49397,1.86985 0.49397,19.31459 0,17.44473 -0.0254,18.43607 -0.49397,19.31458 -0.69399,1.301 -1.45459,2.07769 -2.68103,2.73773 -1.05106,0.56564 -1.18122,0.56986 -18.91771,0.61306 -9.82266,0.0239 -18.21656,-0.0454 -18.65313,-0.15417 z M 59.054444,142.15211 c -1.835811,-0.45747 -3.541113,-1.8587 -4.534442,-3.72591 -0.466455,-0.87681 -0.492641,-1.87536 -0.492641,-18.78541 0,-17.80371 0.0018,-17.86267 0.572127,-18.91771 0.67445,-1.247611 1.971668,-2.523844 3.264331,-3.211524 0.876817,-0.466455 1.875367,-0.492641 18.785416,-0.492641 17.803713,0 17.862673,0.0018 18.917707,0.572127 1.247614,0.67445 2.523844,1.971668 3.211526,3.264328 0.466455,0.87682 0.492641,1.87537 0.492641,18.78542 0,16.91005 -0.02619,17.9086 -0.492641,18.78541 -0.687682,1.29267 -1.963912,2.58989 -3.211526,3.26434 -1.051631,0.5685 -1.168096,0.5724 -18.388541,0.61574 -9.531614,0.024 -17.687395,-0.0454 -18.123957,-0.15417 z"
         id="path1115" /><path
         style="fill:#9c9c9c;stroke-width:0.264583"
         d="m 51.215487,211.51735 c -0.329108,-0.41965 -0.319749,-0.42901 0.09989,-0.0999 0.254661,0.19972 0.463021,0.40808 0.463021,0.46302 0,0.21776 -0.217273,0.0776 -0.562916,-0.36312 z m 4.51164,-71.17292 -0.641433,-0.7276 0.727604,0.64143 c 0.680056,0.59952 0.848939,0.81378 0.641433,0.81378 -0.04739,0 -0.374816,-0.32742 -0.727604,-0.72761 z m 41.559607,0.0662 c 0.341775,-0.3638 0.680939,-0.66146 0.7537,-0.66146 0.07276,0 -0.147342,0.29766 -0.489117,0.66146 -0.341776,0.3638 -0.68094,0.66146 -0.7537,0.66146 -0.07276,0 0.147341,-0.29766 0.489117,-0.66146 z M 55.747152,98.870998 c 0.341775,-0.363802 0.680939,-0.661458 0.7537,-0.661458 0.07276,0 -0.147342,0.297656 -0.489116,0.661458 -0.341775,0.363802 -0.680939,0.661458 -0.7537,0.661458 -0.07276,0 0.147342,-0.297656 0.489116,-0.661458 z m 41.519555,-0.06615 -0.641432,-0.727604 0.727604,0.641433 c 0.400183,0.352788 0.727605,0.68021 0.727605,0.727604 0,0.207506 -0.21426,0.03862 -0.813777,-0.641433 z"
         id="path1113" /><path
         style="fill:#8d8d8d;stroke-width:0.264583"
         d="m 59.401709,215.23921 c 0.190997,-0.0764 0.4192,-0.067 0.507119,0.0209 0.08792,0.0879 -0.06835,0.15045 -0.347266,0.13896 -0.308225,-0.0127 -0.370919,-0.0754 -0.159853,-0.15985 z m 34.131249,0 c 0.190995,-0.0764 0.419198,-0.067 0.507119,0.0209 0.08792,0.0879 -0.06835,0.15045 -0.347266,0.13896 -0.308226,-0.0127 -0.370919,-0.0754 -0.159853,-0.15985 z m 67.204162,0 c 0.191,-0.0764 0.4192,-0.067 0.50712,0.0209 0.0879,0.0879 -0.0683,0.15045 -0.34727,0.13896 -0.30822,-0.0127 -0.37091,-0.0754 -0.15985,-0.15985 z m -38.59958,-7.9552 -0.64143,-0.7276 0.7276,0.64143 c 0.68006,0.59952 0.84894,0.81378 0.64143,0.81378 -0.0474,0 -0.37481,-0.32742 -0.7276,-0.72761 z m 42.08877,0.0661 c 0.34178,-0.3638 0.68094,-0.66146 0.7537,-0.66146 0.0728,0 -0.14734,0.29766 -0.48911,0.66146 -0.34178,0.3638 -0.68094,0.66146 -0.7537,0.66146 -0.0728,0 0.14734,-0.29766 0.48911,-0.66146 z m 7.95839,-3.46163 c 0.0127,-0.30823 0.0754,-0.37092 0.15985,-0.15985 0.0764,0.19099 0.067,0.4192 -0.0209,0.50711 -0.0879,0.0879 -0.15046,-0.0684 -0.13897,-0.34726 z M 47.565957,203.35936 c 0.0127,-0.30822 0.07539,-0.37092 0.159853,-0.15985 0.07643,0.19099 0.06703,0.4192 -0.02089,0.50712 -0.08792,0.0879 -0.150453,-0.0684 -0.138964,-0.34727 z m 57.943753,0 c 0.0127,-0.30822 0.0754,-0.37092 0.15985,-0.15985 0.0764,0.19099 0.067,0.4192 -0.0209,0.50712 -0.0879,0.0879 -0.15045,-0.0684 -0.13896,-0.34727 z M 47.565957,169.22811 c 0.0127,-0.30822 0.07539,-0.37092 0.159853,-0.15985 0.07643,0.19099 0.06703,0.4192 -0.02089,0.50712 -0.08792,0.0879 -0.150453,-0.0684 -0.138964,-0.34727 z m 57.943753,0 c 0.0127,-0.30822 0.0754,-0.37092 0.15985,-0.15985 0.0764,0.19099 0.067,0.4192 -0.0209,0.50712 -0.0879,0.0879 -0.15045,-0.0684 -0.13896,-0.34727 z m 66.67499,-0.52916 c 0.0127,-0.30823 0.0754,-0.37092 0.15985,-0.15986 0.0764,0.191 0.067,0.4192 -0.0209,0.50712 -0.0879,0.0879 -0.15046,-0.0684 -0.13897,-0.34726 z m -50.02713,-3.41754 c 0.34177,-0.3638 0.68094,-0.66146 0.7537,-0.66146 0.0728,0 -0.14735,0.29766 -0.48912,0.66146 -0.34178,0.3638 -0.68094,0.66146 -0.7537,0.66146 -0.0728,0 0.14734,-0.29766 0.48912,-0.66146 z m 42.04872,-0.0661 -0.64143,-0.72761 0.7276,0.64143 c 0.68006,0.59952 0.84894,0.81378 0.64143,0.81378 -0.0474,0 -0.37481,-0.32742 -0.7276,-0.7276 z M 59.401709,157.29546 c 0.190997,-0.0764 0.4192,-0.067 0.507119,0.0209 0.08792,0.0879 -0.06835,0.15045 -0.347266,0.13896 -0.308225,-0.0127 -0.370919,-0.0754 -0.159853,-0.15985 z m 34.131249,0 c 0.190995,-0.0764 0.419198,-0.067 0.507119,0.0209 0.08792,0.0879 -0.06835,0.15045 -0.347266,0.13896 -0.308226,-0.0127 -0.370919,-0.0754 -0.159853,-0.15985 z m -34.131249,-8.73125 c 0.190997,-0.0764 0.4192,-0.067 0.507119,0.0209 0.08792,0.0879 -0.06835,0.15045 -0.347266,0.13896 -0.308225,-0.0127 -0.370919,-0.0754 -0.159853,-0.15985 z m 34.131249,0 c 0.190995,-0.0764 0.419198,-0.067 0.507119,0.0209 0.08792,0.0879 -0.06835,0.15045 -0.347266,0.13896 -0.308226,-0.0127 -0.370919,-0.0754 -0.159853,-0.15985 z M 47.565957,136.68437 c 0.0127,-0.30823 0.07539,-0.37092 0.159853,-0.15986 0.07643,0.191 0.06703,0.4192 -0.02089,0.50712 -0.08792,0.0879 -0.150453,-0.0684 -0.138964,-0.34726 z m 57.943753,0 c 0.0127,-0.30823 0.0754,-0.37092 0.15985,-0.15986 0.0764,0.191 0.067,0.4192 -0.0209,0.50712 -0.0879,0.0879 -0.15045,-0.0684 -0.13896,-0.34726 z M 47.565957,102.55312 c 0.0127,-0.30823 0.07539,-0.37092 0.159853,-0.15986 0.07643,0.191 0.06703,0.4192 -0.02089,0.50712 -0.08792,0.0879 -0.150453,-0.0683 -0.138964,-0.34726 z m 57.943753,0 c 0.0127,-0.30823 0.0754,-0.37092 0.15985,-0.15986 0.0764,0.191 0.067,0.4192 -0.0209,0.50712 -0.0879,0.0879 -0.15045,-0.0683 -0.13896,-0.34726 z m 66.67499,-0.52917 c 0.0127,-0.30823 0.0754,-0.37092 0.15985,-0.15985 0.0764,0.19099 0.067,0.4192 -0.0209,0.50711 -0.0879,0.0879 -0.15046,-0.0684 -0.13897,-0.34726 z M 59.401709,90.620466 c 0.190997,-0.07643 0.4192,-0.06703 0.507119,0.02089 0.08792,0.08792 -0.06835,0.150453 -0.347266,0.138964 -0.308225,-0.01269 -0.370919,-0.07539 -0.159853,-0.159852 z m 34.131249,0 c 0.190995,-0.07643 0.419198,-0.06703 0.507119,0.02089 0.08792,0.08792 -0.06835,0.150453 -0.347266,0.138964 -0.308226,-0.01269 -0.370919,-0.07539 -0.159853,-0.159852 z"
         id="path1111" /><path
         style="fill:#737373;stroke-width:0.264583"
         d="m 58.641101,215.14574 c -2.93216,-0.44533 -5.550813,-1.83394 -7.536867,-3.99664 -1.392451,-1.51629 -2.059321,-2.638 -2.809051,-4.72498 l -0.617822,-1.71979 v -18.38854 -18.38855 l 0.617822,-1.71979 c 1.466098,-4.08108 4.173772,-6.78939 8.245719,-8.24764 l 1.719792,-0.6159 h 18.256249 c 16.930964,0 18.371491,0.0351 19.843749,0.48384 4.101648,1.25009 7.149218,4.2043 8.644518,8.3797 l 0.6159,1.71979 v 18.38855 18.38854 l -0.6159,1.71979 c -1.46991,4.10449 -4.45868,7.04266 -8.512226,8.3681 -1.334252,0.43628 -2.906697,0.48004 -18.917708,0.52643 -9.604374,0.0278 -18.124753,-0.05 -18.934175,-0.17291 z m 36.925841,-6.56941 c 1.223666,-0.5573 2.927636,-2.34135 3.465293,-3.62814 0.305977,-0.73231 0.371165,-4.00469 0.371165,-18.6324 0,-19.71909 0.08247,-18.76845 -1.798857,-20.73519 -2.024343,-2.11625 -0.886515,-2.00664 -20.897661,-2.01317 -19.78493,-0.006 -18.825104,-0.0892 -20.792832,1.79305 -2.11625,2.02434 -2.006638,0.88651 -2.01317,20.89766 -0.0065,19.78493 -0.08923,18.8251 1.793045,20.79283 2.025333,2.11728 0.877813,2.00736 20.95531,2.00736 16.713156,0 17.927298,-0.0309 18.917707,-0.482 z m 29.104168,6.57836 c -4.67152,-0.75586 -8.24673,-3.83712 -9.82316,-8.46599 -0.46621,-1.36894 -0.49559,-2.57672 -0.49559,-20.37291 v -18.91771 l 0.617,-1.7863 c 1.22682,-3.55178 4.10704,-6.42586 7.67541,-7.65903 l 1.76175,-0.60884 19.05,5.3e-4 c 18.97062,5.3e-4 19.05634,0.003 20.57102,0.58095 3.92294,1.49681 6.60391,4.3044 7.78214,8.1497 0.4527,1.47745 0.48642,2.88981 0.48642,20.37292 0,20.11277 0.0475,19.33527 -1.35428,22.18028 -1.36633,2.7731 -3.77739,4.88959 -6.91428,6.06954 -1.50027,0.56433 -1.77006,0.57281 -19.77727,0.62149 -10.04093,0.0272 -18.85156,-0.047 -19.57916,-0.1647 z m 37.96295,-6.63427 c 1.60073,-0.72608 2.08709,-1.20208 2.8178,-2.75776 l 0.62137,-1.32292 -0.003,-18.12395 c -0.003,-17.65322 -0.0172,-18.15476 -0.54113,-19.30983 -0.70403,-1.55212 -1.17718,-2.04795 -2.68283,-2.81148 l -1.24797,-0.63286 h -18.23273 c -19.5199,0 -19.02949,-0.0313 -20.75352,1.32498 -0.40501,0.31862 -1.03009,1.15891 -1.38906,1.86733 l -0.65269,1.28801 v 18.27385 18.27384 l 0.63286,1.24797 c 0.72354,1.42679 1.18851,1.88926 2.67443,2.66001 1.04077,0.53984 1.36125,0.54905 19.31458,0.55484 17.79642,0.006 18.28612,-0.008 19.44212,-0.53203 z M 58.641101,148.47074 c -2.93216,-0.44533 -5.550813,-1.83394 -7.536867,-3.99663 -1.392451,-1.5163 -2.059321,-2.63801 -2.809051,-4.72499 l -0.617822,-1.71979 v -18.25625 c 0,-16.93096 0.03512,-18.37149 0.483835,-19.843749 1.250092,-4.101643 4.204305,-7.149215 8.379706,-8.64452 l 1.719792,-0.615896 h 18.256249 c 16.930964,0 18.371491,0.03512 19.843749,0.483835 4.101648,1.250092 7.149218,4.204305 8.644518,8.379706 l 0.6159,1.719794 v 18.38854 18.38854 l -0.6159,1.71979 c -1.46991,4.10449 -4.45868,7.04266 -8.512226,8.36811 -1.334252,0.43628 -2.906697,0.48003 -18.917708,0.52643 -9.604374,0.0278 -18.124753,-0.05 -18.934175,-0.17292 z m 36.793549,-6.62636 c 1.598906,-0.72377 2.586503,-1.6959 3.338171,-3.28588 l 0.625409,-1.32292 V 119.64079 102.046 l -0.622871,-1.33763 c -0.728501,-1.564472 -2.380777,-3.079759 -3.832421,-3.514683 -1.49185,-0.446969 -35.13467,-0.433475 -36.651547,0.0147 -1.453313,0.429395 -3.645163,2.621244 -4.074558,4.074563 -0.448175,1.51687 -0.461669,35.15969 -0.0147,36.65154 0.434923,1.45165 1.95021,3.10392 3.514681,3.83242 l 1.33763,0.62287 17.594791,-0.003 c 17.131614,-0.003 17.626133,-0.0174 18.785415,-0.54218 z m 29.23646,6.63837 c -4.46326,-0.7019 -8.04054,-3.6919 -9.73721,-8.13865 -0.57793,-1.51468 -0.58035,-1.6004 -0.58094,-20.57102 -5.3e-4,-17.9264 0.0286,-19.13583 0.49499,-20.505207 1.34074,-3.936796 3.88141,-6.519704 7.83878,-7.969087 l 1.71979,-0.629871 h 18.91771 c 17.79619,0 19.00398,0.02938 20.37292,0.495593 3.85753,1.31374 6.55263,3.927217 8.01573,7.772973 0.57563,1.513059 0.57867,1.620629 0.58094,20.571019 0.002,17.92894 -0.0269,19.13563 -0.49331,20.5052 -1.33911,3.93203 -4.09973,6.72613 -7.94351,8.03983 -1.57038,0.53671 -2.11646,0.55316 -19.73902,0.59462 -9.96818,0.0234 -18.71927,-0.051 -19.44687,-0.1654 z m 38.71252,-6.94995 c 0.60651,-0.40142 1.43119,-1.22617 1.83261,-1.83276 l 0.72987,-1.1029 v -18.95635 -18.95635 l -0.72987,-1.102901 c -0.40142,-0.606594 -1.22616,-1.431336 -1.83276,-1.832761 l -1.1029,-0.729863 h -18.95635 -18.95635 l -1.1029,0.729863 c -0.60659,0.401425 -1.43134,1.226095 -1.83276,1.832602 l -0.72986,1.10274 -0.0795,18.40802 c -0.0518,11.9952 0.0147,18.73063 0.19096,19.33406 0.37682,1.29029 1.65304,2.74577 2.99142,3.41162 1.1247,0.55955 1.22522,0.56206 19.80304,0.49362 l 18.6726,-0.0688 z"
         id="path1109" /></g></g></svg>
