<svg xmlns="http://www.w3.org/2000/svg" width="34" height="34" fill="none" viewBox="0 0 34 34">
  <mask id="a" width="28" height="34" x="3" y="0" maskUnits="userSpaceOnUse" style="mask-type:alpha">
    <path fill="#fff" fill-rule="evenodd" d="M3.539 0h26.923v34H3.539V0Z" clip-rule="evenodd"/>
  </mask>
  <g mask="url(#a)">
    <path fill="#47C78F" fill-rule="evenodd" d="M8.056 28.724c.35-.6.726-1.151.987-1.74.3-.676.714-.876 1.465-.863 4.541.038 9.082.025 13.623.013.249 0 .375.075.488.287.425.763.863 1.502 1.326 2.303H8.055Zm2.926-13.074c-.714 0-1.3-.588-1.314-1.314a1.309 1.309 0 0 1 2.616 0c0 .701-.589 1.301-1.302 1.314ZM9.856 7.13c0-.988.014-1.975 0-2.952 0-.225.063-.275.276-.275 1.988.012 3.978.012 5.967 0 .238 0 .301.062.301.288a449.23 449.23 0 0 0 0 5.942c0 .238-.063.288-.3.288h-5.968c-.226 0-.276-.063-.276-.275.014-1.001 0-2.015 0-3.015Zm4.38-5.804c.137-.037.274-.05.425-.05h4.866c.437 0 .676.187.75.538.088.45-.211.8-.712.8-.852.013-1.702.013-2.552.013h-2.49c-.426-.013-.688-.212-.751-.55a.655.655 0 0 1 .464-.751Zm9.707 2.577c.238 0 .274.075.274.275-.011 1-.011 1.99-.011 2.99 0 .988 0 1.99.012 2.978 0 .212-.05.275-.275.275H17.95c-.224 0-.275-.076-.275-.275.013-1.99.013-3.979 0-5.968 0-.213.051-.275.275-.275 2.003.012 4.004.012 5.993 0ZM22.916 15.65a1.319 1.319 0 0 1-1.313-1.3c-.011-.713.576-1.302 1.29-1.314a1.291 1.291 0 0 1 1.313 1.289 1.32 1.32 0 0 1-1.29 1.325Zm.026 7.88H11.095c.05-.236.201-.398.3-.587.363-.638.725-1.263 1.089-1.9.074-.138.176-.19.338-.19h8.357c.099 0 .211-.023.287.101.475.852.976 1.702 1.476 2.577Zm-.05-2.676h.65c1.151-.024 1.965-.85 1.965-1.99V1.99c0-.976-.576-1.701-1.526-1.94-.026-.012-.05-.036-.076-.049H10.106c-.036.112-.15.076-.225.1-.787.287-1.3.964-1.313 1.801-.013 1.052 0 2.103 0 3.152v13.762c0 1 .589 1.776 1.502 1.99.312.075.636.037.95.049.075.112-.013.175-.05.25-2.44 4.216-4.878 8.433-7.305 12.66-.038.052-.05.126-.126.138v.063c.25 0 .513-.025.764.013.563.1.875-.139 1.113-.65.274-.6.663-1.164.987-1.753.089-.15.176-.211.363-.211H27.22c.201 0 .3.074.388.223.414.74.839 1.453 1.252 2.19.074.138.162.2.324.2.415-.012.813-.012 1.278-.012a4102.197 4102.197 0 0 1-7.57-13.111Z" clip-rule="evenodd"/>
  </g>
</svg>
