<svg xmlns="http://www.w3.org/2000/svg" width="34" height="34" fill="none" viewBox="0 0 34 34">
  <path fill="#000" fill-opacity=".01" fill-rule="evenodd" d="M0 34h34V0H0v34Z" clip-rule="evenodd"/>
  <path fill="#00B4FE" fill-opacity=".3" fill-rule="evenodd" d="m21.906 1.976 10.425 9.457c.447.406.481 1.1.075 1.547-.02.025-.044.045-.066.068l-10.425 9.655a1.097 1.097 0 0 1-1.548-.06 1.102 1.102 0 0 1-.29-.745V2.786a1.094 1.094 0 0 1 1.83-.81Z" clip-rule="evenodd"/>
  <mask id="a" width="27" height="24" x="0" y="1" maskUnits="userSpaceOnUse" style="mask-type:alpha">
    <path fill="#fff" fill-rule="evenodd" d="M0 1.692h26.85v22.713H0V1.692Z" clip-rule="evenodd"/>
  </mask>
  <g mask="url(#a)">
    <path fill="#00B4FE" fill-rule="evenodd" d="M.007 21.91c0-1.198-.256-5.924 3.471-9.673 2.51-2.525 6.265-2.962 10.757-3.162V2.787a1.095 1.095 0 0 1 1.83-.811l10.426 9.457c.448.407.481 1.1.076 1.547l-.067.068-10.426 9.653a1.093 1.093 0 0 1-1.839-.803v-6.253c-2.852.08-4.883.26-6.728.846-2.657.846-4.71 3.245-6.162 7.196-.158.43-.567.718-1.028.718H0c0-.72.007-1.86.007-2.495Z" clip-rule="evenodd"/>
  </g>
  <path fill="#47C78F" fill-rule="evenodd" d="M33.999 25.84a8.158 8.158 0 0 0-8.16-8.157 8.158 8.158 0 1 0 0 16.317A8.158 8.158 0 0 0 34 25.84Z" clip-rule="evenodd"/>
  <path fill="#fff" fill-rule="evenodd" d="M28 25.572a3.196 3.196 0 0 0-.8-.435 32.831 32.831 0 0 0-.847-.3 10.095 10.095 0 0 1-.507-.173 2.125 2.125 0 0 1-.39-.187.747.747 0 0 1-.248-.237.615.615 0 0 1-.085-.337.66.66 0 0 1 .108-.39.89.89 0 0 1 .265-.248c.105-.063.224-.108.355-.13a1.826 1.826 0 0 1 1.163.152c.266.126.482.293.648.502l1.23-1.296a3.533 3.533 0 0 0-1.237-.733 4.16 4.16 0 0 0-1.177-.23v-.734a.593.593 0 1 0-1.186 0v.83c-.044.01-.09.015-.135.026a3.02 3.02 0 0 0-.992.445 2.382 2.382 0 0 0-.712.778c-.179.317-.27.697-.27 1.14 0 .361.059.667.175.92.116.25.27.465.463.643.19.177.41.32.655.434.243.113.494.21.75.293.262.082.498.161.704.23.207.072.38.152.518.238.14.087.247.183.323.288a.647.647 0 0 1 .113.383c0 .158-.03.293-.09.407a.744.744 0 0 1-.243.27c-.103.069-.22.117-.355.147-.135.03-.275.046-.418.046-.316 0-.634-.083-.954-.244a2.337 2.337 0 0 1-.773-.604l-1.262 1.287c.353.369.796.653 1.33.852.38.14.772.23 1.173.271v1.011a.594.594 0 1 0 1.186 0v-1.049c.148-.026.296-.05.44-.094.367-.104.695-.265.98-.483.287-.219.513-.495.683-.83.169-.334.255-.73.255-1.19 0-.398-.08-.73-.238-.997a2.306 2.306 0 0 0-.598-.672Z" clip-rule="evenodd"/>
</svg>
