<svg xmlns="http://www.w3.org/2000/svg" width="48" height="47" fill="none" viewBox="0 0 48 47">
  <rect width="48" height="47" fill="#D8D8D8" fill-opacity=".01" rx="2"/>
  <path fill="#7D90AA" fill-rule="evenodd" d="M21.601 16.547h.116c.35 0 .644.266.68.614l.62 6.212 4.434 2.533c.213.122.345.35.345.593v.287a.522.522 0 0 1-.659.503l-6.306-1.72a.679.679 0 0 1-.501-.71l.59-7.682a.683.683 0 0 1 .681-.63Z" clip-rule="evenodd"/>
  <mask id="a" width="29" height="30" x="8" y="8" maskUnits="userSpaceOnUse" style="mask-type:alpha">
    <path fill="#fff" fill-rule="evenodd" d="M8 8h28.67v29.708H8V8Z" clip-rule="evenodd"/>
  </mask>
  <g mask="url(#a)">
    <path fill="#7D90AA" fill-rule="evenodd" d="M16.723 10.178a14.294 14.294 0 0 1 5.612-1.14c7.916 0 14.335 6.417 14.335 14.335 0 7.916-6.419 14.335-14.335 14.335C14.418 37.708 8 31.289 8 23.373c0-1.345.185-2.646.532-3.88l2.628.738a11.648 11.648 0 0 0-.43 3.142c0 6.409 5.197 11.604 11.605 11.604 6.409 0 11.604-5.195 11.604-11.604 0-6.409-5.195-11.605-11.604-11.605-1.298 0-2.564.214-3.756.621l1.626 1.937a.683.683 0 0 1-.484 1.121l-6.646.376a.682.682 0 0 1-.701-.84l1.54-6.46a.683.683 0 0 1 1.187-.28l1.622 1.935Z" clip-rule="evenodd"/>
  </g>
  <mask id="b" width="17" height="16" x="28" y="22" maskUnits="userSpaceOnUse" style="mask-type:alpha">
    <path fill="#fff" fill-rule="evenodd" d="M28.738 22.157h15.844V38H28.738V22.157Z" clip-rule="evenodd"/>
  </mask>
  <g mask="url(#b)">
    <path fill="#7D90AA" fill-rule="evenodd" d="M44.583 30.078a7.922 7.922 0 0 0-7.923-7.921 7.921 7.921 0 1 0 0 15.843 7.923 7.923 0 0 0 7.923-7.922Z" clip-rule="evenodd"/>
    <path fill="#fff" fill-rule="evenodd" d="M38.758 29.817a3.046 3.046 0 0 0-.778-.422c-.285-.106-.56-.203-.822-.291a10.601 10.601 0 0 1-.492-.17 2.22 2.22 0 0 1-.379-.18.72.72 0 0 1-.24-.23.614.614 0 0 1-.082-.329c0-.153.034-.28.103-.376.07-.1.155-.18.258-.242a.982.982 0 0 1 .345-.127 1.776 1.776 0 0 1 1.129.15c.258.119.469.28.629.486l1.193-1.26a3.417 3.417 0 0 0-1.199-.712 4.01 4.01 0 0 0-1.143-.223v-.712a.577.577 0 1 0-1.153 0v.807c-.043.009-.086.013-.13.025-.358.09-.678.235-.963.432a2.286 2.286 0 0 0-.69.756c-.175.306-.263.676-.263 1.107 0 .349.056.647.169.891.113.245.264.453.449.625.186.172.399.311.637.421.236.11.479.204.727.285.256.082.483.155.685.225.2.07.368.145.504.23.134.084.238.177.311.28a.62.62 0 0 1 .11.372c0 .153-.03.285-.089.395a.705.705 0 0 1-.233.263 1.006 1.006 0 0 1-.345.141 1.894 1.894 0 0 1-.407.044c-.306 0-.613-.078-.926-.235a2.268 2.268 0 0 1-.75-.587l-1.226 1.25c.343.357.773.633 1.292.825.37.14.75.225 1.138.266v.982a.576.576 0 1 0 1.153 0v-1.02a3.82 3.82 0 0 0 .425-.09c.359-.102.676-.258.955-.471a2.34 2.34 0 0 0 .663-.805c.164-.325.245-.71.245-1.156 0-.388-.076-.71-.23-.97a2.19 2.19 0 0 0-.58-.65Z" clip-rule="evenodd"/>
  </g>
</svg>
