<svg xmlns="http://www.w3.org/2000/svg" width="29" height="29" fill="none" viewBox="0 0 29 29">
  <path fill="#FE685A" fill-rule="evenodd" d="M13.435 8.182h.106c.32 0 .588.236.62.545l.567 5.51 4.048 2.247c.195.108.315.31.315.526v.254a.47.47 0 0 1-.601.447l-5.758-1.526a.604.604 0 0 1-.457-.63l.539-6.814a.617.617 0 0 1 .621-.56Z" clip-rule="evenodd"/>
  <mask id="a" width="25" height="26" x="1" y="1" maskUnits="userSpaceOnUse" style="mask-type:alpha">
    <path fill="#fff" fill-rule="evenodd" d="M1.364 1.364h23.823v25.015H1.364V1.364Z" clip-rule="evenodd"/>
  </mask>
  <g mask="url(#a)">
    <path fill="#FE685A" fill-rule="evenodd" d="M8.612 3.198a11.743 11.743 0 0 1 4.664-.96c6.578 0 11.911 5.403 11.911 12.07 0 6.666-5.333 12.07-11.911 12.07-6.58 0-11.912-5.404-11.912-12.07 0-1.132.153-2.228.442-3.267l2.183.622a9.93 9.93 0 0 0-.357 2.645c0 5.397 4.318 9.771 9.644 9.771 5.325 0 9.642-4.374 9.642-9.77 0-5.397-4.317-9.772-9.642-9.772-1.08 0-2.13.18-3.122.523l1.351 1.63a.589.589 0 0 1 .132.337.572.572 0 0 1-.534.607l-5.522.317a.574.574 0 0 1-.583-.708l1.28-5.438a.562.562 0 0 1 .986-.235l1.348 1.628Z" clip-rule="evenodd"/>
  </g>
  <mask id="b" width="14" height="14" x="15" y="15" maskUnits="userSpaceOnUse" style="mask-type:alpha">
    <path fill="#fff" fill-rule="evenodd" d="M15.59 15.977h12.66v12.66H15.59v-12.66Z" clip-rule="evenodd"/>
  </mask>
  <g mask="url(#b)">
    <path fill="#FE685A" fill-rule="evenodd" d="M28.25 22.307a6.33 6.33 0 1 0-12.66 0 6.33 6.33 0 0 0 12.66 0Z" clip-rule="evenodd"/>
  </g>
  <path fill="#fff" fill-rule="evenodd" d="M23.949 21.623a2.063 2.063 0 0 0-.538-.315 16 16 0 0 0-.567-.218 6.783 6.783 0 0 1-.34-.126 1.482 1.482 0 0 1-.261-.135.518.518 0 0 1-.166-.17.489.489 0 0 1-.057-.247c0-.115.024-.209.072-.281a.6.6 0 0 1 .177-.18.647.647 0 0 1 .239-.096 1.152 1.152 0 0 1 .78.112c.178.089.323.21.433.364l.825-.942a2.33 2.33 0 0 0-.828-.531 2.582 2.582 0 0 0-.79-.167v-.532c0-.239-.177-.432-.398-.432-.22 0-.398.193-.398.432v.603c-.03.006-.06.01-.09.018a1.965 1.965 0 0 0-.665.323 1.668 1.668 0 0 0-.476.565 1.746 1.746 0 0 0-.182.826c0 .261.04.484.117.666.078.183.182.338.31.467.129.128.276.232.44.315.163.081.33.152.502.212.177.061.334.116.473.168.138.052.254.109.348.173a.76.76 0 0 1 .215.207.49.49 0 0 1 .076.279c0 .115-.02.213-.061.295a.516.516 0 0 1-.162.196.669.669 0 0 1-.238.106 1.213 1.213 0 0 1-.281.033c-.211 0-.423-.058-.64-.176a1.59 1.59 0 0 1-.517-.438l-.846.933c.236.267.534.473.892.617.255.104.517.168.785.198v.733c0 .238.178.431.398.431.22 0 .398-.193.398-.43v-.762a2.48 2.48 0 0 0 .294-.067c.247-.076.467-.193.659-.352.191-.159.344-.359.458-.601.113-.243.17-.53.17-.864 0-.29-.053-.53-.16-.724a1.603 1.603 0 0 0-.4-.486Z" clip-rule="evenodd"/>
</svg>
