<?xml version="1.0" encoding="UTF-8" standalone="no"?>
<!-- Created with Inkscape (http://www.inkscape.org/) -->

<svg
   width="135.46666mm"
   height="135.46666mm"
   viewBox="0 0 135.46666 135.46666"
   version="1.1"
   id="svg5"
   xml:space="preserve"
   inkscape:version="1.2.2 (732a01da63, 2022-12-09)"
   sodipodi:docname="travel_insurance.svg"
   xmlns:inkscape="http://www.inkscape.org/namespaces/inkscape"
   xmlns:sodipodi="http://sodipodi.sourceforge.net/DTD/sodipodi-0.dtd"
   xmlns="http://www.w3.org/2000/svg"
   xmlns:svg="http://www.w3.org/2000/svg"><sodipodi:namedview
     id="namedview7"
     pagecolor="#ffffff"
     bordercolor="#000000"
     borderopacity="0.25"
     inkscape:showpageshadow="2"
     inkscape:pageopacity="0.0"
     inkscape:pagecheckerboard="0"
     inkscape:deskcolor="#d1d1d1"
     inkscape:document-units="mm"
     showgrid="false"
     inkscape:zoom="0.73851712"
     inkscape:cx="199.72455"
     inkscape:cy="324.97554"
     inkscape:window-width="1920"
     inkscape:window-height="1009"
     inkscape:window-x="-8"
     inkscape:window-y="-8"
     inkscape:window-maximized="1"
     inkscape:current-layer="layer1" /><defs
     id="defs2" /><g
     inkscape:label="Calque 1"
     inkscape:groupmode="layer"
     id="layer1"
     transform="translate(-39.387299,-62.674389)"><g
       id="g302"><path
         style="display:inline;fill:#e0edfd;stroke-width:0.264583"
         d="m 84.763338,186.59215 c -0.436562,-0.0509 -1.924843,-0.22121 -3.307291,-0.37848 -13.781224,-1.56775 -27.634191,-7.81803 -36.865679,-16.63331 -1.140135,-1.08872 -2.241463,-2.30533 -2.447396,-2.70356 -0.265698,-0.5138 -0.374423,-1.70865 -0.374423,-4.11476 0,-3.80256 0.301126,-4.77091 1.802525,-5.79653 0.928009,-0.63394 6.254033,-2.0069 10.236016,-2.63867 7.784225,-1.23504 6.920567,-1.21287 52.21942,-1.34016 29.69127,-0.0834 43.54207,-0.0335 44.84687,0.16176 2.61059,0.39061 5.72228,1.95498 7.49477,3.76791 1.23631,1.26453 3.25664,4.21922 3.25664,4.76278 0,0.1177 -3.30398,0.21662 -7.34218,0.21981 -6.57474,0.005 -7.45499,0.0571 -8.42132,0.49593 -2.65449,1.20561 -3.47246,4.20949 -1.8244,6.69987 1.33198,2.01276 1.54191,2.04607 12.95769,2.05548 l 10.05417,0.008 1.35245,0.77571 c 1.6286,0.93409 2.61358,2.0489 3.4847,3.94399 0.56222,1.22309 0.63496,1.69455 0.53071,3.43958 -0.14884,2.4912 -0.75572,3.76261 -2.5781,5.40108 -2.38521,2.1445 -1.21178,2.04508 -24.13585,2.04508 h -20.32578 l -0.002,-2.31511 c -0.002,-2.96541 -0.3538,-4.18784 -1.54992,-5.38396 l -0.96412,-0.96412 2.91808,-0.12878 c 1.9716,-0.087 3.19039,-0.26959 3.75762,-0.56292 3.1295,-1.61832 3.24627,-6.30644 0.20005,-8.03172 l -1.05283,-0.59635 -22.56423,-0.004 c -24.641269,-0.005 -23.631658,-0.067 -24.98424,1.54045 -1.96742,2.33814 -1.412981,5.45174 1.241843,6.97391 1.058923,0.60714 1.106133,0.6097 12.688675,0.68863 l 11.625792,0.0792 -1.30704,0.60948 c -1.54179,0.71893 -3.65778,2.89318 -4.3466,4.46627 -0.26873,0.61369 -0.57148,1.68135 -0.67279,2.37258 l -0.1842,1.25677 -7.312145,-0.0396 c -4.02168,-0.0218 -7.669334,-0.0813 -8.105897,-0.13219 z M 65.292336,166.27124 c 0.408839,-0.21142 0.897158,-0.75574 1.085152,-1.2096 0.291243,-0.70312 0.277395,-0.96027 -0.09361,-1.73828 -0.239479,-0.50219 -0.74146,-1.02944 -1.115513,-1.17165 -0.374054,-0.14222 -3.357165,-0.25858 -6.629137,-0.25858 -6.575702,0 -7.166923,0.11985 -7.769676,1.57503 -0.425904,1.02822 0.0206,2.2456 1.023546,2.79069 1.017842,0.55319 12.433191,0.56366 13.49924,0.0124 z M 41.545742,115.32647 c 0,-0.3638 0.06005,-0.51263 0.133452,-0.33073 0.0734,0.1819 0.0734,0.47956 0,0.66146 -0.0734,0.1819 -0.133452,0.0331 -0.133452,-0.33073 z m 130.968738,0 c 0,-0.3638 0.0601,-0.51263 0.13346,-0.33073 0.0734,0.1819 0.0734,0.47956 0,0.66146 -0.0734,0.1819 -0.13346,0.0331 -0.13346,-0.33073 z m -20.74542,-0.7044 c 0.18191,-0.0734 0.47956,-0.0734 0.66146,0 0.1819,0.0734 0.0331,0.13346 -0.33073,0.13346 -0.3638,0 -0.51263,-0.0601 -0.33073,-0.13346 z M 54.733132,85.82543 c 0.341774,-0.363803 0.680939,-0.661459 0.753699,-0.661459 0.07276,0 -0.147342,0.297656 -0.489116,0.661459 -0.341774,0.363802 -0.680939,0.661458 -0.7537,0.661458 -0.07276,0 0.147342,-0.297656 0.489117,-0.661458 z m 104.617568,0.06615 -0.50403,-0.595312 0.59531,0.504028 c 0.55945,0.473662 0.71576,0.686597 0.50403,0.686597 -0.0502,0 -0.3181,-0.267891 -0.59531,-0.595313 z M 57.246673,83.311888 c 0.263389,-0.291042 0.538421,-0.529167 0.611181,-0.529167 0.07276,0 -0.08321,0.238125 -0.346598,0.529167 -0.263389,0.291042 -0.53842,0.529167 -0.61118,0.529167 -0.07276,0 0.08321,-0.238125 0.346597,-0.529167 z m 99.193607,-0.330729 -0.50403,-0.595313 0.59531,0.504028 c 0.32743,0.277216 0.59532,0.545106 0.59532,0.595313 0,0.211733 -0.21294,0.05542 -0.6866,-0.504028 z M 102.55657,64.88041 c 0.1819,-0.0734 0.47955,-0.0734 0.66146,0 0.1819,0.0734 0.0331,0.133453 -0.33073,0.133453 -0.36381,0 -0.51263,-0.06005 -0.33073,-0.133453 z m 8.46666,0 c 0.1819,-0.0734 0.47956,-0.0734 0.66146,0 0.1819,0.0734 0.0331,0.133453 -0.33073,0.133453 -0.3638,0 -0.51263,-0.06005 -0.33073,-0.133453 z"
         id="path316" /><path
         style="display:inline;fill:#afcbdc;stroke-width:0.264583"
         d="m 102.22584,177.76813 c -17.428926,-0.12103 -19.121399,-0.17135 -19.889038,-0.59132 -2.827914,-1.54712 -2.92047,-5.93486 -0.161377,-7.65024 l 1.000414,-0.62198 22.357291,-0.0743 c 19.9847,-0.0664 22.47582,-0.0293 23.47424,0.34974 2.14097,0.81272 3.35284,3.12167 2.73695,5.21463 -0.33309,1.13194 -1.28632,2.36468 -2.2664,2.93098 -0.84236,0.48672 -6.84458,0.58417 -27.25208,0.44245 z M 150.38,170.9646 c 8.70618,-0.18578 16.27228,-0.19019 16.27209,-0.01 -1.2e-4,0.10914 -4.43529,0.17244 -9.85594,0.14066 -5.42065,-0.0318 -8.30792,-0.0908 -6.41615,-0.13117 z m -7.25515,-4.46331 c 0.0127,-0.30822 0.0754,-0.37091 0.15985,-0.15985 0.0764,0.191 0.067,0.4192 -0.0209,0.50712 -0.0879,0.0879 -0.15045,-0.0683 -0.13896,-0.34727 z m -91.812098,-0.80738 c -0.301604,-0.38343 -0.54837,-1.02221 -0.54837,-1.41953 0,-0.39731 0.246766,-1.0361 0.54837,-1.41952 l 0.54837,-0.69714 h 6.708468 6.708467 l 0.548371,0.69714 c 0.698634,0.88817 0.698634,1.95088 0,2.83905 l -0.548371,0.69714 H 58.56959 51.861122 Z m 92.849538,-2.04859 c 0,-0.0549 0.20836,-0.2633 0.46302,-0.46302 0.41965,-0.32911 0.42901,-0.31975 0.0999,0.0999 -0.34564,0.44073 -0.56292,0.58088 -0.56292,0.36312 z m 10.31875,-1.4876 -7.54062,-0.14472 7.45886,-0.0599 c 4.75292,-0.0382 7.51819,0.0361 7.62239,0.20465 0.0899,0.14552 0.12673,0.23761 0.0818,0.20465 -0.045,-0.033 -3.47504,-0.12506 -7.62239,-0.20465 z M 52.881048,140.10449 c 0,-14.55359 0.06399,-15.51461 1.068769,-16.05236 0.266169,-0.14245 1.847799,-0.25899 3.514734,-0.25899 2.493752,0 3.131411,0.082 3.598647,0.46302 0.389141,0.3173 2.222635,4.87633 5.825772,14.48593 l 5.257917,14.02292 -5.083091,0.17776 c -2.795698,0.0978 -7.018798,0.42519 -9.384666,0.7276 -2.365867,0.30242 -4.41329,0.54985 -4.549829,0.54985 -0.151513,0 -0.248253,-5.50069 -0.248253,-14.11573 z m 52.122912,-6.25719 v -19.05 h 2.11667 2.11667 v 19.05 19.05 h -2.11667 -2.11667 z M 43.571023,119.90823 c 0.190996,-0.0764 0.419199,-0.067 0.507118,0.0209 0.08792,0.0879 -0.06835,0.15045 -0.347266,0.13896 -0.308224,-0.0127 -0.370919,-0.0754 -0.159852,-0.15985 z m 126.454287,0.005 c 0.1819,-0.0734 0.47956,-0.0734 0.66146,0 0.1819,0.0734 0.0331,0.13346 -0.33073,0.13346 -0.3638,0 -0.51263,-0.0601 -0.33073,-0.13346 z M 59.694069,114.62207 c 0.181901,-0.0734 0.479557,-0.0734 0.661458,0 0.181901,0.0734 0.03307,0.13345 -0.330729,0.13345 -0.363802,0 -0.51263,-0.0601 -0.330729,-0.13345 z m 4.514453,-0.006 c 0.190996,-0.0764 0.419199,-0.067 0.507118,0.0209 0.08792,0.0879 -0.06835,0.15045 -0.347266,0.13896 -0.308224,-0.0127 -0.370919,-0.0754 -0.159852,-0.15985 z m 85.460408,0 c 0.191,-0.0764 0.4192,-0.067 0.50712,0.0209 0.0879,0.0879 -0.0684,0.15045 -0.34726,0.13896 -0.30823,-0.0127 -0.37092,-0.0754 -0.15986,-0.15985 z m 4.49792,0 c 0.191,-0.0764 0.4192,-0.067 0.50712,0.0209 0.0879,0.0879 -0.0684,0.15045 -0.34727,0.13896 -0.30822,-0.0127 -0.37092,-0.0754 -0.15985,-0.15985 z m 18.06216,-1.29651 c 0.0127,-0.30823 0.0754,-0.37092 0.15986,-0.15986 0.0764,0.191 0.067,0.4192 -0.0209,0.50712 -0.0879,0.0879 -0.15045,-0.0683 -0.13896,-0.34726 z M 53.145632,87.70991 c 0,-0.05494 0.208359,-0.263302 0.46302,-0.463021 0.419644,-0.329108 0.429003,-0.319749 0.0999,0.0999 -0.345643,0.440729 -0.562915,0.580887 -0.562915,0.363126 z m 52.585938,-22.8295 c 0.1819,-0.0734 0.47955,-0.0734 0.66145,0 0.18191,0.0734 0.0331,0.133453 -0.33072,0.133453 -0.36381,0 -0.51263,-0.06005 -0.33073,-0.133453 z m 2.11666,0 c 0.1819,-0.0734 0.47956,-0.0734 0.66146,0 0.1819,0.0734 0.0331,0.133453 -0.33073,0.133453 -0.3638,0 -0.51263,-0.06005 -0.33073,-0.133453 z"
         id="path312" /><path
         style="display:inline;fill:#808bfd;stroke-width:0.264583"
         d="m 145.48252,170.29365 c -1.40715,-0.95769 -1.93568,-1.87584 -2.05411,-3.56831 -0.0892,-1.27509 -0.004,-1.67559 0.51833,-2.44466 0.34376,-0.50586 1.02933,-1.19221 1.52349,-1.52522 0.89209,-0.60118 0.95371,-0.60498 8.68504,-0.53546 l 7.78658,0.07 2.21501,4.10104 c 1.21826,2.25557 2.21848,4.19034 2.22273,4.29948 0.004,0.10914 -4.49906,0.19844 -10.00734,0.19844 -9.9504,0 -10.02068,-0.004 -10.88973,-0.59532 z M 81.734481,121.19658 c -0.210664,-0.0705 -1.277974,-0.71247 -2.371804,-1.42653 -9.80201,-6.39882 -21.521776,-6.90605 -31.986358,-1.38437 -2.902815,1.53168 -3.991473,1.74705 -5.057358,1.00047 -0.620135,-0.43435 -0.624253,-0.47001 -0.466057,-4.03489 0.510928,-11.51352 6.012652,-22.849335 15.404405,-31.739412 7.155474,-6.773253 17.741227,-12.65392 28.212242,-15.672648 5.268648,-1.518918 13.630642,-2.898818 17.416119,-2.874016 l 1.45683,0.0095 -1.35244,0.487009 c -8.458927,3.046019 -15.606844,15.129929 -18.872773,31.905358 -1.173327,6.026789 -1.639022,10.481469 -1.827911,17.485109 -0.145468,5.39366 -0.230711,6.35291 -0.554895,6.24438 z m 50.179299,-6.88389 c -0.25077,-12.04413 -2.04373,-21.101391 -6.32018,-31.926844 -3.24184,-8.206412 -8.73448,-14.714092 -14.10473,-16.711275 l -1.59012,-0.59136 1.45683,-0.01379 c 2.71894,-0.02573 8.79045,0.782385 13.09526,1.742969 12.01558,2.681181 24.34296,9.046797 32.53311,16.799454 9.40206,8.899832 14.92081,20.309376 15.41613,31.871526 0.14654,3.42053 0.14052,3.46971 -0.47752,3.9026 -1.07859,0.75547 -2.13951,0.53074 -5.31494,-1.12584 -1.64915,-0.86034 -4.01048,-1.8799 -5.24741,-2.26569 -8.80232,-2.74534 -18.50692,-1.41546 -26.20003,3.59034 -1.23347,0.80261 -2.43546,1.53233 -2.67108,1.6216 -0.38595,0.14624 -0.44296,-0.53686 -0.57532,-6.89369 z m -27.76971,0.30938 c 0.1819,-0.0734 0.47955,-0.0734 0.66145,0 0.18191,0.0734 0.0331,0.13346 -0.33072,0.13346 -0.36381,0 -0.51263,-0.0601 -0.33073,-0.13346 z m 1.98437,-0.0175 c 0.5457,-0.0571 1.43867,-0.0571 1.98438,0 0.5457,0.0571 0.0992,0.10378 -0.99219,0.10378 -1.09141,0 -1.53789,-0.0467 -0.99219,-0.10378 z m 3.30729,0.0175 c 0.1819,-0.0734 0.47956,-0.0734 0.66146,0 0.1819,0.0734 0.0331,0.13346 -0.33073,0.13346 -0.3638,0 -0.51263,-0.0601 -0.33073,-0.13346 z M 106.7899,64.88041 c 0.1819,-0.0734 0.47956,-0.0734 0.66146,0 0.1819,0.0734 0.0331,0.133453 -0.33073,0.133453 -0.3638,0 -0.51263,-0.06005 -0.33073,-0.133453 z"
         id="path310" /><path
         style="fill:#e6bb5a;stroke-width:0.264583"
         d="m 106.85605,195.51238 c -2.26675,-0.69201 -4.38335,-2.47574 -5.46864,-4.60859 -2.310556,-4.54077 -0.34257,-10.09338 4.35831,-12.29688 1.48443,-0.69581 1.60501,-0.70781 7.98187,-0.7939 7.83005,-0.1057 8.46042,-0.0305 9.78689,1.16791 1.57766,1.42531 1.63635,1.73852 1.54632,8.25145 -0.0898,6.49353 -0.12009,6.61014 -2.06248,7.93212 -0.85715,0.58337 -1.02122,0.59485 -8.17776,0.57257 -4.01668,-0.0125 -7.60071,-0.11362 -7.96451,-0.22468 z"
         id="path308" /><path
         style="fill:#7986f5;stroke-width:0.264583"
         d="m 103.36685,114.61656 c 0.191,-0.0764 0.4192,-0.067 0.50712,0.0209 0.0879,0.0879 -0.0683,0.15045 -0.34726,0.13896 -0.30823,-0.0127 -0.37092,-0.0754 -0.15986,-0.15985 z m 7.14375,0 c 0.191,-0.0764 0.4192,-0.067 0.50712,0.0209 0.0879,0.0879 -0.0683,0.15045 -0.34726,0.13896 -0.30823,-0.0127 -0.37092,-0.0754 -0.15986,-0.15985 z m -28.178817,-2.06822 c 0.0016,-0.87312 0.05088,-1.19841 0.109765,-0.72286 0.05889,0.47555 0.05767,1.18992 -0.0027,1.5875 -0.06037,0.39758 -0.108551,0.008 -0.107067,-0.86464 z m 49.470767,-1.5875 c 0.002,-0.7276 0.0534,-0.99385 0.11419,-0.59167 0.0608,0.40218 0.0592,0.9975 -0.004,1.32292 -0.0628,0.32542 -0.11256,-0.004 -0.11058,-0.73125 z m -49.226786,-2.77812 c 0,-0.50932 0.05445,-0.71768 0.121001,-0.46302 0.06655,0.25466 0.06655,0.67138 0,0.92604 -0.06655,0.25466 -0.121001,0.0463 -0.121001,-0.46302 z m 48.938106,-0.92604 c 0.005,-0.43656 0.0647,-0.58313 0.13178,-0.3257 0.0671,0.25744 0.0627,0.61462 -0.01,0.79375 -0.0725,0.17914 -0.12736,-0.0315 -0.12197,-0.46805 z m -48.693131,-1.71979 c 0,-0.36381 0.06005,-0.51263 0.133453,-0.33073 0.0734,0.1819 0.0734,0.47956 0,0.66146 -0.0734,0.1819 -0.133453,0.0331 -0.133453,-0.33073 z m 48.418751,-0.52917 c 0,-0.3638 0.0601,-0.51263 0.13345,-0.33073 0.0734,0.1819 0.0734,0.47956 0,0.66146 -0.0734,0.1819 -0.13345,0.0331 -0.13345,-0.33073 z m -48.154168,-1.5875 c 0,-0.3638 0.06005,-0.51263 0.133453,-0.33073 0.0734,0.1819 0.0734,0.47956 0,0.66146 -0.0734,0.1819 -0.133453,0.0331 -0.133453,-0.33073 z m 47.868698,-0.41892 c 0.0127,-0.30823 0.0754,-0.37092 0.15985,-0.15986 0.0764,0.191 0.067,0.4192 -0.0209,0.50712 -0.0879,0.0879 -0.15045,-0.0684 -0.13896,-0.34726 z m -47.625001,-1.5875 c 0.0127,-0.30823 0.07539,-0.37092 0.159851,-0.15986 0.07643,0.191 0.06703,0.4192 -0.02088,0.50712 -0.08792,0.0879 -0.150453,-0.0683 -0.138964,-0.34726 z m 47.360411,-0.26459 c 0.0127,-0.30822 0.0754,-0.37091 0.15985,-0.15985 0.0764,0.191 0.067,0.4192 -0.0209,0.50712 -0.0879,0.0879 -0.15045,-0.0684 -0.13897,-0.34727 z M 83.593602,99.826298 c 0.0127,-0.308227 0.07539,-0.37092 0.159851,-0.159854 0.07643,0.190995 0.06703,0.419196 -0.02088,0.507116 -0.08792,0.0879 -0.150452,-0.0683 -0.138964,-0.347262 z m 46.566668,-1.5875 c 0.0127,-0.308226 0.0754,-0.37092 0.15985,-0.159853 0.0764,0.190994 0.067,0.419197 -0.0209,0.507118 -0.0879,0.08792 -0.15045,-0.06835 -0.13896,-0.347265 z M 94.42063,72.099494 c 0,-0.05494 0.208359,-0.263302 0.46302,-0.463021 0.419645,-0.329108 0.429004,-0.319749 0.0999,0.0999 -0.345644,0.440729 -0.562917,0.580887 -0.562917,0.363126 z m 24.83708,-0.363126 c -0.32911,-0.419644 -0.31975,-0.429003 0.0999,-0.0999 0.44073,0.345643 0.58088,0.562916 0.36312,0.562916 -0.0549,0 -0.2633,-0.20836 -0.46302,-0.463021 z M 97.860213,68.659911 c 0,-0.05494 0.208359,-0.263302 0.463021,-0.463021 0.419645,-0.329108 0.429003,-0.319749 0.0999,0.0999 -0.345644,0.440729 -0.562917,0.580887 -0.562917,0.363126 z m 17.957917,-0.363126 c -0.32911,-0.419644 -0.31975,-0.429003 0.0999,-0.0999 0.25467,0.199719 0.46303,0.408078 0.46303,0.463021 0,0.217761 -0.21728,0.0776 -0.56292,-0.363126 z"
         id="path306" /><path
         style="fill:#5d70d2;stroke-width:0.264583"
         d="m 82.252162,118.56762 c 0.01979,-23.80613 7.18611,-44.574664 17.718619,-51.349972 3.358659,-2.16054 7.479839,-2.767518 10.928509,-1.609573 6.1568,2.067244 11.67125,8.829738 15.35337,18.82817 3.69753,10.040305 5.36637,19.087545 5.66135,30.691785 0.10432,4.10376 0.0683,6.28386 -0.10384,6.28386 -0.14497,0 -1.74106,-0.76232 -3.54687,-1.69405 -6.88798,-3.55391 -13.51041,-5.17479 -21.14267,-5.17479 -7.632261,0 -14.254695,1.62088 -21.142669,5.17479 -1.80581,0.93173 -3.383388,1.69405 -3.505729,1.69405 -0.122338,0 -0.221371,-1.27993 -0.22007,-2.84427 z"
         id="path304" /></g></g></svg>
