<svg xmlns="http://www.w3.org/2000/svg" width="26" height="26" fill="none" viewBox="0 0 26 26">
  <path fill="#47C78F" fill-opacity=".3" fill-rule="evenodd" d="M7.546 0C6.324 0 5.334.99 5.334 2.212V15.51h9.394V0H7.546Zm11.077 0h-3.878v15.51h4.51a2.226 2.226 0 0 1-1.733-2.169 2.212 2.212 0 0 1 3.322-1.914V2.212A2.214 2.214 0 0 0 18.623 0Zm2.221 15.51v-.248a2.37 2.37 0 0 1-.633.248h.633Z" clip-rule="evenodd"/>
  <path fill="#47C78F" fill-rule="evenodd" d="m16.167 4.62-2.495-2.495a.831.831 0 0 0-1.176 0L10.001 4.62a.833.833 0 0 0 1.177 1.176l1.075-1.075v3.731a.832.832 0 1 0 1.663 0v-3.73l1.075 1.074a.831.831 0 1 0 1.176-1.176" clip-rule="evenodd"/>
  <mask id="a" width="23" height="16" x="2" y="10" maskUnits="userSpaceOnUse" style="mask-type:alpha">
    <path fill="#fff" fill-rule="evenodd" d="M2 10.43h22.17V26H2V10.43Z" clip-rule="evenodd"/>
  </mask>
  <g mask="url(#a)">
    <path fill="#47C78F" fill-rule="evenodd" d="M20.21 20.18c-1.09 0-1.97-.88-1.97-1.97 0-1.09.88-1.97 1.97-1.97 1.09 0 1.97.88 1.97 1.97 0 1.09-.88 1.97-1.97 1.97m1.74-9.75H4.22c-1.23 0-2.22.87-2.22 1.95v11.68C2 25.13 2.99 26 4.22 26h17.73c1.23 0 2.22-.87 2.22-1.94V12.38c0-1.08-.99-1.95-2.22-1.95" clip-rule="evenodd"/>
  </g>
</svg>
